G04 #@! TF.GenerationSoftware,KiCad,Pcbnew,(5.1.2)-1*
G04 #@! TF.CreationDate,2021-07-03T10:16:44+09:00*
G04 #@! TF.ProjectId,hdmi,68646d69-2e6b-4696-9361-645f70636258,v1.5*
G04 #@! TF.SameCoordinates,Original*
G04 #@! TF.FileFunction,Copper,L2,Bot*
G04 #@! TF.FilePolarity,Positive*
%FSLAX46Y46*%
G04 Gerber Fmt 4.6, Leading zero omitted, Abs format (unit mm)*
G04 Created by KiCad (PCBNEW (5.1.2)-1) date 2021-07-03 10:16:44*
%MOMM*%
%LPD*%
G04 APERTURE LIST*
%ADD10C,1.524000*%
%ADD11R,3.000000X0.600000*%
%ADD12R,2.000000X0.600000*%
%ADD13O,1.727200X2.032000*%
%ADD14C,0.800000*%
%ADD15C,0.200000*%
%ADD16C,0.254000*%
G04 APERTURE END LIST*
D10*
X172768000Y-86575000D03*
X170228000Y-86575000D03*
X172768000Y-84035000D03*
X170228000Y-84035000D03*
X172768000Y-81495000D03*
X170228000Y-81495000D03*
X172768000Y-78955000D03*
X170228000Y-78955000D03*
D11*
X123498000Y-96665000D03*
X123498000Y-111065000D03*
D12*
X122998000Y-99865000D03*
X122998000Y-100865000D03*
X122998000Y-101865000D03*
X122998000Y-102865000D03*
X122998000Y-103865000D03*
X122998000Y-104865000D03*
X122998000Y-105865000D03*
X122998000Y-106865000D03*
X122998000Y-107865000D03*
D13*
X156718000Y-123825000D03*
X154178000Y-123825000D03*
X151638000Y-123825000D03*
X149098000Y-123825000D03*
X146558000Y-123825000D03*
X144018000Y-123825000D03*
X141478000Y-123825000D03*
X138938000Y-123825000D03*
X161798000Y-123825000D03*
X164338000Y-123825000D03*
X166878000Y-123825000D03*
X169418000Y-123825000D03*
X171958000Y-123825000D03*
X174498000Y-123825000D03*
X129794000Y-75565000D03*
X132334000Y-75565000D03*
X134874000Y-75565000D03*
X137414000Y-75565000D03*
X139954000Y-75565000D03*
X142494000Y-75565000D03*
X145034000Y-75565000D03*
X147574000Y-75565000D03*
X150114000Y-75565000D03*
X152654000Y-75565000D03*
X156718000Y-75565000D03*
X159258000Y-75565000D03*
X161798000Y-75565000D03*
X164338000Y-75565000D03*
X166878000Y-75565000D03*
X169418000Y-75565000D03*
X171958000Y-75565000D03*
X174498000Y-75565000D03*
D14*
X145227500Y-80602800D03*
X153994300Y-86151400D03*
X149203200Y-79991200D03*
X162362700Y-88785100D03*
X160032200Y-81878100D03*
X140440500Y-93034200D03*
X122798000Y-89665000D03*
X130998000Y-83365000D03*
X147998000Y-91365000D03*
X174998000Y-94365000D03*
X174998000Y-115965000D03*
X125698000Y-120265000D03*
X134298000Y-120265000D03*
X126898000Y-109565000D03*
X131398000Y-106665000D03*
X141298000Y-102265000D03*
X135598000Y-99465000D03*
X135798000Y-103265000D03*
X139498000Y-98465000D03*
X132798000Y-95565000D03*
X125698000Y-98065000D03*
X154698000Y-76665000D03*
X152798000Y-82465000D03*
X166998000Y-79565000D03*
X144998000Y-82565000D03*
X145393272Y-101859102D03*
X144372160Y-96459160D03*
X145849381Y-108030682D03*
X158608000Y-118145000D03*
X171307900Y-98674200D03*
X142598000Y-103765000D03*
X134598000Y-108865000D03*
X133728000Y-100751600D03*
X133702700Y-106264700D03*
X133702700Y-103615000D03*
X170934200Y-96294400D03*
X169494500Y-104346500D03*
X135548100Y-96767900D03*
X149247900Y-88533100D03*
X126327000Y-100394000D03*
X127069000Y-101136000D03*
X128127000Y-103194000D03*
X128869000Y-103936000D03*
X169838000Y-108145000D03*
X166758000Y-112785000D03*
X168176800Y-84590000D03*
X167308021Y-106385000D03*
X135834800Y-94545000D03*
X143127900Y-84166300D03*
X166098000Y-118365000D03*
X169021435Y-110076474D03*
X171148000Y-108155000D03*
X168528000Y-112825000D03*
X140548000Y-94415000D03*
X153128000Y-94425000D03*
X140948000Y-97065000D03*
X150868000Y-94445000D03*
X150308000Y-100815000D03*
X148817640Y-102182143D03*
X142038000Y-99425000D03*
X160428000Y-97225000D03*
X146718000Y-101395000D03*
X149008009Y-100822132D03*
X147348000Y-99659000D03*
X154678000Y-99155000D03*
X145958000Y-99665000D03*
X153458007Y-99091066D03*
X162628000Y-102355000D03*
X157437976Y-100825000D03*
X146454456Y-98106770D03*
X160418000Y-99748736D03*
X161568000Y-102815000D03*
X147118000Y-96235000D03*
X154768022Y-103845000D03*
X146478000Y-110325000D03*
X143168000Y-109025000D03*
X146736711Y-102895012D03*
X147728000Y-103995000D03*
X145392418Y-109378042D03*
X156766000Y-103084977D03*
X151094234Y-112506766D03*
X146969670Y-106108064D03*
X152008000Y-104155000D03*
X151873869Y-105174095D03*
X152038840Y-108974160D03*
X158108000Y-105085000D03*
X148947994Y-106025000D03*
X161398000Y-105305000D03*
X151440484Y-106053072D03*
X148378000Y-113325000D03*
X157114084Y-107226663D03*
X147912000Y-111710000D03*
X153578887Y-110104809D03*
X144348000Y-112025000D03*
X152188000Y-111095032D03*
X152998000Y-114465000D03*
X156543636Y-108961142D03*
X130166000Y-112009800D03*
X157450300Y-88424600D03*
X161346500Y-108582600D03*
X139703700Y-84166100D03*
X165140700Y-84654500D03*
X161788000Y-111055000D03*
X158478000Y-87354800D03*
X139707300Y-86004800D03*
X162453751Y-108535271D03*
X163775700Y-87443900D03*
X164604700Y-108315010D03*
X158202200Y-83123100D03*
X162794600Y-84148100D03*
X166858000Y-108255000D03*
X164772200Y-85704200D03*
X159331500Y-91055600D03*
X159335300Y-85185700D03*
X167466600Y-99838800D03*
X160228007Y-119974993D03*
X168496167Y-111815231D03*
X165118000Y-111005000D03*
X156687982Y-119935000D03*
X152327990Y-116505000D03*
X160858000Y-112905000D03*
X160808000Y-111865000D03*
X148838000Y-116554984D03*
X166708000Y-102435000D03*
X166648000Y-97745000D03*
X163818000Y-93965000D03*
D15*
X140189700Y-75565000D02*
X139954000Y-75565000D01*
X145227500Y-80602800D02*
X140189700Y-75565000D01*
X143119400Y-75565000D02*
X142494000Y-75565000D01*
X153994300Y-86151400D02*
X153705800Y-86151400D01*
X153705800Y-86151400D02*
X143119400Y-75565000D01*
X145034000Y-75565000D02*
X145034000Y-76881300D01*
X149203200Y-79991200D02*
X146093300Y-76881300D01*
X146093300Y-76881300D02*
X145034000Y-76881300D01*
X156718000Y-76881300D02*
X156718000Y-84124800D01*
X156718000Y-84124800D02*
X161378300Y-88785100D01*
X161378300Y-88785100D02*
X162362700Y-88785100D01*
X156718000Y-75565000D02*
X156718000Y-76881300D01*
X165714100Y-75565000D02*
X165714100Y-76196200D01*
X165714100Y-76196200D02*
X160032200Y-81878100D01*
X166878000Y-75565000D02*
X165714100Y-75565000D01*
X139623300Y-97492900D02*
X139623300Y-93851400D01*
X139623300Y-93851400D02*
X140440500Y-93034200D01*
X139623300Y-97492900D02*
X135272300Y-97492900D01*
X135272300Y-97492900D02*
X134444400Y-96665000D01*
X134444400Y-96665000D02*
X125298300Y-96665000D01*
X123498000Y-96665000D02*
X125298300Y-96665000D01*
X122279200Y-107933700D02*
X121697700Y-108515200D01*
X121697700Y-108515200D02*
X121697700Y-111065000D01*
X122347900Y-107865000D02*
X122279200Y-107933700D01*
X122279200Y-107933700D02*
X121697700Y-107352300D01*
X121697700Y-107352300D02*
X121697700Y-104865000D01*
X122998000Y-104865000D02*
X121697700Y-104865000D01*
X123498000Y-96665000D02*
X121697700Y-96665000D01*
X121697700Y-96665000D02*
X121697700Y-104865000D01*
X123498000Y-111065000D02*
X121697700Y-111065000D01*
X122998000Y-107865000D02*
X122347900Y-107865000D01*
X129098000Y-83365000D02*
X122798000Y-89665000D01*
X130998000Y-83365000D02*
X129098000Y-83365000D01*
X141298000Y-99665000D02*
X141298000Y-102265000D01*
X140098000Y-98465000D02*
X141298000Y-99665000D01*
X139498000Y-98465000D02*
X140098000Y-98465000D01*
X135798000Y-99665000D02*
X135598000Y-99465000D01*
X135798000Y-103265000D02*
X135798000Y-99665000D01*
X123498000Y-96665000D02*
X123498000Y-97965000D01*
X123598000Y-98065000D02*
X125698000Y-98065000D01*
X123498000Y-97965000D02*
X123598000Y-98065000D01*
X152798000Y-78565000D02*
X154698000Y-76665000D01*
X152798000Y-82465000D02*
X152798000Y-78565000D01*
X144008700Y-103243674D02*
X144008700Y-106797898D01*
X145393272Y-101859102D02*
X144008700Y-103243674D01*
X142077999Y-108728599D02*
X142077999Y-109491401D01*
X142077999Y-109491401D02*
X142453798Y-109867200D01*
X144008700Y-106797898D02*
X142077999Y-108728599D01*
X142453798Y-109867200D02*
X144919396Y-109867200D01*
X141703898Y-101859102D02*
X141298000Y-102265000D01*
X145393272Y-101859102D02*
X141703898Y-101859102D01*
X139897999Y-97767599D02*
X139735400Y-97605000D01*
X139897999Y-98065001D02*
X139897999Y-97767599D01*
X139498000Y-98465000D02*
X139897999Y-98065001D01*
X139735400Y-97605000D02*
X139623300Y-97492900D01*
X142933620Y-97897700D02*
X143972161Y-96859159D01*
X143972161Y-96859159D02*
X144372160Y-96459160D01*
X140028100Y-97897700D02*
X142933620Y-97897700D01*
X139735400Y-97605000D02*
X140028100Y-97897700D01*
X144357998Y-109305802D02*
X144357998Y-108956380D01*
X144357998Y-108956380D02*
X145283696Y-108030682D01*
X144919396Y-109867200D02*
X144357998Y-109305802D01*
X145283696Y-108030682D02*
X145849381Y-108030682D01*
X154178000Y-122609000D02*
X154178000Y-123825000D01*
X142887998Y-111898598D02*
X142887998Y-113001402D01*
X144919396Y-109867200D02*
X142887998Y-111898598D01*
X142887998Y-113001402D02*
X143241598Y-113355002D01*
X143241598Y-113355002D02*
X143778002Y-113355002D01*
X143778002Y-113355002D02*
X153032000Y-122609000D01*
X153032000Y-122609000D02*
X154178000Y-122609000D01*
X134444400Y-78534600D02*
X134444400Y-96665000D01*
X137414000Y-75565000D02*
X134444400Y-78534600D01*
X170228000Y-86575000D02*
X170228000Y-97594300D01*
X170228000Y-97594300D02*
X171307900Y-98674200D01*
X142598000Y-103765000D02*
X139698000Y-103765000D01*
X139698000Y-103765000D02*
X134598000Y-108865000D01*
X133702700Y-103615000D02*
X133728000Y-103589700D01*
X133728000Y-103589700D02*
X133728000Y-100751600D01*
X133702700Y-103615000D02*
X133702700Y-106264700D01*
X172768000Y-84035000D02*
X171498000Y-85305000D01*
X171498000Y-85305000D02*
X171498000Y-95730600D01*
X171498000Y-95730600D02*
X170934200Y-96294400D01*
X170228000Y-81495000D02*
X169163300Y-82559700D01*
X169163300Y-82559700D02*
X169163300Y-104015300D01*
X169163300Y-104015300D02*
X169494500Y-104346500D01*
X135548100Y-96767900D02*
X143782900Y-88533100D01*
X143782900Y-88533100D02*
X149247900Y-88533100D01*
X126327000Y-100394000D02*
X126327000Y-100818000D01*
X126327000Y-100818000D02*
X124005000Y-103140000D01*
X124005000Y-103140000D02*
X123973000Y-103140000D01*
X123973000Y-103140000D02*
X123698000Y-102865000D01*
X123698000Y-102865000D02*
X122998000Y-102865000D01*
X127069000Y-101136000D02*
X126645000Y-101136000D01*
X126645000Y-101136000D02*
X124191000Y-103590000D01*
X124191000Y-103590000D02*
X123973000Y-103590000D01*
X123973000Y-103590000D02*
X123698000Y-103865000D01*
X123698000Y-103865000D02*
X122998000Y-103865000D01*
X122998000Y-105865000D02*
X124498000Y-105865000D01*
X124498000Y-105865000D02*
X124773000Y-106140000D01*
X124773000Y-106140000D02*
X125605000Y-106140000D01*
X125605000Y-106140000D02*
X125631000Y-106113000D01*
X125631000Y-106113000D02*
X125739000Y-106028000D01*
X125739000Y-106028000D02*
X125862000Y-105968000D01*
X125862000Y-105968000D02*
X125996000Y-105938000D01*
X125996000Y-105938000D02*
X126133000Y-105938000D01*
X126133000Y-105938000D02*
X126267000Y-105968000D01*
X126267000Y-105968000D02*
X126390000Y-106028000D01*
X126390000Y-106028000D02*
X126497000Y-106113000D01*
X126497000Y-106113000D02*
X126789000Y-106405000D01*
X126789000Y-106405000D02*
X126824000Y-106433000D01*
X126824000Y-106433000D02*
X126865000Y-106453000D01*
X126865000Y-106453000D02*
X126908000Y-106462000D01*
X126908000Y-106462000D02*
X126953000Y-106462000D01*
X126953000Y-106462000D02*
X126997000Y-106453000D01*
X126997000Y-106453000D02*
X127037000Y-106433000D01*
X127037000Y-106433000D02*
X127072000Y-106405000D01*
X127072000Y-106405000D02*
X127100000Y-106370000D01*
X127100000Y-106370000D02*
X127119000Y-106330000D01*
X127119000Y-106330000D02*
X127129000Y-106286000D01*
X127129000Y-106286000D02*
X127129000Y-106241000D01*
X127129000Y-106241000D02*
X127119000Y-106198000D01*
X127119000Y-106198000D02*
X127100000Y-106157000D01*
X127100000Y-106157000D02*
X127072000Y-106122000D01*
X127072000Y-106122000D02*
X126780000Y-105831000D01*
X126780000Y-105831000D02*
X126695000Y-105723000D01*
X126695000Y-105723000D02*
X126635000Y-105600000D01*
X126635000Y-105600000D02*
X126605000Y-105466000D01*
X126605000Y-105466000D02*
X126605000Y-105329000D01*
X126605000Y-105329000D02*
X126635000Y-105195000D01*
X126635000Y-105195000D02*
X126695000Y-105072000D01*
X126695000Y-105072000D02*
X126780000Y-104964000D01*
X126780000Y-104964000D02*
X126807000Y-104938000D01*
X126807000Y-104938000D02*
X128127000Y-103618000D01*
X128127000Y-103618000D02*
X128127000Y-103194000D01*
X122998000Y-106865000D02*
X124498000Y-106865000D01*
X124498000Y-106865000D02*
X124773000Y-106590000D01*
X124773000Y-106590000D02*
X125791000Y-106590000D01*
X125791000Y-106590000D02*
X125923000Y-106458000D01*
X125923000Y-106458000D02*
X125958000Y-106430000D01*
X125958000Y-106430000D02*
X125998000Y-106411000D01*
X125998000Y-106411000D02*
X126042000Y-106401000D01*
X126042000Y-106401000D02*
X126087000Y-106401000D01*
X126087000Y-106401000D02*
X126130000Y-106411000D01*
X126130000Y-106411000D02*
X126171000Y-106430000D01*
X126171000Y-106430000D02*
X126206000Y-106458000D01*
X126206000Y-106458000D02*
X126498000Y-106750000D01*
X126498000Y-106750000D02*
X126605000Y-106835000D01*
X126605000Y-106835000D02*
X126728000Y-106895000D01*
X126728000Y-106895000D02*
X126862000Y-106925000D01*
X126862000Y-106925000D02*
X126999000Y-106925000D01*
X126999000Y-106925000D02*
X127133000Y-106895000D01*
X127133000Y-106895000D02*
X127256000Y-106835000D01*
X127256000Y-106835000D02*
X127364000Y-106750000D01*
X127364000Y-106750000D02*
X127417000Y-106697000D01*
X127417000Y-106697000D02*
X127502000Y-106590000D01*
X127502000Y-106590000D02*
X127562000Y-106466000D01*
X127562000Y-106466000D02*
X127592000Y-106332000D01*
X127592000Y-106332000D02*
X127592000Y-106195000D01*
X127592000Y-106195000D02*
X127562000Y-106061000D01*
X127562000Y-106061000D02*
X127502000Y-105938000D01*
X127502000Y-105938000D02*
X127417000Y-105831000D01*
X127417000Y-105831000D02*
X127125000Y-105539000D01*
X127125000Y-105539000D02*
X127097000Y-105504000D01*
X127097000Y-105504000D02*
X127078000Y-105464000D01*
X127078000Y-105464000D02*
X127068000Y-105420000D01*
X127068000Y-105420000D02*
X127068000Y-105375000D01*
X127068000Y-105375000D02*
X127078000Y-105331000D01*
X127078000Y-105331000D02*
X127097000Y-105291000D01*
X127097000Y-105291000D02*
X127125000Y-105256000D01*
X127125000Y-105256000D02*
X128445000Y-103936000D01*
X128445000Y-103936000D02*
X128869000Y-103936000D01*
X169838000Y-108145000D02*
X166758000Y-111225000D01*
X166758000Y-111225000D02*
X166758000Y-112219315D01*
X166758000Y-112219315D02*
X166758000Y-112785000D01*
X168176800Y-105516221D02*
X167708020Y-105985001D01*
X167708020Y-105985001D02*
X167308021Y-106385000D01*
X168176800Y-84590000D02*
X168176800Y-105516221D01*
X143127900Y-84166300D02*
X142008700Y-83047100D01*
X142008700Y-83047100D02*
X139237100Y-83047100D01*
X139237100Y-83047100D02*
X135834800Y-86449400D01*
X135834800Y-86449400D02*
X135834800Y-94545000D01*
X167447988Y-111649921D02*
X168621436Y-110476473D01*
X167447988Y-117015012D02*
X167447988Y-111649921D01*
X168621436Y-110476473D02*
X169021435Y-110076474D01*
X166098000Y-118365000D02*
X167447988Y-117015012D01*
X171148000Y-108155000D02*
X171148000Y-110205000D01*
X171148000Y-110205000D02*
X168927999Y-112425001D01*
X168927999Y-112425001D02*
X168528000Y-112825000D01*
X152278000Y-93575000D02*
X153128000Y-94425000D01*
X140548000Y-94415000D02*
X141388000Y-93575000D01*
X141388000Y-93575000D02*
X152278000Y-93575000D01*
X150302315Y-94445000D02*
X150868000Y-94445000D01*
X142978000Y-94445000D02*
X150302315Y-94445000D01*
X140948000Y-97065000D02*
X140948000Y-96475000D01*
X140948000Y-96475000D02*
X142978000Y-94445000D01*
X148940857Y-102182143D02*
X148817640Y-102182143D01*
X150308000Y-100815000D02*
X148940857Y-102182143D01*
X160428000Y-96495000D02*
X159348000Y-95415000D01*
X160428000Y-97225000D02*
X160428000Y-96495000D01*
X142368000Y-99425000D02*
X142038000Y-99425000D01*
X159348000Y-95415000D02*
X149991588Y-95415000D01*
X149991588Y-95415000D02*
X149551588Y-94975000D01*
X149551588Y-94975000D02*
X146818000Y-94975000D01*
X146818000Y-94975000D02*
X142368000Y-99425000D01*
X148608010Y-101222131D02*
X149008009Y-100822132D01*
X148435141Y-101395000D02*
X148608010Y-101222131D01*
X146718000Y-101395000D02*
X148435141Y-101395000D01*
X150142000Y-99659000D02*
X152028000Y-101545000D01*
X152288000Y-101545000D02*
X154278001Y-99554999D01*
X147348000Y-99659000D02*
X150142000Y-99659000D01*
X152028000Y-101545000D02*
X152288000Y-101545000D01*
X154278001Y-99554999D02*
X154678000Y-99155000D01*
X146856933Y-98766067D02*
X145958000Y-99665000D01*
X147656933Y-98015840D02*
X147656933Y-98766067D01*
X147664454Y-97949084D02*
X147656933Y-98015840D01*
X147722383Y-97828794D02*
X147686642Y-97885675D01*
X147769886Y-97781291D02*
X147722383Y-97828794D01*
X147826767Y-97745550D02*
X147769886Y-97781291D01*
X147890176Y-97723362D02*
X147826767Y-97745550D01*
X147956933Y-97715840D02*
X147890176Y-97723362D01*
X148023689Y-97723362D02*
X147956933Y-97715840D01*
X148143979Y-97781291D02*
X148087098Y-97745550D01*
X148191482Y-97828794D02*
X148143979Y-97781291D01*
X148227223Y-97885675D02*
X148191482Y-97828794D01*
X148249411Y-97949084D02*
X148227223Y-97885675D01*
X148256933Y-98953681D02*
X148256933Y-98015840D01*
X148282939Y-99067624D02*
X148263517Y-99012117D01*
X148314226Y-99117417D02*
X148282939Y-99067624D01*
X148355809Y-99159000D02*
X148314226Y-99117417D01*
X148405602Y-99190287D02*
X148355809Y-99159000D01*
X148461109Y-99209709D02*
X148405602Y-99190287D01*
X148519546Y-99216294D02*
X148461109Y-99209709D01*
X148594320Y-99216294D02*
X148519546Y-99216294D01*
X148652756Y-99209709D02*
X148594320Y-99216294D01*
X148708263Y-99190287D02*
X148652756Y-99209709D01*
X148758056Y-99159000D02*
X148708263Y-99190287D01*
X148799639Y-99117417D02*
X148758056Y-99159000D01*
X148830926Y-99067624D02*
X148799639Y-99117417D01*
X148850348Y-99012117D02*
X148830926Y-99067624D01*
X148856933Y-98953681D02*
X148850348Y-99012117D01*
X148856933Y-98015840D02*
X148856933Y-98953681D01*
X148864454Y-97949084D02*
X148856933Y-98015840D01*
X148886642Y-97885675D02*
X148864454Y-97949084D01*
X148922383Y-97828794D02*
X148886642Y-97885675D01*
X148969886Y-97781291D02*
X148922383Y-97828794D01*
X149026767Y-97745550D02*
X148969886Y-97781291D01*
X149090176Y-97723362D02*
X149026767Y-97745550D01*
X149156933Y-97715840D02*
X149090176Y-97723362D01*
X149223689Y-97723362D02*
X149156933Y-97715840D01*
X147656933Y-98766067D02*
X146856933Y-98766067D01*
X150826767Y-99636584D02*
X150769886Y-99600843D01*
X149999639Y-99117417D02*
X149958056Y-99159000D01*
X150890176Y-99658772D02*
X150826767Y-99636584D01*
X150122383Y-97828794D02*
X150086642Y-97885675D01*
X151143979Y-99600843D02*
X151087098Y-99636584D01*
X150956933Y-99666294D02*
X150890176Y-99658772D01*
X147686642Y-97885675D02*
X147664454Y-97949084D01*
X151191482Y-99553340D02*
X151143979Y-99600843D01*
X150050348Y-99012117D02*
X150030926Y-99067624D01*
X151023689Y-99658772D02*
X150956933Y-99666294D01*
X148256933Y-98015840D02*
X148249411Y-97949084D01*
X151227223Y-99496459D02*
X151191482Y-99553340D01*
X150627223Y-97885675D02*
X150591482Y-97828794D01*
X151249411Y-99433050D02*
X151227223Y-99496459D01*
X151256933Y-98065840D02*
X151256933Y-99366294D01*
X151286642Y-97935675D02*
X151264454Y-97999084D01*
X151256933Y-99366294D02*
X151249411Y-99433050D01*
X149463517Y-99012117D02*
X149456933Y-98953681D01*
X151322383Y-97878794D02*
X151286642Y-97935675D01*
X148263517Y-99012117D02*
X148256933Y-98953681D01*
X151264454Y-97999084D02*
X151256933Y-98065840D01*
X149794320Y-99216294D02*
X149719546Y-99216294D01*
X151369886Y-97831291D02*
X151322383Y-97878794D01*
X151426767Y-97795550D02*
X151369886Y-97831291D01*
X151490176Y-97773362D02*
X151426767Y-97795550D01*
X148087098Y-97745550D02*
X148023689Y-97723362D01*
X151556933Y-97765840D02*
X151490176Y-97773362D01*
X149719546Y-99216294D02*
X149661109Y-99209709D01*
X151687098Y-97795550D02*
X151623689Y-97773362D01*
X150056933Y-98953681D02*
X150050348Y-99012117D01*
X152090176Y-98683546D02*
X152026767Y-98661358D01*
X150356933Y-97715840D02*
X150290176Y-97723362D01*
X151623689Y-97773362D02*
X151556933Y-97765840D01*
X151864454Y-98457824D02*
X151856933Y-98391067D01*
X152156933Y-98691067D02*
X152090176Y-98683546D01*
X149391482Y-97828794D02*
X149343979Y-97781291D01*
X152492323Y-98691067D02*
X152156933Y-98691067D01*
X150664454Y-99433050D02*
X150656933Y-99366294D01*
X152026767Y-98661358D02*
X151969886Y-98625617D01*
X151969886Y-98625617D02*
X151922383Y-98578114D01*
X150769886Y-99600843D02*
X150722383Y-99553340D01*
X151922383Y-98578114D02*
X151886642Y-98521233D01*
X151849411Y-97999084D02*
X151827223Y-97935675D01*
X149427223Y-97885675D02*
X149391482Y-97828794D01*
X151087098Y-99636584D02*
X151023689Y-99658772D01*
X151886642Y-98521233D02*
X151864454Y-98457824D01*
X149482939Y-99067624D02*
X149463517Y-99012117D01*
X151743979Y-97831291D02*
X151687098Y-97795550D01*
X149555809Y-99159000D02*
X149514226Y-99117417D01*
X151856933Y-98391067D02*
X151856933Y-98065840D01*
X149514226Y-99117417D02*
X149482939Y-99067624D01*
X153458007Y-99091066D02*
X152892322Y-99091066D01*
X151856933Y-98065840D02*
X151849411Y-97999084D01*
X149287098Y-97745550D02*
X149223689Y-97723362D01*
X151827223Y-97935675D02*
X151791482Y-97878794D01*
X150086642Y-97885675D02*
X150064454Y-97949084D01*
X152892322Y-99091066D02*
X152492323Y-98691067D01*
X151791482Y-97878794D02*
X151743979Y-97831291D01*
X149958056Y-99159000D02*
X149908263Y-99190287D01*
X150722383Y-99553340D02*
X150686642Y-99496459D01*
X150686642Y-99496459D02*
X150664454Y-99433050D01*
X150656933Y-99366294D02*
X150656933Y-98015840D01*
X150656933Y-98015840D02*
X150649411Y-97949084D01*
X150649411Y-97949084D02*
X150627223Y-97885675D01*
X150591482Y-97828794D02*
X150543979Y-97781291D01*
X150543979Y-97781291D02*
X150487098Y-97745550D01*
X150487098Y-97745550D02*
X150423689Y-97723362D01*
X150423689Y-97723362D02*
X150356933Y-97715840D01*
X150290176Y-97723362D02*
X150226767Y-97745550D01*
X150226767Y-97745550D02*
X150169886Y-97781291D01*
X150169886Y-97781291D02*
X150122383Y-97828794D01*
X150064454Y-97949084D02*
X150056933Y-98015840D01*
X150056933Y-98015840D02*
X150056933Y-98953681D01*
X150030926Y-99067624D02*
X149999639Y-99117417D01*
X149908263Y-99190287D02*
X149852756Y-99209709D01*
X149852756Y-99209709D02*
X149794320Y-99216294D01*
X149661109Y-99209709D02*
X149605602Y-99190287D01*
X149605602Y-99190287D02*
X149555809Y-99159000D01*
X149456933Y-98953681D02*
X149456933Y-98015840D01*
X149456933Y-98015840D02*
X149449411Y-97949084D01*
X149449411Y-97949084D02*
X149427223Y-97885675D01*
X149343979Y-97781291D02*
X149287098Y-97745550D01*
X162628000Y-102355000D02*
X161098000Y-100825000D01*
X158003661Y-100825000D02*
X157437976Y-100825000D01*
X161098000Y-100825000D02*
X158003661Y-100825000D01*
X160018001Y-99348737D02*
X160418000Y-99748736D01*
X157124263Y-96454999D02*
X160018001Y-99348737D01*
X155288000Y-96454999D02*
X157124263Y-96454999D01*
X155232369Y-96461267D02*
X155288000Y-96454999D01*
X155179529Y-96479756D02*
X155232369Y-96461267D01*
X155132127Y-96509541D02*
X155179529Y-96479756D01*
X155092542Y-96549126D02*
X155132127Y-96509541D01*
X155062757Y-96596528D02*
X155092542Y-96549126D01*
X155044268Y-96649368D02*
X155062757Y-96596528D01*
X155038000Y-96704999D02*
X155044268Y-96649368D01*
X155038000Y-97123044D02*
X155038000Y-96704999D01*
X155031731Y-97178674D02*
X155038000Y-97123044D01*
X155013242Y-97231514D02*
X155031731Y-97178674D01*
X154983457Y-97278916D02*
X155013242Y-97231514D01*
X154943872Y-97318501D02*
X154983457Y-97278916D01*
X154896470Y-97348286D02*
X154943872Y-97318501D01*
X154843630Y-97366775D02*
X154896470Y-97348286D01*
X154788000Y-97373044D02*
X154843630Y-97366775D01*
X154732369Y-97366775D02*
X154788000Y-97373044D01*
X154679529Y-97348286D02*
X154732369Y-97366775D01*
X154632127Y-97318501D02*
X154679529Y-97348286D01*
X154592542Y-97278916D02*
X154632127Y-97318501D01*
X154562757Y-97231514D02*
X154592542Y-97278916D01*
X154544268Y-97178674D02*
X154562757Y-97231514D01*
X154538000Y-97123044D02*
X154544268Y-97178674D01*
X154538000Y-96704999D02*
X154538000Y-97123044D01*
X154531731Y-96649368D02*
X154538000Y-96704999D01*
X154513242Y-96596528D02*
X154531731Y-96649368D01*
X154483457Y-96549126D02*
X154513242Y-96596528D01*
X154443872Y-96509541D02*
X154483457Y-96549126D01*
X154396470Y-96479756D02*
X154443872Y-96509541D01*
X154343630Y-96461267D02*
X154396470Y-96479756D01*
X154288000Y-96454999D02*
X154343630Y-96461267D01*
X154232369Y-96461267D02*
X154288000Y-96454999D01*
X154179529Y-96479756D02*
X154232369Y-96461267D01*
X154132127Y-96509541D02*
X154179529Y-96479756D01*
X154092542Y-96549126D02*
X154132127Y-96509541D01*
X154062757Y-96596528D02*
X154092542Y-96549126D01*
X154044268Y-96649368D02*
X154062757Y-96596528D01*
X154038000Y-96704999D02*
X154044268Y-96649368D01*
X154038000Y-97123044D02*
X154038000Y-96704999D01*
X154031731Y-97178674D02*
X154038000Y-97123044D01*
X154013242Y-97231514D02*
X154031731Y-97178674D01*
X153983457Y-97278916D02*
X154013242Y-97231514D01*
X153943872Y-97318501D02*
X153983457Y-97278916D01*
X153896470Y-97348286D02*
X153943872Y-97318501D01*
X153843630Y-97366775D02*
X153896470Y-97348286D01*
X153788000Y-97373044D02*
X153843630Y-97366775D01*
X153732369Y-97366775D02*
X153788000Y-97373044D01*
X153679529Y-97348286D02*
X153732369Y-97366775D01*
X150679529Y-97348286D02*
X150732369Y-97366775D01*
X150562757Y-97231514D02*
X150592542Y-97278916D01*
X150544268Y-97178674D02*
X150562757Y-97231514D01*
X150538000Y-97123044D02*
X150544268Y-97178674D01*
X150538000Y-96704999D02*
X150538000Y-97123044D01*
X150483457Y-96549126D02*
X150513242Y-96596528D01*
X150396470Y-96479756D02*
X150443872Y-96509541D01*
X150288000Y-96454999D02*
X150343630Y-96461267D01*
X150232369Y-96461267D02*
X150288000Y-96454999D01*
X150092542Y-96549126D02*
X150132127Y-96509541D01*
X150062757Y-96596528D02*
X150092542Y-96549126D01*
X150038000Y-97123044D02*
X150038000Y-96704999D01*
X150031731Y-97178674D02*
X150038000Y-97123044D01*
X150013242Y-97231514D02*
X150031731Y-97178674D01*
X149983457Y-97278916D02*
X150013242Y-97231514D01*
X149943872Y-97318501D02*
X149983457Y-97278916D01*
X149896470Y-97348286D02*
X149943872Y-97318501D01*
X149843630Y-97366775D02*
X149896470Y-97348286D01*
X149788000Y-97373044D02*
X149843630Y-97366775D01*
X153483457Y-96549126D02*
X153513242Y-96596528D01*
X150179529Y-96479756D02*
X150232369Y-96461267D01*
X149732369Y-97366775D02*
X149788000Y-97373044D01*
X150592542Y-97278916D02*
X150632127Y-97318501D01*
X149679529Y-97348286D02*
X149732369Y-97366775D01*
X153538000Y-96704999D02*
X153538000Y-97123044D01*
X149632127Y-97318501D02*
X149679529Y-97348286D01*
X149592542Y-97278916D02*
X149632127Y-97318501D01*
X153013242Y-97231514D02*
X153031731Y-97178674D01*
X149562757Y-97231514D02*
X149592542Y-97278916D01*
X149544268Y-97178674D02*
X149562757Y-97231514D01*
X149538000Y-97123044D02*
X149544268Y-97178674D01*
X150732369Y-97366775D02*
X150788000Y-97373044D01*
X149538000Y-96220976D02*
X149538000Y-97123044D01*
X153062757Y-96596528D02*
X153092542Y-96549126D01*
X149532132Y-96168902D02*
X149538000Y-96220976D01*
X149514824Y-96119438D02*
X149532132Y-96168902D01*
X150443872Y-96509541D02*
X150483457Y-96549126D01*
X149486943Y-96075066D02*
X149514824Y-96119438D01*
X149449888Y-96038011D02*
X149486943Y-96075066D01*
X153031731Y-97178674D02*
X153038000Y-97123044D01*
X148592542Y-97228916D02*
X148632127Y-97268501D01*
X150132127Y-96509541D02*
X150179529Y-96479756D01*
X148788000Y-97323044D02*
X148843630Y-97316775D01*
X148544268Y-97128674D02*
X148562757Y-97181514D01*
X148531731Y-96649368D02*
X148538000Y-96704999D01*
X152538000Y-96704999D02*
X152538000Y-97123044D01*
X148562757Y-97181514D02*
X148592542Y-97228916D01*
X149043867Y-96168902D02*
X149061175Y-96119438D01*
X152288000Y-96454999D02*
X152343630Y-96461267D01*
X148538000Y-97073044D02*
X148544268Y-97128674D01*
X148679529Y-97298286D02*
X148732369Y-97316775D01*
X148538000Y-96704999D02*
X148538000Y-97073044D01*
X148513242Y-96596528D02*
X148531731Y-96649368D01*
X148632127Y-97268501D02*
X148679529Y-97298286D01*
X148483457Y-96549126D02*
X148513242Y-96596528D01*
X150343630Y-96461267D02*
X150396470Y-96479756D01*
X148106227Y-96454999D02*
X148288000Y-96454999D01*
X152896470Y-97348286D02*
X152943872Y-97318501D01*
X148288000Y-96454999D02*
X148343630Y-96461267D01*
X146454456Y-98106770D02*
X148106227Y-96454999D01*
X150038000Y-96704999D02*
X150044268Y-96649368D01*
X148343630Y-96461267D02*
X148396470Y-96479756D01*
X153232369Y-96461267D02*
X153288000Y-96454999D01*
X148396470Y-96479756D02*
X148443872Y-96509541D01*
X148443872Y-96509541D02*
X148483457Y-96549126D01*
X149170483Y-96010130D02*
X149219947Y-95992822D01*
X152679529Y-97348286D02*
X152732369Y-97366775D01*
X150632127Y-97318501D02*
X150679529Y-97348286D01*
X148732369Y-97316775D02*
X148788000Y-97323044D01*
X148843630Y-97316775D02*
X148896470Y-97298286D01*
X149356052Y-95992822D02*
X149405516Y-96010130D01*
X148896470Y-97298286D02*
X148943872Y-97268501D01*
X148943872Y-97268501D02*
X148983457Y-97228916D01*
X149089056Y-96075066D02*
X149126111Y-96038011D01*
X150044268Y-96649368D02*
X150062757Y-96596528D01*
X148983457Y-97228916D02*
X149013242Y-97181514D01*
X149013242Y-97181514D02*
X149031731Y-97128674D01*
X153562757Y-97231514D02*
X153592542Y-97278916D01*
X150531731Y-96649368D02*
X150538000Y-96704999D01*
X149031731Y-97128674D02*
X149038000Y-97073044D01*
X153396470Y-96479756D02*
X153443872Y-96509541D01*
X149038000Y-97073044D02*
X149038000Y-96220976D01*
X149038000Y-96220976D02*
X149043867Y-96168902D01*
X150513242Y-96596528D02*
X150531731Y-96649368D01*
X149061175Y-96119438D02*
X149089056Y-96075066D01*
X153038000Y-97123044D02*
X153038000Y-96704999D01*
X149126111Y-96038011D02*
X149170483Y-96010130D01*
X149405516Y-96010130D02*
X149449888Y-96038011D01*
X149219947Y-95992822D02*
X149272022Y-95986954D01*
X149272022Y-95986954D02*
X149303978Y-95986954D01*
X149303978Y-95986954D02*
X149356052Y-95992822D01*
X150788000Y-97373044D02*
X150843630Y-97366775D01*
X150843630Y-97366775D02*
X150896470Y-97348286D01*
X150896470Y-97348286D02*
X150943872Y-97318501D01*
X150943872Y-97318501D02*
X150983457Y-97278916D01*
X150983457Y-97278916D02*
X151013242Y-97231514D01*
X151013242Y-97231514D02*
X151031731Y-97178674D01*
X151031731Y-97178674D02*
X151038000Y-97123044D01*
X151038000Y-97123044D02*
X151038000Y-96704999D01*
X151038000Y-96704999D02*
X151044268Y-96649368D01*
X151044268Y-96649368D02*
X151062757Y-96596528D01*
X151062757Y-96596528D02*
X151092542Y-96549126D01*
X151092542Y-96549126D02*
X151132127Y-96509541D01*
X151132127Y-96509541D02*
X151179529Y-96479756D01*
X151179529Y-96479756D02*
X151232369Y-96461267D01*
X151232369Y-96461267D02*
X151288000Y-96454999D01*
X151288000Y-96454999D02*
X151343630Y-96461267D01*
X151343630Y-96461267D02*
X151396470Y-96479756D01*
X151396470Y-96479756D02*
X151443872Y-96509541D01*
X151443872Y-96509541D02*
X151483457Y-96549126D01*
X151483457Y-96549126D02*
X151513242Y-96596528D01*
X151513242Y-96596528D02*
X151531731Y-96649368D01*
X151531731Y-96649368D02*
X151538000Y-96704999D01*
X151538000Y-96704999D02*
X151538000Y-97123044D01*
X151538000Y-97123044D02*
X151544268Y-97178674D01*
X151544268Y-97178674D02*
X151562757Y-97231514D01*
X151562757Y-97231514D02*
X151592542Y-97278916D01*
X151592542Y-97278916D02*
X151632127Y-97318501D01*
X151632127Y-97318501D02*
X151679529Y-97348286D01*
X151679529Y-97348286D02*
X151732369Y-97366775D01*
X151732369Y-97366775D02*
X151788000Y-97373044D01*
X151788000Y-97373044D02*
X151843630Y-97366775D01*
X151843630Y-97366775D02*
X151896470Y-97348286D01*
X151896470Y-97348286D02*
X151943872Y-97318501D01*
X151943872Y-97318501D02*
X151983457Y-97278916D01*
X151983457Y-97278916D02*
X152013242Y-97231514D01*
X152013242Y-97231514D02*
X152031731Y-97178674D01*
X152031731Y-97178674D02*
X152038000Y-97123044D01*
X152038000Y-97123044D02*
X152038000Y-96704999D01*
X152038000Y-96704999D02*
X152044268Y-96649368D01*
X152044268Y-96649368D02*
X152062757Y-96596528D01*
X152062757Y-96596528D02*
X152092542Y-96549126D01*
X152092542Y-96549126D02*
X152132127Y-96509541D01*
X152132127Y-96509541D02*
X152179529Y-96479756D01*
X152179529Y-96479756D02*
X152232369Y-96461267D01*
X152232369Y-96461267D02*
X152288000Y-96454999D01*
X152343630Y-96461267D02*
X152396470Y-96479756D01*
X152396470Y-96479756D02*
X152443872Y-96509541D01*
X152443872Y-96509541D02*
X152483457Y-96549126D01*
X152483457Y-96549126D02*
X152513242Y-96596528D01*
X152513242Y-96596528D02*
X152531731Y-96649368D01*
X152531731Y-96649368D02*
X152538000Y-96704999D01*
X152538000Y-97123044D02*
X152544268Y-97178674D01*
X152544268Y-97178674D02*
X152562757Y-97231514D01*
X152562757Y-97231514D02*
X152592542Y-97278916D01*
X152592542Y-97278916D02*
X152632127Y-97318501D01*
X152632127Y-97318501D02*
X152679529Y-97348286D01*
X152732369Y-97366775D02*
X152788000Y-97373044D01*
X152788000Y-97373044D02*
X152843630Y-97366775D01*
X152843630Y-97366775D02*
X152896470Y-97348286D01*
X152943872Y-97318501D02*
X152983457Y-97278916D01*
X152983457Y-97278916D02*
X153013242Y-97231514D01*
X153038000Y-96704999D02*
X153044268Y-96649368D01*
X153044268Y-96649368D02*
X153062757Y-96596528D01*
X153092542Y-96549126D02*
X153132127Y-96509541D01*
X153132127Y-96509541D02*
X153179529Y-96479756D01*
X153179529Y-96479756D02*
X153232369Y-96461267D01*
X153288000Y-96454999D02*
X153343630Y-96461267D01*
X153343630Y-96461267D02*
X153396470Y-96479756D01*
X153443872Y-96509541D02*
X153483457Y-96549126D01*
X153513242Y-96596528D02*
X153531731Y-96649368D01*
X153531731Y-96649368D02*
X153538000Y-96704999D01*
X153538000Y-97123044D02*
X153544268Y-97178674D01*
X153544268Y-97178674D02*
X153562757Y-97231514D01*
X153592542Y-97278916D02*
X153632127Y-97318501D01*
X153632127Y-97318501D02*
X153679529Y-97348286D01*
X147997990Y-95355010D02*
X147118000Y-96235000D01*
X149394184Y-95355010D02*
X147997990Y-95355010D01*
X158217999Y-96074999D02*
X150114173Y-96074999D01*
X160048000Y-97905000D02*
X158217999Y-96074999D01*
X161967999Y-103214999D02*
X162774403Y-103214999D01*
X161568000Y-102815000D02*
X161967999Y-103214999D01*
X162774403Y-103214999D02*
X163308001Y-102681401D01*
X163308001Y-102681401D02*
X163308001Y-98695001D01*
X163308001Y-98695001D02*
X162518000Y-97905000D01*
X150114173Y-96074999D02*
X149394184Y-95355010D01*
X162518000Y-97905000D02*
X160048000Y-97905000D01*
X146877999Y-109925001D02*
X146478000Y-110325000D01*
X147988000Y-108815000D02*
X146877999Y-109925001D01*
X153823791Y-105058243D02*
X153816270Y-105125000D01*
X153845979Y-104994834D02*
X153823791Y-105058243D01*
X154702571Y-104712046D02*
X154655068Y-104759549D01*
X153881720Y-104937953D02*
X153845979Y-104994834D01*
X153986104Y-104854709D02*
X153929223Y-104890450D01*
X154049513Y-104832521D02*
X153986104Y-104854709D01*
X154760500Y-105658243D02*
X154768022Y-105725000D01*
X154116270Y-104825000D02*
X154049513Y-104832521D01*
X154468022Y-104825000D02*
X154116270Y-104825000D01*
X154534778Y-104817478D02*
X154468022Y-104825000D01*
X154738312Y-105594834D02*
X154760500Y-105658243D01*
X154598187Y-104795290D02*
X154534778Y-104817478D01*
X153845979Y-105255165D02*
X153881720Y-105312046D01*
X153929223Y-104890450D02*
X153881720Y-104937953D01*
X149010584Y-108815000D02*
X147988000Y-108815000D01*
X154760500Y-104591756D02*
X154738312Y-104655165D01*
X154768022Y-103845000D02*
X154768022Y-104525000D01*
X150230597Y-110035013D02*
X149010584Y-108815000D01*
X154116270Y-105425000D02*
X154468022Y-105425000D01*
X154738312Y-104655165D02*
X154702571Y-104712046D01*
X154768022Y-104525000D02*
X154760500Y-104591756D01*
X154655068Y-105490450D02*
X154702571Y-105537953D01*
X154655068Y-104759549D02*
X154598187Y-104795290D01*
X153816270Y-105125000D02*
X153823791Y-105191756D01*
X153823791Y-105191756D02*
X153845979Y-105255165D01*
X153881720Y-105312046D02*
X153929223Y-105359549D01*
X153929223Y-105359549D02*
X153986104Y-105395290D01*
X153986104Y-105395290D02*
X154049513Y-105417478D01*
X154049513Y-105417478D02*
X154116270Y-105425000D01*
X154468022Y-105425000D02*
X154534778Y-105432521D01*
X154534778Y-105432521D02*
X154598187Y-105454709D01*
X154598187Y-105454709D02*
X154655068Y-105490450D01*
X154702571Y-105537953D02*
X154738312Y-105594834D01*
X154768022Y-105725000D02*
X154768022Y-107788798D01*
X154768022Y-107788798D02*
X152521807Y-110035013D01*
X152521807Y-110035013D02*
X150230597Y-110035013D01*
X146716723Y-102915000D02*
X146736711Y-102895012D01*
X145518000Y-102915000D02*
X146716723Y-102915000D01*
X144537000Y-103896000D02*
X145518000Y-102915000D01*
X143168000Y-109025000D02*
X144537000Y-107656000D01*
X144537000Y-107656000D02*
X144537000Y-103896000D01*
X147638000Y-103905000D02*
X147728000Y-103995000D01*
X146528000Y-103905000D02*
X147638000Y-103905000D01*
X145855462Y-108914998D02*
X146421147Y-108914998D01*
X145392418Y-109378042D02*
X145855462Y-108914998D01*
X146421147Y-108914998D02*
X147038000Y-108298145D01*
X147038000Y-108298145D02*
X147038000Y-107905000D01*
X145768000Y-104665000D02*
X146528000Y-103905000D01*
X147038000Y-107905000D02*
X145768000Y-106635000D01*
X145768000Y-106635000D02*
X145768000Y-104665000D01*
X151659919Y-112506766D02*
X151094234Y-112506766D01*
X152656234Y-112506766D02*
X151659919Y-112506766D01*
X155028000Y-110135000D02*
X152656234Y-112506766D01*
X155028000Y-108075000D02*
X155028000Y-110135000D01*
X156766000Y-103084977D02*
X157331685Y-103084977D01*
X159218989Y-104972281D02*
X159218989Y-105449802D01*
X159218989Y-105449802D02*
X158823789Y-105845002D01*
X157331685Y-103084977D02*
X159218989Y-104972281D01*
X158823789Y-105845002D02*
X157257998Y-105845002D01*
X157257998Y-105845002D02*
X155028000Y-108075000D01*
X149242315Y-104155000D02*
X148922734Y-104155000D01*
X149303508Y-104148105D02*
X149242315Y-104155000D01*
X149361633Y-104127766D02*
X149303508Y-104148105D01*
X149413774Y-104095003D02*
X149361633Y-104127766D01*
X149457318Y-104051459D02*
X149413774Y-104095003D01*
X149517315Y-102326703D02*
X149517315Y-103880000D01*
X149731121Y-102058597D02*
X149672996Y-102078936D01*
X149792315Y-102051703D02*
X149731121Y-102058597D01*
X149853508Y-102058597D02*
X149792315Y-102051703D01*
X149911633Y-102078936D02*
X149853508Y-102058597D01*
X149963774Y-102111699D02*
X149911633Y-102078936D01*
X150007318Y-102155243D02*
X149963774Y-102111699D01*
X149544548Y-102207384D02*
X149524209Y-102265509D01*
X150040081Y-102207384D02*
X150007318Y-102155243D01*
X150060420Y-102265509D02*
X150040081Y-102207384D01*
X149620855Y-102111699D02*
X149577311Y-102155243D01*
X150067315Y-102326703D02*
X150060420Y-102265509D01*
X148922734Y-104155000D02*
X146969670Y-106108064D01*
X150067315Y-105133297D02*
X150067315Y-102326703D01*
X150074209Y-105194491D02*
X150067315Y-105133297D01*
X150094548Y-105252616D02*
X150074209Y-105194491D01*
X151011633Y-101378936D02*
X150953508Y-101358597D01*
X150677311Y-101455243D02*
X150644548Y-101507384D01*
X151063774Y-101411699D02*
X151011633Y-101378936D01*
X151140081Y-101507384D02*
X151107318Y-101455243D01*
X150557318Y-105304757D02*
X150513774Y-105348301D01*
X151167315Y-103880000D02*
X151167315Y-101626703D01*
X151194548Y-103999318D02*
X151174209Y-103941193D01*
X152008000Y-104155000D02*
X151442315Y-104155000D01*
X151167315Y-101626703D02*
X151160420Y-101565509D01*
X149490081Y-103999318D02*
X149457318Y-104051459D01*
X151381121Y-104148105D02*
X151322996Y-104127766D01*
X150590081Y-105252616D02*
X150557318Y-105304757D01*
X149524209Y-102265509D02*
X149517315Y-102326703D01*
X151107318Y-101455243D02*
X151063774Y-101411699D01*
X151270855Y-104095003D02*
X151227311Y-104051459D01*
X149672996Y-102078936D02*
X149620855Y-102111699D01*
X151174209Y-103941193D02*
X151167315Y-103880000D01*
X151322996Y-104127766D02*
X151270855Y-104095003D01*
X150222996Y-105381064D02*
X150170855Y-105348301D01*
X150953508Y-101358597D02*
X150892315Y-101351703D01*
X151160420Y-101565509D02*
X151140081Y-101507384D01*
X151442315Y-104155000D02*
X151381121Y-104148105D01*
X150281121Y-105401403D02*
X150222996Y-105381064D01*
X151227311Y-104051459D02*
X151194548Y-103999318D01*
X150461633Y-105381064D02*
X150403508Y-105401403D01*
X150892315Y-101351703D02*
X150831121Y-101358597D01*
X150831121Y-101358597D02*
X150772996Y-101378936D01*
X149577311Y-102155243D02*
X149544548Y-102207384D01*
X150772996Y-101378936D02*
X150720855Y-101411699D01*
X150720855Y-101411699D02*
X150677311Y-101455243D01*
X150644548Y-101507384D02*
X150624209Y-101565509D01*
X149510420Y-103941193D02*
X149490081Y-103999318D01*
X150624209Y-101565509D02*
X150617315Y-101626703D01*
X150617315Y-105133297D02*
X150610420Y-105194491D01*
X150617315Y-101626703D02*
X150617315Y-105133297D01*
X150610420Y-105194491D02*
X150590081Y-105252616D01*
X150513774Y-105348301D02*
X150461633Y-105381064D01*
X150403508Y-105401403D02*
X150342315Y-105408297D01*
X149517315Y-103880000D02*
X149510420Y-103941193D01*
X150342315Y-105408297D02*
X150281121Y-105401403D01*
X150127311Y-105304757D02*
X150094548Y-105252616D01*
X150170855Y-105348301D02*
X150127311Y-105304757D01*
X150387160Y-108974160D02*
X152038840Y-108974160D01*
X149438000Y-108025000D02*
X150387160Y-108974160D01*
X149438000Y-107044279D02*
X149438000Y-108025000D01*
X151873869Y-105174095D02*
X151308184Y-105174095D01*
X151308184Y-105174095D02*
X149438000Y-107044279D01*
X157542315Y-105085000D02*
X158108000Y-105085000D01*
X157238000Y-104780685D02*
X157542315Y-105085000D01*
X157207689Y-104742676D02*
X157238000Y-104780685D01*
X157186595Y-104698875D02*
X157207689Y-104742676D01*
X157175777Y-104651479D02*
X157186595Y-104698875D01*
X151977652Y-107465000D02*
X151984547Y-107403806D01*
X152081193Y-107680003D02*
X152037649Y-107636459D01*
X152133334Y-107712766D02*
X152081193Y-107680003D01*
X152191459Y-107733105D02*
X152133334Y-107712766D01*
X157207689Y-104511667D02*
X157186595Y-104555468D01*
X152037649Y-107636459D02*
X152004886Y-107584318D01*
X157013652Y-104057883D02*
X157062266Y-104057883D01*
X153634541Y-107746894D02*
X153573348Y-107740000D01*
X153573348Y-107740000D02*
X152252652Y-107740000D01*
X153744807Y-107799996D02*
X153692666Y-107767233D01*
X152252652Y-107740000D02*
X152191459Y-107733105D01*
X153788351Y-107843540D02*
X153744807Y-107799996D01*
X157238000Y-104166633D02*
X157268310Y-104204641D01*
X153821114Y-107895681D02*
X153788351Y-107843540D01*
X153848348Y-108015000D02*
X153841453Y-107953806D01*
X153841453Y-108076193D02*
X153848348Y-108015000D01*
X153744807Y-108230003D02*
X153788351Y-108186459D01*
X153788351Y-108186459D02*
X153821114Y-108134318D01*
X153188000Y-108565000D02*
X153194894Y-108503806D01*
X156966255Y-104068701D02*
X157013652Y-104057883D01*
X153692666Y-107767233D02*
X153634541Y-107746894D01*
X153215233Y-108445681D02*
X153247996Y-108393540D01*
X153188000Y-108831404D02*
X153188000Y-108565000D01*
X152364402Y-109655002D02*
X153188000Y-108831404D01*
X153634541Y-108283105D02*
X153692666Y-108262766D01*
X148947994Y-106025000D02*
X148947994Y-108214994D01*
X153841453Y-107953806D02*
X153821114Y-107895681D01*
X148947994Y-108214994D02*
X150388002Y-109655002D01*
X152004886Y-107584318D02*
X151984547Y-107526193D01*
X153194894Y-108503806D02*
X153215233Y-108445681D01*
X157191472Y-104120105D02*
X157238000Y-104166633D01*
X153821114Y-108134318D02*
X153841453Y-108076193D01*
X153247996Y-108393540D02*
X153291540Y-108349996D01*
X153291540Y-108349996D02*
X153343681Y-108317233D01*
X153692666Y-108262766D02*
X153744807Y-108230003D01*
X150388002Y-109655002D02*
X152364402Y-109655002D01*
X153343681Y-108317233D02*
X153401806Y-108296894D01*
X151984547Y-107526193D02*
X151977652Y-107465000D01*
X153401806Y-108296894D02*
X153463000Y-108290000D01*
X153463000Y-108290000D02*
X153573348Y-108290000D01*
X153573348Y-108290000D02*
X153634541Y-108283105D01*
X151984547Y-107403806D02*
X152004886Y-107345681D01*
X152004886Y-107345681D02*
X152037649Y-107293540D01*
X157175777Y-104602864D02*
X157175777Y-104651479D01*
X152037649Y-107293540D02*
X152081193Y-107249996D01*
X152081193Y-107249996D02*
X152133334Y-107217233D01*
X152133334Y-107217233D02*
X152191459Y-107196894D01*
X152191459Y-107196894D02*
X152252652Y-107190000D01*
X152252652Y-107190000D02*
X152913000Y-107190000D01*
X156922455Y-104089794D02*
X156966255Y-104068701D01*
X152913000Y-107190000D02*
X152974194Y-107183105D01*
X152974194Y-107183105D02*
X153032319Y-107162766D01*
X153032319Y-107162766D02*
X153084460Y-107130003D01*
X157300222Y-104295838D02*
X157300222Y-104344453D01*
X153084460Y-107130003D02*
X153128004Y-107086459D01*
X153128004Y-107086459D02*
X153160767Y-107034318D01*
X153160767Y-107034318D02*
X153181106Y-106976193D01*
X153181106Y-106976193D02*
X153188000Y-106915000D01*
X157109663Y-104068701D02*
X157153463Y-104089794D01*
X153188000Y-106915000D02*
X153188000Y-102725000D01*
X153188000Y-102725000D02*
X153808000Y-102105000D01*
X153808000Y-102105000D02*
X154562315Y-102105000D01*
X157289404Y-104391849D02*
X157268310Y-104435650D01*
X154562315Y-102105000D02*
X156577420Y-104120105D01*
X156577420Y-104120105D02*
X156615428Y-104150415D01*
X156615428Y-104150415D02*
X156659229Y-104171509D01*
X156659229Y-104171509D02*
X156706625Y-104182327D01*
X156706625Y-104182327D02*
X156755240Y-104182327D01*
X156755240Y-104182327D02*
X156802636Y-104171509D01*
X156802636Y-104171509D02*
X156846437Y-104150415D01*
X156846437Y-104150415D02*
X156922455Y-104089794D01*
X157062266Y-104057883D02*
X157109663Y-104068701D01*
X157153463Y-104089794D02*
X157191472Y-104120105D01*
X157268310Y-104204641D02*
X157289404Y-104248442D01*
X157289404Y-104248442D02*
X157300222Y-104295838D01*
X157300222Y-104344453D02*
X157289404Y-104391849D01*
X157268310Y-104435650D02*
X157207689Y-104511667D01*
X157186595Y-104555468D02*
X157175777Y-104602864D01*
X152758000Y-101875000D02*
X152758000Y-105290777D01*
X154218000Y-100415000D02*
X152758000Y-101875000D01*
X155942315Y-100415000D02*
X154218000Y-100415000D01*
X157402314Y-101875000D02*
X155942315Y-100415000D01*
X160468000Y-102845000D02*
X160468000Y-102555000D01*
X160460479Y-102911756D02*
X160468000Y-102845000D01*
X160438291Y-102975165D02*
X160460479Y-102911756D01*
X160402550Y-103032046D02*
X160438291Y-102975165D01*
X160298166Y-103115290D02*
X160355047Y-103079549D01*
X160168000Y-103145000D02*
X160234757Y-103137478D01*
X159837687Y-103152521D02*
X159904443Y-103145000D01*
X159774278Y-103174709D02*
X159837687Y-103152521D01*
X159717397Y-103210450D02*
X159774278Y-103174709D01*
X159669894Y-103257953D02*
X159717397Y-103210450D01*
X151995705Y-106053072D02*
X151440484Y-106053072D01*
X161266106Y-104232046D02*
X161301847Y-104175165D01*
X161324035Y-104111756D02*
X161331557Y-104045000D01*
X161161722Y-104315290D02*
X161218603Y-104279549D01*
X161031557Y-103745000D02*
X159904443Y-103745000D01*
X159904443Y-103145000D02*
X160168000Y-103145000D01*
X160768000Y-104345000D02*
X161031557Y-104345000D01*
X160637834Y-104374709D02*
X160701243Y-104352521D01*
X161218603Y-104279549D02*
X161266106Y-104232046D01*
X152758000Y-105290777D02*
X151995705Y-106053072D01*
X160580953Y-104410450D02*
X160637834Y-104374709D01*
X161098313Y-103752521D02*
X161031557Y-103745000D01*
X160832314Y-105305000D02*
X160468000Y-104940686D01*
X159669894Y-103632046D02*
X159634153Y-103575165D01*
X160355047Y-103079549D02*
X160402550Y-103032046D01*
X161398000Y-105305000D02*
X160832314Y-105305000D01*
X161266106Y-103857953D02*
X161218603Y-103810450D01*
X161098313Y-104337478D02*
X161161722Y-104315290D01*
X159788000Y-101875000D02*
X157402314Y-101875000D01*
X160497709Y-104514834D02*
X160533450Y-104457953D01*
X159611965Y-103378243D02*
X159634153Y-103314834D01*
X160468000Y-104940686D02*
X160468000Y-104645000D01*
X161161722Y-103774709D02*
X161098313Y-103752521D01*
X160468000Y-104645000D02*
X160475521Y-104578243D01*
X161301847Y-103914834D02*
X161266106Y-103857953D01*
X159904443Y-103745000D02*
X159837687Y-103737478D01*
X161031557Y-104345000D02*
X161098313Y-104337478D01*
X160234757Y-103137478D02*
X160298166Y-103115290D01*
X160533450Y-104457953D02*
X160580953Y-104410450D01*
X159611965Y-103511756D02*
X159604443Y-103445000D01*
X160701243Y-104352521D02*
X160768000Y-104345000D01*
X159717397Y-103679549D02*
X159669894Y-103632046D01*
X160468000Y-102555000D02*
X159788000Y-101875000D01*
X161301847Y-104175165D02*
X161324035Y-104111756D01*
X159634153Y-103575165D02*
X159611965Y-103511756D01*
X159604443Y-103445000D02*
X159611965Y-103378243D01*
X161331557Y-104045000D02*
X161324035Y-103978243D01*
X161324035Y-103978243D02*
X161301847Y-103914834D01*
X160475521Y-104578243D02*
X160497709Y-104514834D01*
X161218603Y-103810450D02*
X161161722Y-103774709D01*
X159837687Y-103737478D02*
X159774278Y-103715290D01*
X159774278Y-103715290D02*
X159717397Y-103679549D01*
X159634153Y-103314834D02*
X159669894Y-103257953D01*
X148378000Y-113325000D02*
X152738000Y-113325000D01*
X152738000Y-113325000D02*
X155668001Y-110394999D01*
X156714085Y-107626662D02*
X157114084Y-107226663D01*
X155668001Y-108672746D02*
X156714085Y-107626662D01*
X155668001Y-110394999D02*
X155668001Y-108672746D01*
X153013202Y-110104809D02*
X153578887Y-110104809D01*
X152702988Y-110415023D02*
X153013202Y-110104809D01*
X149206977Y-110415023D02*
X152702988Y-110415023D01*
X147912000Y-111710000D02*
X149206977Y-110415023D01*
X149702316Y-112424999D02*
X151032283Y-111095032D01*
X147029808Y-112523038D02*
X147071039Y-112481807D01*
X146874960Y-112888969D02*
X146916191Y-112847738D01*
X146825589Y-112919991D02*
X146874960Y-112888969D01*
X146712611Y-112945778D02*
X146770553Y-112939249D01*
X146575446Y-112939249D02*
X146633389Y-112945778D01*
X146429808Y-112847738D02*
X146471039Y-112888969D01*
X146398786Y-112798367D02*
X146429808Y-112847738D01*
X146966471Y-112743331D02*
X146979528Y-112627445D01*
X146379528Y-112743331D02*
X146398786Y-112798367D01*
X151032283Y-111095032D02*
X151622315Y-111095032D01*
X146373000Y-112685389D02*
X146379528Y-112743331D01*
X146373000Y-111754220D02*
X146373000Y-112685389D01*
X146979528Y-112627445D02*
X146998786Y-112572409D01*
X146365478Y-111687464D02*
X146373000Y-111754220D01*
X146343290Y-111624055D02*
X146365478Y-111687464D01*
X146633389Y-112945778D02*
X146712611Y-112945778D01*
X146307549Y-111567174D02*
X146343290Y-111624055D01*
X146260046Y-111519671D02*
X146307549Y-111567174D01*
X145418778Y-112945778D02*
X145498000Y-112945778D01*
X145360835Y-112939249D02*
X145418778Y-112945778D01*
X145305799Y-112919991D02*
X145360835Y-112939249D01*
X146139756Y-111461742D02*
X146203165Y-111483930D01*
X146770553Y-112939249D02*
X146825589Y-112919991D01*
X145256428Y-112888969D02*
X145305799Y-112919991D01*
X145164917Y-112743331D02*
X145184175Y-112798367D01*
X145885953Y-111519671D02*
X145942834Y-111483930D01*
X145132602Y-112572409D02*
X145151860Y-112627445D01*
X146998786Y-112572409D02*
X147029808Y-112523038D01*
X145215197Y-112847738D02*
X145256428Y-112888969D01*
X151622315Y-111095032D02*
X152188000Y-111095032D01*
X145060349Y-112481807D02*
X145101580Y-112523038D01*
X145758389Y-112685388D02*
X145758389Y-112424999D01*
X146916191Y-112847738D02*
X146947213Y-112798367D01*
X145184175Y-112798367D02*
X145215197Y-112847738D01*
X144747999Y-112424999D02*
X144898000Y-112424999D01*
X146471039Y-112888969D02*
X146520410Y-112919991D01*
X144348000Y-112025000D02*
X144747999Y-112424999D01*
X145751860Y-112743331D02*
X145758389Y-112685388D01*
X145151860Y-112627445D02*
X145164917Y-112743331D01*
X144898000Y-112424999D02*
X144955942Y-112431527D01*
X145802709Y-111624055D02*
X145838450Y-111567174D01*
X146947213Y-112798367D02*
X146966471Y-112743331D01*
X145010978Y-112450785D02*
X145060349Y-112481807D01*
X146520410Y-112919991D02*
X146575446Y-112939249D01*
X145555942Y-112939249D02*
X145610978Y-112919991D01*
X145773000Y-112424999D02*
X145773000Y-111754220D01*
X145498000Y-112945778D02*
X145555942Y-112939249D01*
X144955942Y-112431527D02*
X145010978Y-112450785D01*
X145610978Y-112919991D02*
X145660349Y-112888969D01*
X146006243Y-111461742D02*
X146073000Y-111454220D01*
X145660349Y-112888969D02*
X145701580Y-112847738D01*
X145701580Y-112847738D02*
X145732602Y-112798367D01*
X145732602Y-112798367D02*
X145751860Y-112743331D01*
X147120410Y-112450785D02*
X147175446Y-112431527D01*
X145758389Y-112424999D02*
X145773000Y-112424999D01*
X147071039Y-112481807D02*
X147120410Y-112450785D01*
X145773000Y-111754220D02*
X145780521Y-111687464D01*
X145780521Y-111687464D02*
X145802709Y-111624055D01*
X147233389Y-112424999D02*
X149702316Y-112424999D01*
X145838450Y-111567174D02*
X145885953Y-111519671D01*
X147175446Y-112431527D02*
X147233389Y-112424999D01*
X145101580Y-112523038D02*
X145132602Y-112572409D01*
X145942834Y-111483930D02*
X146006243Y-111461742D01*
X146073000Y-111454220D02*
X146139756Y-111461742D01*
X146203165Y-111483930D02*
X146260046Y-111519671D01*
X153655439Y-113807561D02*
X152998000Y-114465000D01*
X155568502Y-111956208D02*
X155524840Y-111966173D01*
X155613288Y-111956208D02*
X155568502Y-111956208D01*
X155656952Y-111966173D02*
X155613288Y-111956208D01*
X155837393Y-112118604D02*
X155732317Y-112013528D01*
X155872407Y-112146529D02*
X155837393Y-112118604D01*
X155912757Y-112165961D02*
X155872407Y-112146529D01*
X155484490Y-111985605D02*
X155449475Y-112013528D01*
X155956421Y-112175926D02*
X155912757Y-112165961D01*
X155524840Y-111966173D02*
X155484490Y-111985605D01*
X155773314Y-111083279D02*
X155732963Y-111102711D01*
X155905426Y-111083279D02*
X155861763Y-111073313D01*
X155816977Y-111073313D02*
X155773314Y-111083279D01*
X156134185Y-111222321D02*
X156090522Y-111212355D01*
X155732317Y-112013528D02*
X155697302Y-111985605D01*
X155980791Y-111130634D02*
X155945776Y-111102711D01*
X156120234Y-111835762D02*
X156148157Y-111870777D01*
X156015157Y-111165000D02*
X155980791Y-111130634D01*
X156050172Y-111192923D02*
X156015157Y-111165000D01*
X155449475Y-112013528D02*
X153655439Y-113807561D01*
X155861763Y-111073313D02*
X155816977Y-111073313D01*
X156177556Y-111954789D02*
X156177556Y-111999575D01*
X156090522Y-111212355D02*
X156050172Y-111192923D01*
X156543636Y-110919364D02*
X156298000Y-111165000D01*
X156298000Y-111165000D02*
X156262985Y-111192923D01*
X156262985Y-111192923D02*
X156222634Y-111212355D01*
X156543636Y-108961142D02*
X156543636Y-110919364D01*
X155670024Y-111378461D02*
X155697948Y-111413476D01*
X156222634Y-111212355D02*
X156178971Y-111222321D01*
X156167589Y-111911127D02*
X156177556Y-111954789D01*
X155697302Y-111985605D02*
X155656952Y-111966173D01*
X155945776Y-111102711D02*
X155905426Y-111083279D01*
X156178971Y-111222321D02*
X156134185Y-111222321D01*
X156120235Y-112118604D02*
X156085221Y-112146528D01*
X155732963Y-111102711D02*
X155697948Y-111130634D01*
X155670024Y-111165648D02*
X155650592Y-111205999D01*
X155697948Y-111130634D02*
X155670024Y-111165648D01*
X155640626Y-111294448D02*
X155650592Y-111338111D01*
X155650592Y-111205999D02*
X155640626Y-111249662D01*
X155640626Y-111249662D02*
X155640626Y-111294448D01*
X155650592Y-111338111D02*
X155670024Y-111378461D01*
X155697948Y-111413476D02*
X156120234Y-111835762D01*
X156148157Y-111870777D02*
X156167589Y-111911127D01*
X156177556Y-111999575D02*
X156167589Y-112043239D01*
X156167589Y-112043239D02*
X156148158Y-112083589D01*
X156148158Y-112083589D02*
X156120235Y-112118604D01*
X156085221Y-112146528D02*
X156044869Y-112165961D01*
X156044869Y-112165961D02*
X156001207Y-112175926D01*
X156001207Y-112175926D02*
X155956421Y-112175926D01*
X122998000Y-99865000D02*
X124298300Y-99865000D01*
X124298300Y-99865000D02*
X124484600Y-99678700D01*
X124484600Y-99678700D02*
X126614000Y-99678700D01*
X126614000Y-99678700D02*
X130166000Y-103230700D01*
X130166000Y-103230700D02*
X130166000Y-112009800D01*
X157450300Y-88424600D02*
X156858500Y-87832800D01*
X156858500Y-87832800D02*
X143370400Y-87832800D01*
X143370400Y-87832800D02*
X139703700Y-84166100D01*
X157450300Y-88990285D02*
X157450300Y-88424600D01*
X161346500Y-108582600D02*
X163738000Y-106191100D01*
X157450300Y-92163514D02*
X157450300Y-88990285D01*
X163738000Y-98451214D02*
X157450300Y-92163514D01*
X163738000Y-106191100D02*
X163738000Y-98451214D01*
X162353685Y-111055000D02*
X161788000Y-111055000D01*
X165540699Y-85054499D02*
X165540699Y-108355413D01*
X165140700Y-84654500D02*
X165540699Y-85054499D01*
X165540699Y-108355413D02*
X162841112Y-111055000D01*
X162841112Y-111055000D02*
X162353685Y-111055000D01*
X158478000Y-87354800D02*
X143911200Y-87354800D01*
X143911200Y-87354800D02*
X140003800Y-83447400D01*
X140003800Y-83447400D02*
X139402900Y-83447400D01*
X139402900Y-83447400D02*
X138959700Y-83890600D01*
X138959700Y-83890600D02*
X138959700Y-85257200D01*
X138959700Y-85257200D02*
X139707300Y-86004800D01*
X164138000Y-106851022D02*
X162853750Y-108135272D01*
X158478000Y-92653800D02*
X164138000Y-98313800D01*
X158478000Y-87354800D02*
X158478000Y-92653800D01*
X164138000Y-98313800D02*
X164138000Y-106851022D01*
X162853750Y-108135272D02*
X162453751Y-108535271D01*
X164604700Y-107749325D02*
X164604700Y-108315010D01*
X164604700Y-96601700D02*
X164604700Y-107749325D01*
X162588000Y-94585000D02*
X164604700Y-96601700D01*
X162588000Y-90595000D02*
X162588000Y-94585000D01*
X163775700Y-87443900D02*
X163775700Y-89407300D01*
X163775700Y-89407300D02*
X162588000Y-90595000D01*
X158202200Y-83123100D02*
X158202200Y-85042900D01*
X158202200Y-85042900D02*
X159045300Y-85886000D01*
X159045300Y-85886000D02*
X161056700Y-85886000D01*
X161056700Y-85886000D02*
X162794600Y-84148100D01*
X162794600Y-84148100D02*
X163194599Y-83748101D01*
X165957999Y-107354999D02*
X166458001Y-107855001D01*
X165259201Y-83748101D02*
X165957999Y-84446899D01*
X166458001Y-107855001D02*
X166858000Y-108255000D01*
X165957999Y-84446899D02*
X165957999Y-107354999D01*
X163194599Y-83748101D02*
X165259201Y-83748101D01*
X159331500Y-91055600D02*
X161119800Y-91055600D01*
X161119800Y-91055600D02*
X163063000Y-89112400D01*
X163063000Y-89112400D02*
X163063000Y-87118200D01*
X163063000Y-87118200D02*
X164477000Y-85704200D01*
X164477000Y-85704200D02*
X164772200Y-85704200D01*
X161798000Y-75565000D02*
X160634100Y-75565000D01*
X159335300Y-85185700D02*
X159282800Y-85133200D01*
X159282800Y-85133200D02*
X159282800Y-78080200D01*
X159282800Y-78080200D02*
X160634100Y-76728900D01*
X160634100Y-76728900D02*
X160634100Y-75565000D01*
X170228000Y-78955000D02*
X167466600Y-81716400D01*
X167466600Y-81716400D02*
X167466600Y-99838800D01*
X167827999Y-118449603D02*
X167827999Y-112483399D01*
X166302609Y-119974993D02*
X167827999Y-118449603D01*
X167827999Y-112483399D02*
X168096168Y-112215230D01*
X160228007Y-119974993D02*
X166302609Y-119974993D01*
X168096168Y-112215230D02*
X168496167Y-111815231D01*
X165118000Y-111005000D02*
X165118000Y-112620685D01*
X165118000Y-112620685D02*
X157803685Y-119935000D01*
X157803685Y-119935000D02*
X157253667Y-119935000D01*
X157253667Y-119935000D02*
X156687982Y-119935000D01*
X160458001Y-113304999D02*
X160858000Y-112905000D01*
X157258000Y-116505000D02*
X160458001Y-113304999D01*
X152327990Y-116505000D02*
X157258000Y-116505000D01*
X157218002Y-115454998D02*
X149937986Y-115454998D01*
X160808000Y-111865000D02*
X157218002Y-115454998D01*
X149937986Y-115454998D02*
X149237999Y-116154985D01*
X149237999Y-116154985D02*
X148838000Y-116554984D01*
X166708000Y-102435000D02*
X166708000Y-97805000D01*
X166708000Y-97805000D02*
X166648000Y-97745000D01*
D16*
G36*
X124877017Y-73906637D02*
G01*
X124579637Y-74204017D01*
X124345988Y-74553698D01*
X124185047Y-74942244D01*
X124103000Y-75354721D01*
X124103000Y-75775279D01*
X124185047Y-76187756D01*
X124345988Y-76576302D01*
X124579637Y-76925983D01*
X124877017Y-77223363D01*
X125226698Y-77457012D01*
X125615244Y-77617953D01*
X126027721Y-77700000D01*
X126448279Y-77700000D01*
X126860756Y-77617953D01*
X127249302Y-77457012D01*
X127598983Y-77223363D01*
X127896363Y-76925983D01*
X128130012Y-76576302D01*
X128290953Y-76187756D01*
X128322515Y-76029082D01*
X128402775Y-76293664D01*
X128541931Y-76554006D01*
X128729203Y-76782197D01*
X128957395Y-76969469D01*
X129217737Y-77108625D01*
X129500224Y-77194316D01*
X129794000Y-77223251D01*
X130087777Y-77194316D01*
X130370264Y-77108625D01*
X130630606Y-76969469D01*
X130858797Y-76782197D01*
X131046069Y-76554006D01*
X131064000Y-76520459D01*
X131081931Y-76554006D01*
X131269203Y-76782197D01*
X131497395Y-76969469D01*
X131757737Y-77108625D01*
X132040224Y-77194316D01*
X132334000Y-77223251D01*
X132627777Y-77194316D01*
X132910264Y-77108625D01*
X133170606Y-76969469D01*
X133398797Y-76782197D01*
X133586069Y-76554006D01*
X133604000Y-76520459D01*
X133621931Y-76554006D01*
X133809203Y-76782197D01*
X134037395Y-76969469D01*
X134297737Y-77108625D01*
X134580224Y-77194316D01*
X134874000Y-77223251D01*
X135167777Y-77194316D01*
X135450264Y-77108625D01*
X135710606Y-76969469D01*
X135938797Y-76782197D01*
X136126069Y-76554006D01*
X136147424Y-76514053D01*
X136295514Y-76716729D01*
X136511965Y-76915733D01*
X136763081Y-77068686D01*
X137039211Y-77169709D01*
X137054974Y-77172358D01*
X137287000Y-77051217D01*
X137287000Y-75692000D01*
X137267000Y-75692000D01*
X137267000Y-75438000D01*
X137287000Y-75438000D01*
X137287000Y-74078783D01*
X137054974Y-73957642D01*
X137039211Y-73960291D01*
X136763081Y-74061314D01*
X136511965Y-74214267D01*
X136295514Y-74413271D01*
X136147424Y-74615947D01*
X136126069Y-74575994D01*
X135938797Y-74347803D01*
X135710605Y-74160531D01*
X135450263Y-74021375D01*
X135167776Y-73935684D01*
X134874000Y-73906749D01*
X134580223Y-73935684D01*
X134297736Y-74021375D01*
X134037394Y-74160531D01*
X133809203Y-74347803D01*
X133621931Y-74575995D01*
X133604000Y-74609541D01*
X133586069Y-74575994D01*
X133398797Y-74347803D01*
X133170605Y-74160531D01*
X132910263Y-74021375D01*
X132627776Y-73935684D01*
X132334000Y-73906749D01*
X132040223Y-73935684D01*
X131757736Y-74021375D01*
X131497394Y-74160531D01*
X131269203Y-74347803D01*
X131081931Y-74575995D01*
X131064000Y-74609541D01*
X131046069Y-74575994D01*
X130858797Y-74347803D01*
X130630605Y-74160531D01*
X130370263Y-74021375D01*
X130087776Y-73935684D01*
X129794000Y-73906749D01*
X129500223Y-73935684D01*
X129217736Y-74021375D01*
X128957394Y-74160531D01*
X128729203Y-74347803D01*
X128541931Y-74575995D01*
X128402775Y-74836337D01*
X128322515Y-75100919D01*
X128290953Y-74942244D01*
X128130012Y-74553698D01*
X127896363Y-74204017D01*
X127598983Y-73906637D01*
X127342110Y-73735000D01*
X175219909Y-73735000D01*
X176328001Y-74843093D01*
X176328000Y-85944125D01*
X176324565Y-85979000D01*
X176328000Y-86013875D01*
X176328000Y-86013876D01*
X176338273Y-86118183D01*
X176378872Y-86252019D01*
X176444800Y-86375362D01*
X176533525Y-86483474D01*
X176560617Y-86505708D01*
X177871000Y-87816092D01*
X177871000Y-88839133D01*
X177660756Y-88752047D01*
X177248279Y-88670000D01*
X176827721Y-88670000D01*
X176415244Y-88752047D01*
X176026698Y-88912988D01*
X175677017Y-89146637D01*
X175379637Y-89444017D01*
X175145988Y-89793698D01*
X174985047Y-90182244D01*
X174903000Y-90594721D01*
X174903000Y-91015279D01*
X174985047Y-91427756D01*
X175145988Y-91816302D01*
X175379637Y-92165983D01*
X175677017Y-92463363D01*
X176026698Y-92697012D01*
X176415244Y-92857953D01*
X176827721Y-92940000D01*
X177248279Y-92940000D01*
X177660756Y-92857953D01*
X177871000Y-92770867D01*
X177871000Y-116779133D01*
X177660756Y-116692047D01*
X177248279Y-116610000D01*
X176827721Y-116610000D01*
X176415244Y-116692047D01*
X176026698Y-116852988D01*
X175677017Y-117086637D01*
X175379637Y-117384017D01*
X175145988Y-117733698D01*
X174985047Y-118122244D01*
X174903000Y-118534721D01*
X174903000Y-118955279D01*
X174985047Y-119367756D01*
X175145988Y-119756302D01*
X175379637Y-120105983D01*
X175677017Y-120403363D01*
X176026698Y-120637012D01*
X176415244Y-120797953D01*
X176827721Y-120880000D01*
X177248279Y-120880000D01*
X177660756Y-120797953D01*
X177871000Y-120710867D01*
X177871000Y-121987908D01*
X176560617Y-123298292D01*
X176533526Y-123320525D01*
X176511293Y-123347616D01*
X176444801Y-123428637D01*
X176378872Y-123551981D01*
X176338274Y-123685816D01*
X176324565Y-123825000D01*
X176328001Y-123859885D01*
X176328000Y-125238000D01*
X175318646Y-125238000D01*
X175334606Y-125229469D01*
X175562797Y-125042197D01*
X175750069Y-124814006D01*
X175889225Y-124553663D01*
X175974916Y-124271176D01*
X175996600Y-124051018D01*
X175996600Y-123598981D01*
X175974916Y-123378823D01*
X175889225Y-123096336D01*
X175750069Y-122835994D01*
X175562797Y-122607803D01*
X175334605Y-122420531D01*
X175074263Y-122281375D01*
X174791776Y-122195684D01*
X174498000Y-122166749D01*
X174204223Y-122195684D01*
X173921736Y-122281375D01*
X173661394Y-122420531D01*
X173433203Y-122607803D01*
X173245931Y-122835995D01*
X173228000Y-122869541D01*
X173210069Y-122835994D01*
X173022797Y-122607803D01*
X172794605Y-122420531D01*
X172534263Y-122281375D01*
X172251776Y-122195684D01*
X171958000Y-122166749D01*
X171664223Y-122195684D01*
X171381736Y-122281375D01*
X171121394Y-122420531D01*
X170893203Y-122607803D01*
X170705931Y-122835995D01*
X170688000Y-122869541D01*
X170670069Y-122835994D01*
X170482797Y-122607803D01*
X170254605Y-122420531D01*
X169994263Y-122281375D01*
X169711776Y-122195684D01*
X169418000Y-122166749D01*
X169124223Y-122195684D01*
X168841736Y-122281375D01*
X168581394Y-122420531D01*
X168353203Y-122607803D01*
X168165931Y-122835995D01*
X168148000Y-122869541D01*
X168130069Y-122835994D01*
X167942797Y-122607803D01*
X167714605Y-122420531D01*
X167454263Y-122281375D01*
X167171776Y-122195684D01*
X166878000Y-122166749D01*
X166584223Y-122195684D01*
X166301736Y-122281375D01*
X166041394Y-122420531D01*
X165813203Y-122607803D01*
X165625931Y-122835995D01*
X165608000Y-122869541D01*
X165590069Y-122835994D01*
X165402797Y-122607803D01*
X165174605Y-122420531D01*
X164914263Y-122281375D01*
X164631776Y-122195684D01*
X164338000Y-122166749D01*
X164044223Y-122195684D01*
X163761736Y-122281375D01*
X163501394Y-122420531D01*
X163273203Y-122607803D01*
X163085931Y-122835995D01*
X163068000Y-122869541D01*
X163050069Y-122835994D01*
X162862797Y-122607803D01*
X162634605Y-122420531D01*
X162374263Y-122281375D01*
X162091776Y-122195684D01*
X161798000Y-122166749D01*
X161504223Y-122195684D01*
X161221736Y-122281375D01*
X160961394Y-122420531D01*
X160733203Y-122607803D01*
X160545931Y-122835995D01*
X160406775Y-123096337D01*
X160321084Y-123378824D01*
X160299400Y-123598982D01*
X160299400Y-124051019D01*
X160321084Y-124271177D01*
X160406775Y-124553664D01*
X160545931Y-124814006D01*
X160733203Y-125042197D01*
X160961395Y-125229469D01*
X160977355Y-125238000D01*
X157538646Y-125238000D01*
X157554606Y-125229469D01*
X157782797Y-125042197D01*
X157970069Y-124814006D01*
X158109225Y-124553663D01*
X158194916Y-124271176D01*
X158216600Y-124051018D01*
X158216600Y-123598981D01*
X158194916Y-123378823D01*
X158109225Y-123096336D01*
X157970069Y-122835994D01*
X157782797Y-122607803D01*
X157554605Y-122420531D01*
X157294263Y-122281375D01*
X157011776Y-122195684D01*
X156718000Y-122166749D01*
X156424223Y-122195684D01*
X156141736Y-122281375D01*
X155881394Y-122420531D01*
X155653203Y-122607803D01*
X155465931Y-122835995D01*
X155444576Y-122875947D01*
X155296486Y-122673271D01*
X155080035Y-122474267D01*
X154828919Y-122321314D01*
X154552789Y-122220291D01*
X154537026Y-122217642D01*
X154305000Y-122338783D01*
X154305000Y-123698000D01*
X154325000Y-123698000D01*
X154325000Y-123952000D01*
X154305000Y-123952000D01*
X154305000Y-123972000D01*
X154051000Y-123972000D01*
X154051000Y-123952000D01*
X151765000Y-123952000D01*
X151765000Y-123972000D01*
X151511000Y-123972000D01*
X151511000Y-123952000D01*
X151491000Y-123952000D01*
X151491000Y-123698000D01*
X151511000Y-123698000D01*
X151511000Y-122338783D01*
X151765000Y-122338783D01*
X151765000Y-123698000D01*
X154051000Y-123698000D01*
X154051000Y-122338783D01*
X153818974Y-122217642D01*
X153803211Y-122220291D01*
X153527081Y-122321314D01*
X153275965Y-122474267D01*
X153059514Y-122673271D01*
X152908000Y-122880633D01*
X152756486Y-122673271D01*
X152540035Y-122474267D01*
X152288919Y-122321314D01*
X152012789Y-122220291D01*
X151997026Y-122217642D01*
X151765000Y-122338783D01*
X151511000Y-122338783D01*
X151278974Y-122217642D01*
X151263211Y-122220291D01*
X150987081Y-122321314D01*
X150735965Y-122474267D01*
X150519514Y-122673271D01*
X150371424Y-122875947D01*
X150350069Y-122835994D01*
X150162797Y-122607803D01*
X149934605Y-122420531D01*
X149674263Y-122281375D01*
X149391776Y-122195684D01*
X149098000Y-122166749D01*
X148804223Y-122195684D01*
X148521736Y-122281375D01*
X148261394Y-122420531D01*
X148033203Y-122607803D01*
X147845931Y-122835995D01*
X147828000Y-122869541D01*
X147810069Y-122835994D01*
X147622797Y-122607803D01*
X147394605Y-122420531D01*
X147134263Y-122281375D01*
X146851776Y-122195684D01*
X146558000Y-122166749D01*
X146264223Y-122195684D01*
X145981736Y-122281375D01*
X145721394Y-122420531D01*
X145493203Y-122607803D01*
X145305931Y-122835995D01*
X145288000Y-122869541D01*
X145270069Y-122835994D01*
X145082797Y-122607803D01*
X144854605Y-122420531D01*
X144594263Y-122281375D01*
X144311776Y-122195684D01*
X144018000Y-122166749D01*
X143724223Y-122195684D01*
X143441736Y-122281375D01*
X143181394Y-122420531D01*
X142953203Y-122607803D01*
X142765931Y-122835995D01*
X142748000Y-122869541D01*
X142730069Y-122835994D01*
X142542797Y-122607803D01*
X142314605Y-122420531D01*
X142054263Y-122281375D01*
X141771776Y-122195684D01*
X141478000Y-122166749D01*
X141184223Y-122195684D01*
X140901736Y-122281375D01*
X140641394Y-122420531D01*
X140413203Y-122607803D01*
X140225931Y-122835995D01*
X140208000Y-122869541D01*
X140190069Y-122835994D01*
X140002797Y-122607803D01*
X139774605Y-122420531D01*
X139514263Y-122281375D01*
X139231776Y-122195684D01*
X138938000Y-122166749D01*
X138644223Y-122195684D01*
X138361736Y-122281375D01*
X138101394Y-122420531D01*
X137873203Y-122607803D01*
X137685931Y-122835995D01*
X137546775Y-123096337D01*
X137461084Y-123378824D01*
X137439400Y-123598982D01*
X137439400Y-124051019D01*
X137461084Y-124271177D01*
X137546775Y-124553664D01*
X137685931Y-124814006D01*
X137873203Y-125042197D01*
X138101395Y-125229469D01*
X138117355Y-125238000D01*
X126574346Y-125238000D01*
X126626363Y-125185983D01*
X126860012Y-124836302D01*
X127020953Y-124447756D01*
X127103000Y-124035279D01*
X127103000Y-123614721D01*
X127020953Y-123202244D01*
X126860012Y-122813698D01*
X126626363Y-122464017D01*
X126328983Y-122166637D01*
X125979302Y-121932988D01*
X125590756Y-121772047D01*
X125178279Y-121690000D01*
X124757721Y-121690000D01*
X124345244Y-121772047D01*
X123956698Y-121932988D01*
X123607017Y-122166637D01*
X123309637Y-122464017D01*
X123075988Y-122813698D01*
X122915047Y-123202244D01*
X122833000Y-123614721D01*
X122833000Y-124035279D01*
X122915047Y-124447756D01*
X123075988Y-124836302D01*
X123309637Y-125185983D01*
X123361654Y-125238000D01*
X121708000Y-125238000D01*
X121708000Y-111930010D01*
X121753820Y-111954502D01*
X121873518Y-111990812D01*
X121998000Y-112003072D01*
X123212250Y-112000000D01*
X123371000Y-111841250D01*
X123371000Y-111192000D01*
X123625000Y-111192000D01*
X123625000Y-111841250D01*
X123783750Y-112000000D01*
X124998000Y-112003072D01*
X125122482Y-111990812D01*
X125242180Y-111954502D01*
X125352494Y-111895537D01*
X125449185Y-111816185D01*
X125528537Y-111719494D01*
X125587502Y-111609180D01*
X125623812Y-111489482D01*
X125636072Y-111365000D01*
X125633000Y-111350750D01*
X125474250Y-111192000D01*
X123625000Y-111192000D01*
X123371000Y-111192000D01*
X123351000Y-111192000D01*
X123351000Y-110938000D01*
X123371000Y-110938000D01*
X123371000Y-110288750D01*
X123625000Y-110288750D01*
X123625000Y-110938000D01*
X125474250Y-110938000D01*
X125633000Y-110779250D01*
X125636072Y-110765000D01*
X125623812Y-110640518D01*
X125587502Y-110520820D01*
X125528537Y-110410506D01*
X125449185Y-110313815D01*
X125352494Y-110234463D01*
X125242180Y-110175498D01*
X125122482Y-110139188D01*
X124998000Y-110126928D01*
X123783750Y-110130000D01*
X123625000Y-110288750D01*
X123371000Y-110288750D01*
X123212250Y-110130000D01*
X121998000Y-110126928D01*
X121873518Y-110139188D01*
X121753820Y-110175498D01*
X121708000Y-110199990D01*
X121708000Y-108730010D01*
X121753820Y-108754502D01*
X121873518Y-108790812D01*
X121998000Y-108803072D01*
X122712250Y-108800000D01*
X122871000Y-108641250D01*
X122871000Y-107992000D01*
X123125000Y-107992000D01*
X123125000Y-108641250D01*
X123283750Y-108800000D01*
X123998000Y-108803072D01*
X124122482Y-108790812D01*
X124242180Y-108754502D01*
X124352494Y-108695537D01*
X124449185Y-108616185D01*
X124528537Y-108519494D01*
X124587502Y-108409180D01*
X124623812Y-108289482D01*
X124636072Y-108165000D01*
X124633000Y-108150750D01*
X124474250Y-107992000D01*
X123125000Y-107992000D01*
X122871000Y-107992000D01*
X122851000Y-107992000D01*
X122851000Y-107803072D01*
X123998000Y-107803072D01*
X124122482Y-107790812D01*
X124242180Y-107754502D01*
X124273053Y-107738000D01*
X124474250Y-107738000D01*
X124620787Y-107591463D01*
X124642085Y-107589365D01*
X124780633Y-107547337D01*
X124908320Y-107479087D01*
X125020238Y-107387238D01*
X125043259Y-107359187D01*
X125077446Y-107325000D01*
X125754895Y-107325000D01*
X125791000Y-107328556D01*
X125827105Y-107325000D01*
X125935085Y-107314365D01*
X126002476Y-107293922D01*
X126003807Y-107295253D01*
X126008342Y-107298974D01*
X126012550Y-107303051D01*
X126036242Y-107321871D01*
X126087680Y-107364086D01*
X126092883Y-107366867D01*
X126125637Y-107392887D01*
X126157923Y-107422866D01*
X126212954Y-107456759D01*
X126267255Y-107491805D01*
X126308220Y-107508014D01*
X126385629Y-107545775D01*
X126429142Y-107570388D01*
X126484891Y-107588764D01*
X126539921Y-107609206D01*
X126589277Y-107617137D01*
X126674768Y-107636277D01*
X126717915Y-107649365D01*
X126781232Y-107655601D01*
X126844350Y-107663345D01*
X126889302Y-107660000D01*
X126971698Y-107660000D01*
X127016649Y-107663345D01*
X127079763Y-107655602D01*
X127143085Y-107649365D01*
X127186234Y-107636276D01*
X127271722Y-107617137D01*
X127321079Y-107609206D01*
X127376113Y-107588763D01*
X127431857Y-107570388D01*
X127475366Y-107545777D01*
X127551288Y-107508742D01*
X127590769Y-107493326D01*
X127646626Y-107457633D01*
X127703077Y-107422866D01*
X127734139Y-107394024D01*
X127767643Y-107367655D01*
X127774319Y-107364086D01*
X127824446Y-107322948D01*
X127846942Y-107305243D01*
X127852375Y-107300028D01*
X127858193Y-107295253D01*
X127878417Y-107275029D01*
X127891392Y-107262574D01*
X127894559Y-107260384D01*
X127906301Y-107248262D01*
X127925217Y-107230104D01*
X127928641Y-107225199D01*
X127940837Y-107212609D01*
X127962253Y-107191193D01*
X127965974Y-107186658D01*
X127970051Y-107182450D01*
X127988871Y-107158758D01*
X128031086Y-107107320D01*
X128033867Y-107102117D01*
X128060612Y-107068450D01*
X128091286Y-107035204D01*
X128124398Y-106981055D01*
X128158805Y-106927745D01*
X128175445Y-106885691D01*
X128213348Y-106807357D01*
X128237388Y-106764858D01*
X128256133Y-106707992D01*
X128276801Y-106651806D01*
X128284393Y-106603578D01*
X128303277Y-106519232D01*
X128316365Y-106476085D01*
X128322601Y-106412768D01*
X128330345Y-106349650D01*
X128327000Y-106304698D01*
X128327000Y-106222302D01*
X128330345Y-106177350D01*
X128322601Y-106114228D01*
X128316365Y-106050916D01*
X128303278Y-106007772D01*
X128284137Y-105922277D01*
X128276206Y-105872921D01*
X128255764Y-105817891D01*
X128237388Y-105762142D01*
X128212775Y-105718629D01*
X128175014Y-105641220D01*
X128158805Y-105600255D01*
X128123759Y-105545954D01*
X128089866Y-105490923D01*
X128059887Y-105458637D01*
X128033867Y-105425883D01*
X128031086Y-105420680D01*
X128016968Y-105403478D01*
X128512032Y-104908415D01*
X128567102Y-104931226D01*
X128767061Y-104971000D01*
X128970939Y-104971000D01*
X129170898Y-104931226D01*
X129359256Y-104853205D01*
X129431000Y-104805267D01*
X129431001Y-111281088D01*
X129362063Y-111350026D01*
X129248795Y-111519544D01*
X129170774Y-111707902D01*
X129131000Y-111907861D01*
X129131000Y-112111739D01*
X129170774Y-112311698D01*
X129248795Y-112500056D01*
X129362063Y-112669574D01*
X129506226Y-112813737D01*
X129675744Y-112927005D01*
X129864102Y-113005026D01*
X130064061Y-113044800D01*
X130267939Y-113044800D01*
X130467898Y-113005026D01*
X130656256Y-112927005D01*
X130825774Y-112813737D01*
X130969937Y-112669574D01*
X131083205Y-112500056D01*
X131161226Y-112311698D01*
X131201000Y-112111739D01*
X131201000Y-111907861D01*
X131161226Y-111707902D01*
X131083205Y-111519544D01*
X130969937Y-111350026D01*
X130901000Y-111281089D01*
X130901000Y-108763061D01*
X133563000Y-108763061D01*
X133563000Y-108966939D01*
X133602774Y-109166898D01*
X133680795Y-109355256D01*
X133794063Y-109524774D01*
X133938226Y-109668937D01*
X134107744Y-109782205D01*
X134296102Y-109860226D01*
X134496061Y-109900000D01*
X134699939Y-109900000D01*
X134899898Y-109860226D01*
X135088256Y-109782205D01*
X135257774Y-109668937D01*
X135401937Y-109524774D01*
X135515205Y-109355256D01*
X135593226Y-109166898D01*
X135633000Y-108966939D01*
X135633000Y-108869446D01*
X140002447Y-104500000D01*
X141869289Y-104500000D01*
X141938226Y-104568937D01*
X142107744Y-104682205D01*
X142296102Y-104760226D01*
X142496061Y-104800000D01*
X142699939Y-104800000D01*
X142899898Y-104760226D01*
X143088256Y-104682205D01*
X143257774Y-104568937D01*
X143401937Y-104424774D01*
X143515205Y-104255256D01*
X143593226Y-104066898D01*
X143633000Y-103866939D01*
X143633000Y-103663061D01*
X143593226Y-103463102D01*
X143515205Y-103274744D01*
X143401937Y-103105226D01*
X143257774Y-102961063D01*
X143088256Y-102847795D01*
X142899898Y-102769774D01*
X142699939Y-102730000D01*
X142496061Y-102730000D01*
X142296102Y-102769774D01*
X142107744Y-102847795D01*
X141938226Y-102961063D01*
X141869289Y-103030000D01*
X139734096Y-103030000D01*
X139697999Y-103026445D01*
X139661902Y-103030000D01*
X139661895Y-103030000D01*
X139569531Y-103039097D01*
X139553914Y-103040635D01*
X139513954Y-103052757D01*
X139415367Y-103082663D01*
X139287680Y-103150913D01*
X139175762Y-103242762D01*
X139152746Y-103270807D01*
X134593554Y-107830000D01*
X134496061Y-107830000D01*
X134296102Y-107869774D01*
X134107744Y-107947795D01*
X133938226Y-108061063D01*
X133794063Y-108205226D01*
X133680795Y-108374744D01*
X133602774Y-108563102D01*
X133563000Y-108763061D01*
X130901000Y-108763061D01*
X130901000Y-103513061D01*
X132667700Y-103513061D01*
X132667700Y-103716939D01*
X132707474Y-103916898D01*
X132785495Y-104105256D01*
X132898763Y-104274774D01*
X132967700Y-104343711D01*
X132967701Y-105535988D01*
X132898763Y-105604926D01*
X132785495Y-105774444D01*
X132707474Y-105962802D01*
X132667700Y-106162761D01*
X132667700Y-106366639D01*
X132707474Y-106566598D01*
X132785495Y-106754956D01*
X132898763Y-106924474D01*
X133042926Y-107068637D01*
X133212444Y-107181905D01*
X133400802Y-107259926D01*
X133600761Y-107299700D01*
X133804639Y-107299700D01*
X134004598Y-107259926D01*
X134192956Y-107181905D01*
X134362474Y-107068637D01*
X134506637Y-106924474D01*
X134619905Y-106754956D01*
X134697926Y-106566598D01*
X134737700Y-106366639D01*
X134737700Y-106162761D01*
X134697926Y-105962802D01*
X134619905Y-105774444D01*
X134506637Y-105604926D01*
X134437700Y-105535989D01*
X134437700Y-104343711D01*
X134506637Y-104274774D01*
X134619905Y-104105256D01*
X134697926Y-103916898D01*
X134737700Y-103716939D01*
X134737700Y-103513061D01*
X134697926Y-103313102D01*
X134619905Y-103124744D01*
X134506637Y-102955226D01*
X134463000Y-102911589D01*
X134463000Y-101480311D01*
X134531937Y-101411374D01*
X134645205Y-101241856D01*
X134723226Y-101053498D01*
X134763000Y-100853539D01*
X134763000Y-100649661D01*
X134723226Y-100449702D01*
X134645205Y-100261344D01*
X134531937Y-100091826D01*
X134387774Y-99947663D01*
X134218256Y-99834395D01*
X134029898Y-99756374D01*
X133829939Y-99716600D01*
X133626061Y-99716600D01*
X133426102Y-99756374D01*
X133237744Y-99834395D01*
X133068226Y-99947663D01*
X132924063Y-100091826D01*
X132810795Y-100261344D01*
X132732774Y-100449702D01*
X132693000Y-100649661D01*
X132693000Y-100853539D01*
X132732774Y-101053498D01*
X132810795Y-101241856D01*
X132924063Y-101411374D01*
X132993001Y-101480312D01*
X132993000Y-102860989D01*
X132898763Y-102955226D01*
X132785495Y-103124744D01*
X132707474Y-103313102D01*
X132667700Y-103513061D01*
X130901000Y-103513061D01*
X130901000Y-103266805D01*
X130904556Y-103230700D01*
X130890365Y-103086615D01*
X130848337Y-102948066D01*
X130780087Y-102820380D01*
X130711253Y-102736506D01*
X130711250Y-102736503D01*
X130688237Y-102708462D01*
X130660197Y-102685450D01*
X127159259Y-99184513D01*
X127136238Y-99156462D01*
X127024320Y-99064613D01*
X126896633Y-98996363D01*
X126758085Y-98954335D01*
X126650105Y-98943700D01*
X126614000Y-98940144D01*
X126577895Y-98943700D01*
X124520705Y-98943700D01*
X124484600Y-98940144D01*
X124340514Y-98954335D01*
X124308268Y-98964117D01*
X124252524Y-98981027D01*
X124242180Y-98975498D01*
X124122482Y-98939188D01*
X123998000Y-98926928D01*
X121998000Y-98926928D01*
X121873518Y-98939188D01*
X121753820Y-98975498D01*
X121708000Y-98999990D01*
X121708000Y-97530010D01*
X121753820Y-97554502D01*
X121873518Y-97590812D01*
X121998000Y-97603072D01*
X123212250Y-97600000D01*
X123371000Y-97441250D01*
X123371000Y-96792000D01*
X123625000Y-96792000D01*
X123625000Y-97441250D01*
X123783750Y-97600000D01*
X124998000Y-97603072D01*
X125122482Y-97590812D01*
X125242180Y-97554502D01*
X125352494Y-97495537D01*
X125449185Y-97416185D01*
X125528537Y-97319494D01*
X125587502Y-97209180D01*
X125623812Y-97089482D01*
X125636072Y-96965000D01*
X125633000Y-96950750D01*
X125474250Y-96792000D01*
X123625000Y-96792000D01*
X123371000Y-96792000D01*
X123351000Y-96792000D01*
X123351000Y-96665961D01*
X134513100Y-96665961D01*
X134513100Y-96869839D01*
X134552874Y-97069798D01*
X134630895Y-97258156D01*
X134744163Y-97427674D01*
X134888326Y-97571837D01*
X135057844Y-97685105D01*
X135246202Y-97763126D01*
X135446161Y-97802900D01*
X135650039Y-97802900D01*
X135849998Y-97763126D01*
X136038356Y-97685105D01*
X136207874Y-97571837D01*
X136352037Y-97427674D01*
X136465305Y-97258156D01*
X136543326Y-97069798D01*
X136583100Y-96869839D01*
X136583100Y-96772346D01*
X144087347Y-89268100D01*
X148519189Y-89268100D01*
X148588126Y-89337037D01*
X148757644Y-89450305D01*
X148946002Y-89528326D01*
X149145961Y-89568100D01*
X149349839Y-89568100D01*
X149549798Y-89528326D01*
X149738156Y-89450305D01*
X149907674Y-89337037D01*
X150051837Y-89192874D01*
X150165105Y-89023356D01*
X150243126Y-88834998D01*
X150282900Y-88635039D01*
X150282900Y-88567800D01*
X156423507Y-88567800D01*
X156455074Y-88726498D01*
X156533095Y-88914856D01*
X156646363Y-89084374D01*
X156715301Y-89153312D01*
X156715300Y-92127409D01*
X156711744Y-92163514D01*
X156715300Y-92199618D01*
X156725935Y-92307598D01*
X156767963Y-92446146D01*
X156836213Y-92573833D01*
X156928062Y-92685751D01*
X156956108Y-92708768D01*
X158927340Y-94680000D01*
X154132555Y-94680000D01*
X154163000Y-94526939D01*
X154163000Y-94323061D01*
X154123226Y-94123102D01*
X154045205Y-93934744D01*
X153931937Y-93765226D01*
X153787774Y-93621063D01*
X153618256Y-93507795D01*
X153429898Y-93429774D01*
X153229939Y-93390000D01*
X153132446Y-93390000D01*
X152823258Y-93080812D01*
X152800238Y-93052762D01*
X152688320Y-92960913D01*
X152560633Y-92892663D01*
X152422085Y-92850635D01*
X152314105Y-92840000D01*
X152278000Y-92836444D01*
X152241895Y-92840000D01*
X141424094Y-92840000D01*
X141387999Y-92836445D01*
X141351904Y-92840000D01*
X141351895Y-92840000D01*
X141243915Y-92850635D01*
X141105367Y-92892663D01*
X140977680Y-92960913D01*
X140865762Y-93052762D01*
X140842746Y-93080807D01*
X140543553Y-93380000D01*
X140446061Y-93380000D01*
X140246102Y-93419774D01*
X140057744Y-93497795D01*
X139888226Y-93611063D01*
X139744063Y-93755226D01*
X139630795Y-93924744D01*
X139552774Y-94113102D01*
X139513000Y-94313061D01*
X139513000Y-94516939D01*
X139552774Y-94716898D01*
X139630795Y-94905256D01*
X139744063Y-95074774D01*
X139888226Y-95218937D01*
X140057744Y-95332205D01*
X140246102Y-95410226D01*
X140446061Y-95450000D01*
X140649939Y-95450000D01*
X140849898Y-95410226D01*
X141038256Y-95332205D01*
X141077713Y-95305841D01*
X140453808Y-95929746D01*
X140425763Y-95952762D01*
X140333914Y-96064680D01*
X140265663Y-96192367D01*
X140225926Y-96323363D01*
X140144063Y-96405226D01*
X140030795Y-96574744D01*
X139952774Y-96763102D01*
X139913000Y-96963061D01*
X139913000Y-97166939D01*
X139952774Y-97366898D01*
X140030795Y-97555256D01*
X140144063Y-97724774D01*
X140288226Y-97868937D01*
X140457744Y-97982205D01*
X140646102Y-98060226D01*
X140846061Y-98100000D01*
X141049939Y-98100000D01*
X141249898Y-98060226D01*
X141438256Y-97982205D01*
X141607774Y-97868937D01*
X141751937Y-97724774D01*
X141865205Y-97555256D01*
X141943226Y-97366898D01*
X141983000Y-97166939D01*
X141983000Y-96963061D01*
X141943226Y-96763102D01*
X141871794Y-96590652D01*
X143282447Y-95180000D01*
X145573553Y-95180000D01*
X142326454Y-98427100D01*
X142139939Y-98390000D01*
X141936061Y-98390000D01*
X141736102Y-98429774D01*
X141547744Y-98507795D01*
X141378226Y-98621063D01*
X141234063Y-98765226D01*
X141120795Y-98934744D01*
X141042774Y-99123102D01*
X141003000Y-99323061D01*
X141003000Y-99526939D01*
X141042774Y-99726898D01*
X141120795Y-99915256D01*
X141234063Y-100084774D01*
X141378226Y-100228937D01*
X141547744Y-100342205D01*
X141736102Y-100420226D01*
X141936061Y-100460000D01*
X142139939Y-100460000D01*
X142339898Y-100420226D01*
X142528256Y-100342205D01*
X142697774Y-100228937D01*
X142841937Y-100084774D01*
X142955205Y-99915256D01*
X142982086Y-99850360D01*
X146173379Y-96659068D01*
X146200795Y-96725256D01*
X146314063Y-96894774D01*
X146458226Y-97038937D01*
X146472983Y-97048797D01*
X146450010Y-97071770D01*
X146352517Y-97071770D01*
X146152558Y-97111544D01*
X145964200Y-97189565D01*
X145794682Y-97302833D01*
X145650519Y-97446996D01*
X145537251Y-97616514D01*
X145459230Y-97804872D01*
X145419456Y-98004831D01*
X145419456Y-98208709D01*
X145459230Y-98408668D01*
X145537251Y-98597026D01*
X145601086Y-98692562D01*
X145467744Y-98747795D01*
X145298226Y-98861063D01*
X145154063Y-99005226D01*
X145040795Y-99174744D01*
X144962774Y-99363102D01*
X144923000Y-99563061D01*
X144923000Y-99766939D01*
X144962774Y-99966898D01*
X145040795Y-100155256D01*
X145154063Y-100324774D01*
X145298226Y-100468937D01*
X145467744Y-100582205D01*
X145656102Y-100660226D01*
X145856061Y-100700000D01*
X145949289Y-100700000D01*
X145914063Y-100735226D01*
X145800795Y-100904744D01*
X145722774Y-101093102D01*
X145683000Y-101293061D01*
X145683000Y-101496939D01*
X145722774Y-101696898D01*
X145800795Y-101885256D01*
X145914063Y-102054774D01*
X146013651Y-102154362D01*
X145988012Y-102180000D01*
X145554105Y-102180000D01*
X145518000Y-102176444D01*
X145373915Y-102190635D01*
X145235366Y-102232663D01*
X145121566Y-102293491D01*
X145107680Y-102300913D01*
X144995762Y-102392762D01*
X144972746Y-102420807D01*
X144042808Y-103350746D01*
X144014763Y-103373762D01*
X143922914Y-103485680D01*
X143868430Y-103587613D01*
X143854664Y-103613367D01*
X143812635Y-103751915D01*
X143798444Y-103896000D01*
X143802001Y-103932115D01*
X143802000Y-107351553D01*
X143163554Y-107990000D01*
X143066061Y-107990000D01*
X142866102Y-108029774D01*
X142677744Y-108107795D01*
X142508226Y-108221063D01*
X142364063Y-108365226D01*
X142250795Y-108534744D01*
X142172774Y-108723102D01*
X142133000Y-108923061D01*
X142133000Y-109126939D01*
X142172774Y-109326898D01*
X142250795Y-109515256D01*
X142364063Y-109684774D01*
X142508226Y-109828937D01*
X142677744Y-109942205D01*
X142866102Y-110020226D01*
X143066061Y-110060000D01*
X143269939Y-110060000D01*
X143469898Y-110020226D01*
X143658256Y-109942205D01*
X143827774Y-109828937D01*
X143971937Y-109684774D01*
X144085205Y-109515256D01*
X144163226Y-109326898D01*
X144203000Y-109126939D01*
X144203000Y-109029446D01*
X145031197Y-108201250D01*
X145059237Y-108178238D01*
X145082250Y-108150197D01*
X145082253Y-108150194D01*
X145135590Y-108085203D01*
X145151087Y-108066320D01*
X145219337Y-107938633D01*
X145261365Y-107800085D01*
X145272000Y-107692105D01*
X145272000Y-107692096D01*
X145275555Y-107656001D01*
X145272000Y-107619906D01*
X145272000Y-107178770D01*
X145273808Y-107180254D01*
X146195126Y-108101573D01*
X146116701Y-108179998D01*
X145891558Y-108179998D01*
X145855461Y-108176443D01*
X145819364Y-108179998D01*
X145819357Y-108179998D01*
X145725594Y-108189233D01*
X145711376Y-108190633D01*
X145679143Y-108200411D01*
X145572829Y-108232661D01*
X145445142Y-108300911D01*
X145393805Y-108343042D01*
X145290479Y-108343042D01*
X145090520Y-108382816D01*
X144902162Y-108460837D01*
X144732644Y-108574105D01*
X144588481Y-108718268D01*
X144475213Y-108887786D01*
X144397192Y-109076144D01*
X144357418Y-109276103D01*
X144357418Y-109479981D01*
X144397192Y-109679940D01*
X144475213Y-109868298D01*
X144588481Y-110037816D01*
X144732644Y-110181979D01*
X144902162Y-110295247D01*
X145090520Y-110373268D01*
X145290479Y-110413042D01*
X145443000Y-110413042D01*
X145443000Y-110426939D01*
X145482774Y-110626898D01*
X145560795Y-110815256D01*
X145579002Y-110842504D01*
X145567590Y-110847804D01*
X145529960Y-110875306D01*
X145516735Y-110883615D01*
X145475633Y-110905585D01*
X145427634Y-110944977D01*
X145378566Y-110982994D01*
X145348003Y-111018175D01*
X145336956Y-111029222D01*
X145301773Y-111059787D01*
X145263750Y-111108862D01*
X145224364Y-111156855D01*
X145202396Y-111197954D01*
X145194088Y-111211177D01*
X145166583Y-111248811D01*
X145140432Y-111305120D01*
X145124254Y-111337543D01*
X145007774Y-111221063D01*
X144838256Y-111107795D01*
X144649898Y-111029774D01*
X144449939Y-110990000D01*
X144246061Y-110990000D01*
X144046102Y-111029774D01*
X143857744Y-111107795D01*
X143688226Y-111221063D01*
X143544063Y-111365226D01*
X143430795Y-111534744D01*
X143352774Y-111723102D01*
X143313000Y-111923061D01*
X143313000Y-112126939D01*
X143352774Y-112326898D01*
X143430795Y-112515256D01*
X143544063Y-112684774D01*
X143688226Y-112828937D01*
X143857744Y-112942205D01*
X144046102Y-113020226D01*
X144246061Y-113060000D01*
X144376806Y-113060000D01*
X144465366Y-113107336D01*
X144525781Y-113125663D01*
X144548048Y-113173609D01*
X144575550Y-113211240D01*
X144579143Y-113216958D01*
X144601111Y-113258057D01*
X144640493Y-113306045D01*
X144678519Y-113355124D01*
X144713700Y-113385687D01*
X144718477Y-113390464D01*
X144749042Y-113425647D01*
X144798114Y-113463667D01*
X144846108Y-113503055D01*
X144887209Y-113525024D01*
X144892929Y-113528618D01*
X144930557Y-113556118D01*
X144986864Y-113582268D01*
X145042413Y-113609985D01*
X145087371Y-113622257D01*
X145093747Y-113624488D01*
X145136549Y-113642925D01*
X145197264Y-113655890D01*
X145257591Y-113670553D01*
X145294732Y-113672117D01*
X145341622Y-113676735D01*
X145372357Y-113680198D01*
X145377520Y-113680270D01*
X145382673Y-113680778D01*
X145413674Y-113680778D01*
X145432229Y-113681038D01*
X145435931Y-113681721D01*
X145458390Y-113681406D01*
X145480849Y-113681721D01*
X145484551Y-113681038D01*
X145503106Y-113680778D01*
X145534105Y-113680778D01*
X145539258Y-113680270D01*
X145544422Y-113680198D01*
X145575147Y-113676736D01*
X145622047Y-113672117D01*
X145659185Y-113670553D01*
X145719529Y-113655886D01*
X145780230Y-113642924D01*
X145823028Y-113624489D01*
X145829406Y-113622257D01*
X145874364Y-113609985D01*
X145929904Y-113582272D01*
X145986220Y-113556118D01*
X146023851Y-113528616D01*
X146029569Y-113525023D01*
X146065694Y-113505714D01*
X146101820Y-113525024D01*
X146107540Y-113528618D01*
X146145168Y-113556118D01*
X146201475Y-113582268D01*
X146257024Y-113609985D01*
X146301982Y-113622257D01*
X146308358Y-113624488D01*
X146351160Y-113642925D01*
X146411875Y-113655890D01*
X146472202Y-113670553D01*
X146509343Y-113672117D01*
X146556233Y-113676735D01*
X146586968Y-113680198D01*
X146592131Y-113680270D01*
X146597284Y-113680778D01*
X146628285Y-113680778D01*
X146646840Y-113681038D01*
X146650542Y-113681721D01*
X146673001Y-113681406D01*
X146695460Y-113681721D01*
X146699162Y-113681038D01*
X146717717Y-113680778D01*
X146748716Y-113680778D01*
X146753869Y-113680270D01*
X146759033Y-113680198D01*
X146789758Y-113676736D01*
X146836658Y-113672117D01*
X146873796Y-113670553D01*
X146934140Y-113655886D01*
X146994841Y-113642924D01*
X147037639Y-113624489D01*
X147044017Y-113622257D01*
X147088975Y-113609985D01*
X147144515Y-113582272D01*
X147200831Y-113556118D01*
X147238462Y-113528616D01*
X147244180Y-113525023D01*
X147285279Y-113503055D01*
X147333267Y-113463673D01*
X147348031Y-113452233D01*
X147382774Y-113626898D01*
X147460795Y-113815256D01*
X147574063Y-113984774D01*
X147718226Y-114128937D01*
X147887744Y-114242205D01*
X148076102Y-114320226D01*
X148276061Y-114360000D01*
X148479939Y-114360000D01*
X148679898Y-114320226D01*
X148868256Y-114242205D01*
X149037774Y-114128937D01*
X149106711Y-114060000D01*
X152045481Y-114060000D01*
X152002774Y-114163102D01*
X151963000Y-114363061D01*
X151963000Y-114566939D01*
X151993445Y-114719998D01*
X149974082Y-114719998D01*
X149937985Y-114716443D01*
X149901888Y-114719998D01*
X149901881Y-114719998D01*
X149808118Y-114729233D01*
X149793900Y-114730633D01*
X149751872Y-114743382D01*
X149655353Y-114772661D01*
X149527666Y-114840911D01*
X149415748Y-114932760D01*
X149392732Y-114960805D01*
X148833554Y-115519984D01*
X148736061Y-115519984D01*
X148536102Y-115559758D01*
X148347744Y-115637779D01*
X148178226Y-115751047D01*
X148034063Y-115895210D01*
X147920795Y-116064728D01*
X147842774Y-116253086D01*
X147803000Y-116453045D01*
X147803000Y-116656923D01*
X147842774Y-116856882D01*
X147920795Y-117045240D01*
X148034063Y-117214758D01*
X148178226Y-117358921D01*
X148347744Y-117472189D01*
X148536102Y-117550210D01*
X148736061Y-117589984D01*
X148939939Y-117589984D01*
X149139898Y-117550210D01*
X149328256Y-117472189D01*
X149497774Y-117358921D01*
X149641937Y-117214758D01*
X149755205Y-117045240D01*
X149833226Y-116856882D01*
X149873000Y-116656923D01*
X149873000Y-116559430D01*
X150242433Y-116189998D01*
X151338192Y-116189998D01*
X151332764Y-116203102D01*
X151292990Y-116403061D01*
X151292990Y-116606939D01*
X151332764Y-116806898D01*
X151410785Y-116995256D01*
X151524053Y-117164774D01*
X151668216Y-117308937D01*
X151837734Y-117422205D01*
X152026092Y-117500226D01*
X152226051Y-117540000D01*
X152429929Y-117540000D01*
X152629888Y-117500226D01*
X152818246Y-117422205D01*
X152987764Y-117308937D01*
X153056701Y-117240000D01*
X157221895Y-117240000D01*
X157258000Y-117243556D01*
X157294105Y-117240000D01*
X157402085Y-117229365D01*
X157540633Y-117187337D01*
X157668320Y-117119087D01*
X157780238Y-117027238D01*
X157803259Y-116999187D01*
X160862447Y-113940000D01*
X160959939Y-113940000D01*
X161159898Y-113900226D01*
X161348256Y-113822205D01*
X161517774Y-113708937D01*
X161661937Y-113564774D01*
X161775205Y-113395256D01*
X161853226Y-113206898D01*
X161893000Y-113006939D01*
X161893000Y-112803061D01*
X161853226Y-112603102D01*
X161775205Y-112414744D01*
X161729128Y-112345785D01*
X161803226Y-112166898D01*
X161818522Y-112090000D01*
X161889939Y-112090000D01*
X162089898Y-112050226D01*
X162278256Y-111972205D01*
X162447774Y-111858937D01*
X162516711Y-111790000D01*
X162805007Y-111790000D01*
X162841112Y-111793556D01*
X162877217Y-111790000D01*
X162914348Y-111786343D01*
X162985197Y-111779365D01*
X163005273Y-111773275D01*
X163123745Y-111737337D01*
X163251432Y-111669087D01*
X163363350Y-111577238D01*
X163386371Y-111549188D01*
X164095540Y-110840018D01*
X164083000Y-110903061D01*
X164083000Y-111106939D01*
X164122774Y-111306898D01*
X164200795Y-111495256D01*
X164314063Y-111664774D01*
X164383000Y-111733711D01*
X164383001Y-112316237D01*
X157499239Y-119200000D01*
X157416693Y-119200000D01*
X157347756Y-119131063D01*
X157178238Y-119017795D01*
X156989880Y-118939774D01*
X156789921Y-118900000D01*
X156586043Y-118900000D01*
X156386084Y-118939774D01*
X156197726Y-119017795D01*
X156028208Y-119131063D01*
X155884045Y-119275226D01*
X155770777Y-119444744D01*
X155692756Y-119633102D01*
X155652982Y-119833061D01*
X155652982Y-120036939D01*
X155692756Y-120236898D01*
X155770777Y-120425256D01*
X155884045Y-120594774D01*
X156028208Y-120738937D01*
X156197726Y-120852205D01*
X156386084Y-120930226D01*
X156586043Y-120970000D01*
X156789921Y-120970000D01*
X156989880Y-120930226D01*
X157178238Y-120852205D01*
X157347756Y-120738937D01*
X157416693Y-120670000D01*
X157767580Y-120670000D01*
X157803685Y-120673556D01*
X157839790Y-120670000D01*
X157947770Y-120659365D01*
X158086318Y-120617337D01*
X158214005Y-120549087D01*
X158325923Y-120457238D01*
X158348944Y-120429187D01*
X159345855Y-119432276D01*
X159310802Y-119484737D01*
X159232781Y-119673095D01*
X159193007Y-119873054D01*
X159193007Y-120076932D01*
X159232781Y-120276891D01*
X159310802Y-120465249D01*
X159424070Y-120634767D01*
X159568233Y-120778930D01*
X159737751Y-120892198D01*
X159926109Y-120970219D01*
X160126068Y-121009993D01*
X160329946Y-121009993D01*
X160529905Y-120970219D01*
X160718263Y-120892198D01*
X160887781Y-120778930D01*
X160956718Y-120709993D01*
X166266504Y-120709993D01*
X166302609Y-120713549D01*
X166338714Y-120709993D01*
X166446694Y-120699358D01*
X166585242Y-120657330D01*
X166712929Y-120589080D01*
X166824847Y-120497231D01*
X166847867Y-120469181D01*
X168322196Y-118994853D01*
X168350236Y-118971841D01*
X168373249Y-118943800D01*
X168373252Y-118943797D01*
X168442085Y-118859924D01*
X168442086Y-118859923D01*
X168510336Y-118732236D01*
X168552364Y-118593688D01*
X168562999Y-118485708D01*
X168562999Y-118485699D01*
X168566554Y-118449604D01*
X168562999Y-118413509D01*
X168562999Y-113860000D01*
X168629939Y-113860000D01*
X168829898Y-113820226D01*
X169018256Y-113742205D01*
X169187774Y-113628937D01*
X169331937Y-113484774D01*
X169445205Y-113315256D01*
X169523226Y-113126898D01*
X169563000Y-112926939D01*
X169563000Y-112829446D01*
X171642193Y-110750254D01*
X171670238Y-110727238D01*
X171762087Y-110615320D01*
X171784818Y-110572794D01*
X171830337Y-110487634D01*
X171872365Y-110349085D01*
X171886556Y-110205000D01*
X171883000Y-110168895D01*
X171883000Y-108883711D01*
X171951937Y-108814774D01*
X172065205Y-108645256D01*
X172143226Y-108456898D01*
X172183000Y-108256939D01*
X172183000Y-108053061D01*
X172143226Y-107853102D01*
X172065205Y-107664744D01*
X171951937Y-107495226D01*
X171807774Y-107351063D01*
X171638256Y-107237795D01*
X171449898Y-107159774D01*
X171249939Y-107120000D01*
X171046061Y-107120000D01*
X170846102Y-107159774D01*
X170657744Y-107237795D01*
X170499944Y-107343233D01*
X170497774Y-107341063D01*
X170328256Y-107227795D01*
X170139898Y-107149774D01*
X169939939Y-107110000D01*
X169736061Y-107110000D01*
X169536102Y-107149774D01*
X169347744Y-107227795D01*
X169178226Y-107341063D01*
X169034063Y-107485226D01*
X168920795Y-107654744D01*
X168842774Y-107843102D01*
X168803000Y-108043061D01*
X168803000Y-108140553D01*
X166263808Y-110679746D01*
X166235762Y-110702763D01*
X166143913Y-110814681D01*
X166137724Y-110826261D01*
X166113226Y-110703102D01*
X166035205Y-110514744D01*
X165921937Y-110345226D01*
X165777774Y-110201063D01*
X165608256Y-110087795D01*
X165419898Y-110009774D01*
X165219939Y-109970000D01*
X165016061Y-109970000D01*
X164953019Y-109982540D01*
X166034892Y-108900667D01*
X166041186Y-108895502D01*
X166054063Y-108914774D01*
X166198226Y-109058937D01*
X166367744Y-109172205D01*
X166556102Y-109250226D01*
X166756061Y-109290000D01*
X166959939Y-109290000D01*
X167159898Y-109250226D01*
X167348256Y-109172205D01*
X167517774Y-109058937D01*
X167661937Y-108914774D01*
X167775205Y-108745256D01*
X167853226Y-108556898D01*
X167893000Y-108356939D01*
X167893000Y-108153061D01*
X167853226Y-107953102D01*
X167775205Y-107764744D01*
X167661937Y-107595226D01*
X167517774Y-107451063D01*
X167457217Y-107410600D01*
X167609919Y-107380226D01*
X167798277Y-107302205D01*
X167967795Y-107188937D01*
X168111958Y-107044774D01*
X168225226Y-106875256D01*
X168303247Y-106686898D01*
X168343021Y-106486939D01*
X168343021Y-106389446D01*
X168670987Y-106061480D01*
X168699038Y-106038459D01*
X168790887Y-105926541D01*
X168859137Y-105798854D01*
X168895622Y-105678580D01*
X168901165Y-105660307D01*
X168915356Y-105516222D01*
X168911800Y-105480117D01*
X168911800Y-105201936D01*
X169004244Y-105263705D01*
X169192602Y-105341726D01*
X169392561Y-105381500D01*
X169596439Y-105381500D01*
X169796398Y-105341726D01*
X169984756Y-105263705D01*
X170154274Y-105150437D01*
X170298437Y-105006274D01*
X170411705Y-104836756D01*
X170489726Y-104648398D01*
X170529500Y-104448439D01*
X170529500Y-104244561D01*
X170489726Y-104044602D01*
X170411705Y-103856244D01*
X170298437Y-103686726D01*
X170154274Y-103542563D01*
X169984756Y-103429295D01*
X169898300Y-103393483D01*
X169898300Y-98304046D01*
X170272900Y-98678647D01*
X170272900Y-98776139D01*
X170312674Y-98976098D01*
X170390695Y-99164456D01*
X170503963Y-99333974D01*
X170648126Y-99478137D01*
X170817644Y-99591405D01*
X171006002Y-99669426D01*
X171205961Y-99709200D01*
X171409839Y-99709200D01*
X171609798Y-99669426D01*
X171798156Y-99591405D01*
X171967674Y-99478137D01*
X172111837Y-99333974D01*
X172225105Y-99164456D01*
X172303126Y-98976098D01*
X172342900Y-98776139D01*
X172342900Y-98572261D01*
X172303126Y-98372302D01*
X172225105Y-98183944D01*
X172111837Y-98014426D01*
X171967674Y-97870263D01*
X171798156Y-97756995D01*
X171609798Y-97678974D01*
X171409839Y-97639200D01*
X171312347Y-97639200D01*
X171002546Y-97329400D01*
X171036139Y-97329400D01*
X171236098Y-97289626D01*
X171424456Y-97211605D01*
X171593974Y-97098337D01*
X171738137Y-96954174D01*
X171851405Y-96784656D01*
X171929426Y-96596298D01*
X171969200Y-96396339D01*
X171969200Y-96298847D01*
X171992193Y-96275854D01*
X172020238Y-96252838D01*
X172112087Y-96140920D01*
X172116288Y-96133061D01*
X172180337Y-96013234D01*
X172222365Y-95874685D01*
X172236556Y-95730600D01*
X172233000Y-95694495D01*
X172233000Y-87865497D01*
X172360510Y-87918314D01*
X172630408Y-87972000D01*
X172905592Y-87972000D01*
X173175490Y-87918314D01*
X173429727Y-87813005D01*
X173658535Y-87660120D01*
X173853120Y-87465535D01*
X174006005Y-87236727D01*
X174111314Y-86982490D01*
X174165000Y-86712592D01*
X174165000Y-86437408D01*
X174111314Y-86167510D01*
X174006005Y-85913273D01*
X173853120Y-85684465D01*
X173658535Y-85489880D01*
X173429727Y-85336995D01*
X173352485Y-85305000D01*
X173429727Y-85273005D01*
X173658535Y-85120120D01*
X173853120Y-84925535D01*
X174006005Y-84696727D01*
X174111314Y-84442490D01*
X174165000Y-84172592D01*
X174165000Y-83897408D01*
X174111314Y-83627510D01*
X174006005Y-83373273D01*
X173853120Y-83144465D01*
X173658535Y-82949880D01*
X173429727Y-82796995D01*
X173352485Y-82765000D01*
X173429727Y-82733005D01*
X173658535Y-82580120D01*
X173853120Y-82385535D01*
X174006005Y-82156727D01*
X174111314Y-81902490D01*
X174165000Y-81632592D01*
X174165000Y-81357408D01*
X174111314Y-81087510D01*
X174006005Y-80833273D01*
X173853120Y-80604465D01*
X173658535Y-80409880D01*
X173429727Y-80256995D01*
X173352485Y-80225000D01*
X173429727Y-80193005D01*
X173658535Y-80040120D01*
X173853120Y-79845535D01*
X174006005Y-79616727D01*
X174111314Y-79362490D01*
X174165000Y-79092592D01*
X174165000Y-78817408D01*
X174111314Y-78547510D01*
X174006005Y-78293273D01*
X173853120Y-78064465D01*
X173658535Y-77869880D01*
X173429727Y-77716995D01*
X173175490Y-77611686D01*
X172905592Y-77558000D01*
X172630408Y-77558000D01*
X172360510Y-77611686D01*
X172106273Y-77716995D01*
X171877465Y-77869880D01*
X171682880Y-78064465D01*
X171529995Y-78293273D01*
X171498000Y-78370515D01*
X171466005Y-78293273D01*
X171313120Y-78064465D01*
X171118535Y-77869880D01*
X170889727Y-77716995D01*
X170635490Y-77611686D01*
X170365592Y-77558000D01*
X170090408Y-77558000D01*
X169820510Y-77611686D01*
X169566273Y-77716995D01*
X169337465Y-77869880D01*
X169142880Y-78064465D01*
X168989995Y-78293273D01*
X168884686Y-78547510D01*
X168831000Y-78817408D01*
X168831000Y-79092592D01*
X168867494Y-79276059D01*
X166972408Y-81171146D01*
X166944362Y-81194163D01*
X166852513Y-81306081D01*
X166784263Y-81433768D01*
X166765688Y-81495001D01*
X166742235Y-81572315D01*
X166728044Y-81716400D01*
X166731600Y-81752505D01*
X166731601Y-96710000D01*
X166692999Y-96710000D01*
X166692999Y-84483004D01*
X166696555Y-84446899D01*
X166682364Y-84302814D01*
X166640336Y-84164265D01*
X166572086Y-84036579D01*
X166503252Y-83952705D01*
X166503249Y-83952702D01*
X166480236Y-83924661D01*
X166452196Y-83901649D01*
X165804459Y-83253913D01*
X165781439Y-83225863D01*
X165669521Y-83134014D01*
X165541834Y-83065764D01*
X165403286Y-83023736D01*
X165295306Y-83013101D01*
X165259201Y-83009545D01*
X165223096Y-83013101D01*
X163230703Y-83013101D01*
X163194598Y-83009545D01*
X163050513Y-83023736D01*
X163008485Y-83036485D01*
X162911966Y-83065764D01*
X162823406Y-83113100D01*
X162692661Y-83113100D01*
X162492702Y-83152874D01*
X162304344Y-83230895D01*
X162134826Y-83344163D01*
X161990663Y-83488326D01*
X161877395Y-83657844D01*
X161799374Y-83846202D01*
X161759600Y-84046161D01*
X161759600Y-84143653D01*
X160752254Y-85151000D01*
X160370300Y-85151000D01*
X160370300Y-85083761D01*
X160330526Y-84883802D01*
X160252505Y-84695444D01*
X160139237Y-84525926D01*
X160017800Y-84404489D01*
X160017800Y-82913100D01*
X160134139Y-82913100D01*
X160334098Y-82873326D01*
X160522456Y-82795305D01*
X160691974Y-82682037D01*
X160836137Y-82537874D01*
X160949405Y-82368356D01*
X161027426Y-82179998D01*
X161067200Y-81980039D01*
X161067200Y-81882546D01*
X166007827Y-76941920D01*
X166041395Y-76969469D01*
X166301737Y-77108625D01*
X166584224Y-77194316D01*
X166878000Y-77223251D01*
X167171777Y-77194316D01*
X167454264Y-77108625D01*
X167714606Y-76969469D01*
X167942797Y-76782197D01*
X168130069Y-76554006D01*
X168148000Y-76520459D01*
X168165931Y-76554006D01*
X168353203Y-76782197D01*
X168581395Y-76969469D01*
X168841737Y-77108625D01*
X169124224Y-77194316D01*
X169418000Y-77223251D01*
X169711777Y-77194316D01*
X169994264Y-77108625D01*
X170254606Y-76969469D01*
X170482797Y-76782197D01*
X170670069Y-76554006D01*
X170688000Y-76520459D01*
X170705931Y-76554006D01*
X170893203Y-76782197D01*
X171121395Y-76969469D01*
X171381737Y-77108625D01*
X171664224Y-77194316D01*
X171958000Y-77223251D01*
X172251777Y-77194316D01*
X172534264Y-77108625D01*
X172794606Y-76969469D01*
X173022797Y-76782197D01*
X173210069Y-76554006D01*
X173228000Y-76520459D01*
X173245931Y-76554006D01*
X173433203Y-76782197D01*
X173661395Y-76969469D01*
X173921737Y-77108625D01*
X174204224Y-77194316D01*
X174498000Y-77223251D01*
X174791777Y-77194316D01*
X175074264Y-77108625D01*
X175334606Y-76969469D01*
X175562797Y-76782197D01*
X175750069Y-76554006D01*
X175889225Y-76293663D01*
X175974916Y-76011176D01*
X175996600Y-75791018D01*
X175996600Y-75338981D01*
X175974916Y-75118823D01*
X175889225Y-74836336D01*
X175750069Y-74575994D01*
X175562797Y-74347803D01*
X175334605Y-74160531D01*
X175074263Y-74021375D01*
X174791776Y-73935684D01*
X174498000Y-73906749D01*
X174204223Y-73935684D01*
X173921736Y-74021375D01*
X173661394Y-74160531D01*
X173433203Y-74347803D01*
X173245931Y-74575995D01*
X173228000Y-74609541D01*
X173210069Y-74575994D01*
X173022797Y-74347803D01*
X172794605Y-74160531D01*
X172534263Y-74021375D01*
X172251776Y-73935684D01*
X171958000Y-73906749D01*
X171664223Y-73935684D01*
X171381736Y-74021375D01*
X171121394Y-74160531D01*
X170893203Y-74347803D01*
X170705931Y-74575995D01*
X170688000Y-74609541D01*
X170670069Y-74575994D01*
X170482797Y-74347803D01*
X170254605Y-74160531D01*
X169994263Y-74021375D01*
X169711776Y-73935684D01*
X169418000Y-73906749D01*
X169124223Y-73935684D01*
X168841736Y-74021375D01*
X168581394Y-74160531D01*
X168353203Y-74347803D01*
X168165931Y-74575995D01*
X168148000Y-74609541D01*
X168130069Y-74575994D01*
X167942797Y-74347803D01*
X167714605Y-74160531D01*
X167454263Y-74021375D01*
X167171776Y-73935684D01*
X166878000Y-73906749D01*
X166584223Y-73935684D01*
X166301736Y-74021375D01*
X166041394Y-74160531D01*
X165813203Y-74347803D01*
X165625931Y-74575995D01*
X165608000Y-74609541D01*
X165590069Y-74575994D01*
X165402797Y-74347803D01*
X165174605Y-74160531D01*
X164914263Y-74021375D01*
X164631776Y-73935684D01*
X164338000Y-73906749D01*
X164044223Y-73935684D01*
X163761736Y-74021375D01*
X163501394Y-74160531D01*
X163273203Y-74347803D01*
X163085931Y-74575995D01*
X163068000Y-74609541D01*
X163050069Y-74575994D01*
X162862797Y-74347803D01*
X162634605Y-74160531D01*
X162374263Y-74021375D01*
X162091776Y-73935684D01*
X161798000Y-73906749D01*
X161504223Y-73935684D01*
X161221736Y-74021375D01*
X160961394Y-74160531D01*
X160733203Y-74347803D01*
X160545931Y-74575995D01*
X160528000Y-74609541D01*
X160510069Y-74575994D01*
X160322797Y-74347803D01*
X160094605Y-74160531D01*
X159834263Y-74021375D01*
X159551776Y-73935684D01*
X159258000Y-73906749D01*
X158964223Y-73935684D01*
X158681736Y-74021375D01*
X158421394Y-74160531D01*
X158193203Y-74347803D01*
X158005931Y-74575995D01*
X157988000Y-74609541D01*
X157970069Y-74575994D01*
X157782797Y-74347803D01*
X157554605Y-74160531D01*
X157294263Y-74021375D01*
X157011776Y-73935684D01*
X156718000Y-73906749D01*
X156424223Y-73935684D01*
X156141736Y-74021375D01*
X155881394Y-74160531D01*
X155653203Y-74347803D01*
X155465931Y-74575995D01*
X155326775Y-74836337D01*
X155241084Y-75118824D01*
X155219400Y-75338982D01*
X155219400Y-75791019D01*
X155241084Y-76011177D01*
X155326775Y-76293664D01*
X155465931Y-76554006D01*
X155653203Y-76782197D01*
X155881395Y-76969469D01*
X155983000Y-77023778D01*
X155983001Y-84088685D01*
X155979444Y-84124800D01*
X155993635Y-84268885D01*
X156035664Y-84407433D01*
X156103914Y-84535120D01*
X156195763Y-84647038D01*
X156223808Y-84670054D01*
X157990293Y-86436539D01*
X157987744Y-86437595D01*
X157818226Y-86550863D01*
X157749289Y-86619800D01*
X154920558Y-86619800D01*
X154989526Y-86453298D01*
X155029300Y-86253339D01*
X155029300Y-86049461D01*
X154989526Y-85849502D01*
X154911505Y-85661144D01*
X154798237Y-85491626D01*
X154654074Y-85347463D01*
X154484556Y-85234195D01*
X154296198Y-85156174D01*
X154096239Y-85116400D01*
X153892361Y-85116400D01*
X153740461Y-85146614D01*
X149558254Y-80964408D01*
X149693456Y-80908405D01*
X149862974Y-80795137D01*
X150007137Y-80650974D01*
X150120405Y-80481456D01*
X150198426Y-80293098D01*
X150238200Y-80093139D01*
X150238200Y-79889261D01*
X150198426Y-79689302D01*
X150120405Y-79500944D01*
X150007137Y-79331426D01*
X149862974Y-79187263D01*
X149693456Y-79073995D01*
X149505098Y-78995974D01*
X149305139Y-78956200D01*
X149207647Y-78956200D01*
X147463848Y-77212402D01*
X147574000Y-77223251D01*
X147867777Y-77194316D01*
X148150264Y-77108625D01*
X148410606Y-76969469D01*
X148638797Y-76782197D01*
X148826069Y-76554006D01*
X148844000Y-76520459D01*
X148861931Y-76554006D01*
X149049203Y-76782197D01*
X149277395Y-76969469D01*
X149537737Y-77108625D01*
X149820224Y-77194316D01*
X150114000Y-77223251D01*
X150407777Y-77194316D01*
X150690264Y-77108625D01*
X150950606Y-76969469D01*
X151178797Y-76782197D01*
X151366069Y-76554006D01*
X151384000Y-76520459D01*
X151401931Y-76554006D01*
X151589203Y-76782197D01*
X151817395Y-76969469D01*
X152077737Y-77108625D01*
X152360224Y-77194316D01*
X152654000Y-77223251D01*
X152947777Y-77194316D01*
X153230264Y-77108625D01*
X153490606Y-76969469D01*
X153718797Y-76782197D01*
X153906069Y-76554006D01*
X154045225Y-76293663D01*
X154130916Y-76011176D01*
X154152600Y-75791018D01*
X154152600Y-75338981D01*
X154130916Y-75118823D01*
X154045225Y-74836336D01*
X153906069Y-74575994D01*
X153718797Y-74347803D01*
X153490605Y-74160531D01*
X153230263Y-74021375D01*
X152947776Y-73935684D01*
X152654000Y-73906749D01*
X152360223Y-73935684D01*
X152077736Y-74021375D01*
X151817394Y-74160531D01*
X151589203Y-74347803D01*
X151401931Y-74575995D01*
X151384000Y-74609541D01*
X151366069Y-74575994D01*
X151178797Y-74347803D01*
X150950605Y-74160531D01*
X150690263Y-74021375D01*
X150407776Y-73935684D01*
X150114000Y-73906749D01*
X149820223Y-73935684D01*
X149537736Y-74021375D01*
X149277394Y-74160531D01*
X149049203Y-74347803D01*
X148861931Y-74575995D01*
X148844000Y-74609541D01*
X148826069Y-74575994D01*
X148638797Y-74347803D01*
X148410605Y-74160531D01*
X148150263Y-74021375D01*
X147867776Y-73935684D01*
X147574000Y-73906749D01*
X147280223Y-73935684D01*
X146997736Y-74021375D01*
X146737394Y-74160531D01*
X146509203Y-74347803D01*
X146321931Y-74575995D01*
X146304000Y-74609541D01*
X146286069Y-74575994D01*
X146098797Y-74347803D01*
X145870605Y-74160531D01*
X145610263Y-74021375D01*
X145327776Y-73935684D01*
X145034000Y-73906749D01*
X144740223Y-73935684D01*
X144457736Y-74021375D01*
X144197394Y-74160531D01*
X143969203Y-74347803D01*
X143781931Y-74575995D01*
X143764000Y-74609541D01*
X143746069Y-74575994D01*
X143558797Y-74347803D01*
X143330605Y-74160531D01*
X143070263Y-74021375D01*
X142787776Y-73935684D01*
X142494000Y-73906749D01*
X142200223Y-73935684D01*
X141917736Y-74021375D01*
X141657394Y-74160531D01*
X141429203Y-74347803D01*
X141241931Y-74575995D01*
X141224000Y-74609541D01*
X141206069Y-74575994D01*
X141018797Y-74347803D01*
X140790605Y-74160531D01*
X140530263Y-74021375D01*
X140247776Y-73935684D01*
X139954000Y-73906749D01*
X139660223Y-73935684D01*
X139377736Y-74021375D01*
X139117394Y-74160531D01*
X138889203Y-74347803D01*
X138701931Y-74575995D01*
X138680576Y-74615947D01*
X138532486Y-74413271D01*
X138316035Y-74214267D01*
X138064919Y-74061314D01*
X137788789Y-73960291D01*
X137773026Y-73957642D01*
X137541000Y-74078783D01*
X137541000Y-75438000D01*
X137561000Y-75438000D01*
X137561000Y-75692000D01*
X137541000Y-75692000D01*
X137541000Y-77051217D01*
X137773026Y-77172358D01*
X137788789Y-77169709D01*
X138064919Y-77068686D01*
X138316035Y-76915733D01*
X138532486Y-76716729D01*
X138680576Y-76514053D01*
X138701931Y-76554006D01*
X138889203Y-76782197D01*
X139117395Y-76969469D01*
X139377737Y-77108625D01*
X139660224Y-77194316D01*
X139954000Y-77223251D01*
X140247777Y-77194316D01*
X140530264Y-77108625D01*
X140636887Y-77051634D01*
X144192500Y-80607247D01*
X144192500Y-80704739D01*
X144232274Y-80904698D01*
X144310295Y-81093056D01*
X144423563Y-81262574D01*
X144567726Y-81406737D01*
X144737244Y-81520005D01*
X144925602Y-81598026D01*
X145125561Y-81637800D01*
X145329439Y-81637800D01*
X145529398Y-81598026D01*
X145717756Y-81520005D01*
X145887274Y-81406737D01*
X146031437Y-81262574D01*
X146144705Y-81093056D01*
X146222726Y-80904698D01*
X146262500Y-80704739D01*
X146262500Y-80500861D01*
X146222726Y-80300902D01*
X146144705Y-80112544D01*
X146031437Y-79943026D01*
X145887274Y-79798863D01*
X145717756Y-79685595D01*
X145529398Y-79607574D01*
X145329439Y-79567800D01*
X145231947Y-79567800D01*
X142842011Y-77177864D01*
X143070264Y-77108625D01*
X143330606Y-76969469D01*
X143415089Y-76900135D01*
X153020869Y-86505916D01*
X153068042Y-86619800D01*
X144215647Y-86619800D01*
X142708844Y-85112997D01*
X142826002Y-85161526D01*
X143025961Y-85201300D01*
X143229839Y-85201300D01*
X143429798Y-85161526D01*
X143618156Y-85083505D01*
X143787674Y-84970237D01*
X143931837Y-84826074D01*
X144045105Y-84656556D01*
X144123126Y-84468198D01*
X144162900Y-84268239D01*
X144162900Y-84064361D01*
X144123126Y-83864402D01*
X144045105Y-83676044D01*
X143931837Y-83506526D01*
X143787674Y-83362363D01*
X143618156Y-83249095D01*
X143429798Y-83171074D01*
X143229839Y-83131300D01*
X143132347Y-83131300D01*
X142553958Y-82552912D01*
X142530938Y-82524862D01*
X142419020Y-82433013D01*
X142291333Y-82364763D01*
X142152785Y-82322735D01*
X142044805Y-82312100D01*
X142008700Y-82308544D01*
X141972595Y-82312100D01*
X139273205Y-82312100D01*
X139237100Y-82308544D01*
X139200995Y-82312100D01*
X139093015Y-82322735D01*
X138954467Y-82364763D01*
X138826780Y-82433013D01*
X138714862Y-82524862D01*
X138691846Y-82552907D01*
X135340608Y-85904146D01*
X135312562Y-85927163D01*
X135220713Y-86039081D01*
X135152463Y-86166768D01*
X135126602Y-86252020D01*
X135110435Y-86305315D01*
X135096244Y-86449400D01*
X135099800Y-86485505D01*
X135099801Y-93816288D01*
X135030863Y-93885226D01*
X134917595Y-94054744D01*
X134839574Y-94243102D01*
X134799800Y-94443061D01*
X134799800Y-94646939D01*
X134839574Y-94846898D01*
X134917595Y-95035256D01*
X135030863Y-95204774D01*
X135175026Y-95348937D01*
X135344544Y-95462205D01*
X135532902Y-95540226D01*
X135702578Y-95573976D01*
X135543654Y-95732900D01*
X135446161Y-95732900D01*
X135246202Y-95772674D01*
X135057844Y-95850695D01*
X134888326Y-95963963D01*
X134744163Y-96108126D01*
X134630895Y-96277644D01*
X134552874Y-96466002D01*
X134513100Y-96665961D01*
X123351000Y-96665961D01*
X123351000Y-96538000D01*
X123371000Y-96538000D01*
X123371000Y-95888750D01*
X123625000Y-95888750D01*
X123625000Y-96538000D01*
X125474250Y-96538000D01*
X125633000Y-96379250D01*
X125636072Y-96365000D01*
X125623812Y-96240518D01*
X125587502Y-96120820D01*
X125528537Y-96010506D01*
X125449185Y-95913815D01*
X125352494Y-95834463D01*
X125242180Y-95775498D01*
X125122482Y-95739188D01*
X124998000Y-95726928D01*
X123783750Y-95730000D01*
X123625000Y-95888750D01*
X123371000Y-95888750D01*
X123212250Y-95730000D01*
X121998000Y-95726928D01*
X121873518Y-95739188D01*
X121753820Y-95775498D01*
X121708000Y-95799990D01*
X121708000Y-74059722D01*
X121716863Y-73969335D01*
X121733030Y-73915786D01*
X121759288Y-73866403D01*
X121794641Y-73823055D01*
X121837740Y-73787400D01*
X121886937Y-73760799D01*
X121940375Y-73744258D01*
X122028455Y-73735000D01*
X125133890Y-73735000D01*
X124877017Y-73906637D01*
X124877017Y-73906637D01*
G37*
X124877017Y-73906637D02*
X124579637Y-74204017D01*
X124345988Y-74553698D01*
X124185047Y-74942244D01*
X124103000Y-75354721D01*
X124103000Y-75775279D01*
X124185047Y-76187756D01*
X124345988Y-76576302D01*
X124579637Y-76925983D01*
X124877017Y-77223363D01*
X125226698Y-77457012D01*
X125615244Y-77617953D01*
X126027721Y-77700000D01*
X126448279Y-77700000D01*
X126860756Y-77617953D01*
X127249302Y-77457012D01*
X127598983Y-77223363D01*
X127896363Y-76925983D01*
X128130012Y-76576302D01*
X128290953Y-76187756D01*
X128322515Y-76029082D01*
X128402775Y-76293664D01*
X128541931Y-76554006D01*
X128729203Y-76782197D01*
X128957395Y-76969469D01*
X129217737Y-77108625D01*
X129500224Y-77194316D01*
X129794000Y-77223251D01*
X130087777Y-77194316D01*
X130370264Y-77108625D01*
X130630606Y-76969469D01*
X130858797Y-76782197D01*
X131046069Y-76554006D01*
X131064000Y-76520459D01*
X131081931Y-76554006D01*
X131269203Y-76782197D01*
X131497395Y-76969469D01*
X131757737Y-77108625D01*
X132040224Y-77194316D01*
X132334000Y-77223251D01*
X132627777Y-77194316D01*
X132910264Y-77108625D01*
X133170606Y-76969469D01*
X133398797Y-76782197D01*
X133586069Y-76554006D01*
X133604000Y-76520459D01*
X133621931Y-76554006D01*
X133809203Y-76782197D01*
X134037395Y-76969469D01*
X134297737Y-77108625D01*
X134580224Y-77194316D01*
X134874000Y-77223251D01*
X135167777Y-77194316D01*
X135450264Y-77108625D01*
X135710606Y-76969469D01*
X135938797Y-76782197D01*
X136126069Y-76554006D01*
X136147424Y-76514053D01*
X136295514Y-76716729D01*
X136511965Y-76915733D01*
X136763081Y-77068686D01*
X137039211Y-77169709D01*
X137054974Y-77172358D01*
X137287000Y-77051217D01*
X137287000Y-75692000D01*
X137267000Y-75692000D01*
X137267000Y-75438000D01*
X137287000Y-75438000D01*
X137287000Y-74078783D01*
X137054974Y-73957642D01*
X137039211Y-73960291D01*
X136763081Y-74061314D01*
X136511965Y-74214267D01*
X136295514Y-74413271D01*
X136147424Y-74615947D01*
X136126069Y-74575994D01*
X135938797Y-74347803D01*
X135710605Y-74160531D01*
X135450263Y-74021375D01*
X135167776Y-73935684D01*
X134874000Y-73906749D01*
X134580223Y-73935684D01*
X134297736Y-74021375D01*
X134037394Y-74160531D01*
X133809203Y-74347803D01*
X133621931Y-74575995D01*
X133604000Y-74609541D01*
X133586069Y-74575994D01*
X133398797Y-74347803D01*
X133170605Y-74160531D01*
X132910263Y-74021375D01*
X132627776Y-73935684D01*
X132334000Y-73906749D01*
X132040223Y-73935684D01*
X131757736Y-74021375D01*
X131497394Y-74160531D01*
X131269203Y-74347803D01*
X131081931Y-74575995D01*
X131064000Y-74609541D01*
X131046069Y-74575994D01*
X130858797Y-74347803D01*
X130630605Y-74160531D01*
X130370263Y-74021375D01*
X130087776Y-73935684D01*
X129794000Y-73906749D01*
X129500223Y-73935684D01*
X129217736Y-74021375D01*
X128957394Y-74160531D01*
X128729203Y-74347803D01*
X128541931Y-74575995D01*
X128402775Y-74836337D01*
X128322515Y-75100919D01*
X128290953Y-74942244D01*
X128130012Y-74553698D01*
X127896363Y-74204017D01*
X127598983Y-73906637D01*
X127342110Y-73735000D01*
X175219909Y-73735000D01*
X176328001Y-74843093D01*
X176328000Y-85944125D01*
X176324565Y-85979000D01*
X176328000Y-86013875D01*
X176328000Y-86013876D01*
X176338273Y-86118183D01*
X176378872Y-86252019D01*
X176444800Y-86375362D01*
X176533525Y-86483474D01*
X176560617Y-86505708D01*
X177871000Y-87816092D01*
X177871000Y-88839133D01*
X177660756Y-88752047D01*
X177248279Y-88670000D01*
X176827721Y-88670000D01*
X176415244Y-88752047D01*
X176026698Y-88912988D01*
X175677017Y-89146637D01*
X175379637Y-89444017D01*
X175145988Y-89793698D01*
X174985047Y-90182244D01*
X174903000Y-90594721D01*
X174903000Y-91015279D01*
X174985047Y-91427756D01*
X175145988Y-91816302D01*
X175379637Y-92165983D01*
X175677017Y-92463363D01*
X176026698Y-92697012D01*
X176415244Y-92857953D01*
X176827721Y-92940000D01*
X177248279Y-92940000D01*
X177660756Y-92857953D01*
X177871000Y-92770867D01*
X177871000Y-116779133D01*
X177660756Y-116692047D01*
X177248279Y-116610000D01*
X176827721Y-116610000D01*
X176415244Y-116692047D01*
X176026698Y-116852988D01*
X175677017Y-117086637D01*
X175379637Y-117384017D01*
X175145988Y-117733698D01*
X174985047Y-118122244D01*
X174903000Y-118534721D01*
X174903000Y-118955279D01*
X174985047Y-119367756D01*
X175145988Y-119756302D01*
X175379637Y-120105983D01*
X175677017Y-120403363D01*
X176026698Y-120637012D01*
X176415244Y-120797953D01*
X176827721Y-120880000D01*
X177248279Y-120880000D01*
X177660756Y-120797953D01*
X177871000Y-120710867D01*
X177871000Y-121987908D01*
X176560617Y-123298292D01*
X176533526Y-123320525D01*
X176511293Y-123347616D01*
X176444801Y-123428637D01*
X176378872Y-123551981D01*
X176338274Y-123685816D01*
X176324565Y-123825000D01*
X176328001Y-123859885D01*
X176328000Y-125238000D01*
X175318646Y-125238000D01*
X175334606Y-125229469D01*
X175562797Y-125042197D01*
X175750069Y-124814006D01*
X175889225Y-124553663D01*
X175974916Y-124271176D01*
X175996600Y-124051018D01*
X175996600Y-123598981D01*
X175974916Y-123378823D01*
X175889225Y-123096336D01*
X175750069Y-122835994D01*
X175562797Y-122607803D01*
X175334605Y-122420531D01*
X175074263Y-122281375D01*
X174791776Y-122195684D01*
X174498000Y-122166749D01*
X174204223Y-122195684D01*
X173921736Y-122281375D01*
X173661394Y-122420531D01*
X173433203Y-122607803D01*
X173245931Y-122835995D01*
X173228000Y-122869541D01*
X173210069Y-122835994D01*
X173022797Y-122607803D01*
X172794605Y-122420531D01*
X172534263Y-122281375D01*
X172251776Y-122195684D01*
X171958000Y-122166749D01*
X171664223Y-122195684D01*
X171381736Y-122281375D01*
X171121394Y-122420531D01*
X170893203Y-122607803D01*
X170705931Y-122835995D01*
X170688000Y-122869541D01*
X170670069Y-122835994D01*
X170482797Y-122607803D01*
X170254605Y-122420531D01*
X169994263Y-122281375D01*
X169711776Y-122195684D01*
X169418000Y-122166749D01*
X169124223Y-122195684D01*
X168841736Y-122281375D01*
X168581394Y-122420531D01*
X168353203Y-122607803D01*
X168165931Y-122835995D01*
X168148000Y-122869541D01*
X168130069Y-122835994D01*
X167942797Y-122607803D01*
X167714605Y-122420531D01*
X167454263Y-122281375D01*
X167171776Y-122195684D01*
X166878000Y-122166749D01*
X166584223Y-122195684D01*
X166301736Y-122281375D01*
X166041394Y-122420531D01*
X165813203Y-122607803D01*
X165625931Y-122835995D01*
X165608000Y-122869541D01*
X165590069Y-122835994D01*
X165402797Y-122607803D01*
X165174605Y-122420531D01*
X164914263Y-122281375D01*
X164631776Y-122195684D01*
X164338000Y-122166749D01*
X164044223Y-122195684D01*
X163761736Y-122281375D01*
X163501394Y-122420531D01*
X163273203Y-122607803D01*
X163085931Y-122835995D01*
X163068000Y-122869541D01*
X163050069Y-122835994D01*
X162862797Y-122607803D01*
X162634605Y-122420531D01*
X162374263Y-122281375D01*
X162091776Y-122195684D01*
X161798000Y-122166749D01*
X161504223Y-122195684D01*
X161221736Y-122281375D01*
X160961394Y-122420531D01*
X160733203Y-122607803D01*
X160545931Y-122835995D01*
X160406775Y-123096337D01*
X160321084Y-123378824D01*
X160299400Y-123598982D01*
X160299400Y-124051019D01*
X160321084Y-124271177D01*
X160406775Y-124553664D01*
X160545931Y-124814006D01*
X160733203Y-125042197D01*
X160961395Y-125229469D01*
X160977355Y-125238000D01*
X157538646Y-125238000D01*
X157554606Y-125229469D01*
X157782797Y-125042197D01*
X157970069Y-124814006D01*
X158109225Y-124553663D01*
X158194916Y-124271176D01*
X158216600Y-124051018D01*
X158216600Y-123598981D01*
X158194916Y-123378823D01*
X158109225Y-123096336D01*
X157970069Y-122835994D01*
X157782797Y-122607803D01*
X157554605Y-122420531D01*
X157294263Y-122281375D01*
X157011776Y-122195684D01*
X156718000Y-122166749D01*
X156424223Y-122195684D01*
X156141736Y-122281375D01*
X155881394Y-122420531D01*
X155653203Y-122607803D01*
X155465931Y-122835995D01*
X155444576Y-122875947D01*
X155296486Y-122673271D01*
X155080035Y-122474267D01*
X154828919Y-122321314D01*
X154552789Y-122220291D01*
X154537026Y-122217642D01*
X154305000Y-122338783D01*
X154305000Y-123698000D01*
X154325000Y-123698000D01*
X154325000Y-123952000D01*
X154305000Y-123952000D01*
X154305000Y-123972000D01*
X154051000Y-123972000D01*
X154051000Y-123952000D01*
X151765000Y-123952000D01*
X151765000Y-123972000D01*
X151511000Y-123972000D01*
X151511000Y-123952000D01*
X151491000Y-123952000D01*
X151491000Y-123698000D01*
X151511000Y-123698000D01*
X151511000Y-122338783D01*
X151765000Y-122338783D01*
X151765000Y-123698000D01*
X154051000Y-123698000D01*
X154051000Y-122338783D01*
X153818974Y-122217642D01*
X153803211Y-122220291D01*
X153527081Y-122321314D01*
X153275965Y-122474267D01*
X153059514Y-122673271D01*
X152908000Y-122880633D01*
X152756486Y-122673271D01*
X152540035Y-122474267D01*
X152288919Y-122321314D01*
X152012789Y-122220291D01*
X151997026Y-122217642D01*
X151765000Y-122338783D01*
X151511000Y-122338783D01*
X151278974Y-122217642D01*
X151263211Y-122220291D01*
X150987081Y-122321314D01*
X150735965Y-122474267D01*
X150519514Y-122673271D01*
X150371424Y-122875947D01*
X150350069Y-122835994D01*
X150162797Y-122607803D01*
X149934605Y-122420531D01*
X149674263Y-122281375D01*
X149391776Y-122195684D01*
X149098000Y-122166749D01*
X148804223Y-122195684D01*
X148521736Y-122281375D01*
X148261394Y-122420531D01*
X148033203Y-122607803D01*
X147845931Y-122835995D01*
X147828000Y-122869541D01*
X147810069Y-122835994D01*
X147622797Y-122607803D01*
X147394605Y-122420531D01*
X147134263Y-122281375D01*
X146851776Y-122195684D01*
X146558000Y-122166749D01*
X146264223Y-122195684D01*
X145981736Y-122281375D01*
X145721394Y-122420531D01*
X145493203Y-122607803D01*
X145305931Y-122835995D01*
X145288000Y-122869541D01*
X145270069Y-122835994D01*
X145082797Y-122607803D01*
X144854605Y-122420531D01*
X144594263Y-122281375D01*
X144311776Y-122195684D01*
X144018000Y-122166749D01*
X143724223Y-122195684D01*
X143441736Y-122281375D01*
X143181394Y-122420531D01*
X142953203Y-122607803D01*
X142765931Y-122835995D01*
X142748000Y-122869541D01*
X142730069Y-122835994D01*
X142542797Y-122607803D01*
X142314605Y-122420531D01*
X142054263Y-122281375D01*
X141771776Y-122195684D01*
X141478000Y-122166749D01*
X141184223Y-122195684D01*
X140901736Y-122281375D01*
X140641394Y-122420531D01*
X140413203Y-122607803D01*
X140225931Y-122835995D01*
X140208000Y-122869541D01*
X140190069Y-122835994D01*
X140002797Y-122607803D01*
X139774605Y-122420531D01*
X139514263Y-122281375D01*
X139231776Y-122195684D01*
X138938000Y-122166749D01*
X138644223Y-122195684D01*
X138361736Y-122281375D01*
X138101394Y-122420531D01*
X137873203Y-122607803D01*
X137685931Y-122835995D01*
X137546775Y-123096337D01*
X137461084Y-123378824D01*
X137439400Y-123598982D01*
X137439400Y-124051019D01*
X137461084Y-124271177D01*
X137546775Y-124553664D01*
X137685931Y-124814006D01*
X137873203Y-125042197D01*
X138101395Y-125229469D01*
X138117355Y-125238000D01*
X126574346Y-125238000D01*
X126626363Y-125185983D01*
X126860012Y-124836302D01*
X127020953Y-124447756D01*
X127103000Y-124035279D01*
X127103000Y-123614721D01*
X127020953Y-123202244D01*
X126860012Y-122813698D01*
X126626363Y-122464017D01*
X126328983Y-122166637D01*
X125979302Y-121932988D01*
X125590756Y-121772047D01*
X125178279Y-121690000D01*
X124757721Y-121690000D01*
X124345244Y-121772047D01*
X123956698Y-121932988D01*
X123607017Y-122166637D01*
X123309637Y-122464017D01*
X123075988Y-122813698D01*
X122915047Y-123202244D01*
X122833000Y-123614721D01*
X122833000Y-124035279D01*
X122915047Y-124447756D01*
X123075988Y-124836302D01*
X123309637Y-125185983D01*
X123361654Y-125238000D01*
X121708000Y-125238000D01*
X121708000Y-111930010D01*
X121753820Y-111954502D01*
X121873518Y-111990812D01*
X121998000Y-112003072D01*
X123212250Y-112000000D01*
X123371000Y-111841250D01*
X123371000Y-111192000D01*
X123625000Y-111192000D01*
X123625000Y-111841250D01*
X123783750Y-112000000D01*
X124998000Y-112003072D01*
X125122482Y-111990812D01*
X125242180Y-111954502D01*
X125352494Y-111895537D01*
X125449185Y-111816185D01*
X125528537Y-111719494D01*
X125587502Y-111609180D01*
X125623812Y-111489482D01*
X125636072Y-111365000D01*
X125633000Y-111350750D01*
X125474250Y-111192000D01*
X123625000Y-111192000D01*
X123371000Y-111192000D01*
X123351000Y-111192000D01*
X123351000Y-110938000D01*
X123371000Y-110938000D01*
X123371000Y-110288750D01*
X123625000Y-110288750D01*
X123625000Y-110938000D01*
X125474250Y-110938000D01*
X125633000Y-110779250D01*
X125636072Y-110765000D01*
X125623812Y-110640518D01*
X125587502Y-110520820D01*
X125528537Y-110410506D01*
X125449185Y-110313815D01*
X125352494Y-110234463D01*
X125242180Y-110175498D01*
X125122482Y-110139188D01*
X124998000Y-110126928D01*
X123783750Y-110130000D01*
X123625000Y-110288750D01*
X123371000Y-110288750D01*
X123212250Y-110130000D01*
X121998000Y-110126928D01*
X121873518Y-110139188D01*
X121753820Y-110175498D01*
X121708000Y-110199990D01*
X121708000Y-108730010D01*
X121753820Y-108754502D01*
X121873518Y-108790812D01*
X121998000Y-108803072D01*
X122712250Y-108800000D01*
X122871000Y-108641250D01*
X122871000Y-107992000D01*
X123125000Y-107992000D01*
X123125000Y-108641250D01*
X123283750Y-108800000D01*
X123998000Y-108803072D01*
X124122482Y-108790812D01*
X124242180Y-108754502D01*
X124352494Y-108695537D01*
X124449185Y-108616185D01*
X124528537Y-108519494D01*
X124587502Y-108409180D01*
X124623812Y-108289482D01*
X124636072Y-108165000D01*
X124633000Y-108150750D01*
X124474250Y-107992000D01*
X123125000Y-107992000D01*
X122871000Y-107992000D01*
X122851000Y-107992000D01*
X122851000Y-107803072D01*
X123998000Y-107803072D01*
X124122482Y-107790812D01*
X124242180Y-107754502D01*
X124273053Y-107738000D01*
X124474250Y-107738000D01*
X124620787Y-107591463D01*
X124642085Y-107589365D01*
X124780633Y-107547337D01*
X124908320Y-107479087D01*
X125020238Y-107387238D01*
X125043259Y-107359187D01*
X125077446Y-107325000D01*
X125754895Y-107325000D01*
X125791000Y-107328556D01*
X125827105Y-107325000D01*
X125935085Y-107314365D01*
X126002476Y-107293922D01*
X126003807Y-107295253D01*
X126008342Y-107298974D01*
X126012550Y-107303051D01*
X126036242Y-107321871D01*
X126087680Y-107364086D01*
X126092883Y-107366867D01*
X126125637Y-107392887D01*
X126157923Y-107422866D01*
X126212954Y-107456759D01*
X126267255Y-107491805D01*
X126308220Y-107508014D01*
X126385629Y-107545775D01*
X126429142Y-107570388D01*
X126484891Y-107588764D01*
X126539921Y-107609206D01*
X126589277Y-107617137D01*
X126674768Y-107636277D01*
X126717915Y-107649365D01*
X126781232Y-107655601D01*
X126844350Y-107663345D01*
X126889302Y-107660000D01*
X126971698Y-107660000D01*
X127016649Y-107663345D01*
X127079763Y-107655602D01*
X127143085Y-107649365D01*
X127186234Y-107636276D01*
X127271722Y-107617137D01*
X127321079Y-107609206D01*
X127376113Y-107588763D01*
X127431857Y-107570388D01*
X127475366Y-107545777D01*
X127551288Y-107508742D01*
X127590769Y-107493326D01*
X127646626Y-107457633D01*
X127703077Y-107422866D01*
X127734139Y-107394024D01*
X127767643Y-107367655D01*
X127774319Y-107364086D01*
X127824446Y-107322948D01*
X127846942Y-107305243D01*
X127852375Y-107300028D01*
X127858193Y-107295253D01*
X127878417Y-107275029D01*
X127891392Y-107262574D01*
X127894559Y-107260384D01*
X127906301Y-107248262D01*
X127925217Y-107230104D01*
X127928641Y-107225199D01*
X127940837Y-107212609D01*
X127962253Y-107191193D01*
X127965974Y-107186658D01*
X127970051Y-107182450D01*
X127988871Y-107158758D01*
X128031086Y-107107320D01*
X128033867Y-107102117D01*
X128060612Y-107068450D01*
X128091286Y-107035204D01*
X128124398Y-106981055D01*
X128158805Y-106927745D01*
X128175445Y-106885691D01*
X128213348Y-106807357D01*
X128237388Y-106764858D01*
X128256133Y-106707992D01*
X128276801Y-106651806D01*
X128284393Y-106603578D01*
X128303277Y-106519232D01*
X128316365Y-106476085D01*
X128322601Y-106412768D01*
X128330345Y-106349650D01*
X128327000Y-106304698D01*
X128327000Y-106222302D01*
X128330345Y-106177350D01*
X128322601Y-106114228D01*
X128316365Y-106050916D01*
X128303278Y-106007772D01*
X128284137Y-105922277D01*
X128276206Y-105872921D01*
X128255764Y-105817891D01*
X128237388Y-105762142D01*
X128212775Y-105718629D01*
X128175014Y-105641220D01*
X128158805Y-105600255D01*
X128123759Y-105545954D01*
X128089866Y-105490923D01*
X128059887Y-105458637D01*
X128033867Y-105425883D01*
X128031086Y-105420680D01*
X128016968Y-105403478D01*
X128512032Y-104908415D01*
X128567102Y-104931226D01*
X128767061Y-104971000D01*
X128970939Y-104971000D01*
X129170898Y-104931226D01*
X129359256Y-104853205D01*
X129431000Y-104805267D01*
X129431001Y-111281088D01*
X129362063Y-111350026D01*
X129248795Y-111519544D01*
X129170774Y-111707902D01*
X129131000Y-111907861D01*
X129131000Y-112111739D01*
X129170774Y-112311698D01*
X129248795Y-112500056D01*
X129362063Y-112669574D01*
X129506226Y-112813737D01*
X129675744Y-112927005D01*
X129864102Y-113005026D01*
X130064061Y-113044800D01*
X130267939Y-113044800D01*
X130467898Y-113005026D01*
X130656256Y-112927005D01*
X130825774Y-112813737D01*
X130969937Y-112669574D01*
X131083205Y-112500056D01*
X131161226Y-112311698D01*
X131201000Y-112111739D01*
X131201000Y-111907861D01*
X131161226Y-111707902D01*
X131083205Y-111519544D01*
X130969937Y-111350026D01*
X130901000Y-111281089D01*
X130901000Y-108763061D01*
X133563000Y-108763061D01*
X133563000Y-108966939D01*
X133602774Y-109166898D01*
X133680795Y-109355256D01*
X133794063Y-109524774D01*
X133938226Y-109668937D01*
X134107744Y-109782205D01*
X134296102Y-109860226D01*
X134496061Y-109900000D01*
X134699939Y-109900000D01*
X134899898Y-109860226D01*
X135088256Y-109782205D01*
X135257774Y-109668937D01*
X135401937Y-109524774D01*
X135515205Y-109355256D01*
X135593226Y-109166898D01*
X135633000Y-108966939D01*
X135633000Y-108869446D01*
X140002447Y-104500000D01*
X141869289Y-104500000D01*
X141938226Y-104568937D01*
X142107744Y-104682205D01*
X142296102Y-104760226D01*
X142496061Y-104800000D01*
X142699939Y-104800000D01*
X142899898Y-104760226D01*
X143088256Y-104682205D01*
X143257774Y-104568937D01*
X143401937Y-104424774D01*
X143515205Y-104255256D01*
X143593226Y-104066898D01*
X143633000Y-103866939D01*
X143633000Y-103663061D01*
X143593226Y-103463102D01*
X143515205Y-103274744D01*
X143401937Y-103105226D01*
X143257774Y-102961063D01*
X143088256Y-102847795D01*
X142899898Y-102769774D01*
X142699939Y-102730000D01*
X142496061Y-102730000D01*
X142296102Y-102769774D01*
X142107744Y-102847795D01*
X141938226Y-102961063D01*
X141869289Y-103030000D01*
X139734096Y-103030000D01*
X139697999Y-103026445D01*
X139661902Y-103030000D01*
X139661895Y-103030000D01*
X139569531Y-103039097D01*
X139553914Y-103040635D01*
X139513954Y-103052757D01*
X139415367Y-103082663D01*
X139287680Y-103150913D01*
X139175762Y-103242762D01*
X139152746Y-103270807D01*
X134593554Y-107830000D01*
X134496061Y-107830000D01*
X134296102Y-107869774D01*
X134107744Y-107947795D01*
X133938226Y-108061063D01*
X133794063Y-108205226D01*
X133680795Y-108374744D01*
X133602774Y-108563102D01*
X133563000Y-108763061D01*
X130901000Y-108763061D01*
X130901000Y-103513061D01*
X132667700Y-103513061D01*
X132667700Y-103716939D01*
X132707474Y-103916898D01*
X132785495Y-104105256D01*
X132898763Y-104274774D01*
X132967700Y-104343711D01*
X132967701Y-105535988D01*
X132898763Y-105604926D01*
X132785495Y-105774444D01*
X132707474Y-105962802D01*
X132667700Y-106162761D01*
X132667700Y-106366639D01*
X132707474Y-106566598D01*
X132785495Y-106754956D01*
X132898763Y-106924474D01*
X133042926Y-107068637D01*
X133212444Y-107181905D01*
X133400802Y-107259926D01*
X133600761Y-107299700D01*
X133804639Y-107299700D01*
X134004598Y-107259926D01*
X134192956Y-107181905D01*
X134362474Y-107068637D01*
X134506637Y-106924474D01*
X134619905Y-106754956D01*
X134697926Y-106566598D01*
X134737700Y-106366639D01*
X134737700Y-106162761D01*
X134697926Y-105962802D01*
X134619905Y-105774444D01*
X134506637Y-105604926D01*
X134437700Y-105535989D01*
X134437700Y-104343711D01*
X134506637Y-104274774D01*
X134619905Y-104105256D01*
X134697926Y-103916898D01*
X134737700Y-103716939D01*
X134737700Y-103513061D01*
X134697926Y-103313102D01*
X134619905Y-103124744D01*
X134506637Y-102955226D01*
X134463000Y-102911589D01*
X134463000Y-101480311D01*
X134531937Y-101411374D01*
X134645205Y-101241856D01*
X134723226Y-101053498D01*
X134763000Y-100853539D01*
X134763000Y-100649661D01*
X134723226Y-100449702D01*
X134645205Y-100261344D01*
X134531937Y-100091826D01*
X134387774Y-99947663D01*
X134218256Y-99834395D01*
X134029898Y-99756374D01*
X133829939Y-99716600D01*
X133626061Y-99716600D01*
X133426102Y-99756374D01*
X133237744Y-99834395D01*
X133068226Y-99947663D01*
X132924063Y-100091826D01*
X132810795Y-100261344D01*
X132732774Y-100449702D01*
X132693000Y-100649661D01*
X132693000Y-100853539D01*
X132732774Y-101053498D01*
X132810795Y-101241856D01*
X132924063Y-101411374D01*
X132993001Y-101480312D01*
X132993000Y-102860989D01*
X132898763Y-102955226D01*
X132785495Y-103124744D01*
X132707474Y-103313102D01*
X132667700Y-103513061D01*
X130901000Y-103513061D01*
X130901000Y-103266805D01*
X130904556Y-103230700D01*
X130890365Y-103086615D01*
X130848337Y-102948066D01*
X130780087Y-102820380D01*
X130711253Y-102736506D01*
X130711250Y-102736503D01*
X130688237Y-102708462D01*
X130660197Y-102685450D01*
X127159259Y-99184513D01*
X127136238Y-99156462D01*
X127024320Y-99064613D01*
X126896633Y-98996363D01*
X126758085Y-98954335D01*
X126650105Y-98943700D01*
X126614000Y-98940144D01*
X126577895Y-98943700D01*
X124520705Y-98943700D01*
X124484600Y-98940144D01*
X124340514Y-98954335D01*
X124308268Y-98964117D01*
X124252524Y-98981027D01*
X124242180Y-98975498D01*
X124122482Y-98939188D01*
X123998000Y-98926928D01*
X121998000Y-98926928D01*
X121873518Y-98939188D01*
X121753820Y-98975498D01*
X121708000Y-98999990D01*
X121708000Y-97530010D01*
X121753820Y-97554502D01*
X121873518Y-97590812D01*
X121998000Y-97603072D01*
X123212250Y-97600000D01*
X123371000Y-97441250D01*
X123371000Y-96792000D01*
X123625000Y-96792000D01*
X123625000Y-97441250D01*
X123783750Y-97600000D01*
X124998000Y-97603072D01*
X125122482Y-97590812D01*
X125242180Y-97554502D01*
X125352494Y-97495537D01*
X125449185Y-97416185D01*
X125528537Y-97319494D01*
X125587502Y-97209180D01*
X125623812Y-97089482D01*
X125636072Y-96965000D01*
X125633000Y-96950750D01*
X125474250Y-96792000D01*
X123625000Y-96792000D01*
X123371000Y-96792000D01*
X123351000Y-96792000D01*
X123351000Y-96665961D01*
X134513100Y-96665961D01*
X134513100Y-96869839D01*
X134552874Y-97069798D01*
X134630895Y-97258156D01*
X134744163Y-97427674D01*
X134888326Y-97571837D01*
X135057844Y-97685105D01*
X135246202Y-97763126D01*
X135446161Y-97802900D01*
X135650039Y-97802900D01*
X135849998Y-97763126D01*
X136038356Y-97685105D01*
X136207874Y-97571837D01*
X136352037Y-97427674D01*
X136465305Y-97258156D01*
X136543326Y-97069798D01*
X136583100Y-96869839D01*
X136583100Y-96772346D01*
X144087347Y-89268100D01*
X148519189Y-89268100D01*
X148588126Y-89337037D01*
X148757644Y-89450305D01*
X148946002Y-89528326D01*
X149145961Y-89568100D01*
X149349839Y-89568100D01*
X149549798Y-89528326D01*
X149738156Y-89450305D01*
X149907674Y-89337037D01*
X150051837Y-89192874D01*
X150165105Y-89023356D01*
X150243126Y-88834998D01*
X150282900Y-88635039D01*
X150282900Y-88567800D01*
X156423507Y-88567800D01*
X156455074Y-88726498D01*
X156533095Y-88914856D01*
X156646363Y-89084374D01*
X156715301Y-89153312D01*
X156715300Y-92127409D01*
X156711744Y-92163514D01*
X156715300Y-92199618D01*
X156725935Y-92307598D01*
X156767963Y-92446146D01*
X156836213Y-92573833D01*
X156928062Y-92685751D01*
X156956108Y-92708768D01*
X158927340Y-94680000D01*
X154132555Y-94680000D01*
X154163000Y-94526939D01*
X154163000Y-94323061D01*
X154123226Y-94123102D01*
X154045205Y-93934744D01*
X153931937Y-93765226D01*
X153787774Y-93621063D01*
X153618256Y-93507795D01*
X153429898Y-93429774D01*
X153229939Y-93390000D01*
X153132446Y-93390000D01*
X152823258Y-93080812D01*
X152800238Y-93052762D01*
X152688320Y-92960913D01*
X152560633Y-92892663D01*
X152422085Y-92850635D01*
X152314105Y-92840000D01*
X152278000Y-92836444D01*
X152241895Y-92840000D01*
X141424094Y-92840000D01*
X141387999Y-92836445D01*
X141351904Y-92840000D01*
X141351895Y-92840000D01*
X141243915Y-92850635D01*
X141105367Y-92892663D01*
X140977680Y-92960913D01*
X140865762Y-93052762D01*
X140842746Y-93080807D01*
X140543553Y-93380000D01*
X140446061Y-93380000D01*
X140246102Y-93419774D01*
X140057744Y-93497795D01*
X139888226Y-93611063D01*
X139744063Y-93755226D01*
X139630795Y-93924744D01*
X139552774Y-94113102D01*
X139513000Y-94313061D01*
X139513000Y-94516939D01*
X139552774Y-94716898D01*
X139630795Y-94905256D01*
X139744063Y-95074774D01*
X139888226Y-95218937D01*
X140057744Y-95332205D01*
X140246102Y-95410226D01*
X140446061Y-95450000D01*
X140649939Y-95450000D01*
X140849898Y-95410226D01*
X141038256Y-95332205D01*
X141077713Y-95305841D01*
X140453808Y-95929746D01*
X140425763Y-95952762D01*
X140333914Y-96064680D01*
X140265663Y-96192367D01*
X140225926Y-96323363D01*
X140144063Y-96405226D01*
X140030795Y-96574744D01*
X139952774Y-96763102D01*
X139913000Y-96963061D01*
X139913000Y-97166939D01*
X139952774Y-97366898D01*
X140030795Y-97555256D01*
X140144063Y-97724774D01*
X140288226Y-97868937D01*
X140457744Y-97982205D01*
X140646102Y-98060226D01*
X140846061Y-98100000D01*
X141049939Y-98100000D01*
X141249898Y-98060226D01*
X141438256Y-97982205D01*
X141607774Y-97868937D01*
X141751937Y-97724774D01*
X141865205Y-97555256D01*
X141943226Y-97366898D01*
X141983000Y-97166939D01*
X141983000Y-96963061D01*
X141943226Y-96763102D01*
X141871794Y-96590652D01*
X143282447Y-95180000D01*
X145573553Y-95180000D01*
X142326454Y-98427100D01*
X142139939Y-98390000D01*
X141936061Y-98390000D01*
X141736102Y-98429774D01*
X141547744Y-98507795D01*
X141378226Y-98621063D01*
X141234063Y-98765226D01*
X141120795Y-98934744D01*
X141042774Y-99123102D01*
X141003000Y-99323061D01*
X141003000Y-99526939D01*
X141042774Y-99726898D01*
X141120795Y-99915256D01*
X141234063Y-100084774D01*
X141378226Y-100228937D01*
X141547744Y-100342205D01*
X141736102Y-100420226D01*
X141936061Y-100460000D01*
X142139939Y-100460000D01*
X142339898Y-100420226D01*
X142528256Y-100342205D01*
X142697774Y-100228937D01*
X142841937Y-100084774D01*
X142955205Y-99915256D01*
X142982086Y-99850360D01*
X146173379Y-96659068D01*
X146200795Y-96725256D01*
X146314063Y-96894774D01*
X146458226Y-97038937D01*
X146472983Y-97048797D01*
X146450010Y-97071770D01*
X146352517Y-97071770D01*
X146152558Y-97111544D01*
X145964200Y-97189565D01*
X145794682Y-97302833D01*
X145650519Y-97446996D01*
X145537251Y-97616514D01*
X145459230Y-97804872D01*
X145419456Y-98004831D01*
X145419456Y-98208709D01*
X145459230Y-98408668D01*
X145537251Y-98597026D01*
X145601086Y-98692562D01*
X145467744Y-98747795D01*
X145298226Y-98861063D01*
X145154063Y-99005226D01*
X145040795Y-99174744D01*
X144962774Y-99363102D01*
X144923000Y-99563061D01*
X144923000Y-99766939D01*
X144962774Y-99966898D01*
X145040795Y-100155256D01*
X145154063Y-100324774D01*
X145298226Y-100468937D01*
X145467744Y-100582205D01*
X145656102Y-100660226D01*
X145856061Y-100700000D01*
X145949289Y-100700000D01*
X145914063Y-100735226D01*
X145800795Y-100904744D01*
X145722774Y-101093102D01*
X145683000Y-101293061D01*
X145683000Y-101496939D01*
X145722774Y-101696898D01*
X145800795Y-101885256D01*
X145914063Y-102054774D01*
X146013651Y-102154362D01*
X145988012Y-102180000D01*
X145554105Y-102180000D01*
X145518000Y-102176444D01*
X145373915Y-102190635D01*
X145235366Y-102232663D01*
X145121566Y-102293491D01*
X145107680Y-102300913D01*
X144995762Y-102392762D01*
X144972746Y-102420807D01*
X144042808Y-103350746D01*
X144014763Y-103373762D01*
X143922914Y-103485680D01*
X143868430Y-103587613D01*
X143854664Y-103613367D01*
X143812635Y-103751915D01*
X143798444Y-103896000D01*
X143802001Y-103932115D01*
X143802000Y-107351553D01*
X143163554Y-107990000D01*
X143066061Y-107990000D01*
X142866102Y-108029774D01*
X142677744Y-108107795D01*
X142508226Y-108221063D01*
X142364063Y-108365226D01*
X142250795Y-108534744D01*
X142172774Y-108723102D01*
X142133000Y-108923061D01*
X142133000Y-109126939D01*
X142172774Y-109326898D01*
X142250795Y-109515256D01*
X142364063Y-109684774D01*
X142508226Y-109828937D01*
X142677744Y-109942205D01*
X142866102Y-110020226D01*
X143066061Y-110060000D01*
X143269939Y-110060000D01*
X143469898Y-110020226D01*
X143658256Y-109942205D01*
X143827774Y-109828937D01*
X143971937Y-109684774D01*
X144085205Y-109515256D01*
X144163226Y-109326898D01*
X144203000Y-109126939D01*
X144203000Y-109029446D01*
X145031197Y-108201250D01*
X145059237Y-108178238D01*
X145082250Y-108150197D01*
X145082253Y-108150194D01*
X145135590Y-108085203D01*
X145151087Y-108066320D01*
X145219337Y-107938633D01*
X145261365Y-107800085D01*
X145272000Y-107692105D01*
X145272000Y-107692096D01*
X145275555Y-107656001D01*
X145272000Y-107619906D01*
X145272000Y-107178770D01*
X145273808Y-107180254D01*
X146195126Y-108101573D01*
X146116701Y-108179998D01*
X145891558Y-108179998D01*
X145855461Y-108176443D01*
X145819364Y-108179998D01*
X145819357Y-108179998D01*
X145725594Y-108189233D01*
X145711376Y-108190633D01*
X145679143Y-108200411D01*
X145572829Y-108232661D01*
X145445142Y-108300911D01*
X145393805Y-108343042D01*
X145290479Y-108343042D01*
X145090520Y-108382816D01*
X144902162Y-108460837D01*
X144732644Y-108574105D01*
X144588481Y-108718268D01*
X144475213Y-108887786D01*
X144397192Y-109076144D01*
X144357418Y-109276103D01*
X144357418Y-109479981D01*
X144397192Y-109679940D01*
X144475213Y-109868298D01*
X144588481Y-110037816D01*
X144732644Y-110181979D01*
X144902162Y-110295247D01*
X145090520Y-110373268D01*
X145290479Y-110413042D01*
X145443000Y-110413042D01*
X145443000Y-110426939D01*
X145482774Y-110626898D01*
X145560795Y-110815256D01*
X145579002Y-110842504D01*
X145567590Y-110847804D01*
X145529960Y-110875306D01*
X145516735Y-110883615D01*
X145475633Y-110905585D01*
X145427634Y-110944977D01*
X145378566Y-110982994D01*
X145348003Y-111018175D01*
X145336956Y-111029222D01*
X145301773Y-111059787D01*
X145263750Y-111108862D01*
X145224364Y-111156855D01*
X145202396Y-111197954D01*
X145194088Y-111211177D01*
X145166583Y-111248811D01*
X145140432Y-111305120D01*
X145124254Y-111337543D01*
X145007774Y-111221063D01*
X144838256Y-111107795D01*
X144649898Y-111029774D01*
X144449939Y-110990000D01*
X144246061Y-110990000D01*
X144046102Y-111029774D01*
X143857744Y-111107795D01*
X143688226Y-111221063D01*
X143544063Y-111365226D01*
X143430795Y-111534744D01*
X143352774Y-111723102D01*
X143313000Y-111923061D01*
X143313000Y-112126939D01*
X143352774Y-112326898D01*
X143430795Y-112515256D01*
X143544063Y-112684774D01*
X143688226Y-112828937D01*
X143857744Y-112942205D01*
X144046102Y-113020226D01*
X144246061Y-113060000D01*
X144376806Y-113060000D01*
X144465366Y-113107336D01*
X144525781Y-113125663D01*
X144548048Y-113173609D01*
X144575550Y-113211240D01*
X144579143Y-113216958D01*
X144601111Y-113258057D01*
X144640493Y-113306045D01*
X144678519Y-113355124D01*
X144713700Y-113385687D01*
X144718477Y-113390464D01*
X144749042Y-113425647D01*
X144798114Y-113463667D01*
X144846108Y-113503055D01*
X144887209Y-113525024D01*
X144892929Y-113528618D01*
X144930557Y-113556118D01*
X144986864Y-113582268D01*
X145042413Y-113609985D01*
X145087371Y-113622257D01*
X145093747Y-113624488D01*
X145136549Y-113642925D01*
X145197264Y-113655890D01*
X145257591Y-113670553D01*
X145294732Y-113672117D01*
X145341622Y-113676735D01*
X145372357Y-113680198D01*
X145377520Y-113680270D01*
X145382673Y-113680778D01*
X145413674Y-113680778D01*
X145432229Y-113681038D01*
X145435931Y-113681721D01*
X145458390Y-113681406D01*
X145480849Y-113681721D01*
X145484551Y-113681038D01*
X145503106Y-113680778D01*
X145534105Y-113680778D01*
X145539258Y-113680270D01*
X145544422Y-113680198D01*
X145575147Y-113676736D01*
X145622047Y-113672117D01*
X145659185Y-113670553D01*
X145719529Y-113655886D01*
X145780230Y-113642924D01*
X145823028Y-113624489D01*
X145829406Y-113622257D01*
X145874364Y-113609985D01*
X145929904Y-113582272D01*
X145986220Y-113556118D01*
X146023851Y-113528616D01*
X146029569Y-113525023D01*
X146065694Y-113505714D01*
X146101820Y-113525024D01*
X146107540Y-113528618D01*
X146145168Y-113556118D01*
X146201475Y-113582268D01*
X146257024Y-113609985D01*
X146301982Y-113622257D01*
X146308358Y-113624488D01*
X146351160Y-113642925D01*
X146411875Y-113655890D01*
X146472202Y-113670553D01*
X146509343Y-113672117D01*
X146556233Y-113676735D01*
X146586968Y-113680198D01*
X146592131Y-113680270D01*
X146597284Y-113680778D01*
X146628285Y-113680778D01*
X146646840Y-113681038D01*
X146650542Y-113681721D01*
X146673001Y-113681406D01*
X146695460Y-113681721D01*
X146699162Y-113681038D01*
X146717717Y-113680778D01*
X146748716Y-113680778D01*
X146753869Y-113680270D01*
X146759033Y-113680198D01*
X146789758Y-113676736D01*
X146836658Y-113672117D01*
X146873796Y-113670553D01*
X146934140Y-113655886D01*
X146994841Y-113642924D01*
X147037639Y-113624489D01*
X147044017Y-113622257D01*
X147088975Y-113609985D01*
X147144515Y-113582272D01*
X147200831Y-113556118D01*
X147238462Y-113528616D01*
X147244180Y-113525023D01*
X147285279Y-113503055D01*
X147333267Y-113463673D01*
X147348031Y-113452233D01*
X147382774Y-113626898D01*
X147460795Y-113815256D01*
X147574063Y-113984774D01*
X147718226Y-114128937D01*
X147887744Y-114242205D01*
X148076102Y-114320226D01*
X148276061Y-114360000D01*
X148479939Y-114360000D01*
X148679898Y-114320226D01*
X148868256Y-114242205D01*
X149037774Y-114128937D01*
X149106711Y-114060000D01*
X152045481Y-114060000D01*
X152002774Y-114163102D01*
X151963000Y-114363061D01*
X151963000Y-114566939D01*
X151993445Y-114719998D01*
X149974082Y-114719998D01*
X149937985Y-114716443D01*
X149901888Y-114719998D01*
X149901881Y-114719998D01*
X149808118Y-114729233D01*
X149793900Y-114730633D01*
X149751872Y-114743382D01*
X149655353Y-114772661D01*
X149527666Y-114840911D01*
X149415748Y-114932760D01*
X149392732Y-114960805D01*
X148833554Y-115519984D01*
X148736061Y-115519984D01*
X148536102Y-115559758D01*
X148347744Y-115637779D01*
X148178226Y-115751047D01*
X148034063Y-115895210D01*
X147920795Y-116064728D01*
X147842774Y-116253086D01*
X147803000Y-116453045D01*
X147803000Y-116656923D01*
X147842774Y-116856882D01*
X147920795Y-117045240D01*
X148034063Y-117214758D01*
X148178226Y-117358921D01*
X148347744Y-117472189D01*
X148536102Y-117550210D01*
X148736061Y-117589984D01*
X148939939Y-117589984D01*
X149139898Y-117550210D01*
X149328256Y-117472189D01*
X149497774Y-117358921D01*
X149641937Y-117214758D01*
X149755205Y-117045240D01*
X149833226Y-116856882D01*
X149873000Y-116656923D01*
X149873000Y-116559430D01*
X150242433Y-116189998D01*
X151338192Y-116189998D01*
X151332764Y-116203102D01*
X151292990Y-116403061D01*
X151292990Y-116606939D01*
X151332764Y-116806898D01*
X151410785Y-116995256D01*
X151524053Y-117164774D01*
X151668216Y-117308937D01*
X151837734Y-117422205D01*
X152026092Y-117500226D01*
X152226051Y-117540000D01*
X152429929Y-117540000D01*
X152629888Y-117500226D01*
X152818246Y-117422205D01*
X152987764Y-117308937D01*
X153056701Y-117240000D01*
X157221895Y-117240000D01*
X157258000Y-117243556D01*
X157294105Y-117240000D01*
X157402085Y-117229365D01*
X157540633Y-117187337D01*
X157668320Y-117119087D01*
X157780238Y-117027238D01*
X157803259Y-116999187D01*
X160862447Y-113940000D01*
X160959939Y-113940000D01*
X161159898Y-113900226D01*
X161348256Y-113822205D01*
X161517774Y-113708937D01*
X161661937Y-113564774D01*
X161775205Y-113395256D01*
X161853226Y-113206898D01*
X161893000Y-113006939D01*
X161893000Y-112803061D01*
X161853226Y-112603102D01*
X161775205Y-112414744D01*
X161729128Y-112345785D01*
X161803226Y-112166898D01*
X161818522Y-112090000D01*
X161889939Y-112090000D01*
X162089898Y-112050226D01*
X162278256Y-111972205D01*
X162447774Y-111858937D01*
X162516711Y-111790000D01*
X162805007Y-111790000D01*
X162841112Y-111793556D01*
X162877217Y-111790000D01*
X162914348Y-111786343D01*
X162985197Y-111779365D01*
X163005273Y-111773275D01*
X163123745Y-111737337D01*
X163251432Y-111669087D01*
X163363350Y-111577238D01*
X163386371Y-111549188D01*
X164095540Y-110840018D01*
X164083000Y-110903061D01*
X164083000Y-111106939D01*
X164122774Y-111306898D01*
X164200795Y-111495256D01*
X164314063Y-111664774D01*
X164383000Y-111733711D01*
X164383001Y-112316237D01*
X157499239Y-119200000D01*
X157416693Y-119200000D01*
X157347756Y-119131063D01*
X157178238Y-119017795D01*
X156989880Y-118939774D01*
X156789921Y-118900000D01*
X156586043Y-118900000D01*
X156386084Y-118939774D01*
X156197726Y-119017795D01*
X156028208Y-119131063D01*
X155884045Y-119275226D01*
X155770777Y-119444744D01*
X155692756Y-119633102D01*
X155652982Y-119833061D01*
X155652982Y-120036939D01*
X155692756Y-120236898D01*
X155770777Y-120425256D01*
X155884045Y-120594774D01*
X156028208Y-120738937D01*
X156197726Y-120852205D01*
X156386084Y-120930226D01*
X156586043Y-120970000D01*
X156789921Y-120970000D01*
X156989880Y-120930226D01*
X157178238Y-120852205D01*
X157347756Y-120738937D01*
X157416693Y-120670000D01*
X157767580Y-120670000D01*
X157803685Y-120673556D01*
X157839790Y-120670000D01*
X157947770Y-120659365D01*
X158086318Y-120617337D01*
X158214005Y-120549087D01*
X158325923Y-120457238D01*
X158348944Y-120429187D01*
X159345855Y-119432276D01*
X159310802Y-119484737D01*
X159232781Y-119673095D01*
X159193007Y-119873054D01*
X159193007Y-120076932D01*
X159232781Y-120276891D01*
X159310802Y-120465249D01*
X159424070Y-120634767D01*
X159568233Y-120778930D01*
X159737751Y-120892198D01*
X159926109Y-120970219D01*
X160126068Y-121009993D01*
X160329946Y-121009993D01*
X160529905Y-120970219D01*
X160718263Y-120892198D01*
X160887781Y-120778930D01*
X160956718Y-120709993D01*
X166266504Y-120709993D01*
X166302609Y-120713549D01*
X166338714Y-120709993D01*
X166446694Y-120699358D01*
X166585242Y-120657330D01*
X166712929Y-120589080D01*
X166824847Y-120497231D01*
X166847867Y-120469181D01*
X168322196Y-118994853D01*
X168350236Y-118971841D01*
X168373249Y-118943800D01*
X168373252Y-118943797D01*
X168442085Y-118859924D01*
X168442086Y-118859923D01*
X168510336Y-118732236D01*
X168552364Y-118593688D01*
X168562999Y-118485708D01*
X168562999Y-118485699D01*
X168566554Y-118449604D01*
X168562999Y-118413509D01*
X168562999Y-113860000D01*
X168629939Y-113860000D01*
X168829898Y-113820226D01*
X169018256Y-113742205D01*
X169187774Y-113628937D01*
X169331937Y-113484774D01*
X169445205Y-113315256D01*
X169523226Y-113126898D01*
X169563000Y-112926939D01*
X169563000Y-112829446D01*
X171642193Y-110750254D01*
X171670238Y-110727238D01*
X171762087Y-110615320D01*
X171784818Y-110572794D01*
X171830337Y-110487634D01*
X171872365Y-110349085D01*
X171886556Y-110205000D01*
X171883000Y-110168895D01*
X171883000Y-108883711D01*
X171951937Y-108814774D01*
X172065205Y-108645256D01*
X172143226Y-108456898D01*
X172183000Y-108256939D01*
X172183000Y-108053061D01*
X172143226Y-107853102D01*
X172065205Y-107664744D01*
X171951937Y-107495226D01*
X171807774Y-107351063D01*
X171638256Y-107237795D01*
X171449898Y-107159774D01*
X171249939Y-107120000D01*
X171046061Y-107120000D01*
X170846102Y-107159774D01*
X170657744Y-107237795D01*
X170499944Y-107343233D01*
X170497774Y-107341063D01*
X170328256Y-107227795D01*
X170139898Y-107149774D01*
X169939939Y-107110000D01*
X169736061Y-107110000D01*
X169536102Y-107149774D01*
X169347744Y-107227795D01*
X169178226Y-107341063D01*
X169034063Y-107485226D01*
X168920795Y-107654744D01*
X168842774Y-107843102D01*
X168803000Y-108043061D01*
X168803000Y-108140553D01*
X166263808Y-110679746D01*
X166235762Y-110702763D01*
X166143913Y-110814681D01*
X166137724Y-110826261D01*
X166113226Y-110703102D01*
X166035205Y-110514744D01*
X165921937Y-110345226D01*
X165777774Y-110201063D01*
X165608256Y-110087795D01*
X165419898Y-110009774D01*
X165219939Y-109970000D01*
X165016061Y-109970000D01*
X164953019Y-109982540D01*
X166034892Y-108900667D01*
X166041186Y-108895502D01*
X166054063Y-108914774D01*
X166198226Y-109058937D01*
X166367744Y-109172205D01*
X166556102Y-109250226D01*
X166756061Y-109290000D01*
X166959939Y-109290000D01*
X167159898Y-109250226D01*
X167348256Y-109172205D01*
X167517774Y-109058937D01*
X167661937Y-108914774D01*
X167775205Y-108745256D01*
X167853226Y-108556898D01*
X167893000Y-108356939D01*
X167893000Y-108153061D01*
X167853226Y-107953102D01*
X167775205Y-107764744D01*
X167661937Y-107595226D01*
X167517774Y-107451063D01*
X167457217Y-107410600D01*
X167609919Y-107380226D01*
X167798277Y-107302205D01*
X167967795Y-107188937D01*
X168111958Y-107044774D01*
X168225226Y-106875256D01*
X168303247Y-106686898D01*
X168343021Y-106486939D01*
X168343021Y-106389446D01*
X168670987Y-106061480D01*
X168699038Y-106038459D01*
X168790887Y-105926541D01*
X168859137Y-105798854D01*
X168895622Y-105678580D01*
X168901165Y-105660307D01*
X168915356Y-105516222D01*
X168911800Y-105480117D01*
X168911800Y-105201936D01*
X169004244Y-105263705D01*
X169192602Y-105341726D01*
X169392561Y-105381500D01*
X169596439Y-105381500D01*
X169796398Y-105341726D01*
X169984756Y-105263705D01*
X170154274Y-105150437D01*
X170298437Y-105006274D01*
X170411705Y-104836756D01*
X170489726Y-104648398D01*
X170529500Y-104448439D01*
X170529500Y-104244561D01*
X170489726Y-104044602D01*
X170411705Y-103856244D01*
X170298437Y-103686726D01*
X170154274Y-103542563D01*
X169984756Y-103429295D01*
X169898300Y-103393483D01*
X169898300Y-98304046D01*
X170272900Y-98678647D01*
X170272900Y-98776139D01*
X170312674Y-98976098D01*
X170390695Y-99164456D01*
X170503963Y-99333974D01*
X170648126Y-99478137D01*
X170817644Y-99591405D01*
X171006002Y-99669426D01*
X171205961Y-99709200D01*
X171409839Y-99709200D01*
X171609798Y-99669426D01*
X171798156Y-99591405D01*
X171967674Y-99478137D01*
X172111837Y-99333974D01*
X172225105Y-99164456D01*
X172303126Y-98976098D01*
X172342900Y-98776139D01*
X172342900Y-98572261D01*
X172303126Y-98372302D01*
X172225105Y-98183944D01*
X172111837Y-98014426D01*
X171967674Y-97870263D01*
X171798156Y-97756995D01*
X171609798Y-97678974D01*
X171409839Y-97639200D01*
X171312347Y-97639200D01*
X171002546Y-97329400D01*
X171036139Y-97329400D01*
X171236098Y-97289626D01*
X171424456Y-97211605D01*
X171593974Y-97098337D01*
X171738137Y-96954174D01*
X171851405Y-96784656D01*
X171929426Y-96596298D01*
X171969200Y-96396339D01*
X171969200Y-96298847D01*
X171992193Y-96275854D01*
X172020238Y-96252838D01*
X172112087Y-96140920D01*
X172116288Y-96133061D01*
X172180337Y-96013234D01*
X172222365Y-95874685D01*
X172236556Y-95730600D01*
X172233000Y-95694495D01*
X172233000Y-87865497D01*
X172360510Y-87918314D01*
X172630408Y-87972000D01*
X172905592Y-87972000D01*
X173175490Y-87918314D01*
X173429727Y-87813005D01*
X173658535Y-87660120D01*
X173853120Y-87465535D01*
X174006005Y-87236727D01*
X174111314Y-86982490D01*
X174165000Y-86712592D01*
X174165000Y-86437408D01*
X174111314Y-86167510D01*
X174006005Y-85913273D01*
X173853120Y-85684465D01*
X173658535Y-85489880D01*
X173429727Y-85336995D01*
X173352485Y-85305000D01*
X173429727Y-85273005D01*
X173658535Y-85120120D01*
X173853120Y-84925535D01*
X174006005Y-84696727D01*
X174111314Y-84442490D01*
X174165000Y-84172592D01*
X174165000Y-83897408D01*
X174111314Y-83627510D01*
X174006005Y-83373273D01*
X173853120Y-83144465D01*
X173658535Y-82949880D01*
X173429727Y-82796995D01*
X173352485Y-82765000D01*
X173429727Y-82733005D01*
X173658535Y-82580120D01*
X173853120Y-82385535D01*
X174006005Y-82156727D01*
X174111314Y-81902490D01*
X174165000Y-81632592D01*
X174165000Y-81357408D01*
X174111314Y-81087510D01*
X174006005Y-80833273D01*
X173853120Y-80604465D01*
X173658535Y-80409880D01*
X173429727Y-80256995D01*
X173352485Y-80225000D01*
X173429727Y-80193005D01*
X173658535Y-80040120D01*
X173853120Y-79845535D01*
X174006005Y-79616727D01*
X174111314Y-79362490D01*
X174165000Y-79092592D01*
X174165000Y-78817408D01*
X174111314Y-78547510D01*
X174006005Y-78293273D01*
X173853120Y-78064465D01*
X173658535Y-77869880D01*
X173429727Y-77716995D01*
X173175490Y-77611686D01*
X172905592Y-77558000D01*
X172630408Y-77558000D01*
X172360510Y-77611686D01*
X172106273Y-77716995D01*
X171877465Y-77869880D01*
X171682880Y-78064465D01*
X171529995Y-78293273D01*
X171498000Y-78370515D01*
X171466005Y-78293273D01*
X171313120Y-78064465D01*
X171118535Y-77869880D01*
X170889727Y-77716995D01*
X170635490Y-77611686D01*
X170365592Y-77558000D01*
X170090408Y-77558000D01*
X169820510Y-77611686D01*
X169566273Y-77716995D01*
X169337465Y-77869880D01*
X169142880Y-78064465D01*
X168989995Y-78293273D01*
X168884686Y-78547510D01*
X168831000Y-78817408D01*
X168831000Y-79092592D01*
X168867494Y-79276059D01*
X166972408Y-81171146D01*
X166944362Y-81194163D01*
X166852513Y-81306081D01*
X166784263Y-81433768D01*
X166765688Y-81495001D01*
X166742235Y-81572315D01*
X166728044Y-81716400D01*
X166731600Y-81752505D01*
X166731601Y-96710000D01*
X166692999Y-96710000D01*
X166692999Y-84483004D01*
X166696555Y-84446899D01*
X166682364Y-84302814D01*
X166640336Y-84164265D01*
X166572086Y-84036579D01*
X166503252Y-83952705D01*
X166503249Y-83952702D01*
X166480236Y-83924661D01*
X166452196Y-83901649D01*
X165804459Y-83253913D01*
X165781439Y-83225863D01*
X165669521Y-83134014D01*
X165541834Y-83065764D01*
X165403286Y-83023736D01*
X165295306Y-83013101D01*
X165259201Y-83009545D01*
X165223096Y-83013101D01*
X163230703Y-83013101D01*
X163194598Y-83009545D01*
X163050513Y-83023736D01*
X163008485Y-83036485D01*
X162911966Y-83065764D01*
X162823406Y-83113100D01*
X162692661Y-83113100D01*
X162492702Y-83152874D01*
X162304344Y-83230895D01*
X162134826Y-83344163D01*
X161990663Y-83488326D01*
X161877395Y-83657844D01*
X161799374Y-83846202D01*
X161759600Y-84046161D01*
X161759600Y-84143653D01*
X160752254Y-85151000D01*
X160370300Y-85151000D01*
X160370300Y-85083761D01*
X160330526Y-84883802D01*
X160252505Y-84695444D01*
X160139237Y-84525926D01*
X160017800Y-84404489D01*
X160017800Y-82913100D01*
X160134139Y-82913100D01*
X160334098Y-82873326D01*
X160522456Y-82795305D01*
X160691974Y-82682037D01*
X160836137Y-82537874D01*
X160949405Y-82368356D01*
X161027426Y-82179998D01*
X161067200Y-81980039D01*
X161067200Y-81882546D01*
X166007827Y-76941920D01*
X166041395Y-76969469D01*
X166301737Y-77108625D01*
X166584224Y-77194316D01*
X166878000Y-77223251D01*
X167171777Y-77194316D01*
X167454264Y-77108625D01*
X167714606Y-76969469D01*
X167942797Y-76782197D01*
X168130069Y-76554006D01*
X168148000Y-76520459D01*
X168165931Y-76554006D01*
X168353203Y-76782197D01*
X168581395Y-76969469D01*
X168841737Y-77108625D01*
X169124224Y-77194316D01*
X169418000Y-77223251D01*
X169711777Y-77194316D01*
X169994264Y-77108625D01*
X170254606Y-76969469D01*
X170482797Y-76782197D01*
X170670069Y-76554006D01*
X170688000Y-76520459D01*
X170705931Y-76554006D01*
X170893203Y-76782197D01*
X171121395Y-76969469D01*
X171381737Y-77108625D01*
X171664224Y-77194316D01*
X171958000Y-77223251D01*
X172251777Y-77194316D01*
X172534264Y-77108625D01*
X172794606Y-76969469D01*
X173022797Y-76782197D01*
X173210069Y-76554006D01*
X173228000Y-76520459D01*
X173245931Y-76554006D01*
X173433203Y-76782197D01*
X173661395Y-76969469D01*
X173921737Y-77108625D01*
X174204224Y-77194316D01*
X174498000Y-77223251D01*
X174791777Y-77194316D01*
X175074264Y-77108625D01*
X175334606Y-76969469D01*
X175562797Y-76782197D01*
X175750069Y-76554006D01*
X175889225Y-76293663D01*
X175974916Y-76011176D01*
X175996600Y-75791018D01*
X175996600Y-75338981D01*
X175974916Y-75118823D01*
X175889225Y-74836336D01*
X175750069Y-74575994D01*
X175562797Y-74347803D01*
X175334605Y-74160531D01*
X175074263Y-74021375D01*
X174791776Y-73935684D01*
X174498000Y-73906749D01*
X174204223Y-73935684D01*
X173921736Y-74021375D01*
X173661394Y-74160531D01*
X173433203Y-74347803D01*
X173245931Y-74575995D01*
X173228000Y-74609541D01*
X173210069Y-74575994D01*
X173022797Y-74347803D01*
X172794605Y-74160531D01*
X172534263Y-74021375D01*
X172251776Y-73935684D01*
X171958000Y-73906749D01*
X171664223Y-73935684D01*
X171381736Y-74021375D01*
X171121394Y-74160531D01*
X170893203Y-74347803D01*
X170705931Y-74575995D01*
X170688000Y-74609541D01*
X170670069Y-74575994D01*
X170482797Y-74347803D01*
X170254605Y-74160531D01*
X169994263Y-74021375D01*
X169711776Y-73935684D01*
X169418000Y-73906749D01*
X169124223Y-73935684D01*
X168841736Y-74021375D01*
X168581394Y-74160531D01*
X168353203Y-74347803D01*
X168165931Y-74575995D01*
X168148000Y-74609541D01*
X168130069Y-74575994D01*
X167942797Y-74347803D01*
X167714605Y-74160531D01*
X167454263Y-74021375D01*
X167171776Y-73935684D01*
X166878000Y-73906749D01*
X166584223Y-73935684D01*
X166301736Y-74021375D01*
X166041394Y-74160531D01*
X165813203Y-74347803D01*
X165625931Y-74575995D01*
X165608000Y-74609541D01*
X165590069Y-74575994D01*
X165402797Y-74347803D01*
X165174605Y-74160531D01*
X164914263Y-74021375D01*
X164631776Y-73935684D01*
X164338000Y-73906749D01*
X164044223Y-73935684D01*
X163761736Y-74021375D01*
X163501394Y-74160531D01*
X163273203Y-74347803D01*
X163085931Y-74575995D01*
X163068000Y-74609541D01*
X163050069Y-74575994D01*
X162862797Y-74347803D01*
X162634605Y-74160531D01*
X162374263Y-74021375D01*
X162091776Y-73935684D01*
X161798000Y-73906749D01*
X161504223Y-73935684D01*
X161221736Y-74021375D01*
X160961394Y-74160531D01*
X160733203Y-74347803D01*
X160545931Y-74575995D01*
X160528000Y-74609541D01*
X160510069Y-74575994D01*
X160322797Y-74347803D01*
X160094605Y-74160531D01*
X159834263Y-74021375D01*
X159551776Y-73935684D01*
X159258000Y-73906749D01*
X158964223Y-73935684D01*
X158681736Y-74021375D01*
X158421394Y-74160531D01*
X158193203Y-74347803D01*
X158005931Y-74575995D01*
X157988000Y-74609541D01*
X157970069Y-74575994D01*
X157782797Y-74347803D01*
X157554605Y-74160531D01*
X157294263Y-74021375D01*
X157011776Y-73935684D01*
X156718000Y-73906749D01*
X156424223Y-73935684D01*
X156141736Y-74021375D01*
X155881394Y-74160531D01*
X155653203Y-74347803D01*
X155465931Y-74575995D01*
X155326775Y-74836337D01*
X155241084Y-75118824D01*
X155219400Y-75338982D01*
X155219400Y-75791019D01*
X155241084Y-76011177D01*
X155326775Y-76293664D01*
X155465931Y-76554006D01*
X155653203Y-76782197D01*
X155881395Y-76969469D01*
X155983000Y-77023778D01*
X155983001Y-84088685D01*
X155979444Y-84124800D01*
X155993635Y-84268885D01*
X156035664Y-84407433D01*
X156103914Y-84535120D01*
X156195763Y-84647038D01*
X156223808Y-84670054D01*
X157990293Y-86436539D01*
X157987744Y-86437595D01*
X157818226Y-86550863D01*
X157749289Y-86619800D01*
X154920558Y-86619800D01*
X154989526Y-86453298D01*
X155029300Y-86253339D01*
X155029300Y-86049461D01*
X154989526Y-85849502D01*
X154911505Y-85661144D01*
X154798237Y-85491626D01*
X154654074Y-85347463D01*
X154484556Y-85234195D01*
X154296198Y-85156174D01*
X154096239Y-85116400D01*
X153892361Y-85116400D01*
X153740461Y-85146614D01*
X149558254Y-80964408D01*
X149693456Y-80908405D01*
X149862974Y-80795137D01*
X150007137Y-80650974D01*
X150120405Y-80481456D01*
X150198426Y-80293098D01*
X150238200Y-80093139D01*
X150238200Y-79889261D01*
X150198426Y-79689302D01*
X150120405Y-79500944D01*
X150007137Y-79331426D01*
X149862974Y-79187263D01*
X149693456Y-79073995D01*
X149505098Y-78995974D01*
X149305139Y-78956200D01*
X149207647Y-78956200D01*
X147463848Y-77212402D01*
X147574000Y-77223251D01*
X147867777Y-77194316D01*
X148150264Y-77108625D01*
X148410606Y-76969469D01*
X148638797Y-76782197D01*
X148826069Y-76554006D01*
X148844000Y-76520459D01*
X148861931Y-76554006D01*
X149049203Y-76782197D01*
X149277395Y-76969469D01*
X149537737Y-77108625D01*
X149820224Y-77194316D01*
X150114000Y-77223251D01*
X150407777Y-77194316D01*
X150690264Y-77108625D01*
X150950606Y-76969469D01*
X151178797Y-76782197D01*
X151366069Y-76554006D01*
X151384000Y-76520459D01*
X151401931Y-76554006D01*
X151589203Y-76782197D01*
X151817395Y-76969469D01*
X152077737Y-77108625D01*
X152360224Y-77194316D01*
X152654000Y-77223251D01*
X152947777Y-77194316D01*
X153230264Y-77108625D01*
X153490606Y-76969469D01*
X153718797Y-76782197D01*
X153906069Y-76554006D01*
X154045225Y-76293663D01*
X154130916Y-76011176D01*
X154152600Y-75791018D01*
X154152600Y-75338981D01*
X154130916Y-75118823D01*
X154045225Y-74836336D01*
X153906069Y-74575994D01*
X153718797Y-74347803D01*
X153490605Y-74160531D01*
X153230263Y-74021375D01*
X152947776Y-73935684D01*
X152654000Y-73906749D01*
X152360223Y-73935684D01*
X152077736Y-74021375D01*
X151817394Y-74160531D01*
X151589203Y-74347803D01*
X151401931Y-74575995D01*
X151384000Y-74609541D01*
X151366069Y-74575994D01*
X151178797Y-74347803D01*
X150950605Y-74160531D01*
X150690263Y-74021375D01*
X150407776Y-73935684D01*
X150114000Y-73906749D01*
X149820223Y-73935684D01*
X149537736Y-74021375D01*
X149277394Y-74160531D01*
X149049203Y-74347803D01*
X148861931Y-74575995D01*
X148844000Y-74609541D01*
X148826069Y-74575994D01*
X148638797Y-74347803D01*
X148410605Y-74160531D01*
X148150263Y-74021375D01*
X147867776Y-73935684D01*
X147574000Y-73906749D01*
X147280223Y-73935684D01*
X146997736Y-74021375D01*
X146737394Y-74160531D01*
X146509203Y-74347803D01*
X146321931Y-74575995D01*
X146304000Y-74609541D01*
X146286069Y-74575994D01*
X146098797Y-74347803D01*
X145870605Y-74160531D01*
X145610263Y-74021375D01*
X145327776Y-73935684D01*
X145034000Y-73906749D01*
X144740223Y-73935684D01*
X144457736Y-74021375D01*
X144197394Y-74160531D01*
X143969203Y-74347803D01*
X143781931Y-74575995D01*
X143764000Y-74609541D01*
X143746069Y-74575994D01*
X143558797Y-74347803D01*
X143330605Y-74160531D01*
X143070263Y-74021375D01*
X142787776Y-73935684D01*
X142494000Y-73906749D01*
X142200223Y-73935684D01*
X141917736Y-74021375D01*
X141657394Y-74160531D01*
X141429203Y-74347803D01*
X141241931Y-74575995D01*
X141224000Y-74609541D01*
X141206069Y-74575994D01*
X141018797Y-74347803D01*
X140790605Y-74160531D01*
X140530263Y-74021375D01*
X140247776Y-73935684D01*
X139954000Y-73906749D01*
X139660223Y-73935684D01*
X139377736Y-74021375D01*
X139117394Y-74160531D01*
X138889203Y-74347803D01*
X138701931Y-74575995D01*
X138680576Y-74615947D01*
X138532486Y-74413271D01*
X138316035Y-74214267D01*
X138064919Y-74061314D01*
X137788789Y-73960291D01*
X137773026Y-73957642D01*
X137541000Y-74078783D01*
X137541000Y-75438000D01*
X137561000Y-75438000D01*
X137561000Y-75692000D01*
X137541000Y-75692000D01*
X137541000Y-77051217D01*
X137773026Y-77172358D01*
X137788789Y-77169709D01*
X138064919Y-77068686D01*
X138316035Y-76915733D01*
X138532486Y-76716729D01*
X138680576Y-76514053D01*
X138701931Y-76554006D01*
X138889203Y-76782197D01*
X139117395Y-76969469D01*
X139377737Y-77108625D01*
X139660224Y-77194316D01*
X139954000Y-77223251D01*
X140247777Y-77194316D01*
X140530264Y-77108625D01*
X140636887Y-77051634D01*
X144192500Y-80607247D01*
X144192500Y-80704739D01*
X144232274Y-80904698D01*
X144310295Y-81093056D01*
X144423563Y-81262574D01*
X144567726Y-81406737D01*
X144737244Y-81520005D01*
X144925602Y-81598026D01*
X145125561Y-81637800D01*
X145329439Y-81637800D01*
X145529398Y-81598026D01*
X145717756Y-81520005D01*
X145887274Y-81406737D01*
X146031437Y-81262574D01*
X146144705Y-81093056D01*
X146222726Y-80904698D01*
X146262500Y-80704739D01*
X146262500Y-80500861D01*
X146222726Y-80300902D01*
X146144705Y-80112544D01*
X146031437Y-79943026D01*
X145887274Y-79798863D01*
X145717756Y-79685595D01*
X145529398Y-79607574D01*
X145329439Y-79567800D01*
X145231947Y-79567800D01*
X142842011Y-77177864D01*
X143070264Y-77108625D01*
X143330606Y-76969469D01*
X143415089Y-76900135D01*
X153020869Y-86505916D01*
X153068042Y-86619800D01*
X144215647Y-86619800D01*
X142708844Y-85112997D01*
X142826002Y-85161526D01*
X143025961Y-85201300D01*
X143229839Y-85201300D01*
X143429798Y-85161526D01*
X143618156Y-85083505D01*
X143787674Y-84970237D01*
X143931837Y-84826074D01*
X144045105Y-84656556D01*
X144123126Y-84468198D01*
X144162900Y-84268239D01*
X144162900Y-84064361D01*
X144123126Y-83864402D01*
X144045105Y-83676044D01*
X143931837Y-83506526D01*
X143787674Y-83362363D01*
X143618156Y-83249095D01*
X143429798Y-83171074D01*
X143229839Y-83131300D01*
X143132347Y-83131300D01*
X142553958Y-82552912D01*
X142530938Y-82524862D01*
X142419020Y-82433013D01*
X142291333Y-82364763D01*
X142152785Y-82322735D01*
X142044805Y-82312100D01*
X142008700Y-82308544D01*
X141972595Y-82312100D01*
X139273205Y-82312100D01*
X139237100Y-82308544D01*
X139200995Y-82312100D01*
X139093015Y-82322735D01*
X138954467Y-82364763D01*
X138826780Y-82433013D01*
X138714862Y-82524862D01*
X138691846Y-82552907D01*
X135340608Y-85904146D01*
X135312562Y-85927163D01*
X135220713Y-86039081D01*
X135152463Y-86166768D01*
X135126602Y-86252020D01*
X135110435Y-86305315D01*
X135096244Y-86449400D01*
X135099800Y-86485505D01*
X135099801Y-93816288D01*
X135030863Y-93885226D01*
X134917595Y-94054744D01*
X134839574Y-94243102D01*
X134799800Y-94443061D01*
X134799800Y-94646939D01*
X134839574Y-94846898D01*
X134917595Y-95035256D01*
X135030863Y-95204774D01*
X135175026Y-95348937D01*
X135344544Y-95462205D01*
X135532902Y-95540226D01*
X135702578Y-95573976D01*
X135543654Y-95732900D01*
X135446161Y-95732900D01*
X135246202Y-95772674D01*
X135057844Y-95850695D01*
X134888326Y-95963963D01*
X134744163Y-96108126D01*
X134630895Y-96277644D01*
X134552874Y-96466002D01*
X134513100Y-96665961D01*
X123351000Y-96665961D01*
X123351000Y-96538000D01*
X123371000Y-96538000D01*
X123371000Y-95888750D01*
X123625000Y-95888750D01*
X123625000Y-96538000D01*
X125474250Y-96538000D01*
X125633000Y-96379250D01*
X125636072Y-96365000D01*
X125623812Y-96240518D01*
X125587502Y-96120820D01*
X125528537Y-96010506D01*
X125449185Y-95913815D01*
X125352494Y-95834463D01*
X125242180Y-95775498D01*
X125122482Y-95739188D01*
X124998000Y-95726928D01*
X123783750Y-95730000D01*
X123625000Y-95888750D01*
X123371000Y-95888750D01*
X123212250Y-95730000D01*
X121998000Y-95726928D01*
X121873518Y-95739188D01*
X121753820Y-95775498D01*
X121708000Y-95799990D01*
X121708000Y-74059722D01*
X121716863Y-73969335D01*
X121733030Y-73915786D01*
X121759288Y-73866403D01*
X121794641Y-73823055D01*
X121837740Y-73787400D01*
X121886937Y-73760799D01*
X121940375Y-73744258D01*
X122028455Y-73735000D01*
X125133890Y-73735000D01*
X124877017Y-73906637D01*
G36*
X171529995Y-82156727D02*
G01*
X171682880Y-82385535D01*
X171877465Y-82580120D01*
X172106273Y-82733005D01*
X172183515Y-82765000D01*
X172106273Y-82796995D01*
X171877465Y-82949880D01*
X171682880Y-83144465D01*
X171529995Y-83373273D01*
X171500308Y-83444943D01*
X171495636Y-83431977D01*
X171433656Y-83316020D01*
X171193565Y-83249040D01*
X170407605Y-84035000D01*
X170421748Y-84049143D01*
X170242143Y-84228748D01*
X170228000Y-84214605D01*
X170213858Y-84228748D01*
X170034253Y-84049143D01*
X170048395Y-84035000D01*
X170034253Y-84020858D01*
X170213858Y-83841253D01*
X170228000Y-83855395D01*
X171013960Y-83069435D01*
X170946980Y-82829344D01*
X170811240Y-82765515D01*
X170889727Y-82733005D01*
X171118535Y-82580120D01*
X171313120Y-82385535D01*
X171466005Y-82156727D01*
X171498000Y-82079485D01*
X171529995Y-82156727D01*
X171529995Y-82156727D01*
G37*
X171529995Y-82156727D02*
X171682880Y-82385535D01*
X171877465Y-82580120D01*
X172106273Y-82733005D01*
X172183515Y-82765000D01*
X172106273Y-82796995D01*
X171877465Y-82949880D01*
X171682880Y-83144465D01*
X171529995Y-83373273D01*
X171500308Y-83444943D01*
X171495636Y-83431977D01*
X171433656Y-83316020D01*
X171193565Y-83249040D01*
X170407605Y-84035000D01*
X170421748Y-84049143D01*
X170242143Y-84228748D01*
X170228000Y-84214605D01*
X170213858Y-84228748D01*
X170034253Y-84049143D01*
X170048395Y-84035000D01*
X170034253Y-84020858D01*
X170213858Y-83841253D01*
X170228000Y-83855395D01*
X171013960Y-83069435D01*
X170946980Y-82829344D01*
X170811240Y-82765515D01*
X170889727Y-82733005D01*
X171118535Y-82580120D01*
X171313120Y-82385535D01*
X171466005Y-82156727D01*
X171498000Y-82079485D01*
X171529995Y-82156727D01*
G36*
X128054853Y-102159000D02*
G01*
X128025061Y-102159000D01*
X127825102Y-102198774D01*
X127636744Y-102276795D01*
X127467226Y-102390063D01*
X127323063Y-102534226D01*
X127209795Y-102703744D01*
X127131774Y-102892102D01*
X127092000Y-103092061D01*
X127092000Y-103295939D01*
X127131774Y-103495898D01*
X127154585Y-103550968D01*
X126309421Y-104396133D01*
X126299896Y-104402783D01*
X126259769Y-104444585D01*
X126244167Y-104459609D01*
X126234781Y-104470616D01*
X126224757Y-104481058D01*
X126211356Y-104498086D01*
X126173763Y-104542169D01*
X126166660Y-104554875D01*
X126135976Y-104593861D01*
X126107134Y-104624923D01*
X126072367Y-104681374D01*
X126036674Y-104737231D01*
X126021258Y-104776712D01*
X125984223Y-104852634D01*
X125959612Y-104896143D01*
X125941237Y-104951887D01*
X125920794Y-105006921D01*
X125912863Y-105056278D01*
X125893724Y-105141766D01*
X125880635Y-105184915D01*
X125878060Y-105211060D01*
X125851915Y-105213635D01*
X125808768Y-105226723D01*
X125723277Y-105245863D01*
X125673921Y-105253794D01*
X125618891Y-105274236D01*
X125563142Y-105292612D01*
X125519629Y-105317225D01*
X125443715Y-105354256D01*
X125404230Y-105369674D01*
X125348948Y-105405000D01*
X125077446Y-105405000D01*
X125043259Y-105370813D01*
X125020238Y-105342762D01*
X124908320Y-105250913D01*
X124780633Y-105182663D01*
X124642085Y-105140635D01*
X124620787Y-105138537D01*
X124474250Y-104992000D01*
X124273053Y-104992000D01*
X124242180Y-104975498D01*
X124122482Y-104939188D01*
X123998000Y-104926928D01*
X122851000Y-104926928D01*
X122851000Y-104803072D01*
X123998000Y-104803072D01*
X124122482Y-104790812D01*
X124242180Y-104754502D01*
X124273053Y-104738000D01*
X124474250Y-104738000D01*
X124633000Y-104579250D01*
X124636072Y-104565000D01*
X124623812Y-104440518D01*
X124600904Y-104365000D01*
X124623812Y-104289482D01*
X124634940Y-104176496D01*
X124713238Y-104112238D01*
X124736259Y-104084188D01*
X126712032Y-102108415D01*
X126767102Y-102131226D01*
X126967061Y-102171000D01*
X127170939Y-102171000D01*
X127370898Y-102131226D01*
X127559256Y-102053205D01*
X127728774Y-101939937D01*
X127782282Y-101886429D01*
X128054853Y-102159000D01*
X128054853Y-102159000D01*
G37*
X128054853Y-102159000D02*
X128025061Y-102159000D01*
X127825102Y-102198774D01*
X127636744Y-102276795D01*
X127467226Y-102390063D01*
X127323063Y-102534226D01*
X127209795Y-102703744D01*
X127131774Y-102892102D01*
X127092000Y-103092061D01*
X127092000Y-103295939D01*
X127131774Y-103495898D01*
X127154585Y-103550968D01*
X126309421Y-104396133D01*
X126299896Y-104402783D01*
X126259769Y-104444585D01*
X126244167Y-104459609D01*
X126234781Y-104470616D01*
X126224757Y-104481058D01*
X126211356Y-104498086D01*
X126173763Y-104542169D01*
X126166660Y-104554875D01*
X126135976Y-104593861D01*
X126107134Y-104624923D01*
X126072367Y-104681374D01*
X126036674Y-104737231D01*
X126021258Y-104776712D01*
X125984223Y-104852634D01*
X125959612Y-104896143D01*
X125941237Y-104951887D01*
X125920794Y-105006921D01*
X125912863Y-105056278D01*
X125893724Y-105141766D01*
X125880635Y-105184915D01*
X125878060Y-105211060D01*
X125851915Y-105213635D01*
X125808768Y-105226723D01*
X125723277Y-105245863D01*
X125673921Y-105253794D01*
X125618891Y-105274236D01*
X125563142Y-105292612D01*
X125519629Y-105317225D01*
X125443715Y-105354256D01*
X125404230Y-105369674D01*
X125348948Y-105405000D01*
X125077446Y-105405000D01*
X125043259Y-105370813D01*
X125020238Y-105342762D01*
X124908320Y-105250913D01*
X124780633Y-105182663D01*
X124642085Y-105140635D01*
X124620787Y-105138537D01*
X124474250Y-104992000D01*
X124273053Y-104992000D01*
X124242180Y-104975498D01*
X124122482Y-104939188D01*
X123998000Y-104926928D01*
X122851000Y-104926928D01*
X122851000Y-104803072D01*
X123998000Y-104803072D01*
X124122482Y-104790812D01*
X124242180Y-104754502D01*
X124273053Y-104738000D01*
X124474250Y-104738000D01*
X124633000Y-104579250D01*
X124636072Y-104565000D01*
X124623812Y-104440518D01*
X124600904Y-104365000D01*
X124623812Y-104289482D01*
X124634940Y-104176496D01*
X124713238Y-104112238D01*
X124736259Y-104084188D01*
X126712032Y-102108415D01*
X126767102Y-102131226D01*
X126967061Y-102171000D01*
X127170939Y-102171000D01*
X127370898Y-102131226D01*
X127559256Y-102053205D01*
X127728774Y-101939937D01*
X127782282Y-101886429D01*
X128054853Y-102159000D01*
M02*
