G04 #@! TF.GenerationSoftware,KiCad,Pcbnew,(5.1.2)-1*
G04 #@! TF.CreationDate,2021-07-03T10:16:44+09:00*
G04 #@! TF.ProjectId,hdmi,68646d69-2e6b-4696-9361-645f70636258,v1.5*
G04 #@! TF.SameCoordinates,Original*
G04 #@! TF.FileFunction,Soldermask,Bot*
G04 #@! TF.FilePolarity,Negative*
%FSLAX46Y46*%
G04 Gerber Fmt 4.6, Leading zero omitted, Abs format (unit mm)*
G04 Created by KiCad (PCBNEW (5.1.2)-1) date 2021-07-03 10:16:44*
%MOMM*%
%LPD*%
G04 APERTURE LIST*
%ADD10C,0.100000*%
G04 APERTURE END LIST*
D10*
G36*
X174686897Y-122722942D02*
G01*
X174868538Y-122778043D01*
X175035936Y-122867518D01*
X175035938Y-122867520D01*
X175182665Y-122987935D01*
X175303080Y-123134662D01*
X175303082Y-123134665D01*
X175392557Y-123302061D01*
X175447658Y-123483702D01*
X175461600Y-123625262D01*
X175461600Y-124024737D01*
X175447658Y-124166297D01*
X175392557Y-124347939D01*
X175303082Y-124515335D01*
X175303080Y-124515338D01*
X175182665Y-124662065D01*
X175035938Y-124782480D01*
X175035936Y-124782481D01*
X175035935Y-124782482D01*
X174868539Y-124871957D01*
X174686898Y-124927058D01*
X174498000Y-124945662D01*
X174309103Y-124927058D01*
X174127462Y-124871957D01*
X173960066Y-124782482D01*
X173960065Y-124782481D01*
X173960063Y-124782480D01*
X173813336Y-124662065D01*
X173692920Y-124515338D01*
X173692918Y-124515335D01*
X173603443Y-124347939D01*
X173548342Y-124166298D01*
X173534400Y-124024738D01*
X173534400Y-123625263D01*
X173548342Y-123483703D01*
X173603443Y-123302062D01*
X173692918Y-123134664D01*
X173712735Y-123110517D01*
X173813335Y-122987935D01*
X173960062Y-122867520D01*
X173960064Y-122867519D01*
X173960065Y-122867518D01*
X174127461Y-122778043D01*
X174309102Y-122722942D01*
X174498000Y-122704338D01*
X174686897Y-122722942D01*
X174686897Y-122722942D01*
G37*
G36*
X172146897Y-122722942D02*
G01*
X172328538Y-122778043D01*
X172495936Y-122867518D01*
X172495938Y-122867520D01*
X172642665Y-122987935D01*
X172763080Y-123134662D01*
X172763082Y-123134665D01*
X172852557Y-123302061D01*
X172907658Y-123483702D01*
X172921600Y-123625262D01*
X172921600Y-124024737D01*
X172907658Y-124166297D01*
X172852557Y-124347939D01*
X172763082Y-124515335D01*
X172763080Y-124515338D01*
X172642665Y-124662065D01*
X172495938Y-124782480D01*
X172495936Y-124782481D01*
X172495935Y-124782482D01*
X172328539Y-124871957D01*
X172146898Y-124927058D01*
X171958000Y-124945662D01*
X171769103Y-124927058D01*
X171587462Y-124871957D01*
X171420066Y-124782482D01*
X171420065Y-124782481D01*
X171420063Y-124782480D01*
X171273336Y-124662065D01*
X171152920Y-124515338D01*
X171152918Y-124515335D01*
X171063443Y-124347939D01*
X171008342Y-124166298D01*
X170994400Y-124024738D01*
X170994400Y-123625263D01*
X171008342Y-123483703D01*
X171063443Y-123302062D01*
X171152918Y-123134664D01*
X171172735Y-123110517D01*
X171273335Y-122987935D01*
X171420062Y-122867520D01*
X171420064Y-122867519D01*
X171420065Y-122867518D01*
X171587461Y-122778043D01*
X171769102Y-122722942D01*
X171958000Y-122704338D01*
X172146897Y-122722942D01*
X172146897Y-122722942D01*
G37*
G36*
X169606897Y-122722942D02*
G01*
X169788538Y-122778043D01*
X169955936Y-122867518D01*
X169955938Y-122867520D01*
X170102665Y-122987935D01*
X170223080Y-123134662D01*
X170223082Y-123134665D01*
X170312557Y-123302061D01*
X170367658Y-123483702D01*
X170381600Y-123625262D01*
X170381600Y-124024737D01*
X170367658Y-124166297D01*
X170312557Y-124347939D01*
X170223082Y-124515335D01*
X170223080Y-124515338D01*
X170102665Y-124662065D01*
X169955938Y-124782480D01*
X169955936Y-124782481D01*
X169955935Y-124782482D01*
X169788539Y-124871957D01*
X169606898Y-124927058D01*
X169418000Y-124945662D01*
X169229103Y-124927058D01*
X169047462Y-124871957D01*
X168880066Y-124782482D01*
X168880065Y-124782481D01*
X168880063Y-124782480D01*
X168733336Y-124662065D01*
X168612920Y-124515338D01*
X168612918Y-124515335D01*
X168523443Y-124347939D01*
X168468342Y-124166298D01*
X168454400Y-124024738D01*
X168454400Y-123625263D01*
X168468342Y-123483703D01*
X168523443Y-123302062D01*
X168612918Y-123134664D01*
X168632735Y-123110517D01*
X168733335Y-122987935D01*
X168880062Y-122867520D01*
X168880064Y-122867519D01*
X168880065Y-122867518D01*
X169047461Y-122778043D01*
X169229102Y-122722942D01*
X169418000Y-122704338D01*
X169606897Y-122722942D01*
X169606897Y-122722942D01*
G37*
G36*
X167066897Y-122722942D02*
G01*
X167248538Y-122778043D01*
X167415936Y-122867518D01*
X167415938Y-122867520D01*
X167562665Y-122987935D01*
X167683080Y-123134662D01*
X167683082Y-123134665D01*
X167772557Y-123302061D01*
X167827658Y-123483702D01*
X167841600Y-123625262D01*
X167841600Y-124024737D01*
X167827658Y-124166297D01*
X167772557Y-124347939D01*
X167683082Y-124515335D01*
X167683080Y-124515338D01*
X167562665Y-124662065D01*
X167415938Y-124782480D01*
X167415936Y-124782481D01*
X167415935Y-124782482D01*
X167248539Y-124871957D01*
X167066898Y-124927058D01*
X166878000Y-124945662D01*
X166689103Y-124927058D01*
X166507462Y-124871957D01*
X166340066Y-124782482D01*
X166340065Y-124782481D01*
X166340063Y-124782480D01*
X166193336Y-124662065D01*
X166072920Y-124515338D01*
X166072918Y-124515335D01*
X165983443Y-124347939D01*
X165928342Y-124166298D01*
X165914400Y-124024738D01*
X165914400Y-123625263D01*
X165928342Y-123483703D01*
X165983443Y-123302062D01*
X166072918Y-123134664D01*
X166092735Y-123110517D01*
X166193335Y-122987935D01*
X166340062Y-122867520D01*
X166340064Y-122867519D01*
X166340065Y-122867518D01*
X166507461Y-122778043D01*
X166689102Y-122722942D01*
X166878000Y-122704338D01*
X167066897Y-122722942D01*
X167066897Y-122722942D01*
G37*
G36*
X164526897Y-122722942D02*
G01*
X164708538Y-122778043D01*
X164875936Y-122867518D01*
X164875938Y-122867520D01*
X165022665Y-122987935D01*
X165143080Y-123134662D01*
X165143082Y-123134665D01*
X165232557Y-123302061D01*
X165287658Y-123483702D01*
X165301600Y-123625262D01*
X165301600Y-124024737D01*
X165287658Y-124166297D01*
X165232557Y-124347939D01*
X165143082Y-124515335D01*
X165143080Y-124515338D01*
X165022665Y-124662065D01*
X164875938Y-124782480D01*
X164875936Y-124782481D01*
X164875935Y-124782482D01*
X164708539Y-124871957D01*
X164526898Y-124927058D01*
X164338000Y-124945662D01*
X164149103Y-124927058D01*
X163967462Y-124871957D01*
X163800066Y-124782482D01*
X163800065Y-124782481D01*
X163800063Y-124782480D01*
X163653336Y-124662065D01*
X163532920Y-124515338D01*
X163532918Y-124515335D01*
X163443443Y-124347939D01*
X163388342Y-124166298D01*
X163374400Y-124024738D01*
X163374400Y-123625263D01*
X163388342Y-123483703D01*
X163443443Y-123302062D01*
X163532918Y-123134664D01*
X163552735Y-123110517D01*
X163653335Y-122987935D01*
X163800062Y-122867520D01*
X163800064Y-122867519D01*
X163800065Y-122867518D01*
X163967461Y-122778043D01*
X164149102Y-122722942D01*
X164338000Y-122704338D01*
X164526897Y-122722942D01*
X164526897Y-122722942D01*
G37*
G36*
X161986897Y-122722942D02*
G01*
X162168538Y-122778043D01*
X162335936Y-122867518D01*
X162335938Y-122867520D01*
X162482665Y-122987935D01*
X162603080Y-123134662D01*
X162603082Y-123134665D01*
X162692557Y-123302061D01*
X162747658Y-123483702D01*
X162761600Y-123625262D01*
X162761600Y-124024737D01*
X162747658Y-124166297D01*
X162692557Y-124347939D01*
X162603082Y-124515335D01*
X162603080Y-124515338D01*
X162482665Y-124662065D01*
X162335938Y-124782480D01*
X162335936Y-124782481D01*
X162335935Y-124782482D01*
X162168539Y-124871957D01*
X161986898Y-124927058D01*
X161798000Y-124945662D01*
X161609103Y-124927058D01*
X161427462Y-124871957D01*
X161260066Y-124782482D01*
X161260065Y-124782481D01*
X161260063Y-124782480D01*
X161113336Y-124662065D01*
X160992920Y-124515338D01*
X160992918Y-124515335D01*
X160903443Y-124347939D01*
X160848342Y-124166298D01*
X160834400Y-124024738D01*
X160834400Y-123625263D01*
X160848342Y-123483703D01*
X160903443Y-123302062D01*
X160992918Y-123134664D01*
X161012735Y-123110517D01*
X161113335Y-122987935D01*
X161260062Y-122867520D01*
X161260064Y-122867519D01*
X161260065Y-122867518D01*
X161427461Y-122778043D01*
X161609102Y-122722942D01*
X161798000Y-122704338D01*
X161986897Y-122722942D01*
X161986897Y-122722942D01*
G37*
G36*
X141666897Y-122722942D02*
G01*
X141848538Y-122778043D01*
X142015936Y-122867518D01*
X142015938Y-122867520D01*
X142162665Y-122987935D01*
X142283080Y-123134662D01*
X142283082Y-123134665D01*
X142372557Y-123302061D01*
X142427658Y-123483702D01*
X142441600Y-123625262D01*
X142441600Y-124024737D01*
X142427658Y-124166297D01*
X142372557Y-124347939D01*
X142283082Y-124515335D01*
X142283080Y-124515338D01*
X142162665Y-124662065D01*
X142015938Y-124782480D01*
X142015936Y-124782481D01*
X142015935Y-124782482D01*
X141848539Y-124871957D01*
X141666898Y-124927058D01*
X141478000Y-124945662D01*
X141289103Y-124927058D01*
X141107462Y-124871957D01*
X140940066Y-124782482D01*
X140940065Y-124782481D01*
X140940063Y-124782480D01*
X140793336Y-124662065D01*
X140672920Y-124515338D01*
X140672918Y-124515335D01*
X140583443Y-124347939D01*
X140528342Y-124166298D01*
X140514400Y-124024738D01*
X140514400Y-123625263D01*
X140528342Y-123483703D01*
X140583443Y-123302062D01*
X140672918Y-123134664D01*
X140692735Y-123110517D01*
X140793335Y-122987935D01*
X140940062Y-122867520D01*
X140940064Y-122867519D01*
X140940065Y-122867518D01*
X141107461Y-122778043D01*
X141289102Y-122722942D01*
X141478000Y-122704338D01*
X141666897Y-122722942D01*
X141666897Y-122722942D01*
G37*
G36*
X146746897Y-122722942D02*
G01*
X146928538Y-122778043D01*
X147095936Y-122867518D01*
X147095938Y-122867520D01*
X147242665Y-122987935D01*
X147363080Y-123134662D01*
X147363082Y-123134665D01*
X147452557Y-123302061D01*
X147507658Y-123483702D01*
X147521600Y-123625262D01*
X147521600Y-124024737D01*
X147507658Y-124166297D01*
X147452557Y-124347939D01*
X147363082Y-124515335D01*
X147363080Y-124515338D01*
X147242665Y-124662065D01*
X147095938Y-124782480D01*
X147095936Y-124782481D01*
X147095935Y-124782482D01*
X146928539Y-124871957D01*
X146746898Y-124927058D01*
X146558000Y-124945662D01*
X146369103Y-124927058D01*
X146187462Y-124871957D01*
X146020066Y-124782482D01*
X146020065Y-124782481D01*
X146020063Y-124782480D01*
X145873336Y-124662065D01*
X145752920Y-124515338D01*
X145752918Y-124515335D01*
X145663443Y-124347939D01*
X145608342Y-124166298D01*
X145594400Y-124024738D01*
X145594400Y-123625263D01*
X145608342Y-123483703D01*
X145663443Y-123302062D01*
X145752918Y-123134664D01*
X145772735Y-123110517D01*
X145873335Y-122987935D01*
X146020062Y-122867520D01*
X146020064Y-122867519D01*
X146020065Y-122867518D01*
X146187461Y-122778043D01*
X146369102Y-122722942D01*
X146558000Y-122704338D01*
X146746897Y-122722942D01*
X146746897Y-122722942D01*
G37*
G36*
X139126897Y-122722942D02*
G01*
X139308538Y-122778043D01*
X139475936Y-122867518D01*
X139475938Y-122867520D01*
X139622665Y-122987935D01*
X139743080Y-123134662D01*
X139743082Y-123134665D01*
X139832557Y-123302061D01*
X139887658Y-123483702D01*
X139901600Y-123625262D01*
X139901600Y-124024737D01*
X139887658Y-124166297D01*
X139832557Y-124347939D01*
X139743082Y-124515335D01*
X139743080Y-124515338D01*
X139622665Y-124662065D01*
X139475938Y-124782480D01*
X139475936Y-124782481D01*
X139475935Y-124782482D01*
X139308539Y-124871957D01*
X139126898Y-124927058D01*
X138938000Y-124945662D01*
X138749103Y-124927058D01*
X138567462Y-124871957D01*
X138400066Y-124782482D01*
X138400065Y-124782481D01*
X138400063Y-124782480D01*
X138253336Y-124662065D01*
X138132920Y-124515338D01*
X138132918Y-124515335D01*
X138043443Y-124347939D01*
X137988342Y-124166298D01*
X137974400Y-124024738D01*
X137974400Y-123625263D01*
X137988342Y-123483703D01*
X138043443Y-123302062D01*
X138132918Y-123134664D01*
X138152735Y-123110517D01*
X138253335Y-122987935D01*
X138400062Y-122867520D01*
X138400064Y-122867519D01*
X138400065Y-122867518D01*
X138567461Y-122778043D01*
X138749102Y-122722942D01*
X138938000Y-122704338D01*
X139126897Y-122722942D01*
X139126897Y-122722942D01*
G37*
G36*
X156906897Y-122722942D02*
G01*
X157088538Y-122778043D01*
X157255936Y-122867518D01*
X157255938Y-122867520D01*
X157402665Y-122987935D01*
X157523080Y-123134662D01*
X157523082Y-123134665D01*
X157612557Y-123302061D01*
X157667658Y-123483702D01*
X157681600Y-123625262D01*
X157681600Y-124024737D01*
X157667658Y-124166297D01*
X157612557Y-124347939D01*
X157523082Y-124515335D01*
X157523080Y-124515338D01*
X157402665Y-124662065D01*
X157255938Y-124782480D01*
X157255936Y-124782481D01*
X157255935Y-124782482D01*
X157088539Y-124871957D01*
X156906898Y-124927058D01*
X156718000Y-124945662D01*
X156529103Y-124927058D01*
X156347462Y-124871957D01*
X156180066Y-124782482D01*
X156180065Y-124782481D01*
X156180063Y-124782480D01*
X156033336Y-124662065D01*
X155912920Y-124515338D01*
X155912918Y-124515335D01*
X155823443Y-124347939D01*
X155768342Y-124166298D01*
X155754400Y-124024738D01*
X155754400Y-123625263D01*
X155768342Y-123483703D01*
X155823443Y-123302062D01*
X155912918Y-123134664D01*
X155932735Y-123110517D01*
X156033335Y-122987935D01*
X156180062Y-122867520D01*
X156180064Y-122867519D01*
X156180065Y-122867518D01*
X156347461Y-122778043D01*
X156529102Y-122722942D01*
X156718000Y-122704338D01*
X156906897Y-122722942D01*
X156906897Y-122722942D01*
G37*
G36*
X154366897Y-122722942D02*
G01*
X154548538Y-122778043D01*
X154715936Y-122867518D01*
X154715938Y-122867520D01*
X154862665Y-122987935D01*
X154983080Y-123134662D01*
X154983082Y-123134665D01*
X155072557Y-123302061D01*
X155127658Y-123483702D01*
X155141600Y-123625262D01*
X155141600Y-124024737D01*
X155127658Y-124166297D01*
X155072557Y-124347939D01*
X154983082Y-124515335D01*
X154983080Y-124515338D01*
X154862665Y-124662065D01*
X154715938Y-124782480D01*
X154715936Y-124782481D01*
X154715935Y-124782482D01*
X154548539Y-124871957D01*
X154366898Y-124927058D01*
X154178000Y-124945662D01*
X153989103Y-124927058D01*
X153807462Y-124871957D01*
X153640066Y-124782482D01*
X153640065Y-124782481D01*
X153640063Y-124782480D01*
X153493336Y-124662065D01*
X153372920Y-124515338D01*
X153372918Y-124515335D01*
X153283443Y-124347939D01*
X153228342Y-124166298D01*
X153214400Y-124024738D01*
X153214400Y-123625263D01*
X153228342Y-123483703D01*
X153283443Y-123302062D01*
X153372918Y-123134664D01*
X153392735Y-123110517D01*
X153493335Y-122987935D01*
X153640062Y-122867520D01*
X153640064Y-122867519D01*
X153640065Y-122867518D01*
X153807461Y-122778043D01*
X153989102Y-122722942D01*
X154178000Y-122704338D01*
X154366897Y-122722942D01*
X154366897Y-122722942D01*
G37*
G36*
X151826897Y-122722942D02*
G01*
X152008538Y-122778043D01*
X152175936Y-122867518D01*
X152175938Y-122867520D01*
X152322665Y-122987935D01*
X152443080Y-123134662D01*
X152443082Y-123134665D01*
X152532557Y-123302061D01*
X152587658Y-123483702D01*
X152601600Y-123625262D01*
X152601600Y-124024737D01*
X152587658Y-124166297D01*
X152532557Y-124347939D01*
X152443082Y-124515335D01*
X152443080Y-124515338D01*
X152322665Y-124662065D01*
X152175938Y-124782480D01*
X152175936Y-124782481D01*
X152175935Y-124782482D01*
X152008539Y-124871957D01*
X151826898Y-124927058D01*
X151638000Y-124945662D01*
X151449103Y-124927058D01*
X151267462Y-124871957D01*
X151100066Y-124782482D01*
X151100065Y-124782481D01*
X151100063Y-124782480D01*
X150953336Y-124662065D01*
X150832920Y-124515338D01*
X150832918Y-124515335D01*
X150743443Y-124347939D01*
X150688342Y-124166298D01*
X150674400Y-124024738D01*
X150674400Y-123625263D01*
X150688342Y-123483703D01*
X150743443Y-123302062D01*
X150832918Y-123134664D01*
X150852735Y-123110517D01*
X150953335Y-122987935D01*
X151100062Y-122867520D01*
X151100064Y-122867519D01*
X151100065Y-122867518D01*
X151267461Y-122778043D01*
X151449102Y-122722942D01*
X151638000Y-122704338D01*
X151826897Y-122722942D01*
X151826897Y-122722942D01*
G37*
G36*
X149286897Y-122722942D02*
G01*
X149468538Y-122778043D01*
X149635936Y-122867518D01*
X149635938Y-122867520D01*
X149782665Y-122987935D01*
X149903080Y-123134662D01*
X149903082Y-123134665D01*
X149992557Y-123302061D01*
X150047658Y-123483702D01*
X150061600Y-123625262D01*
X150061600Y-124024737D01*
X150047658Y-124166297D01*
X149992557Y-124347939D01*
X149903082Y-124515335D01*
X149903080Y-124515338D01*
X149782665Y-124662065D01*
X149635938Y-124782480D01*
X149635936Y-124782481D01*
X149635935Y-124782482D01*
X149468539Y-124871957D01*
X149286898Y-124927058D01*
X149098000Y-124945662D01*
X148909103Y-124927058D01*
X148727462Y-124871957D01*
X148560066Y-124782482D01*
X148560065Y-124782481D01*
X148560063Y-124782480D01*
X148413336Y-124662065D01*
X148292920Y-124515338D01*
X148292918Y-124515335D01*
X148203443Y-124347939D01*
X148148342Y-124166298D01*
X148134400Y-124024738D01*
X148134400Y-123625263D01*
X148148342Y-123483703D01*
X148203443Y-123302062D01*
X148292918Y-123134664D01*
X148312735Y-123110517D01*
X148413335Y-122987935D01*
X148560062Y-122867520D01*
X148560064Y-122867519D01*
X148560065Y-122867518D01*
X148727461Y-122778043D01*
X148909102Y-122722942D01*
X149098000Y-122704338D01*
X149286897Y-122722942D01*
X149286897Y-122722942D01*
G37*
G36*
X144206897Y-122722942D02*
G01*
X144388538Y-122778043D01*
X144555936Y-122867518D01*
X144555938Y-122867520D01*
X144702665Y-122987935D01*
X144823080Y-123134662D01*
X144823082Y-123134665D01*
X144912557Y-123302061D01*
X144967658Y-123483702D01*
X144981600Y-123625262D01*
X144981600Y-124024737D01*
X144967658Y-124166297D01*
X144912557Y-124347939D01*
X144823082Y-124515335D01*
X144823080Y-124515338D01*
X144702665Y-124662065D01*
X144555938Y-124782480D01*
X144555936Y-124782481D01*
X144555935Y-124782482D01*
X144388539Y-124871957D01*
X144206898Y-124927058D01*
X144018000Y-124945662D01*
X143829103Y-124927058D01*
X143647462Y-124871957D01*
X143480066Y-124782482D01*
X143480065Y-124782481D01*
X143480063Y-124782480D01*
X143333336Y-124662065D01*
X143212920Y-124515338D01*
X143212918Y-124515335D01*
X143123443Y-124347939D01*
X143068342Y-124166298D01*
X143054400Y-124024738D01*
X143054400Y-123625263D01*
X143068342Y-123483703D01*
X143123443Y-123302062D01*
X143212918Y-123134664D01*
X143232735Y-123110517D01*
X143333335Y-122987935D01*
X143480062Y-122867520D01*
X143480064Y-122867519D01*
X143480065Y-122867518D01*
X143647461Y-122778043D01*
X143829102Y-122722942D01*
X144018000Y-122704338D01*
X144206897Y-122722942D01*
X144206897Y-122722942D01*
G37*
G36*
X125098000Y-111465000D02*
G01*
X121898000Y-111465000D01*
X121898000Y-110665000D01*
X125098000Y-110665000D01*
X125098000Y-111465000D01*
X125098000Y-111465000D01*
G37*
G36*
X124098000Y-108265000D02*
G01*
X121898000Y-108265000D01*
X121898000Y-107465000D01*
X124098000Y-107465000D01*
X124098000Y-108265000D01*
X124098000Y-108265000D01*
G37*
G36*
X124098000Y-107265000D02*
G01*
X121898000Y-107265000D01*
X121898000Y-106465000D01*
X124098000Y-106465000D01*
X124098000Y-107265000D01*
X124098000Y-107265000D01*
G37*
G36*
X124098000Y-106265000D02*
G01*
X121898000Y-106265000D01*
X121898000Y-105465000D01*
X124098000Y-105465000D01*
X124098000Y-106265000D01*
X124098000Y-106265000D01*
G37*
G36*
X124098000Y-105265000D02*
G01*
X121898000Y-105265000D01*
X121898000Y-104465000D01*
X124098000Y-104465000D01*
X124098000Y-105265000D01*
X124098000Y-105265000D01*
G37*
G36*
X124098000Y-104265000D02*
G01*
X121898000Y-104265000D01*
X121898000Y-103465000D01*
X124098000Y-103465000D01*
X124098000Y-104265000D01*
X124098000Y-104265000D01*
G37*
G36*
X124098000Y-103265000D02*
G01*
X121898000Y-103265000D01*
X121898000Y-102465000D01*
X124098000Y-102465000D01*
X124098000Y-103265000D01*
X124098000Y-103265000D01*
G37*
G36*
X124098000Y-102265000D02*
G01*
X121898000Y-102265000D01*
X121898000Y-101465000D01*
X124098000Y-101465000D01*
X124098000Y-102265000D01*
X124098000Y-102265000D01*
G37*
G36*
X124098000Y-101265000D02*
G01*
X121898000Y-101265000D01*
X121898000Y-100465000D01*
X124098000Y-100465000D01*
X124098000Y-101265000D01*
X124098000Y-101265000D01*
G37*
G36*
X124098000Y-100265000D02*
G01*
X121898000Y-100265000D01*
X121898000Y-99465000D01*
X124098000Y-99465000D01*
X124098000Y-100265000D01*
X124098000Y-100265000D01*
G37*
G36*
X125098000Y-97065000D02*
G01*
X121898000Y-97065000D01*
X121898000Y-96265000D01*
X125098000Y-96265000D01*
X125098000Y-97065000D01*
X125098000Y-97065000D01*
G37*
G36*
X170479434Y-85746125D02*
G01*
X170479437Y-85746126D01*
X170479436Y-85746126D01*
X170636310Y-85811105D01*
X170777493Y-85905441D01*
X170897559Y-86025507D01*
X170991895Y-86166690D01*
X170991895Y-86166691D01*
X171056875Y-86323566D01*
X171090000Y-86490099D01*
X171090000Y-86659901D01*
X171056875Y-86826434D01*
X171056874Y-86826436D01*
X170991895Y-86983310D01*
X170897559Y-87124493D01*
X170777493Y-87244559D01*
X170636310Y-87338895D01*
X170525383Y-87384842D01*
X170479434Y-87403875D01*
X170312901Y-87437000D01*
X170143099Y-87437000D01*
X169976566Y-87403875D01*
X169930617Y-87384842D01*
X169819690Y-87338895D01*
X169678507Y-87244559D01*
X169558441Y-87124493D01*
X169464105Y-86983310D01*
X169399126Y-86826436D01*
X169399125Y-86826434D01*
X169366000Y-86659901D01*
X169366000Y-86490099D01*
X169399125Y-86323566D01*
X169464105Y-86166691D01*
X169464105Y-86166690D01*
X169558441Y-86025507D01*
X169678507Y-85905441D01*
X169819690Y-85811105D01*
X169976564Y-85746126D01*
X169976563Y-85746126D01*
X169976566Y-85746125D01*
X170143099Y-85713000D01*
X170312901Y-85713000D01*
X170479434Y-85746125D01*
X170479434Y-85746125D01*
G37*
G36*
X173019434Y-85746125D02*
G01*
X173019437Y-85746126D01*
X173019436Y-85746126D01*
X173176310Y-85811105D01*
X173317493Y-85905441D01*
X173437559Y-86025507D01*
X173531895Y-86166690D01*
X173531895Y-86166691D01*
X173596875Y-86323566D01*
X173630000Y-86490099D01*
X173630000Y-86659901D01*
X173596875Y-86826434D01*
X173596874Y-86826436D01*
X173531895Y-86983310D01*
X173437559Y-87124493D01*
X173317493Y-87244559D01*
X173176310Y-87338895D01*
X173065383Y-87384842D01*
X173019434Y-87403875D01*
X172852901Y-87437000D01*
X172683099Y-87437000D01*
X172516566Y-87403875D01*
X172470617Y-87384842D01*
X172359690Y-87338895D01*
X172218507Y-87244559D01*
X172098441Y-87124493D01*
X172004105Y-86983310D01*
X171939126Y-86826436D01*
X171939125Y-86826434D01*
X171906000Y-86659901D01*
X171906000Y-86490099D01*
X171939125Y-86323566D01*
X172004105Y-86166691D01*
X172004105Y-86166690D01*
X172098441Y-86025507D01*
X172218507Y-85905441D01*
X172359690Y-85811105D01*
X172516564Y-85746126D01*
X172516563Y-85746126D01*
X172516566Y-85746125D01*
X172683099Y-85713000D01*
X172852901Y-85713000D01*
X173019434Y-85746125D01*
X173019434Y-85746125D01*
G37*
G36*
X173019434Y-83206125D02*
G01*
X173019437Y-83206126D01*
X173019436Y-83206126D01*
X173176310Y-83271105D01*
X173317493Y-83365441D01*
X173437559Y-83485507D01*
X173531895Y-83626690D01*
X173531895Y-83626691D01*
X173596875Y-83783566D01*
X173630000Y-83950099D01*
X173630000Y-84119901D01*
X173596875Y-84286434D01*
X173596874Y-84286436D01*
X173531895Y-84443310D01*
X173437559Y-84584493D01*
X173317493Y-84704559D01*
X173176310Y-84798895D01*
X173065383Y-84844842D01*
X173019434Y-84863875D01*
X172852901Y-84897000D01*
X172683099Y-84897000D01*
X172516566Y-84863875D01*
X172470617Y-84844842D01*
X172359690Y-84798895D01*
X172218507Y-84704559D01*
X172098441Y-84584493D01*
X172004105Y-84443310D01*
X171939126Y-84286436D01*
X171939125Y-84286434D01*
X171906000Y-84119901D01*
X171906000Y-83950099D01*
X171939125Y-83783566D01*
X172004105Y-83626691D01*
X172004105Y-83626690D01*
X172098441Y-83485507D01*
X172218507Y-83365441D01*
X172359690Y-83271105D01*
X172516564Y-83206126D01*
X172516563Y-83206126D01*
X172516566Y-83206125D01*
X172683099Y-83173000D01*
X172852901Y-83173000D01*
X173019434Y-83206125D01*
X173019434Y-83206125D01*
G37*
G36*
X170479434Y-83206125D02*
G01*
X170479437Y-83206126D01*
X170479436Y-83206126D01*
X170636310Y-83271105D01*
X170777493Y-83365441D01*
X170897559Y-83485507D01*
X170991895Y-83626690D01*
X170991895Y-83626691D01*
X171056875Y-83783566D01*
X171090000Y-83950099D01*
X171090000Y-84119901D01*
X171056875Y-84286434D01*
X171056874Y-84286436D01*
X170991895Y-84443310D01*
X170897559Y-84584493D01*
X170777493Y-84704559D01*
X170636310Y-84798895D01*
X170525383Y-84844842D01*
X170479434Y-84863875D01*
X170312901Y-84897000D01*
X170143099Y-84897000D01*
X169976566Y-84863875D01*
X169930617Y-84844842D01*
X169819690Y-84798895D01*
X169678507Y-84704559D01*
X169558441Y-84584493D01*
X169464105Y-84443310D01*
X169399126Y-84286436D01*
X169399125Y-84286434D01*
X169366000Y-84119901D01*
X169366000Y-83950099D01*
X169399125Y-83783566D01*
X169464105Y-83626691D01*
X169464105Y-83626690D01*
X169558441Y-83485507D01*
X169678507Y-83365441D01*
X169819690Y-83271105D01*
X169976564Y-83206126D01*
X169976563Y-83206126D01*
X169976566Y-83206125D01*
X170143099Y-83173000D01*
X170312901Y-83173000D01*
X170479434Y-83206125D01*
X170479434Y-83206125D01*
G37*
G36*
X173019434Y-80666125D02*
G01*
X173019437Y-80666126D01*
X173019436Y-80666126D01*
X173176310Y-80731105D01*
X173317493Y-80825441D01*
X173437559Y-80945507D01*
X173531895Y-81086690D01*
X173531895Y-81086691D01*
X173596875Y-81243566D01*
X173630000Y-81410099D01*
X173630000Y-81579901D01*
X173596875Y-81746434D01*
X173596874Y-81746436D01*
X173531895Y-81903310D01*
X173437559Y-82044493D01*
X173317493Y-82164559D01*
X173176310Y-82258895D01*
X173065383Y-82304842D01*
X173019434Y-82323875D01*
X172852901Y-82357000D01*
X172683099Y-82357000D01*
X172516566Y-82323875D01*
X172470617Y-82304842D01*
X172359690Y-82258895D01*
X172218507Y-82164559D01*
X172098441Y-82044493D01*
X172004105Y-81903310D01*
X171939126Y-81746436D01*
X171939125Y-81746434D01*
X171906000Y-81579901D01*
X171906000Y-81410099D01*
X171939125Y-81243566D01*
X172004105Y-81086691D01*
X172004105Y-81086690D01*
X172098441Y-80945507D01*
X172218507Y-80825441D01*
X172359690Y-80731105D01*
X172516564Y-80666126D01*
X172516563Y-80666126D01*
X172516566Y-80666125D01*
X172683099Y-80633000D01*
X172852901Y-80633000D01*
X173019434Y-80666125D01*
X173019434Y-80666125D01*
G37*
G36*
X170479434Y-80666125D02*
G01*
X170479437Y-80666126D01*
X170479436Y-80666126D01*
X170636310Y-80731105D01*
X170777493Y-80825441D01*
X170897559Y-80945507D01*
X170991895Y-81086690D01*
X170991895Y-81086691D01*
X171056875Y-81243566D01*
X171090000Y-81410099D01*
X171090000Y-81579901D01*
X171056875Y-81746434D01*
X171056874Y-81746436D01*
X170991895Y-81903310D01*
X170897559Y-82044493D01*
X170777493Y-82164559D01*
X170636310Y-82258895D01*
X170525383Y-82304842D01*
X170479434Y-82323875D01*
X170312901Y-82357000D01*
X170143099Y-82357000D01*
X169976566Y-82323875D01*
X169930617Y-82304842D01*
X169819690Y-82258895D01*
X169678507Y-82164559D01*
X169558441Y-82044493D01*
X169464105Y-81903310D01*
X169399126Y-81746436D01*
X169399125Y-81746434D01*
X169366000Y-81579901D01*
X169366000Y-81410099D01*
X169399125Y-81243566D01*
X169464105Y-81086691D01*
X169464105Y-81086690D01*
X169558441Y-80945507D01*
X169678507Y-80825441D01*
X169819690Y-80731105D01*
X169976564Y-80666126D01*
X169976563Y-80666126D01*
X169976566Y-80666125D01*
X170143099Y-80633000D01*
X170312901Y-80633000D01*
X170479434Y-80666125D01*
X170479434Y-80666125D01*
G37*
G36*
X173019434Y-78126125D02*
G01*
X173019437Y-78126126D01*
X173019436Y-78126126D01*
X173176310Y-78191105D01*
X173317493Y-78285441D01*
X173437559Y-78405507D01*
X173531895Y-78546690D01*
X173531895Y-78546691D01*
X173596875Y-78703566D01*
X173630000Y-78870099D01*
X173630000Y-79039901D01*
X173596875Y-79206434D01*
X173596874Y-79206436D01*
X173531895Y-79363310D01*
X173437559Y-79504493D01*
X173317493Y-79624559D01*
X173176310Y-79718895D01*
X173065383Y-79764842D01*
X173019434Y-79783875D01*
X172852901Y-79817000D01*
X172683099Y-79817000D01*
X172516566Y-79783875D01*
X172470617Y-79764842D01*
X172359690Y-79718895D01*
X172218507Y-79624559D01*
X172098441Y-79504493D01*
X172004105Y-79363310D01*
X171939126Y-79206436D01*
X171939125Y-79206434D01*
X171906000Y-79039901D01*
X171906000Y-78870099D01*
X171939125Y-78703566D01*
X172004105Y-78546691D01*
X172004105Y-78546690D01*
X172098441Y-78405507D01*
X172218507Y-78285441D01*
X172359690Y-78191105D01*
X172516564Y-78126126D01*
X172516563Y-78126126D01*
X172516566Y-78126125D01*
X172683099Y-78093000D01*
X172852901Y-78093000D01*
X173019434Y-78126125D01*
X173019434Y-78126125D01*
G37*
G36*
X170479434Y-78126125D02*
G01*
X170479437Y-78126126D01*
X170479436Y-78126126D01*
X170636310Y-78191105D01*
X170777493Y-78285441D01*
X170897559Y-78405507D01*
X170991895Y-78546690D01*
X170991895Y-78546691D01*
X171056875Y-78703566D01*
X171090000Y-78870099D01*
X171090000Y-79039901D01*
X171056875Y-79206434D01*
X171056874Y-79206436D01*
X170991895Y-79363310D01*
X170897559Y-79504493D01*
X170777493Y-79624559D01*
X170636310Y-79718895D01*
X170525383Y-79764842D01*
X170479434Y-79783875D01*
X170312901Y-79817000D01*
X170143099Y-79817000D01*
X169976566Y-79783875D01*
X169930617Y-79764842D01*
X169819690Y-79718895D01*
X169678507Y-79624559D01*
X169558441Y-79504493D01*
X169464105Y-79363310D01*
X169399126Y-79206436D01*
X169399125Y-79206434D01*
X169366000Y-79039901D01*
X169366000Y-78870099D01*
X169399125Y-78703566D01*
X169464105Y-78546691D01*
X169464105Y-78546690D01*
X169558441Y-78405507D01*
X169678507Y-78285441D01*
X169819690Y-78191105D01*
X169976564Y-78126126D01*
X169976563Y-78126126D01*
X169976566Y-78126125D01*
X170143099Y-78093000D01*
X170312901Y-78093000D01*
X170479434Y-78126125D01*
X170479434Y-78126125D01*
G37*
G36*
X129982897Y-74462942D02*
G01*
X130164538Y-74518043D01*
X130331936Y-74607518D01*
X130331938Y-74607520D01*
X130478665Y-74727935D01*
X130599080Y-74874662D01*
X130599082Y-74874665D01*
X130688557Y-75042061D01*
X130743658Y-75223702D01*
X130757600Y-75365262D01*
X130757600Y-75764737D01*
X130743658Y-75906297D01*
X130688557Y-76087939D01*
X130599082Y-76255335D01*
X130599080Y-76255338D01*
X130478665Y-76402065D01*
X130331938Y-76522480D01*
X130331936Y-76522481D01*
X130331935Y-76522482D01*
X130164539Y-76611957D01*
X129982898Y-76667058D01*
X129794000Y-76685662D01*
X129605103Y-76667058D01*
X129423462Y-76611957D01*
X129256066Y-76522482D01*
X129256065Y-76522481D01*
X129256063Y-76522480D01*
X129109336Y-76402065D01*
X128988920Y-76255338D01*
X128988918Y-76255335D01*
X128899443Y-76087939D01*
X128844342Y-75906298D01*
X128830400Y-75764738D01*
X128830400Y-75365263D01*
X128844342Y-75223703D01*
X128899443Y-75042062D01*
X128988918Y-74874664D01*
X129008735Y-74850517D01*
X129109335Y-74727935D01*
X129256062Y-74607520D01*
X129256064Y-74607519D01*
X129256065Y-74607518D01*
X129423461Y-74518043D01*
X129605102Y-74462942D01*
X129794000Y-74444338D01*
X129982897Y-74462942D01*
X129982897Y-74462942D01*
G37*
G36*
X172146897Y-74462942D02*
G01*
X172328538Y-74518043D01*
X172495936Y-74607518D01*
X172495938Y-74607520D01*
X172642665Y-74727935D01*
X172763080Y-74874662D01*
X172763082Y-74874665D01*
X172852557Y-75042061D01*
X172907658Y-75223702D01*
X172921600Y-75365262D01*
X172921600Y-75764737D01*
X172907658Y-75906297D01*
X172852557Y-76087939D01*
X172763082Y-76255335D01*
X172763080Y-76255338D01*
X172642665Y-76402065D01*
X172495938Y-76522480D01*
X172495936Y-76522481D01*
X172495935Y-76522482D01*
X172328539Y-76611957D01*
X172146898Y-76667058D01*
X171958000Y-76685662D01*
X171769103Y-76667058D01*
X171587462Y-76611957D01*
X171420066Y-76522482D01*
X171420065Y-76522481D01*
X171420063Y-76522480D01*
X171273336Y-76402065D01*
X171152920Y-76255338D01*
X171152918Y-76255335D01*
X171063443Y-76087939D01*
X171008342Y-75906298D01*
X170994400Y-75764738D01*
X170994400Y-75365263D01*
X171008342Y-75223703D01*
X171063443Y-75042062D01*
X171152918Y-74874664D01*
X171172735Y-74850517D01*
X171273335Y-74727935D01*
X171420062Y-74607520D01*
X171420064Y-74607519D01*
X171420065Y-74607518D01*
X171587461Y-74518043D01*
X171769102Y-74462942D01*
X171958000Y-74444338D01*
X172146897Y-74462942D01*
X172146897Y-74462942D01*
G37*
G36*
X169606897Y-74462942D02*
G01*
X169788538Y-74518043D01*
X169955936Y-74607518D01*
X169955938Y-74607520D01*
X170102665Y-74727935D01*
X170223080Y-74874662D01*
X170223082Y-74874665D01*
X170312557Y-75042061D01*
X170367658Y-75223702D01*
X170381600Y-75365262D01*
X170381600Y-75764737D01*
X170367658Y-75906297D01*
X170312557Y-76087939D01*
X170223082Y-76255335D01*
X170223080Y-76255338D01*
X170102665Y-76402065D01*
X169955938Y-76522480D01*
X169955936Y-76522481D01*
X169955935Y-76522482D01*
X169788539Y-76611957D01*
X169606898Y-76667058D01*
X169418000Y-76685662D01*
X169229103Y-76667058D01*
X169047462Y-76611957D01*
X168880066Y-76522482D01*
X168880065Y-76522481D01*
X168880063Y-76522480D01*
X168733336Y-76402065D01*
X168612920Y-76255338D01*
X168612918Y-76255335D01*
X168523443Y-76087939D01*
X168468342Y-75906298D01*
X168454400Y-75764738D01*
X168454400Y-75365263D01*
X168468342Y-75223703D01*
X168523443Y-75042062D01*
X168612918Y-74874664D01*
X168632735Y-74850517D01*
X168733335Y-74727935D01*
X168880062Y-74607520D01*
X168880064Y-74607519D01*
X168880065Y-74607518D01*
X169047461Y-74518043D01*
X169229102Y-74462942D01*
X169418000Y-74444338D01*
X169606897Y-74462942D01*
X169606897Y-74462942D01*
G37*
G36*
X167066897Y-74462942D02*
G01*
X167248538Y-74518043D01*
X167415936Y-74607518D01*
X167415938Y-74607520D01*
X167562665Y-74727935D01*
X167683080Y-74874662D01*
X167683082Y-74874665D01*
X167772557Y-75042061D01*
X167827658Y-75223702D01*
X167841600Y-75365262D01*
X167841600Y-75764737D01*
X167827658Y-75906297D01*
X167772557Y-76087939D01*
X167683082Y-76255335D01*
X167683080Y-76255338D01*
X167562665Y-76402065D01*
X167415938Y-76522480D01*
X167415936Y-76522481D01*
X167415935Y-76522482D01*
X167248539Y-76611957D01*
X167066898Y-76667058D01*
X166878000Y-76685662D01*
X166689103Y-76667058D01*
X166507462Y-76611957D01*
X166340066Y-76522482D01*
X166340065Y-76522481D01*
X166340063Y-76522480D01*
X166193336Y-76402065D01*
X166072920Y-76255338D01*
X166072918Y-76255335D01*
X165983443Y-76087939D01*
X165928342Y-75906298D01*
X165914400Y-75764738D01*
X165914400Y-75365263D01*
X165928342Y-75223703D01*
X165983443Y-75042062D01*
X166072918Y-74874664D01*
X166092735Y-74850517D01*
X166193335Y-74727935D01*
X166340062Y-74607520D01*
X166340064Y-74607519D01*
X166340065Y-74607518D01*
X166507461Y-74518043D01*
X166689102Y-74462942D01*
X166878000Y-74444338D01*
X167066897Y-74462942D01*
X167066897Y-74462942D01*
G37*
G36*
X164526897Y-74462942D02*
G01*
X164708538Y-74518043D01*
X164875936Y-74607518D01*
X164875938Y-74607520D01*
X165022665Y-74727935D01*
X165143080Y-74874662D01*
X165143082Y-74874665D01*
X165232557Y-75042061D01*
X165287658Y-75223702D01*
X165301600Y-75365262D01*
X165301600Y-75764737D01*
X165287658Y-75906297D01*
X165232557Y-76087939D01*
X165143082Y-76255335D01*
X165143080Y-76255338D01*
X165022665Y-76402065D01*
X164875938Y-76522480D01*
X164875936Y-76522481D01*
X164875935Y-76522482D01*
X164708539Y-76611957D01*
X164526898Y-76667058D01*
X164338000Y-76685662D01*
X164149103Y-76667058D01*
X163967462Y-76611957D01*
X163800066Y-76522482D01*
X163800065Y-76522481D01*
X163800063Y-76522480D01*
X163653336Y-76402065D01*
X163532920Y-76255338D01*
X163532918Y-76255335D01*
X163443443Y-76087939D01*
X163388342Y-75906298D01*
X163374400Y-75764738D01*
X163374400Y-75365263D01*
X163388342Y-75223703D01*
X163443443Y-75042062D01*
X163532918Y-74874664D01*
X163552735Y-74850517D01*
X163653335Y-74727935D01*
X163800062Y-74607520D01*
X163800064Y-74607519D01*
X163800065Y-74607518D01*
X163967461Y-74518043D01*
X164149102Y-74462942D01*
X164338000Y-74444338D01*
X164526897Y-74462942D01*
X164526897Y-74462942D01*
G37*
G36*
X161986897Y-74462942D02*
G01*
X162168538Y-74518043D01*
X162335936Y-74607518D01*
X162335938Y-74607520D01*
X162482665Y-74727935D01*
X162603080Y-74874662D01*
X162603082Y-74874665D01*
X162692557Y-75042061D01*
X162747658Y-75223702D01*
X162761600Y-75365262D01*
X162761600Y-75764737D01*
X162747658Y-75906297D01*
X162692557Y-76087939D01*
X162603082Y-76255335D01*
X162603080Y-76255338D01*
X162482665Y-76402065D01*
X162335938Y-76522480D01*
X162335936Y-76522481D01*
X162335935Y-76522482D01*
X162168539Y-76611957D01*
X161986898Y-76667058D01*
X161798000Y-76685662D01*
X161609103Y-76667058D01*
X161427462Y-76611957D01*
X161260066Y-76522482D01*
X161260065Y-76522481D01*
X161260063Y-76522480D01*
X161113336Y-76402065D01*
X160992920Y-76255338D01*
X160992918Y-76255335D01*
X160903443Y-76087939D01*
X160848342Y-75906298D01*
X160834400Y-75764738D01*
X160834400Y-75365263D01*
X160848342Y-75223703D01*
X160903443Y-75042062D01*
X160992918Y-74874664D01*
X161012735Y-74850517D01*
X161113335Y-74727935D01*
X161260062Y-74607520D01*
X161260064Y-74607519D01*
X161260065Y-74607518D01*
X161427461Y-74518043D01*
X161609102Y-74462942D01*
X161798000Y-74444338D01*
X161986897Y-74462942D01*
X161986897Y-74462942D01*
G37*
G36*
X159446897Y-74462942D02*
G01*
X159628538Y-74518043D01*
X159795936Y-74607518D01*
X159795938Y-74607520D01*
X159942665Y-74727935D01*
X160063080Y-74874662D01*
X160063082Y-74874665D01*
X160152557Y-75042061D01*
X160207658Y-75223702D01*
X160221600Y-75365262D01*
X160221600Y-75764737D01*
X160207658Y-75906297D01*
X160152557Y-76087939D01*
X160063082Y-76255335D01*
X160063080Y-76255338D01*
X159942665Y-76402065D01*
X159795938Y-76522480D01*
X159795936Y-76522481D01*
X159795935Y-76522482D01*
X159628539Y-76611957D01*
X159446898Y-76667058D01*
X159258000Y-76685662D01*
X159069103Y-76667058D01*
X158887462Y-76611957D01*
X158720066Y-76522482D01*
X158720065Y-76522481D01*
X158720063Y-76522480D01*
X158573336Y-76402065D01*
X158452920Y-76255338D01*
X158452918Y-76255335D01*
X158363443Y-76087939D01*
X158308342Y-75906298D01*
X158294400Y-75764738D01*
X158294400Y-75365263D01*
X158308342Y-75223703D01*
X158363443Y-75042062D01*
X158452918Y-74874664D01*
X158472735Y-74850517D01*
X158573335Y-74727935D01*
X158720062Y-74607520D01*
X158720064Y-74607519D01*
X158720065Y-74607518D01*
X158887461Y-74518043D01*
X159069102Y-74462942D01*
X159258000Y-74444338D01*
X159446897Y-74462942D01*
X159446897Y-74462942D01*
G37*
G36*
X156906897Y-74462942D02*
G01*
X157088538Y-74518043D01*
X157255936Y-74607518D01*
X157255938Y-74607520D01*
X157402665Y-74727935D01*
X157523080Y-74874662D01*
X157523082Y-74874665D01*
X157612557Y-75042061D01*
X157667658Y-75223702D01*
X157681600Y-75365262D01*
X157681600Y-75764737D01*
X157667658Y-75906297D01*
X157612557Y-76087939D01*
X157523082Y-76255335D01*
X157523080Y-76255338D01*
X157402665Y-76402065D01*
X157255938Y-76522480D01*
X157255936Y-76522481D01*
X157255935Y-76522482D01*
X157088539Y-76611957D01*
X156906898Y-76667058D01*
X156718000Y-76685662D01*
X156529103Y-76667058D01*
X156347462Y-76611957D01*
X156180066Y-76522482D01*
X156180065Y-76522481D01*
X156180063Y-76522480D01*
X156033336Y-76402065D01*
X155912920Y-76255338D01*
X155912918Y-76255335D01*
X155823443Y-76087939D01*
X155768342Y-75906298D01*
X155754400Y-75764738D01*
X155754400Y-75365263D01*
X155768342Y-75223703D01*
X155823443Y-75042062D01*
X155912918Y-74874664D01*
X155932735Y-74850517D01*
X156033335Y-74727935D01*
X156180062Y-74607520D01*
X156180064Y-74607519D01*
X156180065Y-74607518D01*
X156347461Y-74518043D01*
X156529102Y-74462942D01*
X156718000Y-74444338D01*
X156906897Y-74462942D01*
X156906897Y-74462942D01*
G37*
G36*
X152842897Y-74462942D02*
G01*
X153024538Y-74518043D01*
X153191936Y-74607518D01*
X153191938Y-74607520D01*
X153338665Y-74727935D01*
X153459080Y-74874662D01*
X153459082Y-74874665D01*
X153548557Y-75042061D01*
X153603658Y-75223702D01*
X153617600Y-75365262D01*
X153617600Y-75764737D01*
X153603658Y-75906297D01*
X153548557Y-76087939D01*
X153459082Y-76255335D01*
X153459080Y-76255338D01*
X153338665Y-76402065D01*
X153191938Y-76522480D01*
X153191936Y-76522481D01*
X153191935Y-76522482D01*
X153024539Y-76611957D01*
X152842898Y-76667058D01*
X152654000Y-76685662D01*
X152465103Y-76667058D01*
X152283462Y-76611957D01*
X152116066Y-76522482D01*
X152116065Y-76522481D01*
X152116063Y-76522480D01*
X151969336Y-76402065D01*
X151848920Y-76255338D01*
X151848918Y-76255335D01*
X151759443Y-76087939D01*
X151704342Y-75906298D01*
X151690400Y-75764738D01*
X151690400Y-75365263D01*
X151704342Y-75223703D01*
X151759443Y-75042062D01*
X151848918Y-74874664D01*
X151868735Y-74850517D01*
X151969335Y-74727935D01*
X152116062Y-74607520D01*
X152116064Y-74607519D01*
X152116065Y-74607518D01*
X152283461Y-74518043D01*
X152465102Y-74462942D01*
X152654000Y-74444338D01*
X152842897Y-74462942D01*
X152842897Y-74462942D01*
G37*
G36*
X174686897Y-74462942D02*
G01*
X174868538Y-74518043D01*
X175035936Y-74607518D01*
X175035938Y-74607520D01*
X175182665Y-74727935D01*
X175303080Y-74874662D01*
X175303082Y-74874665D01*
X175392557Y-75042061D01*
X175447658Y-75223702D01*
X175461600Y-75365262D01*
X175461600Y-75764737D01*
X175447658Y-75906297D01*
X175392557Y-76087939D01*
X175303082Y-76255335D01*
X175303080Y-76255338D01*
X175182665Y-76402065D01*
X175035938Y-76522480D01*
X175035936Y-76522481D01*
X175035935Y-76522482D01*
X174868539Y-76611957D01*
X174686898Y-76667058D01*
X174498000Y-76685662D01*
X174309103Y-76667058D01*
X174127462Y-76611957D01*
X173960066Y-76522482D01*
X173960065Y-76522481D01*
X173960063Y-76522480D01*
X173813336Y-76402065D01*
X173692920Y-76255338D01*
X173692918Y-76255335D01*
X173603443Y-76087939D01*
X173548342Y-75906298D01*
X173534400Y-75764738D01*
X173534400Y-75365263D01*
X173548342Y-75223703D01*
X173603443Y-75042062D01*
X173692918Y-74874664D01*
X173712735Y-74850517D01*
X173813335Y-74727935D01*
X173960062Y-74607520D01*
X173960064Y-74607519D01*
X173960065Y-74607518D01*
X174127461Y-74518043D01*
X174309102Y-74462942D01*
X174498000Y-74444338D01*
X174686897Y-74462942D01*
X174686897Y-74462942D01*
G37*
G36*
X147762897Y-74462942D02*
G01*
X147944538Y-74518043D01*
X148111936Y-74607518D01*
X148111938Y-74607520D01*
X148258665Y-74727935D01*
X148379080Y-74874662D01*
X148379082Y-74874665D01*
X148468557Y-75042061D01*
X148523658Y-75223702D01*
X148537600Y-75365262D01*
X148537600Y-75764737D01*
X148523658Y-75906297D01*
X148468557Y-76087939D01*
X148379082Y-76255335D01*
X148379080Y-76255338D01*
X148258665Y-76402065D01*
X148111938Y-76522480D01*
X148111936Y-76522481D01*
X148111935Y-76522482D01*
X147944539Y-76611957D01*
X147762898Y-76667058D01*
X147574000Y-76685662D01*
X147385103Y-76667058D01*
X147203462Y-76611957D01*
X147036066Y-76522482D01*
X147036065Y-76522481D01*
X147036063Y-76522480D01*
X146889336Y-76402065D01*
X146768920Y-76255338D01*
X146768918Y-76255335D01*
X146679443Y-76087939D01*
X146624342Y-75906298D01*
X146610400Y-75764738D01*
X146610400Y-75365263D01*
X146624342Y-75223703D01*
X146679443Y-75042062D01*
X146768918Y-74874664D01*
X146788735Y-74850517D01*
X146889335Y-74727935D01*
X147036062Y-74607520D01*
X147036064Y-74607519D01*
X147036065Y-74607518D01*
X147203461Y-74518043D01*
X147385102Y-74462942D01*
X147574000Y-74444338D01*
X147762897Y-74462942D01*
X147762897Y-74462942D01*
G37*
G36*
X145222897Y-74462942D02*
G01*
X145404538Y-74518043D01*
X145571936Y-74607518D01*
X145571938Y-74607520D01*
X145718665Y-74727935D01*
X145839080Y-74874662D01*
X145839082Y-74874665D01*
X145928557Y-75042061D01*
X145983658Y-75223702D01*
X145997600Y-75365262D01*
X145997600Y-75764737D01*
X145983658Y-75906297D01*
X145928557Y-76087939D01*
X145839082Y-76255335D01*
X145839080Y-76255338D01*
X145718665Y-76402065D01*
X145571938Y-76522480D01*
X145571936Y-76522481D01*
X145571935Y-76522482D01*
X145404539Y-76611957D01*
X145222898Y-76667058D01*
X145034000Y-76685662D01*
X144845103Y-76667058D01*
X144663462Y-76611957D01*
X144496066Y-76522482D01*
X144496065Y-76522481D01*
X144496063Y-76522480D01*
X144349336Y-76402065D01*
X144228920Y-76255338D01*
X144228918Y-76255335D01*
X144139443Y-76087939D01*
X144084342Y-75906298D01*
X144070400Y-75764738D01*
X144070400Y-75365263D01*
X144084342Y-75223703D01*
X144139443Y-75042062D01*
X144228918Y-74874664D01*
X144248735Y-74850517D01*
X144349335Y-74727935D01*
X144496062Y-74607520D01*
X144496064Y-74607519D01*
X144496065Y-74607518D01*
X144663461Y-74518043D01*
X144845102Y-74462942D01*
X145034000Y-74444338D01*
X145222897Y-74462942D01*
X145222897Y-74462942D01*
G37*
G36*
X142682897Y-74462942D02*
G01*
X142864538Y-74518043D01*
X143031936Y-74607518D01*
X143031938Y-74607520D01*
X143178665Y-74727935D01*
X143299080Y-74874662D01*
X143299082Y-74874665D01*
X143388557Y-75042061D01*
X143443658Y-75223702D01*
X143457600Y-75365262D01*
X143457600Y-75764737D01*
X143443658Y-75906297D01*
X143388557Y-76087939D01*
X143299082Y-76255335D01*
X143299080Y-76255338D01*
X143178665Y-76402065D01*
X143031938Y-76522480D01*
X143031936Y-76522481D01*
X143031935Y-76522482D01*
X142864539Y-76611957D01*
X142682898Y-76667058D01*
X142494000Y-76685662D01*
X142305103Y-76667058D01*
X142123462Y-76611957D01*
X141956066Y-76522482D01*
X141956065Y-76522481D01*
X141956063Y-76522480D01*
X141809336Y-76402065D01*
X141688920Y-76255338D01*
X141688918Y-76255335D01*
X141599443Y-76087939D01*
X141544342Y-75906298D01*
X141530400Y-75764738D01*
X141530400Y-75365263D01*
X141544342Y-75223703D01*
X141599443Y-75042062D01*
X141688918Y-74874664D01*
X141708735Y-74850517D01*
X141809335Y-74727935D01*
X141956062Y-74607520D01*
X141956064Y-74607519D01*
X141956065Y-74607518D01*
X142123461Y-74518043D01*
X142305102Y-74462942D01*
X142494000Y-74444338D01*
X142682897Y-74462942D01*
X142682897Y-74462942D01*
G37*
G36*
X140142897Y-74462942D02*
G01*
X140324538Y-74518043D01*
X140491936Y-74607518D01*
X140491938Y-74607520D01*
X140638665Y-74727935D01*
X140759080Y-74874662D01*
X140759082Y-74874665D01*
X140848557Y-75042061D01*
X140903658Y-75223702D01*
X140917600Y-75365262D01*
X140917600Y-75764737D01*
X140903658Y-75906297D01*
X140848557Y-76087939D01*
X140759082Y-76255335D01*
X140759080Y-76255338D01*
X140638665Y-76402065D01*
X140491938Y-76522480D01*
X140491936Y-76522481D01*
X140491935Y-76522482D01*
X140324539Y-76611957D01*
X140142898Y-76667058D01*
X139954000Y-76685662D01*
X139765103Y-76667058D01*
X139583462Y-76611957D01*
X139416066Y-76522482D01*
X139416065Y-76522481D01*
X139416063Y-76522480D01*
X139269336Y-76402065D01*
X139148920Y-76255338D01*
X139148918Y-76255335D01*
X139059443Y-76087939D01*
X139004342Y-75906298D01*
X138990400Y-75764738D01*
X138990400Y-75365263D01*
X139004342Y-75223703D01*
X139059443Y-75042062D01*
X139148918Y-74874664D01*
X139168735Y-74850517D01*
X139269335Y-74727935D01*
X139416062Y-74607520D01*
X139416064Y-74607519D01*
X139416065Y-74607518D01*
X139583461Y-74518043D01*
X139765102Y-74462942D01*
X139954000Y-74444338D01*
X140142897Y-74462942D01*
X140142897Y-74462942D01*
G37*
G36*
X137602897Y-74462942D02*
G01*
X137784538Y-74518043D01*
X137951936Y-74607518D01*
X137951938Y-74607520D01*
X138098665Y-74727935D01*
X138219080Y-74874662D01*
X138219082Y-74874665D01*
X138308557Y-75042061D01*
X138363658Y-75223702D01*
X138377600Y-75365262D01*
X138377600Y-75764737D01*
X138363658Y-75906297D01*
X138308557Y-76087939D01*
X138219082Y-76255335D01*
X138219080Y-76255338D01*
X138098665Y-76402065D01*
X137951938Y-76522480D01*
X137951936Y-76522481D01*
X137951935Y-76522482D01*
X137784539Y-76611957D01*
X137602898Y-76667058D01*
X137414000Y-76685662D01*
X137225103Y-76667058D01*
X137043462Y-76611957D01*
X136876066Y-76522482D01*
X136876065Y-76522481D01*
X136876063Y-76522480D01*
X136729336Y-76402065D01*
X136608920Y-76255338D01*
X136608918Y-76255335D01*
X136519443Y-76087939D01*
X136464342Y-75906298D01*
X136450400Y-75764738D01*
X136450400Y-75365263D01*
X136464342Y-75223703D01*
X136519443Y-75042062D01*
X136608918Y-74874664D01*
X136628735Y-74850517D01*
X136729335Y-74727935D01*
X136876062Y-74607520D01*
X136876064Y-74607519D01*
X136876065Y-74607518D01*
X137043461Y-74518043D01*
X137225102Y-74462942D01*
X137414000Y-74444338D01*
X137602897Y-74462942D01*
X137602897Y-74462942D01*
G37*
G36*
X135062897Y-74462942D02*
G01*
X135244538Y-74518043D01*
X135411936Y-74607518D01*
X135411938Y-74607520D01*
X135558665Y-74727935D01*
X135679080Y-74874662D01*
X135679082Y-74874665D01*
X135768557Y-75042061D01*
X135823658Y-75223702D01*
X135837600Y-75365262D01*
X135837600Y-75764737D01*
X135823658Y-75906297D01*
X135768557Y-76087939D01*
X135679082Y-76255335D01*
X135679080Y-76255338D01*
X135558665Y-76402065D01*
X135411938Y-76522480D01*
X135411936Y-76522481D01*
X135411935Y-76522482D01*
X135244539Y-76611957D01*
X135062898Y-76667058D01*
X134874000Y-76685662D01*
X134685103Y-76667058D01*
X134503462Y-76611957D01*
X134336066Y-76522482D01*
X134336065Y-76522481D01*
X134336063Y-76522480D01*
X134189336Y-76402065D01*
X134068920Y-76255338D01*
X134068918Y-76255335D01*
X133979443Y-76087939D01*
X133924342Y-75906298D01*
X133910400Y-75764738D01*
X133910400Y-75365263D01*
X133924342Y-75223703D01*
X133979443Y-75042062D01*
X134068918Y-74874664D01*
X134088735Y-74850517D01*
X134189335Y-74727935D01*
X134336062Y-74607520D01*
X134336064Y-74607519D01*
X134336065Y-74607518D01*
X134503461Y-74518043D01*
X134685102Y-74462942D01*
X134874000Y-74444338D01*
X135062897Y-74462942D01*
X135062897Y-74462942D01*
G37*
G36*
X132522897Y-74462942D02*
G01*
X132704538Y-74518043D01*
X132871936Y-74607518D01*
X132871938Y-74607520D01*
X133018665Y-74727935D01*
X133139080Y-74874662D01*
X133139082Y-74874665D01*
X133228557Y-75042061D01*
X133283658Y-75223702D01*
X133297600Y-75365262D01*
X133297600Y-75764737D01*
X133283658Y-75906297D01*
X133228557Y-76087939D01*
X133139082Y-76255335D01*
X133139080Y-76255338D01*
X133018665Y-76402065D01*
X132871938Y-76522480D01*
X132871936Y-76522481D01*
X132871935Y-76522482D01*
X132704539Y-76611957D01*
X132522898Y-76667058D01*
X132334000Y-76685662D01*
X132145103Y-76667058D01*
X131963462Y-76611957D01*
X131796066Y-76522482D01*
X131796065Y-76522481D01*
X131796063Y-76522480D01*
X131649336Y-76402065D01*
X131528920Y-76255338D01*
X131528918Y-76255335D01*
X131439443Y-76087939D01*
X131384342Y-75906298D01*
X131370400Y-75764738D01*
X131370400Y-75365263D01*
X131384342Y-75223703D01*
X131439443Y-75042062D01*
X131528918Y-74874664D01*
X131548735Y-74850517D01*
X131649335Y-74727935D01*
X131796062Y-74607520D01*
X131796064Y-74607519D01*
X131796065Y-74607518D01*
X131963461Y-74518043D01*
X132145102Y-74462942D01*
X132334000Y-74444338D01*
X132522897Y-74462942D01*
X132522897Y-74462942D01*
G37*
G36*
X150302897Y-74462942D02*
G01*
X150484538Y-74518043D01*
X150651936Y-74607518D01*
X150651938Y-74607520D01*
X150798665Y-74727935D01*
X150919080Y-74874662D01*
X150919082Y-74874665D01*
X151008557Y-75042061D01*
X151063658Y-75223702D01*
X151077600Y-75365262D01*
X151077600Y-75764737D01*
X151063658Y-75906297D01*
X151008557Y-76087939D01*
X150919082Y-76255335D01*
X150919080Y-76255338D01*
X150798665Y-76402065D01*
X150651938Y-76522480D01*
X150651936Y-76522481D01*
X150651935Y-76522482D01*
X150484539Y-76611957D01*
X150302898Y-76667058D01*
X150114000Y-76685662D01*
X149925103Y-76667058D01*
X149743462Y-76611957D01*
X149576066Y-76522482D01*
X149576065Y-76522481D01*
X149576063Y-76522480D01*
X149429336Y-76402065D01*
X149308920Y-76255338D01*
X149308918Y-76255335D01*
X149219443Y-76087939D01*
X149164342Y-75906298D01*
X149150400Y-75764738D01*
X149150400Y-75365263D01*
X149164342Y-75223703D01*
X149219443Y-75042062D01*
X149308918Y-74874664D01*
X149328735Y-74850517D01*
X149429335Y-74727935D01*
X149576062Y-74607520D01*
X149576064Y-74607519D01*
X149576065Y-74607518D01*
X149743461Y-74518043D01*
X149925102Y-74462942D01*
X150114000Y-74444338D01*
X150302897Y-74462942D01*
X150302897Y-74462942D01*
G37*
M02*
