G04 #@! TF.GenerationSoftware,KiCad,Pcbnew,(5.1.2)-1*
G04 #@! TF.CreationDate,2021-07-03T10:16:44+09:00*
G04 #@! TF.ProjectId,hdmi,68646d69-2e6b-4696-9361-645f70636258,v1.5*
G04 #@! TF.SameCoordinates,Original*
G04 #@! TF.FileFunction,Legend,Top*
G04 #@! TF.FilePolarity,Positive*
%FSLAX46Y46*%
G04 Gerber Fmt 4.6, Leading zero omitted, Abs format (unit mm)*
G04 Created by KiCad (PCBNEW (5.1.2)-1) date 2021-07-03 10:16:44*
%MOMM*%
%LPD*%
G04 APERTURE LIST*
%ADD10C,0.200000*%
%ADD11C,0.300000*%
%ADD12C,0.381000*%
%ADD13C,0.248920*%
%ADD14C,0.150000*%
%ADD15C,0.101600*%
%ADD16C,0.066040*%
%ADD17C,0.127000*%
%ADD18C,0.152400*%
%ADD19C,0.203200*%
%ADD20C,0.100000*%
%ADD21C,0.048260*%
%ADD22C,0.149860*%
%ADD23C,0.074930*%
%ADD24C,0.076200*%
%ADD25C,0.031750*%
G04 APERTURE END LIST*
D10*
X168579904Y-79898809D02*
X167779904Y-79898809D01*
X167779904Y-79594047D01*
X167818000Y-79517857D01*
X167856095Y-79479761D01*
X167932285Y-79441666D01*
X168046571Y-79441666D01*
X168122761Y-79479761D01*
X168160857Y-79517857D01*
X168198952Y-79594047D01*
X168198952Y-79898809D01*
X167779904Y-79175000D02*
X168579904Y-78984523D01*
X168008476Y-78832142D01*
X168579904Y-78679761D01*
X167779904Y-78489285D01*
X168579904Y-78184523D02*
X167779904Y-78184523D01*
X168351333Y-77917857D01*
X167779904Y-77651190D01*
X168579904Y-77651190D01*
X159727047Y-118015000D02*
X159650857Y-117976904D01*
X159536571Y-117976904D01*
X159422285Y-118015000D01*
X159346095Y-118091190D01*
X159308000Y-118167380D01*
X159269904Y-118319761D01*
X159269904Y-118434047D01*
X159308000Y-118586428D01*
X159346095Y-118662619D01*
X159422285Y-118738809D01*
X159536571Y-118776904D01*
X159612761Y-118776904D01*
X159727047Y-118738809D01*
X159765142Y-118700714D01*
X159765142Y-118434047D01*
X159612761Y-118434047D01*
X160108000Y-118776904D02*
X160108000Y-117976904D01*
X160412761Y-117976904D01*
X160488952Y-118015000D01*
X160527047Y-118053095D01*
X160565142Y-118129285D01*
X160565142Y-118243571D01*
X160527047Y-118319761D01*
X160488952Y-118357857D01*
X160412761Y-118395952D01*
X160108000Y-118395952D01*
X160908000Y-118776904D02*
X160908000Y-117976904D01*
X161441333Y-117976904D02*
X161593714Y-117976904D01*
X161669904Y-118015000D01*
X161746095Y-118091190D01*
X161784190Y-118243571D01*
X161784190Y-118510238D01*
X161746095Y-118662619D01*
X161669904Y-118738809D01*
X161593714Y-118776904D01*
X161441333Y-118776904D01*
X161365142Y-118738809D01*
X161288952Y-118662619D01*
X161250857Y-118510238D01*
X161250857Y-118243571D01*
X161288952Y-118091190D01*
X161365142Y-118015000D01*
X161441333Y-117976904D01*
X162050857Y-117976904D02*
X162546095Y-117976904D01*
X162279428Y-118281666D01*
X162393714Y-118281666D01*
X162469904Y-118319761D01*
X162508000Y-118357857D01*
X162546095Y-118434047D01*
X162546095Y-118624523D01*
X162508000Y-118700714D01*
X162469904Y-118738809D01*
X162393714Y-118776904D01*
X162165142Y-118776904D01*
X162088952Y-118738809D01*
X162050857Y-118700714D01*
X155217047Y-117975000D02*
X155140857Y-117936904D01*
X155026571Y-117936904D01*
X154912285Y-117975000D01*
X154836095Y-118051190D01*
X154798000Y-118127380D01*
X154759904Y-118279761D01*
X154759904Y-118394047D01*
X154798000Y-118546428D01*
X154836095Y-118622619D01*
X154912285Y-118698809D01*
X155026571Y-118736904D01*
X155102761Y-118736904D01*
X155217047Y-118698809D01*
X155255142Y-118660714D01*
X155255142Y-118394047D01*
X155102761Y-118394047D01*
X155598000Y-118736904D02*
X155598000Y-117936904D01*
X155902761Y-117936904D01*
X155978952Y-117975000D01*
X156017047Y-118013095D01*
X156055142Y-118089285D01*
X156055142Y-118203571D01*
X156017047Y-118279761D01*
X155978952Y-118317857D01*
X155902761Y-118355952D01*
X155598000Y-118355952D01*
X156398000Y-118736904D02*
X156398000Y-117936904D01*
X156931333Y-117936904D02*
X157083714Y-117936904D01*
X157159904Y-117975000D01*
X157236095Y-118051190D01*
X157274190Y-118203571D01*
X157274190Y-118470238D01*
X157236095Y-118622619D01*
X157159904Y-118698809D01*
X157083714Y-118736904D01*
X156931333Y-118736904D01*
X156855142Y-118698809D01*
X156778952Y-118622619D01*
X156740857Y-118470238D01*
X156740857Y-118203571D01*
X156778952Y-118051190D01*
X156855142Y-117975000D01*
X156931333Y-117936904D01*
X157578952Y-118013095D02*
X157617047Y-117975000D01*
X157693238Y-117936904D01*
X157883714Y-117936904D01*
X157959904Y-117975000D01*
X157998000Y-118013095D01*
X158036095Y-118089285D01*
X158036095Y-118165476D01*
X157998000Y-118279761D01*
X157540857Y-118736904D01*
X158036095Y-118736904D01*
X151547047Y-114735000D02*
X151470857Y-114696904D01*
X151356571Y-114696904D01*
X151242285Y-114735000D01*
X151166095Y-114811190D01*
X151128000Y-114887380D01*
X151089904Y-115039761D01*
X151089904Y-115154047D01*
X151128000Y-115306428D01*
X151166095Y-115382619D01*
X151242285Y-115458809D01*
X151356571Y-115496904D01*
X151432761Y-115496904D01*
X151547047Y-115458809D01*
X151585142Y-115420714D01*
X151585142Y-115154047D01*
X151432761Y-115154047D01*
X151928000Y-115496904D02*
X151928000Y-114696904D01*
X152232761Y-114696904D01*
X152308952Y-114735000D01*
X152347047Y-114773095D01*
X152385142Y-114849285D01*
X152385142Y-114963571D01*
X152347047Y-115039761D01*
X152308952Y-115077857D01*
X152232761Y-115115952D01*
X151928000Y-115115952D01*
X152728000Y-115496904D02*
X152728000Y-114696904D01*
X153261333Y-114696904D02*
X153413714Y-114696904D01*
X153489904Y-114735000D01*
X153566095Y-114811190D01*
X153604190Y-114963571D01*
X153604190Y-115230238D01*
X153566095Y-115382619D01*
X153489904Y-115458809D01*
X153413714Y-115496904D01*
X153261333Y-115496904D01*
X153185142Y-115458809D01*
X153108952Y-115382619D01*
X153070857Y-115230238D01*
X153070857Y-114963571D01*
X153108952Y-114811190D01*
X153185142Y-114735000D01*
X153261333Y-114696904D01*
X154366095Y-115496904D02*
X153908952Y-115496904D01*
X154137523Y-115496904D02*
X154137523Y-114696904D01*
X154061333Y-114811190D01*
X153985142Y-114887380D01*
X153908952Y-114925476D01*
X147657047Y-114705000D02*
X147580857Y-114666904D01*
X147466571Y-114666904D01*
X147352285Y-114705000D01*
X147276095Y-114781190D01*
X147238000Y-114857380D01*
X147199904Y-115009761D01*
X147199904Y-115124047D01*
X147238000Y-115276428D01*
X147276095Y-115352619D01*
X147352285Y-115428809D01*
X147466571Y-115466904D01*
X147542761Y-115466904D01*
X147657047Y-115428809D01*
X147695142Y-115390714D01*
X147695142Y-115124047D01*
X147542761Y-115124047D01*
X148038000Y-115466904D02*
X148038000Y-114666904D01*
X148342761Y-114666904D01*
X148418952Y-114705000D01*
X148457047Y-114743095D01*
X148495142Y-114819285D01*
X148495142Y-114933571D01*
X148457047Y-115009761D01*
X148418952Y-115047857D01*
X148342761Y-115085952D01*
X148038000Y-115085952D01*
X148838000Y-115466904D02*
X148838000Y-114666904D01*
X149371333Y-114666904D02*
X149523714Y-114666904D01*
X149599904Y-114705000D01*
X149676095Y-114781190D01*
X149714190Y-114933571D01*
X149714190Y-115200238D01*
X149676095Y-115352619D01*
X149599904Y-115428809D01*
X149523714Y-115466904D01*
X149371333Y-115466904D01*
X149295142Y-115428809D01*
X149218952Y-115352619D01*
X149180857Y-115200238D01*
X149180857Y-114933571D01*
X149218952Y-114781190D01*
X149295142Y-114705000D01*
X149371333Y-114666904D01*
X150209428Y-114666904D02*
X150285619Y-114666904D01*
X150361809Y-114705000D01*
X150399904Y-114743095D01*
X150438000Y-114819285D01*
X150476095Y-114971666D01*
X150476095Y-115162142D01*
X150438000Y-115314523D01*
X150399904Y-115390714D01*
X150361809Y-115428809D01*
X150285619Y-115466904D01*
X150209428Y-115466904D01*
X150133238Y-115428809D01*
X150095142Y-115390714D01*
X150057047Y-115314523D01*
X150018952Y-115162142D01*
X150018952Y-114971666D01*
X150057047Y-114819285D01*
X150095142Y-114743095D01*
X150133238Y-114705000D01*
X150209428Y-114666904D01*
X162747047Y-95886904D02*
X162747047Y-95086904D01*
X162937523Y-95086904D01*
X163051809Y-95125000D01*
X163128000Y-95201190D01*
X163166095Y-95277380D01*
X163204190Y-95429761D01*
X163204190Y-95544047D01*
X163166095Y-95696428D01*
X163128000Y-95772619D01*
X163051809Y-95848809D01*
X162937523Y-95886904D01*
X162747047Y-95886904D01*
X163547047Y-95886904D02*
X163547047Y-95086904D01*
X163889904Y-95848809D02*
X164004190Y-95886904D01*
X164194666Y-95886904D01*
X164270857Y-95848809D01*
X164308952Y-95810714D01*
X164347047Y-95734523D01*
X164347047Y-95658333D01*
X164308952Y-95582142D01*
X164270857Y-95544047D01*
X164194666Y-95505952D01*
X164042285Y-95467857D01*
X163966095Y-95429761D01*
X163928000Y-95391666D01*
X163889904Y-95315476D01*
X163889904Y-95239285D01*
X163928000Y-95163095D01*
X163966095Y-95125000D01*
X164042285Y-95086904D01*
X164232761Y-95086904D01*
X164347047Y-95125000D01*
X164689904Y-95886904D02*
X164689904Y-95086904D01*
X164994666Y-95086904D01*
X165070857Y-95125000D01*
X165108952Y-95163095D01*
X165147047Y-95239285D01*
X165147047Y-95353571D01*
X165108952Y-95429761D01*
X165070857Y-95467857D01*
X164994666Y-95505952D01*
X164689904Y-95505952D01*
X175778952Y-79522142D02*
X176159904Y-79522142D01*
X175359904Y-79788809D02*
X175778952Y-79522142D01*
X175359904Y-79255476D01*
X176159904Y-78988809D02*
X175359904Y-78988809D01*
X175931333Y-78722142D01*
X175359904Y-78455476D01*
X176159904Y-78455476D01*
X175359904Y-82088809D02*
X176159904Y-81555476D01*
X175359904Y-81555476D02*
X176159904Y-82088809D01*
X176159904Y-81250714D02*
X175359904Y-81250714D01*
X175931333Y-80984047D01*
X175359904Y-80717380D01*
X176159904Y-80717380D01*
X175878952Y-84465000D02*
X176259904Y-84465000D01*
X175459904Y-84731666D02*
X175878952Y-84465000D01*
X175459904Y-84198333D01*
X176259904Y-83931666D02*
X175459904Y-83931666D01*
X175459904Y-83626904D01*
X175498000Y-83550714D01*
X175536095Y-83512619D01*
X175612285Y-83474523D01*
X175726571Y-83474523D01*
X175802761Y-83512619D01*
X175840857Y-83550714D01*
X175878952Y-83626904D01*
X175878952Y-83931666D01*
X175459904Y-87231666D02*
X176259904Y-86698333D01*
X175459904Y-86698333D02*
X176259904Y-87231666D01*
X176259904Y-86393571D02*
X175459904Y-86393571D01*
X175459904Y-86088809D01*
X175498000Y-86012619D01*
X175536095Y-85974523D01*
X175612285Y-85936428D01*
X175726571Y-85936428D01*
X175802761Y-85974523D01*
X175840857Y-86012619D01*
X175878952Y-86088809D01*
X175878952Y-86393571D01*
X162321809Y-80274523D02*
X162359904Y-80160238D01*
X162359904Y-79969761D01*
X162321809Y-79893571D01*
X162283714Y-79855476D01*
X162207523Y-79817380D01*
X162131333Y-79817380D01*
X162055142Y-79855476D01*
X162017047Y-79893571D01*
X161978952Y-79969761D01*
X161940857Y-80122142D01*
X161902761Y-80198333D01*
X161864666Y-80236428D01*
X161788476Y-80274523D01*
X161712285Y-80274523D01*
X161636095Y-80236428D01*
X161598000Y-80198333D01*
X161559904Y-80122142D01*
X161559904Y-79931666D01*
X161598000Y-79817380D01*
X162359904Y-79474523D02*
X161559904Y-79474523D01*
X161559904Y-79284047D01*
X161598000Y-79169761D01*
X161674190Y-79093571D01*
X161750380Y-79055476D01*
X161902761Y-79017380D01*
X162017047Y-79017380D01*
X162169428Y-79055476D01*
X162245619Y-79093571D01*
X162321809Y-79169761D01*
X162359904Y-79284047D01*
X162359904Y-79474523D01*
X162283714Y-78217380D02*
X162321809Y-78255476D01*
X162359904Y-78369761D01*
X162359904Y-78445952D01*
X162321809Y-78560238D01*
X162245619Y-78636428D01*
X162169428Y-78674523D01*
X162017047Y-78712619D01*
X161902761Y-78712619D01*
X161750380Y-78674523D01*
X161674190Y-78636428D01*
X161598000Y-78560238D01*
X161559904Y-78445952D01*
X161559904Y-78369761D01*
X161598000Y-78255476D01*
X161636095Y-78217380D01*
X162321809Y-77912619D02*
X162359904Y-77798333D01*
X162359904Y-77607857D01*
X162321809Y-77531666D01*
X162283714Y-77493571D01*
X162207523Y-77455476D01*
X162131333Y-77455476D01*
X162055142Y-77493571D01*
X162017047Y-77531666D01*
X161978952Y-77607857D01*
X161940857Y-77760238D01*
X161902761Y-77836428D01*
X161864666Y-77874523D01*
X161788476Y-77912619D01*
X161712285Y-77912619D01*
X161636095Y-77874523D01*
X161598000Y-77836428D01*
X161559904Y-77760238D01*
X161559904Y-77569761D01*
X161598000Y-77455476D01*
D11*
X159628000Y-110410714D02*
X159556571Y-110482142D01*
X159628000Y-110553571D01*
X159699428Y-110482142D01*
X159628000Y-110410714D01*
X159628000Y-110553571D01*
X142918000Y-95530714D02*
X142846571Y-95602142D01*
X142918000Y-95673571D01*
X142989428Y-95602142D01*
X142918000Y-95530714D01*
X142918000Y-95673571D01*
D10*
X140321809Y-79393571D02*
X140359904Y-79279285D01*
X140359904Y-79088809D01*
X140321809Y-79012619D01*
X140283714Y-78974523D01*
X140207523Y-78936428D01*
X140131333Y-78936428D01*
X140055142Y-78974523D01*
X140017047Y-79012619D01*
X139978952Y-79088809D01*
X139940857Y-79241190D01*
X139902761Y-79317380D01*
X139864666Y-79355476D01*
X139788476Y-79393571D01*
X139712285Y-79393571D01*
X139636095Y-79355476D01*
X139598000Y-79317380D01*
X139559904Y-79241190D01*
X139559904Y-79050714D01*
X139598000Y-78936428D01*
X140283714Y-78136428D02*
X140321809Y-78174523D01*
X140359904Y-78288809D01*
X140359904Y-78365000D01*
X140321809Y-78479285D01*
X140245619Y-78555476D01*
X140169428Y-78593571D01*
X140017047Y-78631666D01*
X139902761Y-78631666D01*
X139750380Y-78593571D01*
X139674190Y-78555476D01*
X139598000Y-78479285D01*
X139559904Y-78365000D01*
X139559904Y-78288809D01*
X139598000Y-78174523D01*
X139636095Y-78136428D01*
X140359904Y-77793571D02*
X139559904Y-77793571D01*
X140359904Y-77336428D02*
X139902761Y-77679285D01*
X139559904Y-77336428D02*
X140017047Y-77793571D01*
X142859904Y-79622142D02*
X142059904Y-79622142D01*
X142631333Y-79355476D01*
X142059904Y-79088809D01*
X142859904Y-79088809D01*
X142859904Y-78707857D02*
X142059904Y-78707857D01*
X142821809Y-78365000D02*
X142859904Y-78250714D01*
X142859904Y-78060238D01*
X142821809Y-77984047D01*
X142783714Y-77945952D01*
X142707523Y-77907857D01*
X142631333Y-77907857D01*
X142555142Y-77945952D01*
X142517047Y-77984047D01*
X142478952Y-78060238D01*
X142440857Y-78212619D01*
X142402761Y-78288809D01*
X142364666Y-78326904D01*
X142288476Y-78365000D01*
X142212285Y-78365000D01*
X142136095Y-78326904D01*
X142098000Y-78288809D01*
X142059904Y-78212619D01*
X142059904Y-78022142D01*
X142098000Y-77907857D01*
X142059904Y-77412619D02*
X142059904Y-77260238D01*
X142098000Y-77184047D01*
X142174190Y-77107857D01*
X142326571Y-77069761D01*
X142593238Y-77069761D01*
X142745619Y-77107857D01*
X142821809Y-77184047D01*
X142859904Y-77260238D01*
X142859904Y-77412619D01*
X142821809Y-77488809D01*
X142745619Y-77565000D01*
X142593238Y-77603095D01*
X142326571Y-77603095D01*
X142174190Y-77565000D01*
X142098000Y-77488809D01*
X142059904Y-77412619D01*
X145459904Y-79722142D02*
X144659904Y-79722142D01*
X145231333Y-79455476D01*
X144659904Y-79188809D01*
X145459904Y-79188809D01*
X144659904Y-78655476D02*
X144659904Y-78503095D01*
X144698000Y-78426904D01*
X144774190Y-78350714D01*
X144926571Y-78312619D01*
X145193238Y-78312619D01*
X145345619Y-78350714D01*
X145421809Y-78426904D01*
X145459904Y-78503095D01*
X145459904Y-78655476D01*
X145421809Y-78731666D01*
X145345619Y-78807857D01*
X145193238Y-78845952D01*
X144926571Y-78845952D01*
X144774190Y-78807857D01*
X144698000Y-78731666D01*
X144659904Y-78655476D01*
X145421809Y-78007857D02*
X145459904Y-77893571D01*
X145459904Y-77703095D01*
X145421809Y-77626904D01*
X145383714Y-77588809D01*
X145307523Y-77550714D01*
X145231333Y-77550714D01*
X145155142Y-77588809D01*
X145117047Y-77626904D01*
X145078952Y-77703095D01*
X145040857Y-77855476D01*
X145002761Y-77931666D01*
X144964666Y-77969761D01*
X144888476Y-78007857D01*
X144812285Y-78007857D01*
X144736095Y-77969761D01*
X144698000Y-77931666D01*
X144659904Y-77855476D01*
X144659904Y-77665000D01*
X144698000Y-77550714D01*
X145459904Y-77207857D02*
X144659904Y-77207857D01*
X167359904Y-78674523D02*
X166559904Y-78674523D01*
X166559904Y-78369761D01*
X166598000Y-78293571D01*
X166636095Y-78255476D01*
X166712285Y-78217380D01*
X166826571Y-78217380D01*
X166902761Y-78255476D01*
X166940857Y-78293571D01*
X166978952Y-78369761D01*
X166978952Y-78674523D01*
X167359904Y-77874523D02*
X166559904Y-77874523D01*
X166559904Y-77684047D01*
X166598000Y-77569761D01*
X166674190Y-77493571D01*
X166750380Y-77455476D01*
X166902761Y-77417380D01*
X167017047Y-77417380D01*
X167169428Y-77455476D01*
X167245619Y-77493571D01*
X167321809Y-77569761D01*
X167359904Y-77684047D01*
X167359904Y-77874523D01*
X164759904Y-78888809D02*
X163959904Y-78888809D01*
X164759904Y-78507857D02*
X163959904Y-78507857D01*
X164759904Y-78050714D01*
X163959904Y-78050714D01*
X163959904Y-77784047D02*
X163959904Y-77326904D01*
X164759904Y-77555476D02*
X163959904Y-77555476D01*
X156983714Y-78298333D02*
X157021809Y-78336428D01*
X157059904Y-78450714D01*
X157059904Y-78526904D01*
X157021809Y-78641190D01*
X156945619Y-78717380D01*
X156869428Y-78755476D01*
X156717047Y-78793571D01*
X156602761Y-78793571D01*
X156450380Y-78755476D01*
X156374190Y-78717380D01*
X156298000Y-78641190D01*
X156259904Y-78526904D01*
X156259904Y-78450714D01*
X156298000Y-78336428D01*
X156336095Y-78298333D01*
X157021809Y-77993571D02*
X157059904Y-77879285D01*
X157059904Y-77688809D01*
X157021809Y-77612619D01*
X156983714Y-77574523D01*
X156907523Y-77536428D01*
X156831333Y-77536428D01*
X156755142Y-77574523D01*
X156717047Y-77612619D01*
X156678952Y-77688809D01*
X156640857Y-77841190D01*
X156602761Y-77917380D01*
X156564666Y-77955476D01*
X156488476Y-77993571D01*
X156412285Y-77993571D01*
X156336095Y-77955476D01*
X156298000Y-77917380D01*
X156259904Y-77841190D01*
X156259904Y-77650714D01*
X156298000Y-77536428D01*
X122900857Y-115647857D02*
X122900857Y-114447857D01*
X123186571Y-114447857D01*
X123358000Y-114505000D01*
X123472285Y-114619285D01*
X123529428Y-114733571D01*
X123586571Y-114962142D01*
X123586571Y-115133571D01*
X123529428Y-115362142D01*
X123472285Y-115476428D01*
X123358000Y-115590714D01*
X123186571Y-115647857D01*
X122900857Y-115647857D01*
X124100857Y-115647857D02*
X124100857Y-114847857D01*
X124100857Y-114447857D02*
X124043714Y-114505000D01*
X124100857Y-114562142D01*
X124158000Y-114505000D01*
X124100857Y-114447857D01*
X124100857Y-114562142D01*
X125186571Y-114847857D02*
X125186571Y-115819285D01*
X125129428Y-115933571D01*
X125072285Y-115990714D01*
X124958000Y-116047857D01*
X124786571Y-116047857D01*
X124672285Y-115990714D01*
X125186571Y-115590714D02*
X125072285Y-115647857D01*
X124843714Y-115647857D01*
X124729428Y-115590714D01*
X124672285Y-115533571D01*
X124615142Y-115419285D01*
X124615142Y-115076428D01*
X124672285Y-114962142D01*
X124729428Y-114905000D01*
X124843714Y-114847857D01*
X125072285Y-114847857D01*
X125186571Y-114905000D01*
X125758000Y-115647857D02*
X125758000Y-114847857D01*
X125758000Y-114447857D02*
X125700857Y-114505000D01*
X125758000Y-114562142D01*
X125815142Y-114505000D01*
X125758000Y-114447857D01*
X125758000Y-114562142D01*
X126158000Y-114847857D02*
X126615142Y-114847857D01*
X126329428Y-114447857D02*
X126329428Y-115476428D01*
X126386571Y-115590714D01*
X126500857Y-115647857D01*
X126615142Y-115647857D01*
X127529428Y-115647857D02*
X127529428Y-115019285D01*
X127472285Y-114905000D01*
X127358000Y-114847857D01*
X127129428Y-114847857D01*
X127015142Y-114905000D01*
X127529428Y-115590714D02*
X127415142Y-115647857D01*
X127129428Y-115647857D01*
X127015142Y-115590714D01*
X126958000Y-115476428D01*
X126958000Y-115362142D01*
X127015142Y-115247857D01*
X127129428Y-115190714D01*
X127415142Y-115190714D01*
X127529428Y-115133571D01*
X128272285Y-115647857D02*
X128158000Y-115590714D01*
X128100857Y-115476428D01*
X128100857Y-114447857D01*
X129472285Y-114447857D02*
X129872285Y-115647857D01*
X130272285Y-114447857D01*
X130672285Y-115647857D02*
X130672285Y-114847857D01*
X130672285Y-114447857D02*
X130615142Y-114505000D01*
X130672285Y-114562142D01*
X130729428Y-114505000D01*
X130672285Y-114447857D01*
X130672285Y-114562142D01*
X131758000Y-115647857D02*
X131758000Y-114447857D01*
X131758000Y-115590714D02*
X131643714Y-115647857D01*
X131415142Y-115647857D01*
X131300857Y-115590714D01*
X131243714Y-115533571D01*
X131186571Y-115419285D01*
X131186571Y-115076428D01*
X131243714Y-114962142D01*
X131300857Y-114905000D01*
X131415142Y-114847857D01*
X131643714Y-114847857D01*
X131758000Y-114905000D01*
X132786571Y-115590714D02*
X132672285Y-115647857D01*
X132443714Y-115647857D01*
X132329428Y-115590714D01*
X132272285Y-115476428D01*
X132272285Y-115019285D01*
X132329428Y-114905000D01*
X132443714Y-114847857D01*
X132672285Y-114847857D01*
X132786571Y-114905000D01*
X132843714Y-115019285D01*
X132843714Y-115133571D01*
X132272285Y-115247857D01*
X133529428Y-115647857D02*
X133415142Y-115590714D01*
X133358000Y-115533571D01*
X133300857Y-115419285D01*
X133300857Y-115076428D01*
X133358000Y-114962142D01*
X133415142Y-114905000D01*
X133529428Y-114847857D01*
X133700857Y-114847857D01*
X133815142Y-114905000D01*
X133872285Y-114962142D01*
X133929428Y-115076428D01*
X133929428Y-115419285D01*
X133872285Y-115533571D01*
X133815142Y-115590714D01*
X133700857Y-115647857D01*
X133529428Y-115647857D01*
X135300857Y-115590714D02*
X135472285Y-115647857D01*
X135758000Y-115647857D01*
X135872285Y-115590714D01*
X135929428Y-115533571D01*
X135986571Y-115419285D01*
X135986571Y-115305000D01*
X135929428Y-115190714D01*
X135872285Y-115133571D01*
X135758000Y-115076428D01*
X135529428Y-115019285D01*
X135415142Y-114962142D01*
X135358000Y-114905000D01*
X135300857Y-114790714D01*
X135300857Y-114676428D01*
X135358000Y-114562142D01*
X135415142Y-114505000D01*
X135529428Y-114447857D01*
X135815142Y-114447857D01*
X135986571Y-114505000D01*
X136500857Y-115647857D02*
X136500857Y-114447857D01*
X137015142Y-115647857D02*
X137015142Y-115019285D01*
X136958000Y-114905000D01*
X136843714Y-114847857D01*
X136672285Y-114847857D01*
X136558000Y-114905000D01*
X136500857Y-114962142D01*
X137586571Y-115647857D02*
X137586571Y-114847857D01*
X137586571Y-114447857D02*
X137529428Y-114505000D01*
X137586571Y-114562142D01*
X137643714Y-114505000D01*
X137586571Y-114447857D01*
X137586571Y-114562142D01*
X138615142Y-115590714D02*
X138500857Y-115647857D01*
X138272285Y-115647857D01*
X138158000Y-115590714D01*
X138100857Y-115476428D01*
X138100857Y-115019285D01*
X138158000Y-114905000D01*
X138272285Y-114847857D01*
X138500857Y-114847857D01*
X138615142Y-114905000D01*
X138672285Y-115019285D01*
X138672285Y-115133571D01*
X138100857Y-115247857D01*
X139358000Y-115647857D02*
X139243714Y-115590714D01*
X139186571Y-115476428D01*
X139186571Y-114447857D01*
X140329428Y-115647857D02*
X140329428Y-114447857D01*
X140329428Y-115590714D02*
X140215142Y-115647857D01*
X139986571Y-115647857D01*
X139872285Y-115590714D01*
X139815142Y-115533571D01*
X139758000Y-115419285D01*
X139758000Y-115076428D01*
X139815142Y-114962142D01*
X139872285Y-114905000D01*
X139986571Y-114847857D01*
X140215142Y-114847857D01*
X140329428Y-114905000D01*
X141700857Y-114847857D02*
X141986571Y-115647857D01*
X142272285Y-114847857D01*
X143358000Y-115647857D02*
X142672285Y-115647857D01*
X143015142Y-115647857D02*
X143015142Y-114447857D01*
X142900857Y-114619285D01*
X142786571Y-114733571D01*
X142672285Y-114790714D01*
X143872285Y-115533571D02*
X143929428Y-115590714D01*
X143872285Y-115647857D01*
X143815142Y-115590714D01*
X143872285Y-115533571D01*
X143872285Y-115647857D01*
X144958000Y-114847857D02*
X144958000Y-115647857D01*
X144672285Y-114390714D02*
X144386571Y-115247857D01*
X145129428Y-115247857D01*
X127786571Y-117647857D02*
X127100857Y-117647857D01*
X127443714Y-117647857D02*
X127443714Y-116447857D01*
X127329428Y-116619285D01*
X127215142Y-116733571D01*
X127100857Y-116790714D01*
X128358000Y-117647857D02*
X128586571Y-117647857D01*
X128700857Y-117590714D01*
X128758000Y-117533571D01*
X128872285Y-117362142D01*
X128929428Y-117133571D01*
X128929428Y-116676428D01*
X128872285Y-116562142D01*
X128815142Y-116505000D01*
X128700857Y-116447857D01*
X128472285Y-116447857D01*
X128358000Y-116505000D01*
X128300857Y-116562142D01*
X128243714Y-116676428D01*
X128243714Y-116962142D01*
X128300857Y-117076428D01*
X128358000Y-117133571D01*
X128472285Y-117190714D01*
X128700857Y-117190714D01*
X128815142Y-117133571D01*
X128872285Y-117076428D01*
X128929428Y-116962142D01*
X129672285Y-116447857D02*
X129786571Y-116447857D01*
X129900857Y-116505000D01*
X129958000Y-116562142D01*
X130015142Y-116676428D01*
X130072285Y-116905000D01*
X130072285Y-117190714D01*
X130015142Y-117419285D01*
X129958000Y-117533571D01*
X129900857Y-117590714D01*
X129786571Y-117647857D01*
X129672285Y-117647857D01*
X129558000Y-117590714D01*
X129500857Y-117533571D01*
X129443714Y-117419285D01*
X129386571Y-117190714D01*
X129386571Y-116905000D01*
X129443714Y-116676428D01*
X129500857Y-116562142D01*
X129558000Y-116505000D01*
X129672285Y-116447857D01*
X131100857Y-116847857D02*
X131100857Y-117647857D01*
X130815142Y-116390714D02*
X130529428Y-117247857D01*
X131272285Y-117247857D01*
X133329428Y-117533571D02*
X133272285Y-117590714D01*
X133100857Y-117647857D01*
X132986571Y-117647857D01*
X132815142Y-117590714D01*
X132700857Y-117476428D01*
X132643714Y-117362142D01*
X132586571Y-117133571D01*
X132586571Y-116962142D01*
X132643714Y-116733571D01*
X132700857Y-116619285D01*
X132815142Y-116505000D01*
X132986571Y-116447857D01*
X133100857Y-116447857D01*
X133272285Y-116505000D01*
X133329428Y-116562142D01*
X133843714Y-117647857D02*
X133843714Y-116847857D01*
X133843714Y-117076428D02*
X133900857Y-116962142D01*
X133958000Y-116905000D01*
X134072285Y-116847857D01*
X134186571Y-116847857D01*
X135043714Y-117590714D02*
X134929428Y-117647857D01*
X134700857Y-117647857D01*
X134586571Y-117590714D01*
X134529428Y-117476428D01*
X134529428Y-117019285D01*
X134586571Y-116905000D01*
X134700857Y-116847857D01*
X134929428Y-116847857D01*
X135043714Y-116905000D01*
X135100857Y-117019285D01*
X135100857Y-117133571D01*
X134529428Y-117247857D01*
X135558000Y-117590714D02*
X135672285Y-117647857D01*
X135900857Y-117647857D01*
X136015142Y-117590714D01*
X136072285Y-117476428D01*
X136072285Y-117419285D01*
X136015142Y-117305000D01*
X135900857Y-117247857D01*
X135729428Y-117247857D01*
X135615142Y-117190714D01*
X135558000Y-117076428D01*
X135558000Y-117019285D01*
X135615142Y-116905000D01*
X135729428Y-116847857D01*
X135900857Y-116847857D01*
X136015142Y-116905000D01*
X137100857Y-117590714D02*
X136986571Y-117647857D01*
X136758000Y-117647857D01*
X136643714Y-117590714D01*
X136586571Y-117533571D01*
X136529428Y-117419285D01*
X136529428Y-117076428D01*
X136586571Y-116962142D01*
X136643714Y-116905000D01*
X136758000Y-116847857D01*
X136986571Y-116847857D01*
X137100857Y-116905000D01*
X138072285Y-117590714D02*
X137958000Y-117647857D01*
X137729428Y-117647857D01*
X137615142Y-117590714D01*
X137558000Y-117476428D01*
X137558000Y-117019285D01*
X137615142Y-116905000D01*
X137729428Y-116847857D01*
X137958000Y-116847857D01*
X138072285Y-116905000D01*
X138129428Y-117019285D01*
X138129428Y-117133571D01*
X137558000Y-117247857D01*
X138643714Y-116847857D02*
X138643714Y-117647857D01*
X138643714Y-116962142D02*
X138700857Y-116905000D01*
X138815142Y-116847857D01*
X138986571Y-116847857D01*
X139100857Y-116905000D01*
X139158000Y-117019285D01*
X139158000Y-117647857D01*
X139558000Y-116847857D02*
X140015142Y-116847857D01*
X139729428Y-116447857D02*
X139729428Y-117476428D01*
X139786571Y-117590714D01*
X139900857Y-117647857D01*
X140015142Y-117647857D01*
X175021809Y-82347380D02*
X175059904Y-82233095D01*
X175059904Y-82042619D01*
X175021809Y-81966428D01*
X174983714Y-81928333D01*
X174907523Y-81890238D01*
X174831333Y-81890238D01*
X174755142Y-81928333D01*
X174717047Y-81966428D01*
X174678952Y-82042619D01*
X174640857Y-82195000D01*
X174602761Y-82271190D01*
X174564666Y-82309285D01*
X174488476Y-82347380D01*
X174412285Y-82347380D01*
X174336095Y-82309285D01*
X174298000Y-82271190D01*
X174259904Y-82195000D01*
X174259904Y-82004523D01*
X174298000Y-81890238D01*
X174983714Y-81090238D02*
X175021809Y-81128333D01*
X175059904Y-81242619D01*
X175059904Y-81318809D01*
X175021809Y-81433095D01*
X174945619Y-81509285D01*
X174869428Y-81547380D01*
X174717047Y-81585476D01*
X174602761Y-81585476D01*
X174450380Y-81547380D01*
X174374190Y-81509285D01*
X174298000Y-81433095D01*
X174259904Y-81318809D01*
X174259904Y-81242619D01*
X174298000Y-81128333D01*
X174336095Y-81090238D01*
X175059904Y-80366428D02*
X175059904Y-80747380D01*
X174259904Y-80747380D01*
X175041809Y-79896428D02*
X175079904Y-79782142D01*
X175079904Y-79591666D01*
X175041809Y-79515476D01*
X175003714Y-79477380D01*
X174927523Y-79439285D01*
X174851333Y-79439285D01*
X174775142Y-79477380D01*
X174737047Y-79515476D01*
X174698952Y-79591666D01*
X174660857Y-79744047D01*
X174622761Y-79820238D01*
X174584666Y-79858333D01*
X174508476Y-79896428D01*
X174432285Y-79896428D01*
X174356095Y-79858333D01*
X174318000Y-79820238D01*
X174279904Y-79744047D01*
X174279904Y-79553571D01*
X174318000Y-79439285D01*
X175079904Y-79096428D02*
X174279904Y-79096428D01*
X174279904Y-78905952D01*
X174318000Y-78791666D01*
X174394190Y-78715476D01*
X174470380Y-78677380D01*
X174622761Y-78639285D01*
X174737047Y-78639285D01*
X174889428Y-78677380D01*
X174965619Y-78715476D01*
X175041809Y-78791666D01*
X175079904Y-78905952D01*
X175079904Y-79096428D01*
X174851333Y-78334523D02*
X174851333Y-77953571D01*
X175079904Y-78410714D02*
X174279904Y-78144047D01*
X175079904Y-77877380D01*
X175059904Y-84788809D02*
X174259904Y-84788809D01*
X175059904Y-84407857D02*
X174259904Y-84407857D01*
X175059904Y-83950714D01*
X174259904Y-83950714D01*
X174259904Y-83684047D02*
X174259904Y-83226904D01*
X175059904Y-83455476D02*
X174259904Y-83455476D01*
X175059904Y-87003095D02*
X174678952Y-87269761D01*
X175059904Y-87460238D02*
X174259904Y-87460238D01*
X174259904Y-87155476D01*
X174298000Y-87079285D01*
X174336095Y-87041190D01*
X174412285Y-87003095D01*
X174526571Y-87003095D01*
X174602761Y-87041190D01*
X174640857Y-87079285D01*
X174678952Y-87155476D01*
X174678952Y-87460238D01*
X175021809Y-86698333D02*
X175059904Y-86584047D01*
X175059904Y-86393571D01*
X175021809Y-86317380D01*
X174983714Y-86279285D01*
X174907523Y-86241190D01*
X174831333Y-86241190D01*
X174755142Y-86279285D01*
X174717047Y-86317380D01*
X174678952Y-86393571D01*
X174640857Y-86545952D01*
X174602761Y-86622142D01*
X174564666Y-86660238D01*
X174488476Y-86698333D01*
X174412285Y-86698333D01*
X174336095Y-86660238D01*
X174298000Y-86622142D01*
X174259904Y-86545952D01*
X174259904Y-86355476D01*
X174298000Y-86241190D01*
X174259904Y-86012619D02*
X174259904Y-85555476D01*
X175059904Y-85784047D02*
X174259904Y-85784047D01*
X168311333Y-82394523D02*
X168311333Y-82013571D01*
X168539904Y-82470714D02*
X167739904Y-82204047D01*
X168539904Y-81937380D01*
X167739904Y-81670714D02*
X168387523Y-81670714D01*
X168463714Y-81632619D01*
X168501809Y-81594523D01*
X168539904Y-81518333D01*
X168539904Y-81365952D01*
X168501809Y-81289761D01*
X168463714Y-81251666D01*
X168387523Y-81213571D01*
X167739904Y-81213571D01*
X168539904Y-80832619D02*
X167739904Y-80832619D01*
X167739904Y-80642142D01*
X167778000Y-80527857D01*
X167854190Y-80451666D01*
X167930380Y-80413571D01*
X168082761Y-80375476D01*
X168197047Y-80375476D01*
X168349428Y-80413571D01*
X168425619Y-80451666D01*
X168501809Y-80527857D01*
X168539904Y-80642142D01*
X168539904Y-80832619D01*
X167848000Y-84654523D02*
X167809904Y-84730714D01*
X167809904Y-84845000D01*
X167848000Y-84959285D01*
X167924190Y-85035476D01*
X168000380Y-85073571D01*
X168152761Y-85111666D01*
X168267047Y-85111666D01*
X168419428Y-85073571D01*
X168495619Y-85035476D01*
X168571809Y-84959285D01*
X168609904Y-84845000D01*
X168609904Y-84768809D01*
X168571809Y-84654523D01*
X168533714Y-84616428D01*
X168267047Y-84616428D01*
X168267047Y-84768809D01*
X168609904Y-84273571D02*
X167809904Y-84273571D01*
X168609904Y-83816428D01*
X167809904Y-83816428D01*
X168609904Y-83435476D02*
X167809904Y-83435476D01*
X167809904Y-83245000D01*
X167848000Y-83130714D01*
X167924190Y-83054523D01*
X168000380Y-83016428D01*
X168152761Y-82978333D01*
X168267047Y-82978333D01*
X168419428Y-83016428D01*
X168495619Y-83054523D01*
X168571809Y-83130714D01*
X168609904Y-83245000D01*
X168609904Y-83435476D01*
X167849904Y-87393095D02*
X167849904Y-86897857D01*
X168154666Y-87164523D01*
X168154666Y-87050238D01*
X168192761Y-86974047D01*
X168230857Y-86935952D01*
X168307047Y-86897857D01*
X168497523Y-86897857D01*
X168573714Y-86935952D01*
X168611809Y-86974047D01*
X168649904Y-87050238D01*
X168649904Y-87278809D01*
X168611809Y-87355000D01*
X168573714Y-87393095D01*
X168573714Y-86555000D02*
X168611809Y-86516904D01*
X168649904Y-86555000D01*
X168611809Y-86593095D01*
X168573714Y-86555000D01*
X168649904Y-86555000D01*
X167849904Y-86250238D02*
X167849904Y-85755000D01*
X168154666Y-86021666D01*
X168154666Y-85907380D01*
X168192761Y-85831190D01*
X168230857Y-85793095D01*
X168307047Y-85755000D01*
X168497523Y-85755000D01*
X168573714Y-85793095D01*
X168611809Y-85831190D01*
X168649904Y-85907380D01*
X168649904Y-86135952D01*
X168611809Y-86212142D01*
X168573714Y-86250238D01*
D12*
X169903644Y-116468060D02*
G75*
G03X169903644Y-116468060I-144624J0D01*
G01*
D13*
X170396560Y-119333180D02*
X170277180Y-119333180D01*
X165618820Y-119333180D02*
X165499440Y-119333180D01*
X165499440Y-119333180D02*
X165499440Y-115436820D01*
X170396560Y-115436820D02*
X170277180Y-115436820D01*
X165618820Y-115436820D02*
X165499440Y-115436820D01*
X170396560Y-119333180D02*
X170396560Y-115436820D01*
D14*
X143473000Y-96190000D02*
X142473000Y-96190000D01*
X143473000Y-106540000D02*
X142398000Y-106540000D01*
X133123000Y-106540000D02*
X134198000Y-106540000D01*
X133123000Y-96190000D02*
X134198000Y-96190000D01*
X143473000Y-96190000D02*
X143473000Y-97265000D01*
X133123000Y-96190000D02*
X133123000Y-97265000D01*
X133123000Y-106540000D02*
X133123000Y-105465000D01*
X143473000Y-106540000D02*
X143473000Y-105465000D01*
X142473000Y-96190000D02*
X142473000Y-95165000D01*
X159294000Y-100628000D02*
X159869000Y-100628000D01*
X168694000Y-110028000D02*
X168119000Y-110028000D01*
X168694000Y-100628000D02*
X168119000Y-100628000D01*
X159294000Y-110028000D02*
X159294000Y-109453000D01*
X168694000Y-110028000D02*
X168694000Y-109453000D01*
X168694000Y-100628000D02*
X168694000Y-101203000D01*
X159294000Y-100628000D02*
X159294000Y-101203000D01*
D15*
X172197980Y-119078100D02*
X172197980Y-120525900D01*
X171502020Y-120525900D02*
X171502020Y-119078100D01*
D16*
X172647560Y-121201540D02*
X171052440Y-121201540D01*
X171052440Y-121201540D02*
X171052440Y-118402460D01*
X172647560Y-118402460D02*
X171052440Y-118402460D01*
X172647560Y-121201540D02*
X172647560Y-118402460D01*
X172248780Y-119352420D02*
X171451220Y-119352420D01*
X171451220Y-119352420D02*
X171451220Y-119004440D01*
X172248780Y-119004440D02*
X171451220Y-119004440D01*
X172248780Y-119352420D02*
X172248780Y-119004440D01*
X172248780Y-120599560D02*
X171451220Y-120599560D01*
X171451220Y-120599560D02*
X171451220Y-120251580D01*
X172248780Y-120251580D02*
X171451220Y-120251580D01*
X172248780Y-120599560D02*
X172248780Y-120251580D01*
X173828440Y-102509780D02*
X174176420Y-102509780D01*
X174176420Y-102509780D02*
X174176420Y-101712220D01*
X173828440Y-101712220D02*
X174176420Y-101712220D01*
X173828440Y-102509780D02*
X173828440Y-101712220D01*
X175075580Y-102509780D02*
X175423560Y-102509780D01*
X175423560Y-102509780D02*
X175423560Y-101712220D01*
X175075580Y-101712220D02*
X175423560Y-101712220D01*
X175075580Y-102509780D02*
X175075580Y-101712220D01*
X173226460Y-102908560D02*
X176025540Y-102908560D01*
X176025540Y-102908560D02*
X176025540Y-101313440D01*
X173226460Y-101313440D02*
X176025540Y-101313440D01*
X173226460Y-102908560D02*
X173226460Y-101313440D01*
D15*
X173902100Y-101763020D02*
X175349900Y-101763020D01*
X175349900Y-102458980D02*
X173902100Y-102458980D01*
D16*
X173828440Y-98509980D02*
X174176420Y-98509980D01*
X174176420Y-98509980D02*
X174176420Y-97712420D01*
X173828440Y-97712420D02*
X174176420Y-97712420D01*
X173828440Y-98509980D02*
X173828440Y-97712420D01*
X175075580Y-98509980D02*
X175423560Y-98509980D01*
X175423560Y-98509980D02*
X175423560Y-97712420D01*
X175075580Y-97712420D02*
X175423560Y-97712420D01*
X175075580Y-98509980D02*
X175075580Y-97712420D01*
X173226460Y-98908760D02*
X176025540Y-98908760D01*
X176025540Y-98908760D02*
X176025540Y-97313640D01*
X173226460Y-97313640D02*
X176025540Y-97313640D01*
X173226460Y-98908760D02*
X173226460Y-97313640D01*
D15*
X173902100Y-97763220D02*
X175349900Y-97763220D01*
X175349900Y-98459180D02*
X173902100Y-98459180D01*
X171250020Y-111462900D02*
X171250020Y-110015100D01*
X171945980Y-110015100D02*
X171945980Y-111462900D01*
D16*
X170800440Y-109339460D02*
X172395560Y-109339460D01*
X172395560Y-109339460D02*
X172395560Y-112138540D01*
X170800440Y-112138540D02*
X172395560Y-112138540D01*
X170800440Y-109339460D02*
X170800440Y-112138540D01*
X171199220Y-111188580D02*
X171996780Y-111188580D01*
X171996780Y-111188580D02*
X171996780Y-111536560D01*
X171199220Y-111536560D02*
X171996780Y-111536560D01*
X171199220Y-111188580D02*
X171199220Y-111536560D01*
X171199220Y-109941440D02*
X171996780Y-109941440D01*
X171996780Y-109941440D02*
X171996780Y-110289420D01*
X171199220Y-110289420D02*
X171996780Y-110289420D01*
X171199220Y-109941440D02*
X171199220Y-110289420D01*
X173629780Y-100758700D02*
X174130160Y-100758700D01*
X174130160Y-100758700D02*
X174130160Y-99463300D01*
X173629780Y-99463300D02*
X174130160Y-99463300D01*
X173629780Y-100758700D02*
X173629780Y-99463300D01*
X175125840Y-100758700D02*
X175626220Y-100758700D01*
X175626220Y-100758700D02*
X175626220Y-99463300D01*
X175125840Y-99463300D02*
X175626220Y-99463300D01*
X175125840Y-100758700D02*
X175125840Y-99463300D01*
X172979540Y-101360680D02*
X176276460Y-101360680D01*
X176276460Y-101360680D02*
X176276460Y-98861320D01*
X172979540Y-98861320D02*
X176276460Y-98861320D01*
X172979540Y-101360680D02*
X172979540Y-98861320D01*
D15*
X173703440Y-99511560D02*
X175552560Y-99511560D01*
X175552560Y-100710440D02*
X173703440Y-100710440D01*
D16*
X163094200Y-113443780D02*
X163442180Y-113443780D01*
X163442180Y-113443780D02*
X163442180Y-112646220D01*
X163094200Y-112646220D02*
X163442180Y-112646220D01*
X163094200Y-113443780D02*
X163094200Y-112646220D01*
X164341340Y-113443780D02*
X164689320Y-113443780D01*
X164689320Y-113443780D02*
X164689320Y-112646220D01*
X164341340Y-112646220D02*
X164689320Y-112646220D01*
X164341340Y-113443780D02*
X164341340Y-112646220D01*
X162492220Y-113842560D02*
X165291300Y-113842560D01*
X165291300Y-113842560D02*
X165291300Y-112247440D01*
X162492220Y-112247440D02*
X165291300Y-112247440D01*
X162492220Y-113842560D02*
X162492220Y-112247440D01*
D15*
X163167860Y-112697020D02*
X164615660Y-112697020D01*
X164615660Y-113392980D02*
X163167860Y-113392980D01*
X159150020Y-114712900D02*
X159150020Y-113265100D01*
X159845980Y-113265100D02*
X159845980Y-114712900D01*
D16*
X158700440Y-112589460D02*
X160295560Y-112589460D01*
X160295560Y-112589460D02*
X160295560Y-115388540D01*
X158700440Y-115388540D02*
X160295560Y-115388540D01*
X158700440Y-112589460D02*
X158700440Y-115388540D01*
X159099220Y-114438580D02*
X159896780Y-114438580D01*
X159896780Y-114438580D02*
X159896780Y-114786560D01*
X159099220Y-114786560D02*
X159896780Y-114786560D01*
X159099220Y-114438580D02*
X159099220Y-114786560D01*
X159099220Y-113191440D02*
X159896780Y-113191440D01*
X159896780Y-113191440D02*
X159896780Y-113539420D01*
X159099220Y-113539420D02*
X159896780Y-113539420D01*
X159099220Y-113191440D02*
X159099220Y-113539420D01*
X157114220Y-113191440D02*
X157114220Y-113539420D01*
X157114220Y-113539420D02*
X157911780Y-113539420D01*
X157911780Y-113191440D02*
X157911780Y-113539420D01*
X157114220Y-113191440D02*
X157911780Y-113191440D01*
X157114220Y-114438580D02*
X157114220Y-114786560D01*
X157114220Y-114786560D02*
X157911780Y-114786560D01*
X157911780Y-114438580D02*
X157911780Y-114786560D01*
X157114220Y-114438580D02*
X157911780Y-114438580D01*
X156715440Y-112589460D02*
X156715440Y-115388540D01*
X156715440Y-115388540D02*
X158310560Y-115388540D01*
X158310560Y-112589460D02*
X158310560Y-115388540D01*
X156715440Y-112589460D02*
X158310560Y-112589460D01*
D15*
X157860980Y-113265100D02*
X157860980Y-114712900D01*
X157165020Y-114712900D02*
X157165020Y-113265100D01*
X142374100Y-92017020D02*
X143821900Y-92017020D01*
X143821900Y-92712980D02*
X142374100Y-92712980D01*
D16*
X144497540Y-91567440D02*
X144497540Y-93162560D01*
X144497540Y-93162560D02*
X141698460Y-93162560D01*
X141698460Y-91567440D02*
X141698460Y-93162560D01*
X144497540Y-91567440D02*
X141698460Y-91567440D01*
X142648420Y-91966220D02*
X142648420Y-92763780D01*
X142648420Y-92763780D02*
X142300440Y-92763780D01*
X142300440Y-91966220D02*
X142300440Y-92763780D01*
X142648420Y-91966220D02*
X142300440Y-91966220D01*
X143895560Y-91966220D02*
X143895560Y-92763780D01*
X143895560Y-92763780D02*
X143547580Y-92763780D01*
X143547580Y-91966220D02*
X143547580Y-92763780D01*
X143895560Y-91966220D02*
X143547580Y-91966220D01*
X130595560Y-93816220D02*
X130247580Y-93816220D01*
X130247580Y-93816220D02*
X130247580Y-94613780D01*
X130595560Y-94613780D02*
X130247580Y-94613780D01*
X130595560Y-93816220D02*
X130595560Y-94613780D01*
X129348420Y-93816220D02*
X129000440Y-93816220D01*
X129000440Y-93816220D02*
X129000440Y-94613780D01*
X129348420Y-94613780D02*
X129000440Y-94613780D01*
X129348420Y-93816220D02*
X129348420Y-94613780D01*
X131197540Y-93417440D02*
X128398460Y-93417440D01*
X128398460Y-93417440D02*
X128398460Y-95012560D01*
X131197540Y-95012560D02*
X128398460Y-95012560D01*
X131197540Y-93417440D02*
X131197540Y-95012560D01*
D15*
X130521900Y-94562980D02*
X129074100Y-94562980D01*
X129074100Y-93867020D02*
X130521900Y-93867020D01*
X131500100Y-108517020D02*
X132947900Y-108517020D01*
X132947900Y-109212980D02*
X131500100Y-109212980D01*
D16*
X133623540Y-108067440D02*
X133623540Y-109662560D01*
X133623540Y-109662560D02*
X130824460Y-109662560D01*
X130824460Y-108067440D02*
X130824460Y-109662560D01*
X133623540Y-108067440D02*
X130824460Y-108067440D01*
X131774420Y-108466220D02*
X131774420Y-109263780D01*
X131774420Y-109263780D02*
X131426440Y-109263780D01*
X131426440Y-108466220D02*
X131426440Y-109263780D01*
X131774420Y-108466220D02*
X131426440Y-108466220D01*
X133021560Y-108466220D02*
X133021560Y-109263780D01*
X133021560Y-109263780D02*
X132673580Y-109263780D01*
X132673580Y-108466220D02*
X132673580Y-109263780D01*
X133021560Y-108466220D02*
X132673580Y-108466220D01*
D15*
X129100100Y-95767020D02*
X130547900Y-95767020D01*
X130547900Y-96462980D02*
X129100100Y-96462980D01*
D16*
X131223540Y-95317440D02*
X131223540Y-96912560D01*
X131223540Y-96912560D02*
X128424460Y-96912560D01*
X128424460Y-95317440D02*
X128424460Y-96912560D01*
X131223540Y-95317440D02*
X128424460Y-95317440D01*
X129374420Y-95716220D02*
X129374420Y-96513780D01*
X129374420Y-96513780D02*
X129026440Y-96513780D01*
X129026440Y-95716220D02*
X129026440Y-96513780D01*
X129374420Y-95716220D02*
X129026440Y-95716220D01*
X130621560Y-95716220D02*
X130621560Y-96513780D01*
X130621560Y-96513780D02*
X130273580Y-96513780D01*
X130273580Y-95716220D02*
X130273580Y-96513780D01*
X130621560Y-95716220D02*
X130273580Y-95716220D01*
D15*
X153924560Y-120964440D02*
X152075440Y-120964440D01*
X152075440Y-119765560D02*
X153924560Y-119765560D01*
D16*
X151351540Y-121614680D02*
X151351540Y-119115320D01*
X151351540Y-119115320D02*
X154648460Y-119115320D01*
X154648460Y-121614680D02*
X154648460Y-119115320D01*
X151351540Y-121614680D02*
X154648460Y-121614680D01*
X153497840Y-121012700D02*
X153497840Y-119717300D01*
X153497840Y-119717300D02*
X153998220Y-119717300D01*
X153998220Y-121012700D02*
X153998220Y-119717300D01*
X153497840Y-121012700D02*
X153998220Y-121012700D01*
X152001780Y-121012700D02*
X152001780Y-119717300D01*
X152001780Y-119717300D02*
X152502160Y-119717300D01*
X152502160Y-121012700D02*
X152502160Y-119717300D01*
X152001780Y-121012700D02*
X152502160Y-121012700D01*
X142096220Y-119767300D02*
X141595840Y-119767300D01*
X141595840Y-119767300D02*
X141595840Y-121062700D01*
X142096220Y-121062700D02*
X141595840Y-121062700D01*
X142096220Y-119767300D02*
X142096220Y-121062700D01*
X140600160Y-119767300D02*
X140099780Y-119767300D01*
X140099780Y-119767300D02*
X140099780Y-121062700D01*
X140600160Y-121062700D02*
X140099780Y-121062700D01*
X140600160Y-119767300D02*
X140600160Y-121062700D01*
X142746460Y-119165320D02*
X139449540Y-119165320D01*
X139449540Y-119165320D02*
X139449540Y-121664680D01*
X142746460Y-121664680D02*
X139449540Y-121664680D01*
X142746460Y-119165320D02*
X142746460Y-121664680D01*
D15*
X142022560Y-121014440D02*
X140173440Y-121014440D01*
X140173440Y-119815560D02*
X142022560Y-119815560D01*
X173902100Y-103763020D02*
X175349900Y-103763020D01*
X175349900Y-104458980D02*
X173902100Y-104458980D01*
D16*
X176025540Y-103313440D02*
X176025540Y-104908560D01*
X176025540Y-104908560D02*
X173226460Y-104908560D01*
X173226460Y-103313440D02*
X173226460Y-104908560D01*
X176025540Y-103313440D02*
X173226460Y-103313440D01*
X174176420Y-103712220D02*
X174176420Y-104509780D01*
X174176420Y-104509780D02*
X173828440Y-104509780D01*
X173828440Y-103712220D02*
X173828440Y-104509780D01*
X174176420Y-103712220D02*
X173828440Y-103712220D01*
X175423560Y-103712220D02*
X175423560Y-104509780D01*
X175423560Y-104509780D02*
X175075580Y-104509780D01*
X175075580Y-103712220D02*
X175075580Y-104509780D01*
X175423560Y-103712220D02*
X175075580Y-103712220D01*
X173828440Y-110209780D02*
X174176420Y-110209780D01*
X174176420Y-110209780D02*
X174176420Y-109412220D01*
X173828440Y-109412220D02*
X174176420Y-109412220D01*
X173828440Y-110209780D02*
X173828440Y-109412220D01*
X175075580Y-110209780D02*
X175423560Y-110209780D01*
X175423560Y-110209780D02*
X175423560Y-109412220D01*
X175075580Y-109412220D02*
X175423560Y-109412220D01*
X175075580Y-110209780D02*
X175075580Y-109412220D01*
X173226460Y-110608560D02*
X176025540Y-110608560D01*
X176025540Y-110608560D02*
X176025540Y-109013440D01*
X173226460Y-109013440D02*
X176025540Y-109013440D01*
X173226460Y-110608560D02*
X173226460Y-109013440D01*
D15*
X173902100Y-109463020D02*
X175349900Y-109463020D01*
X175349900Y-110158980D02*
X173902100Y-110158980D01*
D16*
X129200440Y-123763780D02*
X129548420Y-123763780D01*
X129548420Y-123763780D02*
X129548420Y-122966220D01*
X129200440Y-122966220D02*
X129548420Y-122966220D01*
X129200440Y-123763780D02*
X129200440Y-122966220D01*
X130447580Y-123763780D02*
X130795560Y-123763780D01*
X130795560Y-123763780D02*
X130795560Y-122966220D01*
X130447580Y-122966220D02*
X130795560Y-122966220D01*
X130447580Y-123763780D02*
X130447580Y-122966220D01*
X128598460Y-124162560D02*
X131397540Y-124162560D01*
X131397540Y-124162560D02*
X131397540Y-122567440D01*
X128598460Y-122567440D02*
X131397540Y-122567440D01*
X128598460Y-124162560D02*
X128598460Y-122567440D01*
D17*
X130315500Y-123047500D02*
X130315500Y-123682500D01*
X130315500Y-123365000D02*
X129680500Y-123047500D01*
X129680500Y-123047500D02*
X129680500Y-123682500D01*
X129680500Y-123682500D02*
X130315500Y-123365000D01*
D16*
X173022000Y-86829000D02*
X173022000Y-86321000D01*
X173022000Y-86321000D02*
X172514000Y-86321000D01*
X172514000Y-86829000D02*
X172514000Y-86321000D01*
X173022000Y-86829000D02*
X172514000Y-86829000D01*
X170482000Y-86829000D02*
X170482000Y-86321000D01*
X170482000Y-86321000D02*
X169974000Y-86321000D01*
X169974000Y-86829000D02*
X169974000Y-86321000D01*
X170482000Y-86829000D02*
X169974000Y-86829000D01*
X170482000Y-84289000D02*
X170482000Y-83781000D01*
X170482000Y-83781000D02*
X169974000Y-83781000D01*
X169974000Y-84289000D02*
X169974000Y-83781000D01*
X170482000Y-84289000D02*
X169974000Y-84289000D01*
X173022000Y-84289000D02*
X173022000Y-83781000D01*
X173022000Y-83781000D02*
X172514000Y-83781000D01*
X172514000Y-84289000D02*
X172514000Y-83781000D01*
X173022000Y-84289000D02*
X172514000Y-84289000D01*
X170482000Y-81749000D02*
X170482000Y-81241000D01*
X170482000Y-81241000D02*
X169974000Y-81241000D01*
X169974000Y-81749000D02*
X169974000Y-81241000D01*
X170482000Y-81749000D02*
X169974000Y-81749000D01*
X173022000Y-81749000D02*
X173022000Y-81241000D01*
X173022000Y-81241000D02*
X172514000Y-81241000D01*
X172514000Y-81749000D02*
X172514000Y-81241000D01*
X173022000Y-81749000D02*
X172514000Y-81749000D01*
X170482000Y-79209000D02*
X170482000Y-78701000D01*
X170482000Y-78701000D02*
X169974000Y-78701000D01*
X169974000Y-79209000D02*
X169974000Y-78701000D01*
X170482000Y-79209000D02*
X169974000Y-79209000D01*
X173022000Y-79209000D02*
X173022000Y-78701000D01*
X173022000Y-78701000D02*
X172514000Y-78701000D01*
X172514000Y-79209000D02*
X172514000Y-78701000D01*
X173022000Y-79209000D02*
X172514000Y-79209000D01*
D18*
X173403000Y-87845000D02*
X174038000Y-87210000D01*
X174038000Y-85940000D02*
X173403000Y-85305000D01*
X173403000Y-85305000D02*
X174038000Y-84670000D01*
X174038000Y-83400000D02*
X173403000Y-82765000D01*
X173403000Y-82765000D02*
X174038000Y-82130000D01*
X174038000Y-80860000D02*
X173403000Y-80225000D01*
X173403000Y-87845000D02*
X169593000Y-87845000D01*
X169593000Y-87845000D02*
X168958000Y-87210000D01*
X168958000Y-87210000D02*
X168958000Y-85940000D01*
X168958000Y-85940000D02*
X169593000Y-85305000D01*
X169593000Y-85305000D02*
X168958000Y-84670000D01*
X168958000Y-84670000D02*
X168958000Y-83400000D01*
X168958000Y-83400000D02*
X169593000Y-82765000D01*
X169593000Y-82765000D02*
X168958000Y-82130000D01*
X168958000Y-82130000D02*
X168958000Y-80860000D01*
X168958000Y-80860000D02*
X169593000Y-80225000D01*
X169593000Y-85305000D02*
X173403000Y-85305000D01*
X169593000Y-82765000D02*
X173403000Y-82765000D01*
X169593000Y-80225000D02*
X173403000Y-80225000D01*
X174038000Y-82130000D02*
X174038000Y-80860000D01*
X174038000Y-84670000D02*
X174038000Y-83400000D01*
X174038000Y-87210000D02*
X174038000Y-85940000D01*
X173403000Y-80225000D02*
X174038000Y-79590000D01*
X174038000Y-78320000D02*
X173403000Y-77685000D01*
X169593000Y-80225000D02*
X168958000Y-79590000D01*
X168958000Y-79590000D02*
X168958000Y-78320000D01*
X168958000Y-78320000D02*
X169593000Y-77685000D01*
X169593000Y-77685000D02*
X173403000Y-77685000D01*
X174038000Y-79590000D02*
X174038000Y-78320000D01*
D14*
X121498000Y-111365000D02*
X118498000Y-111365000D01*
X121498000Y-96365000D02*
X121498000Y-111365000D01*
X118498000Y-96365000D02*
X121498000Y-96365000D01*
X118498000Y-111365000D02*
X118498000Y-96365000D01*
X123998000Y-96365000D02*
X121498000Y-96365000D01*
X123998000Y-95865000D02*
X123998000Y-96365000D01*
X118498000Y-95865000D02*
X123998000Y-95865000D01*
X118498000Y-96365000D02*
X118498000Y-95865000D01*
X118498000Y-111865000D02*
X118498000Y-111365000D01*
X123998000Y-111865000D02*
X118498000Y-111865000D01*
X123998000Y-111365000D02*
X123998000Y-111865000D01*
X121498000Y-111365000D02*
X123998000Y-111365000D01*
D15*
X149913560Y-120964440D02*
X148064440Y-120964440D01*
X148064440Y-119765560D02*
X149913560Y-119765560D01*
D16*
X147340540Y-121614680D02*
X147340540Y-119115320D01*
X147340540Y-119115320D02*
X150637460Y-119115320D01*
X150637460Y-121614680D02*
X150637460Y-119115320D01*
X147340540Y-121614680D02*
X150637460Y-121614680D01*
X149486840Y-121012700D02*
X149486840Y-119717300D01*
X149486840Y-119717300D02*
X149987220Y-119717300D01*
X149987220Y-121012700D02*
X149987220Y-119717300D01*
X149486840Y-121012700D02*
X149987220Y-121012700D01*
X147990780Y-121012700D02*
X147990780Y-119717300D01*
X147990780Y-119717300D02*
X148491160Y-119717300D01*
X148491160Y-121012700D02*
X148491160Y-119717300D01*
X147990780Y-121012700D02*
X148491160Y-121012700D01*
X145987220Y-119717300D02*
X145486840Y-119717300D01*
X145486840Y-119717300D02*
X145486840Y-121012700D01*
X145987220Y-121012700D02*
X145486840Y-121012700D01*
X145987220Y-119717300D02*
X145987220Y-121012700D01*
X144491160Y-119717300D02*
X143990780Y-119717300D01*
X143990780Y-119717300D02*
X143990780Y-121012700D01*
X144491160Y-121012700D02*
X143990780Y-121012700D01*
X144491160Y-119717300D02*
X144491160Y-121012700D01*
X146637460Y-119115320D02*
X143340540Y-119115320D01*
X143340540Y-119115320D02*
X143340540Y-121614680D01*
X146637460Y-121614680D02*
X143340540Y-121614680D01*
X146637460Y-119115320D02*
X146637460Y-121614680D01*
D15*
X145913560Y-120964440D02*
X144064440Y-120964440D01*
X144064440Y-119765560D02*
X145913560Y-119765560D01*
D16*
X171451220Y-114941440D02*
X171451220Y-115289420D01*
X171451220Y-115289420D02*
X172248780Y-115289420D01*
X172248780Y-114941440D02*
X172248780Y-115289420D01*
X171451220Y-114941440D02*
X172248780Y-114941440D01*
X171451220Y-116188580D02*
X171451220Y-116536560D01*
X171451220Y-116536560D02*
X172248780Y-116536560D01*
X172248780Y-116188580D02*
X172248780Y-116536560D01*
X171451220Y-116188580D02*
X172248780Y-116188580D01*
X171052440Y-114339460D02*
X171052440Y-117138540D01*
X171052440Y-117138540D02*
X172647560Y-117138540D01*
X172647560Y-114339460D02*
X172647560Y-117138540D01*
X171052440Y-114339460D02*
X172647560Y-114339460D01*
D15*
X172197980Y-115015100D02*
X172197980Y-116462900D01*
X171502020Y-116462900D02*
X171502020Y-115015100D01*
X163902020Y-116962900D02*
X163902020Y-115515100D01*
X164597980Y-115515100D02*
X164597980Y-116962900D01*
D16*
X163452440Y-114839460D02*
X165047560Y-114839460D01*
X165047560Y-114839460D02*
X165047560Y-117638540D01*
X163452440Y-117638540D02*
X165047560Y-117638540D01*
X163452440Y-114839460D02*
X163452440Y-117638540D01*
X163851220Y-116688580D02*
X164648780Y-116688580D01*
X164648780Y-116688580D02*
X164648780Y-117036560D01*
X163851220Y-117036560D02*
X164648780Y-117036560D01*
X163851220Y-116688580D02*
X163851220Y-117036560D01*
X163851220Y-115441440D02*
X164648780Y-115441440D01*
X164648780Y-115441440D02*
X164648780Y-115789420D01*
X163851220Y-115789420D02*
X164648780Y-115789420D01*
X163851220Y-115441440D02*
X163851220Y-115789420D01*
X164636780Y-120662560D02*
X164636780Y-120314580D01*
X164636780Y-120314580D02*
X163839220Y-120314580D01*
X163839220Y-120662560D02*
X163839220Y-120314580D01*
X164636780Y-120662560D02*
X163839220Y-120662560D01*
X164636780Y-119415420D02*
X164636780Y-119067440D01*
X164636780Y-119067440D02*
X163839220Y-119067440D01*
X163839220Y-119415420D02*
X163839220Y-119067440D01*
X164636780Y-119415420D02*
X163839220Y-119415420D01*
X165035560Y-121264540D02*
X165035560Y-118465460D01*
X165035560Y-118465460D02*
X163440440Y-118465460D01*
X163440440Y-121264540D02*
X163440440Y-118465460D01*
X165035560Y-121264540D02*
X163440440Y-121264540D01*
D15*
X163890020Y-120588900D02*
X163890020Y-119141100D01*
X164585980Y-119141100D02*
X164585980Y-120588900D01*
D16*
X175384560Y-111148220D02*
X175036580Y-111148220D01*
X175036580Y-111148220D02*
X175036580Y-111945780D01*
X175384560Y-111945780D02*
X175036580Y-111945780D01*
X175384560Y-111148220D02*
X175384560Y-111945780D01*
X174137420Y-111148220D02*
X173789440Y-111148220D01*
X173789440Y-111148220D02*
X173789440Y-111945780D01*
X174137420Y-111945780D02*
X173789440Y-111945780D01*
X174137420Y-111148220D02*
X174137420Y-111945780D01*
X175986540Y-110749440D02*
X173187460Y-110749440D01*
X173187460Y-110749440D02*
X173187460Y-112344560D01*
X175986540Y-112344560D02*
X173187460Y-112344560D01*
X175986540Y-110749440D02*
X175986540Y-112344560D01*
D15*
X175310900Y-111894980D02*
X173863100Y-111894980D01*
X173863100Y-111199020D02*
X175310900Y-111199020D01*
D16*
X134795560Y-122966220D02*
X134447580Y-122966220D01*
X134447580Y-122966220D02*
X134447580Y-123763780D01*
X134795560Y-123763780D02*
X134447580Y-123763780D01*
X134795560Y-122966220D02*
X134795560Y-123763780D01*
X133548420Y-122966220D02*
X133200440Y-122966220D01*
X133200440Y-122966220D02*
X133200440Y-123763780D01*
X133548420Y-123763780D02*
X133200440Y-123763780D01*
X133548420Y-122966220D02*
X133548420Y-123763780D01*
X135397540Y-122567440D02*
X132598460Y-122567440D01*
X132598460Y-122567440D02*
X132598460Y-124162560D01*
X135397540Y-124162560D02*
X132598460Y-124162560D01*
X135397540Y-122567440D02*
X135397540Y-124162560D01*
D15*
X134721900Y-123712980D02*
X133274100Y-123712980D01*
X133274100Y-123017020D02*
X134721900Y-123017020D01*
D16*
X168169560Y-95766220D02*
X167821580Y-95766220D01*
X167821580Y-95766220D02*
X167821580Y-96563780D01*
X168169560Y-96563780D02*
X167821580Y-96563780D01*
X168169560Y-95766220D02*
X168169560Y-96563780D01*
X166922420Y-95766220D02*
X166574440Y-95766220D01*
X166574440Y-95766220D02*
X166574440Y-96563780D01*
X166922420Y-96563780D02*
X166574440Y-96563780D01*
X166922420Y-95766220D02*
X166922420Y-96563780D01*
X168771540Y-95367440D02*
X165972460Y-95367440D01*
X165972460Y-95367440D02*
X165972460Y-96962560D01*
X168771540Y-96962560D02*
X165972460Y-96962560D01*
X168771540Y-95367440D02*
X168771540Y-96962560D01*
D15*
X168095900Y-96512980D02*
X166648100Y-96512980D01*
X166648100Y-95817020D02*
X168095900Y-95817020D01*
X166674100Y-93917020D02*
X168121900Y-93917020D01*
X168121900Y-94612980D02*
X166674100Y-94612980D01*
D16*
X168797540Y-93467440D02*
X168797540Y-95062560D01*
X168797540Y-95062560D02*
X165998460Y-95062560D01*
X165998460Y-93467440D02*
X165998460Y-95062560D01*
X168797540Y-93467440D02*
X165998460Y-93467440D01*
X166948420Y-93866220D02*
X166948420Y-94663780D01*
X166948420Y-94663780D02*
X166600440Y-94663780D01*
X166600440Y-93866220D02*
X166600440Y-94663780D01*
X166948420Y-93866220D02*
X166600440Y-93866220D01*
X168195560Y-93866220D02*
X168195560Y-94663780D01*
X168195560Y-94663780D02*
X167847580Y-94663780D01*
X167847580Y-93866220D02*
X167847580Y-94663780D01*
X168195560Y-93866220D02*
X167847580Y-93866220D01*
D15*
X125550100Y-93867020D02*
X126997900Y-93867020D01*
X126997900Y-94562980D02*
X125550100Y-94562980D01*
D16*
X127673540Y-93417440D02*
X127673540Y-95012560D01*
X127673540Y-95012560D02*
X124874460Y-95012560D01*
X124874460Y-93417440D02*
X124874460Y-95012560D01*
X127673540Y-93417440D02*
X124874460Y-93417440D01*
X125824420Y-93816220D02*
X125824420Y-94613780D01*
X125824420Y-94613780D02*
X125476440Y-94613780D01*
X125476440Y-93816220D02*
X125476440Y-94613780D01*
X125824420Y-93816220D02*
X125476440Y-93816220D01*
X127071560Y-93816220D02*
X127071560Y-94613780D01*
X127071560Y-94613780D02*
X126723580Y-94613780D01*
X126723580Y-93816220D02*
X126723580Y-94613780D01*
X127071560Y-93816220D02*
X126723580Y-93816220D01*
X142300440Y-90913780D02*
X142648420Y-90913780D01*
X142648420Y-90913780D02*
X142648420Y-90116220D01*
X142300440Y-90116220D02*
X142648420Y-90116220D01*
X142300440Y-90913780D02*
X142300440Y-90116220D01*
X143547580Y-90913780D02*
X143895560Y-90913780D01*
X143895560Y-90913780D02*
X143895560Y-90116220D01*
X143547580Y-90116220D02*
X143895560Y-90116220D01*
X143547580Y-90913780D02*
X143547580Y-90116220D01*
X141698460Y-91312560D02*
X144497540Y-91312560D01*
X144497540Y-91312560D02*
X144497540Y-89717440D01*
X141698460Y-89717440D02*
X144497540Y-89717440D01*
X141698460Y-91312560D02*
X141698460Y-89717440D01*
D15*
X142374100Y-90167020D02*
X143821900Y-90167020D01*
X143821900Y-90862980D02*
X142374100Y-90862980D01*
D16*
X142300440Y-89113780D02*
X142648420Y-89113780D01*
X142648420Y-89113780D02*
X142648420Y-88316220D01*
X142300440Y-88316220D02*
X142648420Y-88316220D01*
X142300440Y-89113780D02*
X142300440Y-88316220D01*
X143547580Y-89113780D02*
X143895560Y-89113780D01*
X143895560Y-89113780D02*
X143895560Y-88316220D01*
X143547580Y-88316220D02*
X143895560Y-88316220D01*
X143547580Y-89113780D02*
X143547580Y-88316220D01*
X141698460Y-89512560D02*
X144497540Y-89512560D01*
X144497540Y-89512560D02*
X144497540Y-87917440D01*
X141698460Y-87917440D02*
X144497540Y-87917440D01*
X141698460Y-89512560D02*
X141698460Y-87917440D01*
D15*
X142374100Y-88367020D02*
X143821900Y-88367020D01*
X143821900Y-89062980D02*
X142374100Y-89062980D01*
D16*
X150795560Y-84716220D02*
X150447580Y-84716220D01*
X150447580Y-84716220D02*
X150447580Y-85513780D01*
X150795560Y-85513780D02*
X150447580Y-85513780D01*
X150795560Y-84716220D02*
X150795560Y-85513780D01*
X149548420Y-84716220D02*
X149200440Y-84716220D01*
X149200440Y-84716220D02*
X149200440Y-85513780D01*
X149548420Y-85513780D02*
X149200440Y-85513780D01*
X149548420Y-84716220D02*
X149548420Y-85513780D01*
X151397540Y-84317440D02*
X148598460Y-84317440D01*
X148598460Y-84317440D02*
X148598460Y-85912560D01*
X151397540Y-85912560D02*
X148598460Y-85912560D01*
X151397540Y-84317440D02*
X151397540Y-85912560D01*
D15*
X150721900Y-85462980D02*
X149274100Y-85462980D01*
X149274100Y-84767020D02*
X150721900Y-84767020D01*
D16*
X142300440Y-87363780D02*
X142648420Y-87363780D01*
X142648420Y-87363780D02*
X142648420Y-86566220D01*
X142300440Y-86566220D02*
X142648420Y-86566220D01*
X142300440Y-87363780D02*
X142300440Y-86566220D01*
X143547580Y-87363780D02*
X143895560Y-87363780D01*
X143895560Y-87363780D02*
X143895560Y-86566220D01*
X143547580Y-86566220D02*
X143895560Y-86566220D01*
X143547580Y-87363780D02*
X143547580Y-86566220D01*
X141698460Y-87762560D02*
X144497540Y-87762560D01*
X144497540Y-87762560D02*
X144497540Y-86167440D01*
X141698460Y-86167440D02*
X144497540Y-86167440D01*
X141698460Y-87762560D02*
X141698460Y-86167440D01*
D15*
X142374100Y-86617020D02*
X143821900Y-86617020D01*
X143821900Y-87312980D02*
X142374100Y-87312980D01*
X131474100Y-110417020D02*
X132921900Y-110417020D01*
X132921900Y-111112980D02*
X131474100Y-111112980D01*
D16*
X133597540Y-109967440D02*
X133597540Y-111562560D01*
X133597540Y-111562560D02*
X130798460Y-111562560D01*
X130798460Y-109967440D02*
X130798460Y-111562560D01*
X133597540Y-109967440D02*
X130798460Y-109967440D01*
X131748420Y-110366220D02*
X131748420Y-111163780D01*
X131748420Y-111163780D02*
X131400440Y-111163780D01*
X131400440Y-110366220D02*
X131400440Y-111163780D01*
X131748420Y-110366220D02*
X131400440Y-110366220D01*
X132995560Y-110366220D02*
X132995560Y-111163780D01*
X132995560Y-111163780D02*
X132647580Y-111163780D01*
X132647580Y-110366220D02*
X132647580Y-111163780D01*
X132995560Y-110366220D02*
X132647580Y-110366220D01*
D15*
X149274100Y-86667020D02*
X150721900Y-86667020D01*
X150721900Y-87362980D02*
X149274100Y-87362980D01*
D16*
X151397540Y-86217440D02*
X151397540Y-87812560D01*
X151397540Y-87812560D02*
X148598460Y-87812560D01*
X148598460Y-86217440D02*
X148598460Y-87812560D01*
X151397540Y-86217440D02*
X148598460Y-86217440D01*
X149548420Y-86616220D02*
X149548420Y-87413780D01*
X149548420Y-87413780D02*
X149200440Y-87413780D01*
X149200440Y-86616220D02*
X149200440Y-87413780D01*
X149548420Y-86616220D02*
X149200440Y-86616220D01*
X150795560Y-86616220D02*
X150795560Y-87413780D01*
X150795560Y-87413780D02*
X150447580Y-87413780D01*
X150447580Y-86616220D02*
X150447580Y-87413780D01*
X150795560Y-86616220D02*
X150447580Y-86616220D01*
D15*
X162221900Y-90312980D02*
X160774100Y-90312980D01*
X160774100Y-89617020D02*
X162221900Y-89617020D01*
D16*
X160098460Y-90762560D02*
X160098460Y-89167440D01*
X160098460Y-89167440D02*
X162897540Y-89167440D01*
X162897540Y-90762560D02*
X162897540Y-89167440D01*
X160098460Y-90762560D02*
X162897540Y-90762560D01*
X161947580Y-90363780D02*
X161947580Y-89566220D01*
X161947580Y-89566220D02*
X162295560Y-89566220D01*
X162295560Y-90363780D02*
X162295560Y-89566220D01*
X161947580Y-90363780D02*
X162295560Y-90363780D01*
X160700440Y-90363780D02*
X160700440Y-89566220D01*
X160700440Y-89566220D02*
X161048420Y-89566220D01*
X161048420Y-90363780D02*
X161048420Y-89566220D01*
X160700440Y-90363780D02*
X161048420Y-90363780D01*
X131400440Y-113063780D02*
X131748420Y-113063780D01*
X131748420Y-113063780D02*
X131748420Y-112266220D01*
X131400440Y-112266220D02*
X131748420Y-112266220D01*
X131400440Y-113063780D02*
X131400440Y-112266220D01*
X132647580Y-113063780D02*
X132995560Y-113063780D01*
X132995560Y-113063780D02*
X132995560Y-112266220D01*
X132647580Y-112266220D02*
X132995560Y-112266220D01*
X132647580Y-113063780D02*
X132647580Y-112266220D01*
X130798460Y-113462560D02*
X133597540Y-113462560D01*
X133597540Y-113462560D02*
X133597540Y-111867440D01*
X130798460Y-111867440D02*
X133597540Y-111867440D01*
X130798460Y-113462560D02*
X130798460Y-111867440D01*
D15*
X131474100Y-112317020D02*
X132921900Y-112317020D01*
X132921900Y-113012980D02*
X131474100Y-113012980D01*
D19*
X161548000Y-88965000D02*
X165948000Y-88965000D01*
X161548000Y-82165000D02*
X161548000Y-88965000D01*
X165948000Y-82165000D02*
X161548000Y-82165000D01*
X165948000Y-88965000D02*
X165948000Y-82165000D01*
X168148000Y-88565000D02*
G75*
G03X168148000Y-88565000I-200000J0D01*
G01*
D16*
X142095700Y-84063220D02*
X142095700Y-83562840D01*
X142095700Y-83562840D02*
X140800300Y-83562840D01*
X140800300Y-84063220D02*
X140800300Y-83562840D01*
X142095700Y-84063220D02*
X140800300Y-84063220D01*
X142095700Y-82567160D02*
X142095700Y-82066780D01*
X142095700Y-82066780D02*
X140800300Y-82066780D01*
X140800300Y-82567160D02*
X140800300Y-82066780D01*
X142095700Y-82567160D02*
X140800300Y-82567160D01*
X142697680Y-84713460D02*
X142697680Y-81416540D01*
X142697680Y-81416540D02*
X140198320Y-81416540D01*
X140198320Y-84713460D02*
X140198320Y-81416540D01*
X142697680Y-84713460D02*
X140198320Y-84713460D01*
D15*
X140848560Y-83989560D02*
X140848560Y-82140440D01*
X142047440Y-82140440D02*
X142047440Y-83989560D01*
D20*
X131497600Y-80366280D02*
X132996200Y-80366280D01*
X131497600Y-88862580D02*
X131497600Y-80366280D01*
X132996200Y-88862580D02*
X131497600Y-88862580D01*
X132996200Y-80366280D02*
X132996200Y-88862580D01*
X121998000Y-88562860D02*
X123847120Y-88562860D01*
X121998000Y-91262880D02*
X121998000Y-88562860D01*
X123847120Y-91262880D02*
X121998000Y-91262880D01*
X123847120Y-88562860D02*
X123847120Y-91262880D01*
X131997980Y-79665240D02*
X124497360Y-79665240D01*
X131997980Y-80366280D02*
X131997980Y-79665240D01*
X124497360Y-80366280D02*
X131997980Y-80366280D01*
X124497360Y-79665240D02*
X124497360Y-80366280D01*
X134446540Y-78367300D02*
X138096520Y-78367300D01*
X134446540Y-79365520D02*
X134446540Y-78367300D01*
X138096520Y-79365520D02*
X134446540Y-79365520D01*
X138096520Y-78367300D02*
X138096520Y-79365520D01*
X128797580Y-78367300D02*
X132947940Y-78367300D01*
X128797580Y-79365520D02*
X128797580Y-78367300D01*
X132947940Y-79365520D02*
X128797580Y-79365520D01*
X132947940Y-78367300D02*
X132947940Y-79365520D01*
X121998000Y-92713220D02*
X121998000Y-78865140D01*
X121998000Y-78865140D02*
X137946660Y-78865140D01*
X137946660Y-92713220D02*
X121998000Y-92713220D01*
X137946660Y-78865140D02*
X137946660Y-92713220D01*
D21*
X121200440Y-80285000D02*
X121200440Y-90445000D01*
D20*
X128348000Y-90864100D02*
X120728000Y-90864100D01*
X128348000Y-79865900D02*
X120728000Y-79865900D01*
D22*
X128297200Y-78865140D02*
X132696480Y-78865140D01*
X126697000Y-78865140D02*
X125195860Y-78865140D01*
X137946660Y-79266460D02*
X137946660Y-78865140D01*
X121998000Y-91463540D02*
X121998000Y-79865900D01*
X137946660Y-92713220D02*
X124296700Y-92713220D01*
X137946660Y-90963160D02*
X137946660Y-92713220D01*
X134698000Y-78865140D02*
X137946660Y-78865140D01*
D15*
X149274100Y-82917020D02*
X150721900Y-82917020D01*
X150721900Y-83612980D02*
X149274100Y-83612980D01*
D16*
X151397540Y-82467440D02*
X151397540Y-84062560D01*
X151397540Y-84062560D02*
X148598460Y-84062560D01*
X148598460Y-82467440D02*
X148598460Y-84062560D01*
X151397540Y-82467440D02*
X148598460Y-82467440D01*
X149548420Y-82866220D02*
X149548420Y-83663780D01*
X149548420Y-83663780D02*
X149200440Y-83663780D01*
X149200440Y-82866220D02*
X149200440Y-83663780D01*
X149548420Y-82866220D02*
X149200440Y-82866220D01*
X150795560Y-82866220D02*
X150795560Y-83663780D01*
X150795560Y-83663780D02*
X150447580Y-83663780D01*
X150447580Y-82866220D02*
X150447580Y-83663780D01*
X150795560Y-82866220D02*
X150447580Y-82866220D01*
D15*
X150721900Y-81762980D02*
X149274100Y-81762980D01*
X149274100Y-81067020D02*
X150721900Y-81067020D01*
D16*
X148598460Y-82212560D02*
X148598460Y-80617440D01*
X148598460Y-80617440D02*
X151397540Y-80617440D01*
X151397540Y-82212560D02*
X151397540Y-80617440D01*
X148598460Y-82212560D02*
X151397540Y-82212560D01*
X150447580Y-81813780D02*
X150447580Y-81016220D01*
X150447580Y-81016220D02*
X150795560Y-81016220D01*
X150795560Y-81813780D02*
X150795560Y-81016220D01*
X150447580Y-81813780D02*
X150795560Y-81813780D01*
X149200440Y-81813780D02*
X149200440Y-81016220D01*
X149200440Y-81016220D02*
X149548420Y-81016220D01*
X149548420Y-81813780D02*
X149548420Y-81016220D01*
X149200440Y-81813780D02*
X149548420Y-81813780D01*
X156895560Y-84716220D02*
X156547580Y-84716220D01*
X156547580Y-84716220D02*
X156547580Y-85513780D01*
X156895560Y-85513780D02*
X156547580Y-85513780D01*
X156895560Y-84716220D02*
X156895560Y-85513780D01*
X155648420Y-84716220D02*
X155300440Y-84716220D01*
X155300440Y-84716220D02*
X155300440Y-85513780D01*
X155648420Y-85513780D02*
X155300440Y-85513780D01*
X155648420Y-84716220D02*
X155648420Y-85513780D01*
X157497540Y-84317440D02*
X154698460Y-84317440D01*
X154698460Y-84317440D02*
X154698460Y-85912560D01*
X157497540Y-85912560D02*
X154698460Y-85912560D01*
X157497540Y-84317440D02*
X157497540Y-85912560D01*
D15*
X156821900Y-85462980D02*
X155374100Y-85462980D01*
X155374100Y-84767020D02*
X156821900Y-84767020D01*
D16*
X156895560Y-86616220D02*
X156547580Y-86616220D01*
X156547580Y-86616220D02*
X156547580Y-87413780D01*
X156895560Y-87413780D02*
X156547580Y-87413780D01*
X156895560Y-86616220D02*
X156895560Y-87413780D01*
X155648420Y-86616220D02*
X155300440Y-86616220D01*
X155300440Y-86616220D02*
X155300440Y-87413780D01*
X155648420Y-87413780D02*
X155300440Y-87413780D01*
X155648420Y-86616220D02*
X155648420Y-87413780D01*
X157497540Y-86217440D02*
X154698460Y-86217440D01*
X154698460Y-86217440D02*
X154698460Y-87812560D01*
X157497540Y-87812560D02*
X154698460Y-87812560D01*
X157497540Y-86217440D02*
X157497540Y-87812560D01*
D15*
X156821900Y-87362980D02*
X155374100Y-87362980D01*
X155374100Y-86667020D02*
X156821900Y-86667020D01*
D16*
X155300440Y-81913780D02*
X155648420Y-81913780D01*
X155648420Y-81913780D02*
X155648420Y-81116220D01*
X155300440Y-81116220D02*
X155648420Y-81116220D01*
X155300440Y-81913780D02*
X155300440Y-81116220D01*
X156547580Y-81913780D02*
X156895560Y-81913780D01*
X156895560Y-81913780D02*
X156895560Y-81116220D01*
X156547580Y-81116220D02*
X156895560Y-81116220D01*
X156547580Y-81913780D02*
X156547580Y-81116220D01*
X154698460Y-82312560D02*
X157497540Y-82312560D01*
X157497540Y-82312560D02*
X157497540Y-80717440D01*
X154698460Y-80717440D02*
X157497540Y-80717440D01*
X154698460Y-82312560D02*
X154698460Y-80717440D01*
D15*
X155374100Y-81167020D02*
X156821900Y-81167020D01*
X156821900Y-81862980D02*
X155374100Y-81862980D01*
D16*
X162345560Y-91416220D02*
X161997580Y-91416220D01*
X161997580Y-91416220D02*
X161997580Y-92213780D01*
X162345560Y-92213780D02*
X161997580Y-92213780D01*
X162345560Y-91416220D02*
X162345560Y-92213780D01*
X161098420Y-91416220D02*
X160750440Y-91416220D01*
X160750440Y-91416220D02*
X160750440Y-92213780D01*
X161098420Y-92213780D02*
X160750440Y-92213780D01*
X161098420Y-91416220D02*
X161098420Y-92213780D01*
X162947540Y-91017440D02*
X160148460Y-91017440D01*
X160148460Y-91017440D02*
X160148460Y-92612560D01*
X162947540Y-92612560D02*
X160148460Y-92612560D01*
X162947540Y-91017440D02*
X162947540Y-92612560D01*
D15*
X162271900Y-92162980D02*
X160824100Y-92162980D01*
X160824100Y-91467020D02*
X162271900Y-91467020D01*
X155374100Y-82967020D02*
X156821900Y-82967020D01*
X156821900Y-83662980D02*
X155374100Y-83662980D01*
D16*
X157497540Y-82517440D02*
X157497540Y-84112560D01*
X157497540Y-84112560D02*
X154698460Y-84112560D01*
X154698460Y-82517440D02*
X154698460Y-84112560D01*
X157497540Y-82517440D02*
X154698460Y-82517440D01*
X155648420Y-82916220D02*
X155648420Y-83713780D01*
X155648420Y-83713780D02*
X155300440Y-83713780D01*
X155300440Y-82916220D02*
X155300440Y-83713780D01*
X155648420Y-82916220D02*
X155300440Y-82916220D01*
X156895560Y-82916220D02*
X156895560Y-83713780D01*
X156895560Y-83713780D02*
X156547580Y-83713780D01*
X156547580Y-82916220D02*
X156547580Y-83713780D01*
X156895560Y-82916220D02*
X156547580Y-82916220D01*
D20*
X170440936Y-113047864D02*
X170440936Y-113695483D01*
X170479031Y-113771674D01*
X170517126Y-113809769D01*
X170593317Y-113847864D01*
X170745698Y-113847864D01*
X170821888Y-113809769D01*
X170859983Y-113771674D01*
X170898079Y-113695483D01*
X170898079Y-113047864D01*
X171698079Y-113847864D02*
X171240936Y-113847864D01*
X171469507Y-113847864D02*
X171469507Y-113047864D01*
X171393317Y-113162150D01*
X171317126Y-113238340D01*
X171240936Y-113276436D01*
D23*
X166841890Y-117520587D02*
X166841890Y-117220867D01*
X167013159Y-117520587D01*
X167013159Y-117220867D01*
X167212972Y-117220867D02*
X167270061Y-117220867D01*
X167298606Y-117235140D01*
X167327151Y-117263684D01*
X167341423Y-117320774D01*
X167341423Y-117420680D01*
X167327151Y-117477770D01*
X167298606Y-117506315D01*
X167270061Y-117520587D01*
X167212972Y-117520587D01*
X167184427Y-117506315D01*
X167155882Y-117477770D01*
X167141610Y-117420680D01*
X167141610Y-117320774D01*
X167155882Y-117263684D01*
X167184427Y-117235140D01*
X167212972Y-117220867D01*
X167641143Y-117520587D02*
X167541237Y-117377863D01*
X167469875Y-117520587D02*
X167469875Y-117220867D01*
X167584054Y-117220867D01*
X167612599Y-117235140D01*
X167626871Y-117249412D01*
X167641143Y-117277957D01*
X167641143Y-117320774D01*
X167626871Y-117349319D01*
X167612599Y-117363591D01*
X167584054Y-117377863D01*
X167469875Y-117377863D01*
X168097860Y-117363591D02*
X167997953Y-117363591D01*
X167997953Y-117520587D02*
X167997953Y-117220867D01*
X168140677Y-117220867D01*
X168297673Y-117520587D02*
X168269128Y-117506315D01*
X168254856Y-117477770D01*
X168254856Y-117220867D01*
X168540303Y-117520587D02*
X168540303Y-117363591D01*
X168526031Y-117335046D01*
X168497486Y-117320774D01*
X168440397Y-117320774D01*
X168411852Y-117335046D01*
X168540303Y-117506315D02*
X168511759Y-117520587D01*
X168440397Y-117520587D01*
X168411852Y-117506315D01*
X168397580Y-117477770D01*
X168397580Y-117449225D01*
X168411852Y-117420680D01*
X168440397Y-117406408D01*
X168511759Y-117406408D01*
X168540303Y-117392136D01*
X168668755Y-117506315D02*
X168697300Y-117520587D01*
X168754389Y-117520587D01*
X168782934Y-117506315D01*
X168797206Y-117477770D01*
X168797206Y-117463498D01*
X168782934Y-117434953D01*
X168754389Y-117420680D01*
X168711572Y-117420680D01*
X168683027Y-117406408D01*
X168668755Y-117377863D01*
X168668755Y-117363591D01*
X168683027Y-117335046D01*
X168711572Y-117320774D01*
X168754389Y-117320774D01*
X168782934Y-117335046D01*
X168925658Y-117520587D02*
X168925658Y-117220867D01*
X169054109Y-117520587D02*
X169054109Y-117363591D01*
X169039837Y-117335046D01*
X169011292Y-117320774D01*
X168968475Y-117320774D01*
X168939930Y-117335046D01*
X168925658Y-117349319D01*
D24*
D14*
X143668380Y-96460104D02*
X144477904Y-96460104D01*
X144573142Y-96412485D01*
X144620761Y-96364866D01*
X144668380Y-96269628D01*
X144668380Y-96079152D01*
X144620761Y-95983914D01*
X144573142Y-95936295D01*
X144477904Y-95888676D01*
X143668380Y-95888676D01*
X143668380Y-95507723D02*
X143668380Y-94888676D01*
X144049333Y-95222009D01*
X144049333Y-95079152D01*
X144096952Y-94983914D01*
X144144571Y-94936295D01*
X144239809Y-94888676D01*
X144477904Y-94888676D01*
X144573142Y-94936295D01*
X144620761Y-94983914D01*
X144668380Y-95079152D01*
X144668380Y-95364866D01*
X144620761Y-95460104D01*
X144573142Y-95507723D01*
X156665130Y-109589904D02*
X157474654Y-109589904D01*
X157569892Y-109542285D01*
X157617511Y-109494666D01*
X157665130Y-109399428D01*
X157665130Y-109208952D01*
X157617511Y-109113714D01*
X157569892Y-109066095D01*
X157474654Y-109018476D01*
X156665130Y-109018476D01*
X156760369Y-108589904D02*
X156712750Y-108542285D01*
X156665130Y-108447047D01*
X156665130Y-108208952D01*
X156712750Y-108113714D01*
X156760369Y-108066095D01*
X156855607Y-108018476D01*
X156950845Y-108018476D01*
X157093702Y-108066095D01*
X157665130Y-108637523D01*
X157665130Y-108018476D01*
D24*
X173660857Y-119934533D02*
X173709238Y-119982914D01*
X173757619Y-120128057D01*
X173757619Y-120224819D01*
X173709238Y-120369961D01*
X173612476Y-120466723D01*
X173515714Y-120515104D01*
X173322190Y-120563485D01*
X173177047Y-120563485D01*
X172983523Y-120515104D01*
X172886761Y-120466723D01*
X172790000Y-120369961D01*
X172741619Y-120224819D01*
X172741619Y-120128057D01*
X172790000Y-119982914D01*
X172838380Y-119934533D01*
X172838380Y-119547485D02*
X172790000Y-119499104D01*
X172741619Y-119402342D01*
X172741619Y-119160438D01*
X172790000Y-119063676D01*
X172838380Y-119015295D01*
X172935142Y-118966914D01*
X173031904Y-118966914D01*
X173177047Y-119015295D01*
X173757619Y-119595866D01*
X173757619Y-118966914D01*
X177028666Y-102427857D02*
X176980285Y-102476238D01*
X176835142Y-102524619D01*
X176738380Y-102524619D01*
X176593238Y-102476238D01*
X176496476Y-102379476D01*
X176448095Y-102282714D01*
X176399714Y-102089190D01*
X176399714Y-101944047D01*
X176448095Y-101750523D01*
X176496476Y-101653761D01*
X176593238Y-101557000D01*
X176738380Y-101508619D01*
X176835142Y-101508619D01*
X176980285Y-101557000D01*
X177028666Y-101605380D01*
X177367333Y-101508619D02*
X177996285Y-101508619D01*
X177657619Y-101895666D01*
X177802761Y-101895666D01*
X177899523Y-101944047D01*
X177947904Y-101992428D01*
X177996285Y-102089190D01*
X177996285Y-102331095D01*
X177947904Y-102427857D01*
X177899523Y-102476238D01*
X177802761Y-102524619D01*
X177512476Y-102524619D01*
X177415714Y-102476238D01*
X177367333Y-102427857D01*
X176928666Y-98527857D02*
X176880285Y-98576238D01*
X176735142Y-98624619D01*
X176638380Y-98624619D01*
X176493238Y-98576238D01*
X176396476Y-98479476D01*
X176348095Y-98382714D01*
X176299714Y-98189190D01*
X176299714Y-98044047D01*
X176348095Y-97850523D01*
X176396476Y-97753761D01*
X176493238Y-97657000D01*
X176638380Y-97608619D01*
X176735142Y-97608619D01*
X176880285Y-97657000D01*
X176928666Y-97705380D01*
X177799523Y-97947285D02*
X177799523Y-98624619D01*
X177557619Y-97560238D02*
X177315714Y-98285952D01*
X177944666Y-98285952D01*
X170560857Y-110908333D02*
X170609238Y-110956714D01*
X170657619Y-111101857D01*
X170657619Y-111198619D01*
X170609238Y-111343761D01*
X170512476Y-111440523D01*
X170415714Y-111488904D01*
X170222190Y-111537285D01*
X170077047Y-111537285D01*
X169883523Y-111488904D01*
X169786761Y-111440523D01*
X169690000Y-111343761D01*
X169641619Y-111198619D01*
X169641619Y-111101857D01*
X169690000Y-110956714D01*
X169738380Y-110908333D01*
X169641619Y-109989095D02*
X169641619Y-110472904D01*
X170125428Y-110521285D01*
X170077047Y-110472904D01*
X170028666Y-110376142D01*
X170028666Y-110134238D01*
X170077047Y-110037476D01*
X170125428Y-109989095D01*
X170222190Y-109940714D01*
X170464095Y-109940714D01*
X170560857Y-109989095D01*
X170609238Y-110037476D01*
X170657619Y-110134238D01*
X170657619Y-110376142D01*
X170609238Y-110472904D01*
X170560857Y-110521285D01*
X177028666Y-100627857D02*
X176980285Y-100676238D01*
X176835142Y-100724619D01*
X176738380Y-100724619D01*
X176593238Y-100676238D01*
X176496476Y-100579476D01*
X176448095Y-100482714D01*
X176399714Y-100289190D01*
X176399714Y-100144047D01*
X176448095Y-99950523D01*
X176496476Y-99853761D01*
X176593238Y-99757000D01*
X176738380Y-99708619D01*
X176835142Y-99708619D01*
X176980285Y-99757000D01*
X177028666Y-99805380D01*
X177899523Y-99708619D02*
X177706000Y-99708619D01*
X177609238Y-99757000D01*
X177560857Y-99805380D01*
X177464095Y-99950523D01*
X177415714Y-100144047D01*
X177415714Y-100531095D01*
X177464095Y-100627857D01*
X177512476Y-100676238D01*
X177609238Y-100724619D01*
X177802761Y-100724619D01*
X177899523Y-100676238D01*
X177947904Y-100627857D01*
X177996285Y-100531095D01*
X177996285Y-100289190D01*
X177947904Y-100192428D01*
X177899523Y-100144047D01*
X177802761Y-100095666D01*
X177609238Y-100095666D01*
X177512476Y-100144047D01*
X177464095Y-100192428D01*
X177415714Y-100289190D01*
X163778666Y-112027857D02*
X163730285Y-112076238D01*
X163585142Y-112124619D01*
X163488380Y-112124619D01*
X163343238Y-112076238D01*
X163246476Y-111979476D01*
X163198095Y-111882714D01*
X163149714Y-111689190D01*
X163149714Y-111544047D01*
X163198095Y-111350523D01*
X163246476Y-111253761D01*
X163343238Y-111157000D01*
X163488380Y-111108619D01*
X163585142Y-111108619D01*
X163730285Y-111157000D01*
X163778666Y-111205380D01*
X164117333Y-111108619D02*
X164794666Y-111108619D01*
X164359238Y-112124619D01*
X161320857Y-114184333D02*
X161369238Y-114232714D01*
X161417619Y-114377857D01*
X161417619Y-114474619D01*
X161369238Y-114619761D01*
X161272476Y-114716523D01*
X161175714Y-114764904D01*
X160982190Y-114813285D01*
X160837047Y-114813285D01*
X160643523Y-114764904D01*
X160546761Y-114716523D01*
X160450000Y-114619761D01*
X160401619Y-114474619D01*
X160401619Y-114377857D01*
X160450000Y-114232714D01*
X160498380Y-114184333D01*
X160837047Y-113603761D02*
X160788666Y-113700523D01*
X160740285Y-113748904D01*
X160643523Y-113797285D01*
X160595142Y-113797285D01*
X160498380Y-113748904D01*
X160450000Y-113700523D01*
X160401619Y-113603761D01*
X160401619Y-113410238D01*
X160450000Y-113313476D01*
X160498380Y-113265095D01*
X160595142Y-113216714D01*
X160643523Y-113216714D01*
X160740285Y-113265095D01*
X160788666Y-113313476D01*
X160837047Y-113410238D01*
X160837047Y-113603761D01*
X160885428Y-113700523D01*
X160933809Y-113748904D01*
X161030571Y-113797285D01*
X161224095Y-113797285D01*
X161320857Y-113748904D01*
X161369238Y-113700523D01*
X161417619Y-113603761D01*
X161417619Y-113410238D01*
X161369238Y-113313476D01*
X161320857Y-113265095D01*
X161224095Y-113216714D01*
X161030571Y-113216714D01*
X160933809Y-113265095D01*
X160885428Y-113313476D01*
X160837047Y-113410238D01*
X156330857Y-114668142D02*
X156379238Y-114716523D01*
X156427619Y-114861666D01*
X156427619Y-114958428D01*
X156379238Y-115103571D01*
X156282476Y-115200333D01*
X156185714Y-115248714D01*
X155992190Y-115297095D01*
X155847047Y-115297095D01*
X155653523Y-115248714D01*
X155556761Y-115200333D01*
X155460000Y-115103571D01*
X155411619Y-114958428D01*
X155411619Y-114861666D01*
X155460000Y-114716523D01*
X155508380Y-114668142D01*
X156427619Y-113700523D02*
X156427619Y-114281095D01*
X156427619Y-113990809D02*
X155411619Y-113990809D01*
X155556761Y-114087571D01*
X155653523Y-114184333D01*
X155701904Y-114281095D01*
X155411619Y-113071571D02*
X155411619Y-112974809D01*
X155460000Y-112878047D01*
X155508380Y-112829666D01*
X155605142Y-112781285D01*
X155798666Y-112732904D01*
X156040571Y-112732904D01*
X156234095Y-112781285D01*
X156330857Y-112829666D01*
X156379238Y-112878047D01*
X156427619Y-112974809D01*
X156427619Y-113071571D01*
X156379238Y-113168333D01*
X156330857Y-113216714D01*
X156234095Y-113265095D01*
X156040571Y-113313476D01*
X155798666Y-113313476D01*
X155605142Y-113265095D01*
X155508380Y-113216714D01*
X155460000Y-113168333D01*
X155411619Y-113071571D01*
X145424857Y-92607857D02*
X145376476Y-92656238D01*
X145231333Y-92704619D01*
X145134571Y-92704619D01*
X144989428Y-92656238D01*
X144892666Y-92559476D01*
X144844285Y-92462714D01*
X144795904Y-92269190D01*
X144795904Y-92124047D01*
X144844285Y-91930523D01*
X144892666Y-91833761D01*
X144989428Y-91737000D01*
X145134571Y-91688619D01*
X145231333Y-91688619D01*
X145376476Y-91737000D01*
X145424857Y-91785380D01*
X146392476Y-92704619D02*
X145811904Y-92704619D01*
X146102190Y-92704619D02*
X146102190Y-91688619D01*
X146005428Y-91833761D01*
X145908666Y-91930523D01*
X145811904Y-91978904D01*
X147360095Y-92704619D02*
X146779523Y-92704619D01*
X147069809Y-92704619D02*
X147069809Y-91688619D01*
X146973047Y-91833761D01*
X146876285Y-91930523D01*
X146779523Y-91978904D01*
X132144857Y-94577857D02*
X132096476Y-94626238D01*
X131951333Y-94674619D01*
X131854571Y-94674619D01*
X131709428Y-94626238D01*
X131612666Y-94529476D01*
X131564285Y-94432714D01*
X131515904Y-94239190D01*
X131515904Y-94094047D01*
X131564285Y-93900523D01*
X131612666Y-93803761D01*
X131709428Y-93707000D01*
X131854571Y-93658619D01*
X131951333Y-93658619D01*
X132096476Y-93707000D01*
X132144857Y-93755380D01*
X133112476Y-94674619D02*
X132531904Y-94674619D01*
X132822190Y-94674619D02*
X132822190Y-93658619D01*
X132725428Y-93803761D01*
X132628666Y-93900523D01*
X132531904Y-93948904D01*
X133499523Y-93755380D02*
X133547904Y-93707000D01*
X133644666Y-93658619D01*
X133886571Y-93658619D01*
X133983333Y-93707000D01*
X134031714Y-93755380D01*
X134080095Y-93852142D01*
X134080095Y-93948904D01*
X134031714Y-94094047D01*
X133451142Y-94674619D01*
X134080095Y-94674619D01*
X128444857Y-109227857D02*
X128396476Y-109276238D01*
X128251333Y-109324619D01*
X128154571Y-109324619D01*
X128009428Y-109276238D01*
X127912666Y-109179476D01*
X127864285Y-109082714D01*
X127815904Y-108889190D01*
X127815904Y-108744047D01*
X127864285Y-108550523D01*
X127912666Y-108453761D01*
X128009428Y-108357000D01*
X128154571Y-108308619D01*
X128251333Y-108308619D01*
X128396476Y-108357000D01*
X128444857Y-108405380D01*
X129412476Y-109324619D02*
X128831904Y-109324619D01*
X129122190Y-109324619D02*
X129122190Y-108308619D01*
X129025428Y-108453761D01*
X128928666Y-108550523D01*
X128831904Y-108598904D01*
X129751142Y-108308619D02*
X130380095Y-108308619D01*
X130041428Y-108695666D01*
X130186571Y-108695666D01*
X130283333Y-108744047D01*
X130331714Y-108792428D01*
X130380095Y-108889190D01*
X130380095Y-109131095D01*
X130331714Y-109227857D01*
X130283333Y-109276238D01*
X130186571Y-109324619D01*
X129896285Y-109324619D01*
X129799523Y-109276238D01*
X129751142Y-109227857D01*
X126133857Y-96577857D02*
X126085476Y-96626238D01*
X125940333Y-96674619D01*
X125843571Y-96674619D01*
X125698428Y-96626238D01*
X125601666Y-96529476D01*
X125553285Y-96432714D01*
X125504904Y-96239190D01*
X125504904Y-96094047D01*
X125553285Y-95900523D01*
X125601666Y-95803761D01*
X125698428Y-95707000D01*
X125843571Y-95658619D01*
X125940333Y-95658619D01*
X126085476Y-95707000D01*
X126133857Y-95755380D01*
X127101476Y-96674619D02*
X126520904Y-96674619D01*
X126811190Y-96674619D02*
X126811190Y-95658619D01*
X126714428Y-95803761D01*
X126617666Y-95900523D01*
X126520904Y-95948904D01*
X127972333Y-95997285D02*
X127972333Y-96674619D01*
X127730428Y-95610238D02*
X127488523Y-96335952D01*
X128117476Y-96335952D01*
X152344857Y-118827857D02*
X152296476Y-118876238D01*
X152151333Y-118924619D01*
X152054571Y-118924619D01*
X151909428Y-118876238D01*
X151812666Y-118779476D01*
X151764285Y-118682714D01*
X151715904Y-118489190D01*
X151715904Y-118344047D01*
X151764285Y-118150523D01*
X151812666Y-118053761D01*
X151909428Y-117957000D01*
X152054571Y-117908619D01*
X152151333Y-117908619D01*
X152296476Y-117957000D01*
X152344857Y-118005380D01*
X153312476Y-118924619D02*
X152731904Y-118924619D01*
X153022190Y-118924619D02*
X153022190Y-117908619D01*
X152925428Y-118053761D01*
X152828666Y-118150523D01*
X152731904Y-118198904D01*
X154231714Y-117908619D02*
X153747904Y-117908619D01*
X153699523Y-118392428D01*
X153747904Y-118344047D01*
X153844666Y-118295666D01*
X154086571Y-118295666D01*
X154183333Y-118344047D01*
X154231714Y-118392428D01*
X154280095Y-118489190D01*
X154280095Y-118731095D01*
X154231714Y-118827857D01*
X154183333Y-118876238D01*
X154086571Y-118924619D01*
X153844666Y-118924619D01*
X153747904Y-118876238D01*
X153699523Y-118827857D01*
X140444857Y-118927857D02*
X140396476Y-118976238D01*
X140251333Y-119024619D01*
X140154571Y-119024619D01*
X140009428Y-118976238D01*
X139912666Y-118879476D01*
X139864285Y-118782714D01*
X139815904Y-118589190D01*
X139815904Y-118444047D01*
X139864285Y-118250523D01*
X139912666Y-118153761D01*
X140009428Y-118057000D01*
X140154571Y-118008619D01*
X140251333Y-118008619D01*
X140396476Y-118057000D01*
X140444857Y-118105380D01*
X141412476Y-119024619D02*
X140831904Y-119024619D01*
X141122190Y-119024619D02*
X141122190Y-118008619D01*
X141025428Y-118153761D01*
X140928666Y-118250523D01*
X140831904Y-118298904D01*
X142283333Y-118008619D02*
X142089809Y-118008619D01*
X141993047Y-118057000D01*
X141944666Y-118105380D01*
X141847904Y-118250523D01*
X141799523Y-118444047D01*
X141799523Y-118831095D01*
X141847904Y-118927857D01*
X141896285Y-118976238D01*
X141993047Y-119024619D01*
X142186571Y-119024619D01*
X142283333Y-118976238D01*
X142331714Y-118927857D01*
X142380095Y-118831095D01*
X142380095Y-118589190D01*
X142331714Y-118492428D01*
X142283333Y-118444047D01*
X142186571Y-118395666D01*
X141993047Y-118395666D01*
X141896285Y-118444047D01*
X141847904Y-118492428D01*
X141799523Y-118589190D01*
X177078666Y-104507857D02*
X177030285Y-104556238D01*
X176885142Y-104604619D01*
X176788380Y-104604619D01*
X176643238Y-104556238D01*
X176546476Y-104459476D01*
X176498095Y-104362714D01*
X176449714Y-104169190D01*
X176449714Y-104024047D01*
X176498095Y-103830523D01*
X176546476Y-103733761D01*
X176643238Y-103637000D01*
X176788380Y-103588619D01*
X176885142Y-103588619D01*
X177030285Y-103637000D01*
X177078666Y-103685380D01*
X178046285Y-104604619D02*
X177465714Y-104604619D01*
X177756000Y-104604619D02*
X177756000Y-103588619D01*
X177659238Y-103733761D01*
X177562476Y-103830523D01*
X177465714Y-103878904D01*
X176928666Y-110227857D02*
X176880285Y-110276238D01*
X176735142Y-110324619D01*
X176638380Y-110324619D01*
X176493238Y-110276238D01*
X176396476Y-110179476D01*
X176348095Y-110082714D01*
X176299714Y-109889190D01*
X176299714Y-109744047D01*
X176348095Y-109550523D01*
X176396476Y-109453761D01*
X176493238Y-109357000D01*
X176638380Y-109308619D01*
X176735142Y-109308619D01*
X176880285Y-109357000D01*
X176928666Y-109405380D01*
X177412476Y-110324619D02*
X177606000Y-110324619D01*
X177702761Y-110276238D01*
X177751142Y-110227857D01*
X177847904Y-110082714D01*
X177896285Y-109889190D01*
X177896285Y-109502142D01*
X177847904Y-109405380D01*
X177799523Y-109357000D01*
X177702761Y-109308619D01*
X177509238Y-109308619D01*
X177412476Y-109357000D01*
X177364095Y-109405380D01*
X177315714Y-109502142D01*
X177315714Y-109744047D01*
X177364095Y-109840809D01*
X177412476Y-109889190D01*
X177509238Y-109937571D01*
X177702761Y-109937571D01*
X177799523Y-109889190D01*
X177847904Y-109840809D01*
X177896285Y-109744047D01*
X129348095Y-122324619D02*
X129348095Y-121308619D01*
X129590000Y-121308619D01*
X129735142Y-121357000D01*
X129831904Y-121453761D01*
X129880285Y-121550523D01*
X129928666Y-121744047D01*
X129928666Y-121889190D01*
X129880285Y-122082714D01*
X129831904Y-122179476D01*
X129735142Y-122276238D01*
X129590000Y-122324619D01*
X129348095Y-122324619D01*
X130896285Y-122324619D02*
X130315714Y-122324619D01*
X130606000Y-122324619D02*
X130606000Y-121308619D01*
X130509238Y-121453761D01*
X130412476Y-121550523D01*
X130315714Y-121598904D01*
D17*
X171074666Y-88069523D02*
X171074666Y-88976666D01*
X171014190Y-89158095D01*
X170893238Y-89279047D01*
X170711809Y-89339523D01*
X170590857Y-89339523D01*
X172344666Y-89339523D02*
X171618952Y-89339523D01*
X171981809Y-89339523D02*
X171981809Y-88069523D01*
X171860857Y-88250952D01*
X171739904Y-88371904D01*
X171618952Y-88432380D01*
D14*
X121970380Y-113148333D02*
X122684666Y-113148333D01*
X122827523Y-113195952D01*
X122922761Y-113291190D01*
X122970380Y-113434047D01*
X122970380Y-113529285D01*
X122065619Y-112719761D02*
X122018000Y-112672142D01*
X121970380Y-112576904D01*
X121970380Y-112338809D01*
X122018000Y-112243571D01*
X122065619Y-112195952D01*
X122160857Y-112148333D01*
X122256095Y-112148333D01*
X122398952Y-112195952D01*
X122970380Y-112767380D01*
X122970380Y-112148333D01*
D24*
X148828666Y-118924619D02*
X148344857Y-118924619D01*
X148344857Y-117908619D01*
X149699523Y-118924619D02*
X149118952Y-118924619D01*
X149409238Y-118924619D02*
X149409238Y-117908619D01*
X149312476Y-118053761D01*
X149215714Y-118150523D01*
X149118952Y-118198904D01*
X144828666Y-118924619D02*
X144344857Y-118924619D01*
X144344857Y-117908619D01*
X145118952Y-118005380D02*
X145167333Y-117957000D01*
X145264095Y-117908619D01*
X145506000Y-117908619D01*
X145602761Y-117957000D01*
X145651142Y-118005380D01*
X145699523Y-118102142D01*
X145699523Y-118198904D01*
X145651142Y-118344047D01*
X145070571Y-118924619D01*
X145699523Y-118924619D01*
X173857619Y-115871533D02*
X173373809Y-116210200D01*
X173857619Y-116452104D02*
X172841619Y-116452104D01*
X172841619Y-116065057D01*
X172890000Y-115968295D01*
X172938380Y-115919914D01*
X173035142Y-115871533D01*
X173180285Y-115871533D01*
X173277047Y-115919914D01*
X173325428Y-115968295D01*
X173373809Y-116065057D01*
X173373809Y-116452104D01*
X172938380Y-115484485D02*
X172890000Y-115436104D01*
X172841619Y-115339342D01*
X172841619Y-115097438D01*
X172890000Y-115000676D01*
X172938380Y-114952295D01*
X173035142Y-114903914D01*
X173131904Y-114903914D01*
X173277047Y-114952295D01*
X173857619Y-115532866D01*
X173857619Y-114903914D01*
X163357619Y-116571533D02*
X162873809Y-116910200D01*
X163357619Y-117152104D02*
X162341619Y-117152104D01*
X162341619Y-116765057D01*
X162390000Y-116668295D01*
X162438380Y-116619914D01*
X162535142Y-116571533D01*
X162680285Y-116571533D01*
X162777047Y-116619914D01*
X162825428Y-116668295D01*
X162873809Y-116765057D01*
X162873809Y-117152104D01*
X162341619Y-116232866D02*
X162341619Y-115603914D01*
X162728666Y-115942580D01*
X162728666Y-115797438D01*
X162777047Y-115700676D01*
X162825428Y-115652295D01*
X162922190Y-115603914D01*
X163164095Y-115603914D01*
X163260857Y-115652295D01*
X163309238Y-115700676D01*
X163357619Y-115797438D01*
X163357619Y-116087723D01*
X163309238Y-116184485D01*
X163260857Y-116232866D01*
X163257619Y-120063133D02*
X162773809Y-120401800D01*
X163257619Y-120643704D02*
X162241619Y-120643704D01*
X162241619Y-120256657D01*
X162290000Y-120159895D01*
X162338380Y-120111514D01*
X162435142Y-120063133D01*
X162580285Y-120063133D01*
X162677047Y-120111514D01*
X162725428Y-120159895D01*
X162773809Y-120256657D01*
X162773809Y-120643704D01*
X162580285Y-119192276D02*
X163257619Y-119192276D01*
X162193238Y-119434180D02*
X162918952Y-119676085D01*
X162918952Y-119047133D01*
X176844857Y-112024619D02*
X176506190Y-111540809D01*
X176264285Y-112024619D02*
X176264285Y-111008619D01*
X176651333Y-111008619D01*
X176748095Y-111057000D01*
X176796476Y-111105380D01*
X176844857Y-111202142D01*
X176844857Y-111347285D01*
X176796476Y-111444047D01*
X176748095Y-111492428D01*
X176651333Y-111540809D01*
X176264285Y-111540809D01*
X177183523Y-111008619D02*
X177860857Y-112024619D01*
X177860857Y-111008619D02*
X177183523Y-112024619D01*
X178780095Y-112024619D02*
X178199523Y-112024619D01*
X178489809Y-112024619D02*
X178489809Y-111008619D01*
X178393047Y-111153761D01*
X178296285Y-111250523D01*
X178199523Y-111298904D01*
X133728666Y-122324619D02*
X133390000Y-121840809D01*
X133148095Y-122324619D02*
X133148095Y-121308619D01*
X133535142Y-121308619D01*
X133631904Y-121357000D01*
X133680285Y-121405380D01*
X133728666Y-121502142D01*
X133728666Y-121647285D01*
X133680285Y-121744047D01*
X133631904Y-121792428D01*
X133535142Y-121840809D01*
X133148095Y-121840809D01*
X134067333Y-121308619D02*
X134744666Y-121308619D01*
X134309238Y-122324619D01*
X169845097Y-96724619D02*
X169506430Y-96240809D01*
X169264525Y-96724619D02*
X169264525Y-95708619D01*
X169651573Y-95708619D01*
X169748335Y-95757000D01*
X169796716Y-95805380D01*
X169845097Y-95902142D01*
X169845097Y-96047285D01*
X169796716Y-96144047D01*
X169748335Y-96192428D01*
X169651573Y-96240809D01*
X169264525Y-96240809D01*
X170183763Y-95708619D02*
X170861097Y-96724619D01*
X170861097Y-95708619D02*
X170183763Y-96724619D01*
X171199763Y-95805380D02*
X171248144Y-95757000D01*
X171344906Y-95708619D01*
X171586811Y-95708619D01*
X171683573Y-95757000D01*
X171731954Y-95805380D01*
X171780335Y-95902142D01*
X171780335Y-95998904D01*
X171731954Y-96144047D01*
X171151382Y-96724619D01*
X171780335Y-96724619D01*
X169844857Y-94724619D02*
X169506190Y-94240809D01*
X169264285Y-94724619D02*
X169264285Y-93708619D01*
X169651333Y-93708619D01*
X169748095Y-93757000D01*
X169796476Y-93805380D01*
X169844857Y-93902142D01*
X169844857Y-94047285D01*
X169796476Y-94144047D01*
X169748095Y-94192428D01*
X169651333Y-94240809D01*
X169264285Y-94240809D01*
X170183523Y-93708619D02*
X170860857Y-94724619D01*
X170860857Y-93708619D02*
X170183523Y-94724619D01*
X171151142Y-93708619D02*
X171780095Y-93708619D01*
X171441428Y-94095666D01*
X171586571Y-94095666D01*
X171683333Y-94144047D01*
X171731714Y-94192428D01*
X171780095Y-94289190D01*
X171780095Y-94531095D01*
X171731714Y-94627857D01*
X171683333Y-94676238D01*
X171586571Y-94724619D01*
X171296285Y-94724619D01*
X171199523Y-94676238D01*
X171151142Y-94627857D01*
X122783857Y-94674619D02*
X122445190Y-94190809D01*
X122203285Y-94674619D02*
X122203285Y-93658619D01*
X122590333Y-93658619D01*
X122687095Y-93707000D01*
X122735476Y-93755380D01*
X122783857Y-93852142D01*
X122783857Y-93997285D01*
X122735476Y-94094047D01*
X122687095Y-94142428D01*
X122590333Y-94190809D01*
X122203285Y-94190809D01*
X123751476Y-94674619D02*
X123170904Y-94674619D01*
X123461190Y-94674619D02*
X123461190Y-93658619D01*
X123364428Y-93803761D01*
X123267666Y-93900523D01*
X123170904Y-93948904D01*
X124719095Y-94674619D02*
X124138523Y-94674619D01*
X124428809Y-94674619D02*
X124428809Y-93658619D01*
X124332047Y-93803761D01*
X124235285Y-93900523D01*
X124138523Y-93948904D01*
X145484857Y-91054619D02*
X145146190Y-90570809D01*
X144904285Y-91054619D02*
X144904285Y-90038619D01*
X145291333Y-90038619D01*
X145388095Y-90087000D01*
X145436476Y-90135380D01*
X145484857Y-90232142D01*
X145484857Y-90377285D01*
X145436476Y-90474047D01*
X145388095Y-90522428D01*
X145291333Y-90570809D01*
X144904285Y-90570809D01*
X146452476Y-91054619D02*
X145871904Y-91054619D01*
X146162190Y-91054619D02*
X146162190Y-90038619D01*
X146065428Y-90183761D01*
X145968666Y-90280523D01*
X145871904Y-90328904D01*
X146839523Y-90135380D02*
X146887904Y-90087000D01*
X146984666Y-90038619D01*
X147226571Y-90038619D01*
X147323333Y-90087000D01*
X147371714Y-90135380D01*
X147420095Y-90232142D01*
X147420095Y-90328904D01*
X147371714Y-90474047D01*
X146791142Y-91054619D01*
X147420095Y-91054619D01*
X145444857Y-89174619D02*
X145106190Y-88690809D01*
X144864285Y-89174619D02*
X144864285Y-88158619D01*
X145251333Y-88158619D01*
X145348095Y-88207000D01*
X145396476Y-88255380D01*
X145444857Y-88352142D01*
X145444857Y-88497285D01*
X145396476Y-88594047D01*
X145348095Y-88642428D01*
X145251333Y-88690809D01*
X144864285Y-88690809D01*
X146412476Y-89174619D02*
X145831904Y-89174619D01*
X146122190Y-89174619D02*
X146122190Y-88158619D01*
X146025428Y-88303761D01*
X145928666Y-88400523D01*
X145831904Y-88448904D01*
X146751142Y-88158619D02*
X147380095Y-88158619D01*
X147041428Y-88545666D01*
X147186571Y-88545666D01*
X147283333Y-88594047D01*
X147331714Y-88642428D01*
X147380095Y-88739190D01*
X147380095Y-88981095D01*
X147331714Y-89077857D01*
X147283333Y-89126238D01*
X147186571Y-89174619D01*
X146896285Y-89174619D01*
X146799523Y-89126238D01*
X146751142Y-89077857D01*
X146344857Y-85574619D02*
X146006190Y-85090809D01*
X145764285Y-85574619D02*
X145764285Y-84558619D01*
X146151333Y-84558619D01*
X146248095Y-84607000D01*
X146296476Y-84655380D01*
X146344857Y-84752142D01*
X146344857Y-84897285D01*
X146296476Y-84994047D01*
X146248095Y-85042428D01*
X146151333Y-85090809D01*
X145764285Y-85090809D01*
X147312476Y-85574619D02*
X146731904Y-85574619D01*
X147022190Y-85574619D02*
X147022190Y-84558619D01*
X146925428Y-84703761D01*
X146828666Y-84800523D01*
X146731904Y-84848904D01*
X148183333Y-84897285D02*
X148183333Y-85574619D01*
X147941428Y-84510238D02*
X147699523Y-85235952D01*
X148328476Y-85235952D01*
X145444857Y-87474619D02*
X145106190Y-86990809D01*
X144864285Y-87474619D02*
X144864285Y-86458619D01*
X145251333Y-86458619D01*
X145348095Y-86507000D01*
X145396476Y-86555380D01*
X145444857Y-86652142D01*
X145444857Y-86797285D01*
X145396476Y-86894047D01*
X145348095Y-86942428D01*
X145251333Y-86990809D01*
X144864285Y-86990809D01*
X146412476Y-87474619D02*
X145831904Y-87474619D01*
X146122190Y-87474619D02*
X146122190Y-86458619D01*
X146025428Y-86603761D01*
X145928666Y-86700523D01*
X145831904Y-86748904D01*
X147283333Y-86458619D02*
X147089809Y-86458619D01*
X146993047Y-86507000D01*
X146944666Y-86555380D01*
X146847904Y-86700523D01*
X146799523Y-86894047D01*
X146799523Y-87281095D01*
X146847904Y-87377857D01*
X146896285Y-87426238D01*
X146993047Y-87474619D01*
X147186571Y-87474619D01*
X147283333Y-87426238D01*
X147331714Y-87377857D01*
X147380095Y-87281095D01*
X147380095Y-87039190D01*
X147331714Y-86942428D01*
X147283333Y-86894047D01*
X147186571Y-86845666D01*
X146993047Y-86845666D01*
X146896285Y-86894047D01*
X146847904Y-86942428D01*
X146799523Y-87039190D01*
X128444857Y-111224619D02*
X128106190Y-110740809D01*
X127864285Y-111224619D02*
X127864285Y-110208619D01*
X128251333Y-110208619D01*
X128348095Y-110257000D01*
X128396476Y-110305380D01*
X128444857Y-110402142D01*
X128444857Y-110547285D01*
X128396476Y-110644047D01*
X128348095Y-110692428D01*
X128251333Y-110740809D01*
X127864285Y-110740809D01*
X129412476Y-111224619D02*
X128831904Y-111224619D01*
X129122190Y-111224619D02*
X129122190Y-110208619D01*
X129025428Y-110353761D01*
X128928666Y-110450523D01*
X128831904Y-110498904D01*
X129751142Y-110208619D02*
X130428476Y-110208619D01*
X129993047Y-111224619D01*
X149344857Y-89124619D02*
X149006190Y-88640809D01*
X148764285Y-89124619D02*
X148764285Y-88108619D01*
X149151333Y-88108619D01*
X149248095Y-88157000D01*
X149296476Y-88205380D01*
X149344857Y-88302142D01*
X149344857Y-88447285D01*
X149296476Y-88544047D01*
X149248095Y-88592428D01*
X149151333Y-88640809D01*
X148764285Y-88640809D01*
X150312476Y-89124619D02*
X149731904Y-89124619D01*
X150022190Y-89124619D02*
X150022190Y-88108619D01*
X149925428Y-88253761D01*
X149828666Y-88350523D01*
X149731904Y-88398904D01*
X151231714Y-88108619D02*
X150747904Y-88108619D01*
X150699523Y-88592428D01*
X150747904Y-88544047D01*
X150844666Y-88495666D01*
X151086571Y-88495666D01*
X151183333Y-88544047D01*
X151231714Y-88592428D01*
X151280095Y-88689190D01*
X151280095Y-88931095D01*
X151231714Y-89027857D01*
X151183333Y-89076238D01*
X151086571Y-89124619D01*
X150844666Y-89124619D01*
X150747904Y-89076238D01*
X150699523Y-89027857D01*
D14*
X176729809Y-106721190D02*
X176729809Y-107197380D01*
X176396476Y-106197380D02*
X176729809Y-106721190D01*
X177063142Y-106197380D01*
X177920285Y-107197380D02*
X177348857Y-107197380D01*
X177634571Y-107197380D02*
X177634571Y-106197380D01*
X177539333Y-106340238D01*
X177444095Y-106435476D01*
X177348857Y-106483095D01*
D24*
X163944857Y-90327857D02*
X163896476Y-90376238D01*
X163751333Y-90424619D01*
X163654571Y-90424619D01*
X163509428Y-90376238D01*
X163412666Y-90279476D01*
X163364285Y-90182714D01*
X163315904Y-89989190D01*
X163315904Y-89844047D01*
X163364285Y-89650523D01*
X163412666Y-89553761D01*
X163509428Y-89457000D01*
X163654571Y-89408619D01*
X163751333Y-89408619D01*
X163896476Y-89457000D01*
X163944857Y-89505380D01*
X164912476Y-90424619D02*
X164331904Y-90424619D01*
X164622190Y-90424619D02*
X164622190Y-89408619D01*
X164525428Y-89553761D01*
X164428666Y-89650523D01*
X164331904Y-89698904D01*
X165251142Y-89408619D02*
X165928476Y-89408619D01*
X165493047Y-90424619D01*
X129428666Y-113124619D02*
X129090000Y-112640809D01*
X128848095Y-113124619D02*
X128848095Y-112108619D01*
X129235142Y-112108619D01*
X129331904Y-112157000D01*
X129380285Y-112205380D01*
X129428666Y-112302142D01*
X129428666Y-112447285D01*
X129380285Y-112544047D01*
X129331904Y-112592428D01*
X129235142Y-112640809D01*
X128848095Y-112640809D01*
X130396285Y-113124619D02*
X129815714Y-113124619D01*
X130106000Y-113124619D02*
X130106000Y-112108619D01*
X130009238Y-112253761D01*
X129912476Y-112350523D01*
X129815714Y-112398904D01*
D18*
X163067428Y-80947714D02*
X163067428Y-81564571D01*
X163103714Y-81637142D01*
X163140000Y-81673428D01*
X163212571Y-81709714D01*
X163357714Y-81709714D01*
X163430285Y-81673428D01*
X163466571Y-81637142D01*
X163502857Y-81564571D01*
X163502857Y-80947714D01*
X164192285Y-81201714D02*
X164192285Y-81709714D01*
X164010857Y-80911428D02*
X163829428Y-81455714D01*
X164301142Y-81455714D01*
D24*
X143810857Y-83719922D02*
X143859238Y-83768303D01*
X143907619Y-83913446D01*
X143907619Y-84010208D01*
X143859238Y-84155351D01*
X143762476Y-84252113D01*
X143665714Y-84300494D01*
X143472190Y-84348875D01*
X143327047Y-84348875D01*
X143133523Y-84300494D01*
X143036761Y-84252113D01*
X142940000Y-84155351D01*
X142891619Y-84010208D01*
X142891619Y-83913446D01*
X142940000Y-83768303D01*
X142988380Y-83719922D01*
X143907619Y-82752303D02*
X143907619Y-83332875D01*
X143907619Y-83042589D02*
X142891619Y-83042589D01*
X143036761Y-83139351D01*
X143133523Y-83236113D01*
X143181904Y-83332875D01*
X143907619Y-82268494D02*
X143907619Y-82074970D01*
X143859238Y-81978208D01*
X143810857Y-81929827D01*
X143665714Y-81833065D01*
X143472190Y-81784684D01*
X143085142Y-81784684D01*
X142988380Y-81833065D01*
X142940000Y-81881446D01*
X142891619Y-81978208D01*
X142891619Y-82171732D01*
X142940000Y-82268494D01*
X142988380Y-82316875D01*
X143085142Y-82365256D01*
X143327047Y-82365256D01*
X143423809Y-82316875D01*
X143472190Y-82268494D01*
X143520571Y-82171732D01*
X143520571Y-81978208D01*
X143472190Y-81881446D01*
X143423809Y-81833065D01*
X143327047Y-81784684D01*
D14*
X123187428Y-77598714D02*
X121663428Y-77598714D01*
X122752000Y-77090714D01*
X121663428Y-76582714D01*
X123187428Y-76582714D01*
X123187428Y-75058714D02*
X123187428Y-75929571D01*
X123187428Y-75494142D02*
X121663428Y-75494142D01*
X121881142Y-75639285D01*
X122026285Y-75784428D01*
X122098857Y-75929571D01*
D24*
X147354906Y-83824619D02*
X147016240Y-83340809D01*
X146774335Y-83824619D02*
X146774335Y-82808619D01*
X147161382Y-82808619D01*
X147258144Y-82857000D01*
X147306525Y-82905380D01*
X147354906Y-83002142D01*
X147354906Y-83147285D01*
X147306525Y-83244047D01*
X147258144Y-83292428D01*
X147161382Y-83340809D01*
X146774335Y-83340809D01*
X148274144Y-82808619D02*
X147790335Y-82808619D01*
X147741954Y-83292428D01*
X147790335Y-83244047D01*
X147887097Y-83195666D01*
X148129001Y-83195666D01*
X148225763Y-83244047D01*
X148274144Y-83292428D01*
X148322525Y-83389190D01*
X148322525Y-83631095D01*
X148274144Y-83727857D01*
X148225763Y-83776238D01*
X148129001Y-83824619D01*
X147887097Y-83824619D01*
X147790335Y-83776238D01*
X147741954Y-83727857D01*
X147278666Y-81874619D02*
X146940000Y-81390809D01*
X146698095Y-81874619D02*
X146698095Y-80858619D01*
X147085142Y-80858619D01*
X147181904Y-80907000D01*
X147230285Y-80955380D01*
X147278666Y-81052142D01*
X147278666Y-81197285D01*
X147230285Y-81294047D01*
X147181904Y-81342428D01*
X147085142Y-81390809D01*
X146698095Y-81390809D01*
X148149523Y-80858619D02*
X147956000Y-80858619D01*
X147859238Y-80907000D01*
X147810857Y-80955380D01*
X147714095Y-81100523D01*
X147665714Y-81294047D01*
X147665714Y-81681095D01*
X147714095Y-81777857D01*
X147762476Y-81826238D01*
X147859238Y-81874619D01*
X148052761Y-81874619D01*
X148149523Y-81826238D01*
X148197904Y-81777857D01*
X148246285Y-81681095D01*
X148246285Y-81439190D01*
X148197904Y-81342428D01*
X148149523Y-81294047D01*
X148052761Y-81245666D01*
X147859238Y-81245666D01*
X147762476Y-81294047D01*
X147714095Y-81342428D01*
X147665714Y-81439190D01*
X153428666Y-85624619D02*
X153090000Y-85140809D01*
X152848095Y-85624619D02*
X152848095Y-84608619D01*
X153235142Y-84608619D01*
X153331904Y-84657000D01*
X153380285Y-84705380D01*
X153428666Y-84802142D01*
X153428666Y-84947285D01*
X153380285Y-85044047D01*
X153331904Y-85092428D01*
X153235142Y-85140809D01*
X152848095Y-85140809D01*
X154009238Y-85044047D02*
X153912476Y-84995666D01*
X153864095Y-84947285D01*
X153815714Y-84850523D01*
X153815714Y-84802142D01*
X153864095Y-84705380D01*
X153912476Y-84657000D01*
X154009238Y-84608619D01*
X154202761Y-84608619D01*
X154299523Y-84657000D01*
X154347904Y-84705380D01*
X154396285Y-84802142D01*
X154396285Y-84850523D01*
X154347904Y-84947285D01*
X154299523Y-84995666D01*
X154202761Y-85044047D01*
X154009238Y-85044047D01*
X153912476Y-85092428D01*
X153864095Y-85140809D01*
X153815714Y-85237571D01*
X153815714Y-85431095D01*
X153864095Y-85527857D01*
X153912476Y-85576238D01*
X154009238Y-85624619D01*
X154202761Y-85624619D01*
X154299523Y-85576238D01*
X154347904Y-85527857D01*
X154396285Y-85431095D01*
X154396285Y-85237571D01*
X154347904Y-85140809D01*
X154299523Y-85092428D01*
X154202761Y-85044047D01*
X153454906Y-87474619D02*
X153116240Y-86990809D01*
X152874335Y-87474619D02*
X152874335Y-86458619D01*
X153261382Y-86458619D01*
X153358144Y-86507000D01*
X153406525Y-86555380D01*
X153454906Y-86652142D01*
X153454906Y-86797285D01*
X153406525Y-86894047D01*
X153358144Y-86942428D01*
X153261382Y-86990809D01*
X152874335Y-86990809D01*
X153938716Y-87474619D02*
X154132240Y-87474619D01*
X154229001Y-87426238D01*
X154277382Y-87377857D01*
X154374144Y-87232714D01*
X154422525Y-87039190D01*
X154422525Y-86652142D01*
X154374144Y-86555380D01*
X154325763Y-86507000D01*
X154229001Y-86458619D01*
X154035478Y-86458619D01*
X153938716Y-86507000D01*
X153890335Y-86555380D01*
X153841954Y-86652142D01*
X153841954Y-86894047D01*
X153890335Y-86990809D01*
X153938716Y-87039190D01*
X154035478Y-87087571D01*
X154229001Y-87087571D01*
X154325763Y-87039190D01*
X154374144Y-86990809D01*
X154422525Y-86894047D01*
X152494857Y-82024619D02*
X152156190Y-81540809D01*
X151914285Y-82024619D02*
X151914285Y-81008619D01*
X152301333Y-81008619D01*
X152398095Y-81057000D01*
X152446476Y-81105380D01*
X152494857Y-81202142D01*
X152494857Y-81347285D01*
X152446476Y-81444047D01*
X152398095Y-81492428D01*
X152301333Y-81540809D01*
X151914285Y-81540809D01*
X153462476Y-82024619D02*
X152881904Y-82024619D01*
X153172190Y-82024619D02*
X153172190Y-81008619D01*
X153075428Y-81153761D01*
X152978666Y-81250523D01*
X152881904Y-81298904D01*
X154091428Y-81008619D02*
X154188190Y-81008619D01*
X154284952Y-81057000D01*
X154333333Y-81105380D01*
X154381714Y-81202142D01*
X154430095Y-81395666D01*
X154430095Y-81637571D01*
X154381714Y-81831095D01*
X154333333Y-81927857D01*
X154284952Y-81976238D01*
X154188190Y-82024619D01*
X154091428Y-82024619D01*
X153994666Y-81976238D01*
X153946285Y-81927857D01*
X153897904Y-81831095D01*
X153849523Y-81637571D01*
X153849523Y-81395666D01*
X153897904Y-81202142D01*
X153946285Y-81105380D01*
X153994666Y-81057000D01*
X154091428Y-81008619D01*
X163894857Y-92274619D02*
X163556190Y-91790809D01*
X163314285Y-92274619D02*
X163314285Y-91258619D01*
X163701333Y-91258619D01*
X163798095Y-91307000D01*
X163846476Y-91355380D01*
X163894857Y-91452142D01*
X163894857Y-91597285D01*
X163846476Y-91694047D01*
X163798095Y-91742428D01*
X163701333Y-91790809D01*
X163314285Y-91790809D01*
X164862476Y-92274619D02*
X164281904Y-92274619D01*
X164572190Y-92274619D02*
X164572190Y-91258619D01*
X164475428Y-91403761D01*
X164378666Y-91500523D01*
X164281904Y-91548904D01*
X165443047Y-91694047D02*
X165346285Y-91645666D01*
X165297904Y-91597285D01*
X165249523Y-91500523D01*
X165249523Y-91452142D01*
X165297904Y-91355380D01*
X165346285Y-91307000D01*
X165443047Y-91258619D01*
X165636571Y-91258619D01*
X165733333Y-91307000D01*
X165781714Y-91355380D01*
X165830095Y-91452142D01*
X165830095Y-91500523D01*
X165781714Y-91597285D01*
X165733333Y-91645666D01*
X165636571Y-91694047D01*
X165443047Y-91694047D01*
X165346285Y-91742428D01*
X165297904Y-91790809D01*
X165249523Y-91887571D01*
X165249523Y-92081095D01*
X165297904Y-92177857D01*
X165346285Y-92226238D01*
X165443047Y-92274619D01*
X165636571Y-92274619D01*
X165733333Y-92226238D01*
X165781714Y-92177857D01*
X165830095Y-92081095D01*
X165830095Y-91887571D01*
X165781714Y-91790809D01*
X165733333Y-91742428D01*
X165636571Y-91694047D01*
X152494857Y-83774619D02*
X152156190Y-83290809D01*
X151914285Y-83774619D02*
X151914285Y-82758619D01*
X152301333Y-82758619D01*
X152398095Y-82807000D01*
X152446476Y-82855380D01*
X152494857Y-82952142D01*
X152494857Y-83097285D01*
X152446476Y-83194047D01*
X152398095Y-83242428D01*
X152301333Y-83290809D01*
X151914285Y-83290809D01*
X153462476Y-83774619D02*
X152881904Y-83774619D01*
X153172190Y-83774619D02*
X153172190Y-82758619D01*
X153075428Y-82903761D01*
X152978666Y-83000523D01*
X152881904Y-83048904D01*
X153946285Y-83774619D02*
X154139809Y-83774619D01*
X154236571Y-83726238D01*
X154284952Y-83677857D01*
X154381714Y-83532714D01*
X154430095Y-83339190D01*
X154430095Y-82952142D01*
X154381714Y-82855380D01*
X154333333Y-82807000D01*
X154236571Y-82758619D01*
X154043047Y-82758619D01*
X153946285Y-82807000D01*
X153897904Y-82855380D01*
X153849523Y-82952142D01*
X153849523Y-83194047D01*
X153897904Y-83290809D01*
X153946285Y-83339190D01*
X154043047Y-83387571D01*
X154236571Y-83387571D01*
X154333333Y-83339190D01*
X154381714Y-83290809D01*
X154430095Y-83194047D01*
D25*
X160067738Y-119605452D02*
X160140309Y-119605452D01*
X160104023Y-119732452D02*
X160104023Y-119605452D01*
X160182642Y-119732452D02*
X160182642Y-119605452D01*
X160231023Y-119605452D01*
X160243119Y-119611500D01*
X160249166Y-119617547D01*
X160255214Y-119629642D01*
X160255214Y-119647785D01*
X160249166Y-119659880D01*
X160243119Y-119665928D01*
X160231023Y-119671976D01*
X160182642Y-119671976D01*
X160376166Y-119732452D02*
X160303595Y-119732452D01*
X160339880Y-119732452D02*
X160339880Y-119605452D01*
X160327785Y-119623595D01*
X160315690Y-119635690D01*
X160303595Y-119641738D01*
X159804666Y-119905452D02*
X159877238Y-119905452D01*
X159840952Y-120032452D02*
X159840952Y-119905452D01*
X159967952Y-120026404D02*
X159955857Y-120032452D01*
X159931666Y-120032452D01*
X159919571Y-120026404D01*
X159913523Y-120014309D01*
X159913523Y-119965928D01*
X159919571Y-119953833D01*
X159931666Y-119947785D01*
X159955857Y-119947785D01*
X159967952Y-119953833D01*
X159974000Y-119965928D01*
X159974000Y-119978023D01*
X159913523Y-119990119D01*
X160022380Y-120026404D02*
X160034476Y-120032452D01*
X160058666Y-120032452D01*
X160070761Y-120026404D01*
X160076809Y-120014309D01*
X160076809Y-120008261D01*
X160070761Y-119996166D01*
X160058666Y-119990119D01*
X160040523Y-119990119D01*
X160028428Y-119984071D01*
X160022380Y-119971976D01*
X160022380Y-119965928D01*
X160028428Y-119953833D01*
X160040523Y-119947785D01*
X160058666Y-119947785D01*
X160070761Y-119953833D01*
X160113095Y-119947785D02*
X160161476Y-119947785D01*
X160131238Y-119905452D02*
X160131238Y-120014309D01*
X160137285Y-120026404D01*
X160149380Y-120032452D01*
X160161476Y-120032452D01*
X160203809Y-120032452D02*
X160203809Y-119905452D01*
X160252190Y-119905452D01*
X160264285Y-119911500D01*
X160270333Y-119917547D01*
X160276380Y-119929642D01*
X160276380Y-119947785D01*
X160270333Y-119959880D01*
X160264285Y-119965928D01*
X160252190Y-119971976D01*
X160203809Y-119971976D01*
X160348952Y-120032452D02*
X160336857Y-120026404D01*
X160330809Y-120020357D01*
X160324761Y-120008261D01*
X160324761Y-119971976D01*
X160330809Y-119959880D01*
X160336857Y-119953833D01*
X160348952Y-119947785D01*
X160367095Y-119947785D01*
X160379190Y-119953833D01*
X160385238Y-119959880D01*
X160391285Y-119971976D01*
X160391285Y-120008261D01*
X160385238Y-120020357D01*
X160379190Y-120026404D01*
X160367095Y-120032452D01*
X160348952Y-120032452D01*
X160445714Y-120032452D02*
X160445714Y-119947785D01*
X160445714Y-119905452D02*
X160439666Y-119911500D01*
X160445714Y-119917547D01*
X160451761Y-119911500D01*
X160445714Y-119905452D01*
X160445714Y-119917547D01*
X160506190Y-119947785D02*
X160506190Y-120032452D01*
X160506190Y-119959880D02*
X160512238Y-119953833D01*
X160524333Y-119947785D01*
X160542476Y-119947785D01*
X160554571Y-119953833D01*
X160560619Y-119965928D01*
X160560619Y-120032452D01*
X160602952Y-119947785D02*
X160651333Y-119947785D01*
X160621095Y-119905452D02*
X160621095Y-120014309D01*
X160627142Y-120026404D01*
X160639238Y-120032452D01*
X160651333Y-120032452D01*
X156527738Y-119565452D02*
X156600309Y-119565452D01*
X156564023Y-119692452D02*
X156564023Y-119565452D01*
X156642642Y-119692452D02*
X156642642Y-119565452D01*
X156691023Y-119565452D01*
X156703119Y-119571500D01*
X156709166Y-119577547D01*
X156715214Y-119589642D01*
X156715214Y-119607785D01*
X156709166Y-119619880D01*
X156703119Y-119625928D01*
X156691023Y-119631976D01*
X156642642Y-119631976D01*
X156763595Y-119577547D02*
X156769642Y-119571500D01*
X156781738Y-119565452D01*
X156811976Y-119565452D01*
X156824071Y-119571500D01*
X156830119Y-119577547D01*
X156836166Y-119589642D01*
X156836166Y-119601738D01*
X156830119Y-119619880D01*
X156757547Y-119692452D01*
X156836166Y-119692452D01*
X156264666Y-119865452D02*
X156337238Y-119865452D01*
X156300952Y-119992452D02*
X156300952Y-119865452D01*
X156427952Y-119986404D02*
X156415857Y-119992452D01*
X156391666Y-119992452D01*
X156379571Y-119986404D01*
X156373523Y-119974309D01*
X156373523Y-119925928D01*
X156379571Y-119913833D01*
X156391666Y-119907785D01*
X156415857Y-119907785D01*
X156427952Y-119913833D01*
X156434000Y-119925928D01*
X156434000Y-119938023D01*
X156373523Y-119950119D01*
X156482380Y-119986404D02*
X156494476Y-119992452D01*
X156518666Y-119992452D01*
X156530761Y-119986404D01*
X156536809Y-119974309D01*
X156536809Y-119968261D01*
X156530761Y-119956166D01*
X156518666Y-119950119D01*
X156500523Y-119950119D01*
X156488428Y-119944071D01*
X156482380Y-119931976D01*
X156482380Y-119925928D01*
X156488428Y-119913833D01*
X156500523Y-119907785D01*
X156518666Y-119907785D01*
X156530761Y-119913833D01*
X156573095Y-119907785D02*
X156621476Y-119907785D01*
X156591238Y-119865452D02*
X156591238Y-119974309D01*
X156597285Y-119986404D01*
X156609380Y-119992452D01*
X156621476Y-119992452D01*
X156663809Y-119992452D02*
X156663809Y-119865452D01*
X156712190Y-119865452D01*
X156724285Y-119871500D01*
X156730333Y-119877547D01*
X156736380Y-119889642D01*
X156736380Y-119907785D01*
X156730333Y-119919880D01*
X156724285Y-119925928D01*
X156712190Y-119931976D01*
X156663809Y-119931976D01*
X156808952Y-119992452D02*
X156796857Y-119986404D01*
X156790809Y-119980357D01*
X156784761Y-119968261D01*
X156784761Y-119931976D01*
X156790809Y-119919880D01*
X156796857Y-119913833D01*
X156808952Y-119907785D01*
X156827095Y-119907785D01*
X156839190Y-119913833D01*
X156845238Y-119919880D01*
X156851285Y-119931976D01*
X156851285Y-119968261D01*
X156845238Y-119980357D01*
X156839190Y-119986404D01*
X156827095Y-119992452D01*
X156808952Y-119992452D01*
X156905714Y-119992452D02*
X156905714Y-119907785D01*
X156905714Y-119865452D02*
X156899666Y-119871500D01*
X156905714Y-119877547D01*
X156911761Y-119871500D01*
X156905714Y-119865452D01*
X156905714Y-119877547D01*
X156966190Y-119907785D02*
X156966190Y-119992452D01*
X156966190Y-119919880D02*
X156972238Y-119913833D01*
X156984333Y-119907785D01*
X157002476Y-119907785D01*
X157014571Y-119913833D01*
X157020619Y-119925928D01*
X157020619Y-119992452D01*
X157062952Y-119907785D02*
X157111333Y-119907785D01*
X157081095Y-119865452D02*
X157081095Y-119974309D01*
X157087142Y-119986404D01*
X157099238Y-119992452D01*
X157111333Y-119992452D01*
X152167738Y-116135452D02*
X152240309Y-116135452D01*
X152204023Y-116262452D02*
X152204023Y-116135452D01*
X152282642Y-116262452D02*
X152282642Y-116135452D01*
X152331023Y-116135452D01*
X152343119Y-116141500D01*
X152349166Y-116147547D01*
X152355214Y-116159642D01*
X152355214Y-116177785D01*
X152349166Y-116189880D01*
X152343119Y-116195928D01*
X152331023Y-116201976D01*
X152282642Y-116201976D01*
X152397547Y-116135452D02*
X152476166Y-116135452D01*
X152433833Y-116183833D01*
X152451976Y-116183833D01*
X152464071Y-116189880D01*
X152470119Y-116195928D01*
X152476166Y-116208023D01*
X152476166Y-116238261D01*
X152470119Y-116250357D01*
X152464071Y-116256404D01*
X152451976Y-116262452D01*
X152415690Y-116262452D01*
X152403595Y-116256404D01*
X152397547Y-116250357D01*
X151904666Y-116435452D02*
X151977238Y-116435452D01*
X151940952Y-116562452D02*
X151940952Y-116435452D01*
X152067952Y-116556404D02*
X152055857Y-116562452D01*
X152031666Y-116562452D01*
X152019571Y-116556404D01*
X152013523Y-116544309D01*
X152013523Y-116495928D01*
X152019571Y-116483833D01*
X152031666Y-116477785D01*
X152055857Y-116477785D01*
X152067952Y-116483833D01*
X152074000Y-116495928D01*
X152074000Y-116508023D01*
X152013523Y-116520119D01*
X152122380Y-116556404D02*
X152134476Y-116562452D01*
X152158666Y-116562452D01*
X152170761Y-116556404D01*
X152176809Y-116544309D01*
X152176809Y-116538261D01*
X152170761Y-116526166D01*
X152158666Y-116520119D01*
X152140523Y-116520119D01*
X152128428Y-116514071D01*
X152122380Y-116501976D01*
X152122380Y-116495928D01*
X152128428Y-116483833D01*
X152140523Y-116477785D01*
X152158666Y-116477785D01*
X152170761Y-116483833D01*
X152213095Y-116477785D02*
X152261476Y-116477785D01*
X152231238Y-116435452D02*
X152231238Y-116544309D01*
X152237285Y-116556404D01*
X152249380Y-116562452D01*
X152261476Y-116562452D01*
X152303809Y-116562452D02*
X152303809Y-116435452D01*
X152352190Y-116435452D01*
X152364285Y-116441500D01*
X152370333Y-116447547D01*
X152376380Y-116459642D01*
X152376380Y-116477785D01*
X152370333Y-116489880D01*
X152364285Y-116495928D01*
X152352190Y-116501976D01*
X152303809Y-116501976D01*
X152448952Y-116562452D02*
X152436857Y-116556404D01*
X152430809Y-116550357D01*
X152424761Y-116538261D01*
X152424761Y-116501976D01*
X152430809Y-116489880D01*
X152436857Y-116483833D01*
X152448952Y-116477785D01*
X152467095Y-116477785D01*
X152479190Y-116483833D01*
X152485238Y-116489880D01*
X152491285Y-116501976D01*
X152491285Y-116538261D01*
X152485238Y-116550357D01*
X152479190Y-116556404D01*
X152467095Y-116562452D01*
X152448952Y-116562452D01*
X152545714Y-116562452D02*
X152545714Y-116477785D01*
X152545714Y-116435452D02*
X152539666Y-116441500D01*
X152545714Y-116447547D01*
X152551761Y-116441500D01*
X152545714Y-116435452D01*
X152545714Y-116447547D01*
X152606190Y-116477785D02*
X152606190Y-116562452D01*
X152606190Y-116489880D02*
X152612238Y-116483833D01*
X152624333Y-116477785D01*
X152642476Y-116477785D01*
X152654571Y-116483833D01*
X152660619Y-116495928D01*
X152660619Y-116562452D01*
X152702952Y-116477785D02*
X152751333Y-116477785D01*
X152721095Y-116435452D02*
X152721095Y-116544309D01*
X152727142Y-116556404D01*
X152739238Y-116562452D01*
X152751333Y-116562452D01*
X148677738Y-116185452D02*
X148750309Y-116185452D01*
X148714023Y-116312452D02*
X148714023Y-116185452D01*
X148792642Y-116312452D02*
X148792642Y-116185452D01*
X148841023Y-116185452D01*
X148853119Y-116191500D01*
X148859166Y-116197547D01*
X148865214Y-116209642D01*
X148865214Y-116227785D01*
X148859166Y-116239880D01*
X148853119Y-116245928D01*
X148841023Y-116251976D01*
X148792642Y-116251976D01*
X148974071Y-116227785D02*
X148974071Y-116312452D01*
X148943833Y-116179404D02*
X148913595Y-116270119D01*
X148992214Y-116270119D01*
X148414666Y-116485452D02*
X148487238Y-116485452D01*
X148450952Y-116612452D02*
X148450952Y-116485452D01*
X148577952Y-116606404D02*
X148565857Y-116612452D01*
X148541666Y-116612452D01*
X148529571Y-116606404D01*
X148523523Y-116594309D01*
X148523523Y-116545928D01*
X148529571Y-116533833D01*
X148541666Y-116527785D01*
X148565857Y-116527785D01*
X148577952Y-116533833D01*
X148584000Y-116545928D01*
X148584000Y-116558023D01*
X148523523Y-116570119D01*
X148632380Y-116606404D02*
X148644476Y-116612452D01*
X148668666Y-116612452D01*
X148680761Y-116606404D01*
X148686809Y-116594309D01*
X148686809Y-116588261D01*
X148680761Y-116576166D01*
X148668666Y-116570119D01*
X148650523Y-116570119D01*
X148638428Y-116564071D01*
X148632380Y-116551976D01*
X148632380Y-116545928D01*
X148638428Y-116533833D01*
X148650523Y-116527785D01*
X148668666Y-116527785D01*
X148680761Y-116533833D01*
X148723095Y-116527785D02*
X148771476Y-116527785D01*
X148741238Y-116485452D02*
X148741238Y-116594309D01*
X148747285Y-116606404D01*
X148759380Y-116612452D01*
X148771476Y-116612452D01*
X148813809Y-116612452D02*
X148813809Y-116485452D01*
X148862190Y-116485452D01*
X148874285Y-116491500D01*
X148880333Y-116497547D01*
X148886380Y-116509642D01*
X148886380Y-116527785D01*
X148880333Y-116539880D01*
X148874285Y-116545928D01*
X148862190Y-116551976D01*
X148813809Y-116551976D01*
X148958952Y-116612452D02*
X148946857Y-116606404D01*
X148940809Y-116600357D01*
X148934761Y-116588261D01*
X148934761Y-116551976D01*
X148940809Y-116539880D01*
X148946857Y-116533833D01*
X148958952Y-116527785D01*
X148977095Y-116527785D01*
X148989190Y-116533833D01*
X148995238Y-116539880D01*
X149001285Y-116551976D01*
X149001285Y-116588261D01*
X148995238Y-116600357D01*
X148989190Y-116606404D01*
X148977095Y-116612452D01*
X148958952Y-116612452D01*
X149055714Y-116612452D02*
X149055714Y-116527785D01*
X149055714Y-116485452D02*
X149049666Y-116491500D01*
X149055714Y-116497547D01*
X149061761Y-116491500D01*
X149055714Y-116485452D01*
X149055714Y-116497547D01*
X149116190Y-116527785D02*
X149116190Y-116612452D01*
X149116190Y-116539880D02*
X149122238Y-116533833D01*
X149134333Y-116527785D01*
X149152476Y-116527785D01*
X149164571Y-116533833D01*
X149170619Y-116545928D01*
X149170619Y-116612452D01*
X149212952Y-116527785D02*
X149261333Y-116527785D01*
X149231095Y-116485452D02*
X149231095Y-116594309D01*
X149237142Y-116606404D01*
X149249238Y-116612452D01*
X149261333Y-116612452D01*
X163657738Y-93595452D02*
X163730309Y-93595452D01*
X163694023Y-93722452D02*
X163694023Y-93595452D01*
X163772642Y-93722452D02*
X163772642Y-93595452D01*
X163821023Y-93595452D01*
X163833119Y-93601500D01*
X163839166Y-93607547D01*
X163845214Y-93619642D01*
X163845214Y-93637785D01*
X163839166Y-93649880D01*
X163833119Y-93655928D01*
X163821023Y-93661976D01*
X163772642Y-93661976D01*
X163960119Y-93595452D02*
X163899642Y-93595452D01*
X163893595Y-93655928D01*
X163899642Y-93649880D01*
X163911738Y-93643833D01*
X163941976Y-93643833D01*
X163954071Y-93649880D01*
X163960119Y-93655928D01*
X163966166Y-93668023D01*
X163966166Y-93698261D01*
X163960119Y-93710357D01*
X163954071Y-93716404D01*
X163941976Y-93722452D01*
X163911738Y-93722452D01*
X163899642Y-93716404D01*
X163893595Y-93710357D01*
X163394666Y-93895452D02*
X163467238Y-93895452D01*
X163430952Y-94022452D02*
X163430952Y-93895452D01*
X163557952Y-94016404D02*
X163545857Y-94022452D01*
X163521666Y-94022452D01*
X163509571Y-94016404D01*
X163503523Y-94004309D01*
X163503523Y-93955928D01*
X163509571Y-93943833D01*
X163521666Y-93937785D01*
X163545857Y-93937785D01*
X163557952Y-93943833D01*
X163564000Y-93955928D01*
X163564000Y-93968023D01*
X163503523Y-93980119D01*
X163612380Y-94016404D02*
X163624476Y-94022452D01*
X163648666Y-94022452D01*
X163660761Y-94016404D01*
X163666809Y-94004309D01*
X163666809Y-93998261D01*
X163660761Y-93986166D01*
X163648666Y-93980119D01*
X163630523Y-93980119D01*
X163618428Y-93974071D01*
X163612380Y-93961976D01*
X163612380Y-93955928D01*
X163618428Y-93943833D01*
X163630523Y-93937785D01*
X163648666Y-93937785D01*
X163660761Y-93943833D01*
X163703095Y-93937785D02*
X163751476Y-93937785D01*
X163721238Y-93895452D02*
X163721238Y-94004309D01*
X163727285Y-94016404D01*
X163739380Y-94022452D01*
X163751476Y-94022452D01*
X163793809Y-94022452D02*
X163793809Y-93895452D01*
X163842190Y-93895452D01*
X163854285Y-93901500D01*
X163860333Y-93907547D01*
X163866380Y-93919642D01*
X163866380Y-93937785D01*
X163860333Y-93949880D01*
X163854285Y-93955928D01*
X163842190Y-93961976D01*
X163793809Y-93961976D01*
X163938952Y-94022452D02*
X163926857Y-94016404D01*
X163920809Y-94010357D01*
X163914761Y-93998261D01*
X163914761Y-93961976D01*
X163920809Y-93949880D01*
X163926857Y-93943833D01*
X163938952Y-93937785D01*
X163957095Y-93937785D01*
X163969190Y-93943833D01*
X163975238Y-93949880D01*
X163981285Y-93961976D01*
X163981285Y-93998261D01*
X163975238Y-94010357D01*
X163969190Y-94016404D01*
X163957095Y-94022452D01*
X163938952Y-94022452D01*
X164035714Y-94022452D02*
X164035714Y-93937785D01*
X164035714Y-93895452D02*
X164029666Y-93901500D01*
X164035714Y-93907547D01*
X164041761Y-93901500D01*
X164035714Y-93895452D01*
X164035714Y-93907547D01*
X164096190Y-93937785D02*
X164096190Y-94022452D01*
X164096190Y-93949880D02*
X164102238Y-93943833D01*
X164114333Y-93937785D01*
X164132476Y-93937785D01*
X164144571Y-93943833D01*
X164150619Y-93955928D01*
X164150619Y-94022452D01*
X164192952Y-93937785D02*
X164241333Y-93937785D01*
X164211095Y-93895452D02*
X164211095Y-94004309D01*
X164217142Y-94016404D01*
X164229238Y-94022452D01*
X164241333Y-94022452D01*
M02*
