M48
; DRILL file {KiCad (5.1.2)-1} date 2021/07/03 10:16:47
; FORMAT={-:-/ absolute / metric / decimal}
; #@! TF.CreationDate,2021-07-03T10:16:47+09:00
; #@! TF.GenerationSoftware,Kicad,Pcbnew,(5.1.2)-1
FMAT,2
METRIC
T1C0.300
T2C1.016
T3C3.000
%
G90
G05
T1
X122.798Y-89.665
X125.698Y-98.065
X125.698Y-120.265
X126.327Y-100.394
X126.898Y-109.565
X127.069Y-101.136
X128.127Y-103.194
X128.869Y-103.936
X130.166Y-112.01
X130.998Y-83.365
X131.398Y-106.665
X132.798Y-95.565
X133.703Y-103.615
X133.703Y-106.265
X133.728Y-100.752
X134.298Y-120.265
X134.598Y-108.865
X135.548Y-96.768
X135.598Y-99.465
X135.798Y-103.265
X135.835Y-94.545
X139.498Y-98.465
X139.704Y-84.166
X139.707Y-86.005
X140.44Y-93.034
X140.548Y-94.415
X140.948Y-97.065
X141.298Y-102.265
X142.038Y-99.425
X142.598Y-103.765
X143.128Y-84.166
X143.168Y-109.025
X144.348Y-112.025
X144.372Y-96.459
X144.998Y-82.565
X145.227Y-80.603
X145.392Y-109.378
X145.393Y-101.859
X145.849Y-108.031
X145.958Y-99.665
X146.454Y-98.107
X146.478Y-110.325
X146.718Y-101.395
X146.737Y-102.895
X146.97Y-106.108
X147.118Y-96.235
X147.348Y-99.659
X147.728Y-103.995
X147.912Y-111.71
X147.998Y-91.365
X148.378Y-113.325
X148.818Y-102.182
X148.838Y-116.555
X148.948Y-106.025
X149.008Y-100.822
X149.203Y-79.991
X149.248Y-88.533
X150.308Y-100.815
X150.868Y-94.445
X151.094Y-112.507
X151.44Y-106.053
X151.874Y-105.174
X152.008Y-104.155
X152.039Y-108.974
X152.188Y-111.095
X152.328Y-116.505
X152.798Y-82.465
X152.998Y-114.465
X153.128Y-94.425
X153.458Y-99.091
X153.579Y-110.105
X153.994Y-86.151
X154.678Y-99.155
X154.698Y-76.665
X154.768Y-103.845
X156.544Y-108.961
X156.688Y-119.935
X156.766Y-103.085
X157.114Y-107.227
X157.438Y-100.825
X157.45Y-88.425
X158.108Y-105.085
X158.202Y-83.123
X158.478Y-87.355
X158.608Y-118.145
X159.332Y-91.056
X159.335Y-85.186
X160.032Y-81.878
X160.228Y-119.975
X160.418Y-99.749
X160.428Y-97.225
X160.808Y-111.865
X160.858Y-112.905
X161.346Y-108.583
X161.398Y-105.305
X161.568Y-102.815
X161.788Y-111.055
X162.363Y-88.785
X162.454Y-108.535
X162.628Y-102.355
X162.795Y-84.148
X163.776Y-87.444
X163.818Y-93.965
X164.605Y-108.315
X164.772Y-85.704
X165.118Y-111.005
X165.141Y-84.654
X166.098Y-118.365
X166.648Y-97.745
X166.708Y-102.435
X166.758Y-112.785
X166.858Y-108.255
X166.998Y-79.565
X167.308Y-106.385
X167.467Y-99.839
X168.177Y-84.59
X168.496Y-111.815
X168.528Y-112.825
X169.021Y-110.076
X169.494Y-104.346
X169.838Y-108.145
X170.934Y-96.294
X171.148Y-108.155
X171.308Y-98.674
X174.998Y-94.365
X174.998Y-115.965
T2
X161.798Y-123.825
X164.338Y-123.825
X166.878Y-123.825
X169.418Y-123.825
X171.958Y-123.825
X174.498Y-123.825
X138.938Y-123.825
X141.478Y-123.825
X144.018Y-123.825
X146.558Y-123.825
X149.098Y-123.825
X151.638Y-123.825
X154.178Y-123.825
X156.718Y-123.825
X156.718Y-75.565
X159.258Y-75.565
X161.798Y-75.565
X164.338Y-75.565
X166.878Y-75.565
X169.418Y-75.565
X171.958Y-75.565
X174.498Y-75.565
X170.228Y-78.955
X170.228Y-81.495
X170.228Y-84.035
X170.228Y-86.575
X172.768Y-78.955
X172.768Y-81.495
X172.768Y-84.035
X172.768Y-86.575
X129.794Y-75.565
X132.334Y-75.565
X134.874Y-75.565
X137.414Y-75.565
X139.954Y-75.565
X142.494Y-75.565
X145.034Y-75.565
X147.574Y-75.565
X150.114Y-75.565
X152.654Y-75.565
T3
X177.038Y-90.805
X126.238Y-75.565
X124.968Y-123.825
X177.038Y-118.745
T0
M30
