G04 #@! TF.GenerationSoftware,KiCad,Pcbnew,(5.1.2)-1*
G04 #@! TF.CreationDate,2021-07-03T10:16:44+09:00*
G04 #@! TF.ProjectId,hdmi,68646d69-2e6b-4696-9361-645f70636258,v1.5*
G04 #@! TF.SameCoordinates,Original*
G04 #@! TF.FileFunction,Paste,Top*
G04 #@! TF.FilePolarity,Positive*
%FSLAX46Y46*%
G04 Gerber Fmt 4.6, Leading zero omitted, Abs format (unit mm)*
G04 Created by KiCad (PCBNEW (5.1.2)-1) date 2021-07-03 10:16:44*
%MOMM*%
%LPD*%
G04 APERTURE LIST*
%ADD10R,0.599440X2.199640*%
%ADD11R,0.250000X1.000000*%
%ADD12R,1.000000X0.250000*%
%ADD13R,0.300000X0.850000*%
%ADD14R,0.850000X0.300000*%
%ADD15R,1.102500X1.102500*%
%ADD16R,1.079500X1.049020*%
%ADD17R,1.049020X1.079500*%
%ADD18R,1.297940X1.597660*%
%ADD19R,3.000000X0.600000*%
%ADD20R,2.000000X0.600000*%
%ADD21R,1.400000X1.200000*%
%ADD22R,1.549200X0.249200*%
%ADD23R,1.597660X1.297940*%
%ADD24R,1.198880X1.099820*%
%ADD25R,1.399540X0.998220*%
%ADD26R,1.899920X1.399540*%
%ADD27R,2.799080X1.099820*%
%ADD28R,0.797560X1.099820*%
%ADD29R,1.399540X0.647700*%
%ADD30C,1.500000*%
G04 APERTURE END LIST*
D10*
X169850460Y-114634040D03*
X168580460Y-114634040D03*
X167315540Y-114634040D03*
X166045540Y-114634040D03*
X166045540Y-120135960D03*
X167315540Y-120135960D03*
X168580460Y-120135960D03*
X169850460Y-120135960D03*
D11*
X142048000Y-95665000D03*
X141548000Y-95665000D03*
X141048000Y-95665000D03*
X140548000Y-95665000D03*
X140048000Y-95665000D03*
X139548000Y-95665000D03*
X139048000Y-95665000D03*
X138548000Y-95665000D03*
X138048000Y-95665000D03*
X137548000Y-95665000D03*
X137048000Y-95665000D03*
X136548000Y-95665000D03*
X136048000Y-95665000D03*
X135548000Y-95665000D03*
X135048000Y-95665000D03*
X134548000Y-95665000D03*
D12*
X132598000Y-97615000D03*
X132598000Y-98115000D03*
X132598000Y-98615000D03*
X132598000Y-99115000D03*
X132598000Y-99615000D03*
X132598000Y-100115000D03*
X132598000Y-100615000D03*
X132598000Y-101115000D03*
X132598000Y-101615000D03*
X132598000Y-102115000D03*
X132598000Y-102615000D03*
X132598000Y-103115000D03*
X132598000Y-103615000D03*
X132598000Y-104115000D03*
X132598000Y-104615000D03*
X132598000Y-105115000D03*
D11*
X134548000Y-107065000D03*
X135048000Y-107065000D03*
X135548000Y-107065000D03*
X136048000Y-107065000D03*
X136548000Y-107065000D03*
X137048000Y-107065000D03*
X137548000Y-107065000D03*
X138048000Y-107065000D03*
X138548000Y-107065000D03*
X139048000Y-107065000D03*
X139548000Y-107065000D03*
X140048000Y-107065000D03*
X140548000Y-107065000D03*
X141048000Y-107065000D03*
X141548000Y-107065000D03*
X142048000Y-107065000D03*
D12*
X143998000Y-105115000D03*
X143998000Y-104615000D03*
X143998000Y-104115000D03*
X143998000Y-103615000D03*
X143998000Y-103115000D03*
X143998000Y-102615000D03*
X143998000Y-102115000D03*
X143998000Y-101615000D03*
X143998000Y-101115000D03*
X143998000Y-100615000D03*
X143998000Y-100115000D03*
X143998000Y-99615000D03*
X143998000Y-99115000D03*
X143998000Y-98615000D03*
X143998000Y-98115000D03*
X143998000Y-97615000D03*
D13*
X160244000Y-109778000D03*
X160744000Y-109778000D03*
X161244000Y-109778000D03*
X161744000Y-109778000D03*
X162244000Y-109778000D03*
X162744000Y-109778000D03*
X163244000Y-109778000D03*
X163744000Y-109778000D03*
X164244000Y-109778000D03*
X164744000Y-109778000D03*
X165244000Y-109778000D03*
X165744000Y-109778000D03*
X166244000Y-109778000D03*
X166744000Y-109778000D03*
X167244000Y-109778000D03*
X167744000Y-109778000D03*
D14*
X168444000Y-109078000D03*
X168444000Y-108578000D03*
X168444000Y-108078000D03*
X168444000Y-107578000D03*
X168444000Y-107078000D03*
X168444000Y-106578000D03*
X168444000Y-106078000D03*
X168444000Y-105578000D03*
X168444000Y-105078000D03*
X168444000Y-104578000D03*
X168444000Y-104078000D03*
X168444000Y-103578000D03*
X168444000Y-103078000D03*
X168444000Y-102578000D03*
X168444000Y-102078000D03*
X168444000Y-101578000D03*
D13*
X167744000Y-100878000D03*
X167244000Y-100878000D03*
X166744000Y-100878000D03*
X166244000Y-100878000D03*
X165744000Y-100878000D03*
X165244000Y-100878000D03*
X164744000Y-100878000D03*
X164244000Y-100878000D03*
X163744000Y-100878000D03*
X163244000Y-100878000D03*
X162744000Y-100878000D03*
X162244000Y-100878000D03*
X161744000Y-100878000D03*
X161244000Y-100878000D03*
X160744000Y-100878000D03*
X160244000Y-100878000D03*
D14*
X159544000Y-101578000D03*
X159544000Y-102078000D03*
X159544000Y-102578000D03*
X159544000Y-103078000D03*
X159544000Y-103578000D03*
X159544000Y-104078000D03*
X159544000Y-104578000D03*
X159544000Y-105078000D03*
X159544000Y-105578000D03*
X159544000Y-106078000D03*
X159544000Y-106578000D03*
X159544000Y-107078000D03*
X159544000Y-107578000D03*
X159544000Y-108078000D03*
X159544000Y-108578000D03*
X159544000Y-109078000D03*
D15*
X164912750Y-104409250D03*
X163075250Y-104409250D03*
X164912750Y-106246750D03*
X163075250Y-106246750D03*
D16*
X171850000Y-118928240D03*
X171850000Y-120675760D03*
D17*
X173752240Y-102111000D03*
X175499760Y-102111000D03*
X173752240Y-98111200D03*
X175499760Y-98111200D03*
D16*
X171598000Y-111612760D03*
X171598000Y-109865240D03*
D18*
X173629780Y-100111000D03*
X175626220Y-100111000D03*
D17*
X163018000Y-113045000D03*
X164765520Y-113045000D03*
D16*
X159498000Y-114862760D03*
X159498000Y-113115240D03*
X157513000Y-113115240D03*
X157513000Y-114862760D03*
D17*
X142224240Y-92365000D03*
X143971760Y-92365000D03*
X130671760Y-94215000D03*
X128924240Y-94215000D03*
X131350240Y-108865000D03*
X133097760Y-108865000D03*
X128950240Y-96115000D03*
X130697760Y-96115000D03*
D18*
X153998220Y-120365000D03*
X152001780Y-120365000D03*
X142096220Y-120415000D03*
X140099780Y-120415000D03*
D17*
X173752240Y-104111000D03*
X175499760Y-104111000D03*
X173752240Y-109811000D03*
X175499760Y-109811000D03*
X129124240Y-123365000D03*
X130871760Y-123365000D03*
D19*
X123498000Y-96665000D03*
X123498000Y-111065000D03*
D20*
X122998000Y-99365000D03*
X122998000Y-100365000D03*
X122998000Y-101365000D03*
X122998000Y-102365000D03*
X122998000Y-103365000D03*
X122998000Y-104365000D03*
X122998000Y-105365000D03*
X122998000Y-106365000D03*
X122998000Y-107365000D03*
X122998000Y-108365000D03*
D18*
X149987220Y-120365000D03*
X147990780Y-120365000D03*
X145987220Y-120365000D03*
X143990780Y-120365000D03*
D16*
X171850000Y-114865240D03*
X171850000Y-116612760D03*
X164250000Y-117112760D03*
X164250000Y-115365240D03*
X164238000Y-120738760D03*
X164238000Y-118991240D03*
D17*
X175460760Y-111547000D03*
X173713240Y-111547000D03*
X134871760Y-123365000D03*
X133124240Y-123365000D03*
X168245760Y-96165000D03*
X166498240Y-96165000D03*
X166524240Y-94265000D03*
X168271760Y-94265000D03*
X125400240Y-94215000D03*
X127147760Y-94215000D03*
X142224240Y-90515000D03*
X143971760Y-90515000D03*
X142224240Y-88715000D03*
X143971760Y-88715000D03*
X150871760Y-85115000D03*
X149124240Y-85115000D03*
X142224240Y-86965000D03*
X143971760Y-86965000D03*
X131324240Y-110765000D03*
X133071760Y-110765000D03*
X149124240Y-87015000D03*
X150871760Y-87015000D03*
D21*
X175334000Y-105991000D03*
X172934000Y-107891000D03*
X172934000Y-105991000D03*
X175334000Y-107891000D03*
D17*
X162371760Y-89965000D03*
X160624240Y-89965000D03*
X131324240Y-112665000D03*
X133071760Y-112665000D03*
D22*
X160948000Y-82640000D03*
X160948000Y-83290000D03*
X166548000Y-85240000D03*
X166548000Y-85890000D03*
X166548000Y-86540000D03*
X166548000Y-87190000D03*
X166548000Y-87840000D03*
X166548000Y-88490000D03*
X166548000Y-84590000D03*
X166548000Y-83940000D03*
X166548000Y-83290000D03*
X166548000Y-82640000D03*
X160948000Y-83940000D03*
X160948000Y-84590000D03*
X160948000Y-85240000D03*
X160948000Y-85890000D03*
X160948000Y-86540000D03*
X160948000Y-87190000D03*
X160948000Y-88490000D03*
X160948000Y-87840000D03*
D23*
X141448000Y-84063220D03*
X141448000Y-82066780D03*
D24*
X133697240Y-78816880D03*
D25*
X138396240Y-90114800D03*
D26*
X122947960Y-92614160D03*
D27*
X123471200Y-78816880D03*
D28*
X127497100Y-78816880D03*
D29*
X138396240Y-79916700D03*
X138396240Y-80866660D03*
X138396240Y-81966480D03*
X138396240Y-83066300D03*
X138396240Y-84166120D03*
X138396240Y-85265940D03*
X138396240Y-86363220D03*
X138396240Y-87463040D03*
X138396240Y-88562860D03*
D17*
X149124240Y-83265000D03*
X150871760Y-83265000D03*
X150871760Y-81415000D03*
X149124240Y-81415000D03*
X156971760Y-85115000D03*
X155224240Y-85115000D03*
X156971760Y-87015000D03*
X155224240Y-87015000D03*
X155224240Y-81515000D03*
X156971760Y-81515000D03*
X162421760Y-91815000D03*
X160674240Y-91815000D03*
X155224240Y-83315000D03*
X156971760Y-83315000D03*
D30*
X160228000Y-119975000D03*
X156688000Y-119935000D03*
X152328000Y-116505000D03*
X148838000Y-116555000D03*
X163818000Y-93965000D03*
M02*
